<?xml version="1.0" standalone="no"?>
 <!DOCTYPE svg PUBLIC "-//W3C//DTD SVG 1.1//EN" 
 "http://www.w3.org/Graphics/SVG/1.1/DTD/svg11.dtd"> 
<svg xmlns="http://www.w3.org/2000/svg" version="1.1" 
    width="29.7002cm" height="21.0007cm" viewBox="0 0 116930 82680 ">
<title>SVG Picture created as ISL03A-PTH-drl_map.svg date 2016/12/31 13:19:55 </title>
  <desc>Picture generated by PCBNEW </desc>
<g style="fill:#000000; fill-opacity:1;stroke:#000000; stroke-opacity:1;
stroke-linecap:round; stroke-linejoin:round; "
 transform="translate(0 0) scale(1 1)">
</g>
<g style="fill:#000000; fill-opacity:0.0; 
stroke:#000000; stroke-width:-0.000393701; stroke-opacity:1; 
stroke-linecap:round; stroke-linejoin:round;">
</g>
<g style="fill:#000000; fill-opacity:0.0; 
stroke:#000000; stroke-width:59.0551; stroke-opacity:1; 
stroke-linecap:round; stroke-linejoin:round;">
<path d="M100 -100
L100 -3900
" />
<path d="M15900 -100
L15900 -3900
" />
<path d="M100 -100
L15900 -100
" />
<path d="M100 -3900
L15900 -3900
" />
</g>
<g style="fill:#000000; fill-opacity:0.0; 
stroke:#000000; stroke-width:78.7402; stroke-opacity:1; 
stroke-linecap:round; stroke-linejoin:round;">
<path d="M7448 -740
L7606 -582
" />
<path d="M7606 -740
L7448 -582
" />
<path d="M7821 -1678
L7978 -1521
" />
<path d="M7978 -1678
L7821 -1521
" />
<path d="M7846 -1228
L8003 -1071
" />
<path d="M8003 -1228
L7846 -1071
" />
<path d="M8271 -1678
L8428 -1521
" />
<path d="M8428 -1678
L8271 -1521
" />
<path d="M8271 -1228
L8428 -1071
" />
<path d="M8428 -1228
L8271 -1071
" />
<path d="M10981 -3098
L11138 -2941
" />
<path d="M11138 -3098
L10981 -2941
" />
<path d="M11471 -1128
L11628 -971
" />
<path d="M11628 -1128
L11471 -971
" />
<path d="M12371 -2128
L12528 -1971
" />
<path d="M12528 -2128
L12371 -1971
" />
<path d="M13315 -2128
L13473 -1971
" />
<path d="M13473 -2128
L13315 -1971
" />
<path d="M13321 -3028
L13478 -2871
" />
<path d="M13478 -3028
L13321 -2871
" />
<path d="M13346 -3603
L13503 -3446
" />
<path d="M13503 -3603
L13346 -3446
" />
<path d="M13346 -1378
L13503 -1221
" />
<path d="M13503 -1378
L13346 -1221
" />
<path d="M14671 -1478
L14828 -1321
" />
<path d="M14828 -1478
L14671 -1321
" />
<path d="M15146 -903
L15303 -746
" />
<path d="M15303 -903
L15146 -746
" />
<path d="M15396 -603
L15553 -446
" />
<path d="M15553 -603
L15396 -446
" />
<circle cx="4000" cy="-3300" r="175" /> 
<circle cx="4000" cy="-2300" r="175" /> 
<circle cx="5000" cy="-3300" r="175" /> 
<circle cx="5000" cy="-2300" r="175" /> 
<circle cx="6000" cy="-3300" r="175" /> 
<circle cx="6000" cy="-2300" r="175" /> 
<circle cx="7000" cy="-3300" r="175" /> 
<circle cx="7000" cy="-2300" r="175" /> 
<circle cx="8000" cy="-3300" r="175" /> 
<circle cx="8000" cy="-2300" r="175" /> 
<circle cx="15300" cy="-3300" r="175" /> 
<path d="M2000 -2590
L2000 -1409
" />
<path d="M1409 -2000
L2590 -2000
" />
<path d="M10000 -2590
L10000 -1409
" />
<path d="M9409 -2000
L10590 -2000
" />
</g>
<g style="fill:#000000; fill-opacity:0.0; 
stroke:#000000; stroke-width:118.11; stroke-opacity:1; 
stroke-linecap:round; stroke-linejoin:round;">
<path d="M1198 1763
L1198 581
L1479 581
L1648 638
L1760 750
L1816 863
L1873 1088
L1873 1256
L1816 1481
L1760 1594
L1648 1706
L1479 1763
L1198 1763
" />
<path d="M2379 1763
L2379 975
" />
<path d="M2379 1200
L2435 1088
L2491 1031
L2604 975
L2716 975
" />
<path d="M3110 1763
L3110 975
" />
<path d="M3110 581
L3054 638
L3110 694
L3166 638
L3110 581
L3110 694
" />
<path d="M3841 1763
L3729 1706
L3672 1594
L3672 581
" />
<path d="M4460 1763
L4347 1706
L4291 1594
L4291 581
" />
<path d="M5810 1763
L5810 581
L6203 1425
L6597 581
L6597 1763
" />
<path d="M7666 1763
L7666 1144
L7609 1031
L7497 975
L7272 975
L7159 1031
" />
<path d="M7666 1706
L7553 1763
L7272 1763
L7159 1706
L7103 1594
L7103 1481
L7159 1369
L7272 1313
L7553 1313
L7666 1256
" />
<path d="M8228 975
L8228 2156
" />
<path d="M8228 1031
L8341 975
L8565 975
L8678 1031
L8734 1088
L8790 1200
L8790 1538
L8734 1650
L8678 1706
L8565 1763
L8341 1763
L8228 1706
" />
<path d="M9297 1650
L9353 1706
L9297 1763
L9240 1706
L9297 1650
L9297 1763
" />
<path d="M9297 1031
L9353 1088
L9297 1144
L9240 1088
L9297 1031
L9297 1144
" />
<path d="M-87 3630
L70 3787
" />
<path d="M70 3630
L-87 3787
" />
<path d="M1423 3062
L1535 3062
L1648 3118
L1704 3174
L1760 3287
L1816 3512
L1816 3793
L1760 4018
L1704 4130
L1648 4187
L1535 4243
L1423 4243
L1310 4187
L1254 4130
L1198 4018
L1141 3793
L1141 3512
L1198 3287
L1254 3174
L1310 3118
L1423 3062
" />
<path d="M2323 4130
L2379 4187
L2323 4243
L2266 4187
L2323 4130
L2323 4243
" />
<path d="M3391 3455
L3391 4243
" />
<path d="M3110 3006
L2829 3849
L3560 3849
" />
<path d="M4235 3062
L4347 3062
L4460 3118
L4516 3174
L4572 3287
L4628 3512
L4628 3793
L4572 4018
L4516 4130
L4460 4187
L4347 4243
L4235 4243
L4122 4187
L4066 4130
L4010 4018
L3954 3793
L3954 3512
L4010 3287
L4066 3174
L4122 3118
L4235 3062
" />
<path d="M5135 4243
L5135 3455
" />
<path d="M5135 3568
L5191 3512
L5303 3455
L5472 3455
L5585 3512
L5641 3624
L5641 4243
" />
<path d="M5641 3624
L5697 3512
L5810 3455
L5978 3455
L6091 3512
L6147 3624
L6147 4243
" />
<path d="M6709 4243
L6709 3455
" />
<path d="M6709 3568
L6766 3512
L6878 3455
L7047 3455
L7159 3512
L7216 3624
L7216 4243
" />
<path d="M7216 3624
L7272 3512
L7384 3455
L7553 3455
L7666 3512
L7722 3624
L7722 4243
" />
<path d="M10028 3006
L9015 4524
" />
<path d="M11546 3062
L11659 3062
L11771 3118
L11828 3174
L11884 3287
L11940 3512
L11940 3793
L11884 4018
L11828 4130
L11771 4187
L11659 4243
L11546 4243
L11434 4187
L11378 4130
L11321 4018
L11265 3793
L11265 3512
L11321 3287
L11378 3174
L11434 3118
L11546 3062
" />
<path d="M12446 4130
L12502 4187
L12446 4243
L12390 4187
L12446 4130
L12446 4243
" />
<path d="M13234 3062
L13346 3062
L13459 3118
L13515 3174
L13571 3287
L13627 3512
L13627 3793
L13571 4018
L13515 4130
L13459 4187
L13346 4243
L13234 4243
L13121 4187
L13065 4130
L13009 4018
L12952 3793
L12952 3512
L13009 3287
L13065 3174
L13121 3118
L13234 3062
" />
<path d="M14752 4243
L14077 4243
" />
<path d="M14415 4243
L14415 3062
L14302 3230
L14190 3343
L14077 3399
" />
<path d="M15765 3062
L15540 3062
L15427 3118
L15371 3174
L15258 3343
L15202 3568
L15202 4018
L15258 4130
L15315 4187
L15427 4243
L15652 4243
L15765 4187
L15821 4130
L15877 4018
L15877 3737
L15821 3624
L15765 3568
L15652 3512
L15427 3512
L15315 3568
L15258 3624
L15202 3737
" />
<path d="M16327 3062
L16327 3287
" />
<path d="M16777 3062
L16777 3287
" />
<path d="M18520 4693
L18464 4637
L18352 4468
L18296 4355
L18239 4187
L18183 3905
L18183 3680
L18239 3399
L18296 3230
L18352 3118
L18464 2949
L18520 2893
" />
<path d="M19589 4243
L18914 4243
" />
<path d="M19252 4243
L19252 3062
L19139 3230
L19027 3343
L18914 3399
" />
<path d="M20658 3062
L20095 3062
L20039 3624
L20095 3568
L20208 3512
L20489 3512
L20601 3568
L20658 3624
L20714 3737
L20714 4018
L20658 4130
L20601 4187
L20489 4243
L20208 4243
L20095 4187
L20039 4130
" />
<path d="M22120 4243
L22120 3062
" />
<path d="M22626 4243
L22626 3624
L22570 3512
L22457 3455
L22289 3455
L22176 3512
L22120 3568
" />
<path d="M23357 4243
L23245 4187
L23189 4130
L23132 4018
L23132 3680
L23189 3568
L23245 3512
L23357 3455
L23526 3455
L23639 3512
L23695 3568
L23751 3680
L23751 4018
L23695 4130
L23639 4187
L23526 4243
L23357 4243
" />
<path d="M24426 4243
L24314 4187
L24257 4074
L24257 3062
" />
<path d="M25326 4187
L25213 4243
L24988 4243
L24876 4187
L24820 4074
L24820 3624
L24876 3512
L24988 3455
L25213 3455
L25326 3512
L25382 3624
L25382 3737
L24820 3849
" />
<path d="M25832 4187
L25945 4243
L26170 4243
L26282 4187
L26338 4074
L26338 4018
L26282 3905
L26170 3849
L26001 3849
L25888 3793
L25832 3680
L25832 3624
L25888 3512
L26001 3455
L26170 3455
L26282 3512
" />
<path d="M26732 4693
L26788 4637
L26901 4468
L26957 4355
L27013 4187
L27069 3905
L27069 3680
L27013 3399
L26957 3230
L26901 3118
L26788 2949
L26732 2893
" />
<circle cx="-104.528" cy="5268.11" r="175" /> 
<path d="M1423 4621
L1535 4621
L1648 4677
L1704 4733
L1760 4846
L1816 5071
L1816 5352
L1760 5577
L1704 5689
L1648 5746
L1535 5802
L1423 5802
L1310 5746
L1254 5689
L1198 5577
L1141 5352
L1141 5071
L1198 4846
L1254 4733
L1310 4677
L1423 4621
" />
<path d="M2323 5689
L2379 5746
L2323 5802
L2266 5746
L2323 5689
L2323 5802
" />
<path d="M3054 5127
L2941 5071
L2885 5015
L2829 4902
L2829 4846
L2885 4733
L2941 4677
L3054 4621
L3279 4621
L3391 4677
L3447 4733
L3504 4846
L3504 4902
L3447 5015
L3391 5071
L3279 5127
L3054 5127
L2941 5183
L2885 5239
L2829 5352
L2829 5577
L2885 5689
L2941 5746
L3054 5802
L3279 5802
L3391 5746
L3447 5689
L3504 5577
L3504 5352
L3447 5239
L3391 5183
L3279 5127
" />
<path d="M4066 5802
L4291 5802
L4403 5746
L4460 5689
L4572 5521
L4628 5296
L4628 4846
L4572 4733
L4516 4677
L4403 4621
L4179 4621
L4066 4677
L4010 4733
L3954 4846
L3954 5127
L4010 5239
L4066 5296
L4179 5352
L4403 5352
L4516 5296
L4572 5239
L4628 5127
" />
<path d="M5135 5802
L5135 5015
" />
<path d="M5135 5127
L5191 5071
L5303 5015
L5472 5015
L5585 5071
L5641 5183
L5641 5802
" />
<path d="M5641 5183
L5697 5071
L5810 5015
L5978 5015
L6091 5071
L6147 5183
L6147 5802
" />
<path d="M6709 5802
L6709 5015
" />
<path d="M6709 5127
L6766 5071
L6878 5015
L7047 5015
L7159 5071
L7216 5183
L7216 5802
" />
<path d="M7216 5183
L7272 5071
L7384 5015
L7553 5015
L7666 5071
L7722 5183
L7722 5802
" />
<path d="M10028 4565
L9015 6083
" />
<path d="M11546 4621
L11659 4621
L11771 4677
L11828 4733
L11884 4846
L11940 5071
L11940 5352
L11884 5577
L11828 5689
L11771 5746
L11659 5802
L11546 5802
L11434 5746
L11378 5689
L11321 5577
L11265 5352
L11265 5071
L11321 4846
L11378 4733
L11434 4677
L11546 4621
" />
<path d="M12446 5689
L12502 5746
L12446 5802
L12390 5746
L12446 5689
L12446 5802
" />
<path d="M13234 4621
L13346 4621
L13459 4677
L13515 4733
L13571 4846
L13627 5071
L13627 5352
L13571 5577
L13515 5689
L13459 5746
L13346 5802
L13234 5802
L13121 5746
L13065 5689
L13009 5577
L12952 5352
L12952 5071
L13009 4846
L13065 4733
L13121 4677
L13234 4621
" />
<path d="M14021 4621
L14752 4621
L14358 5071
L14527 5071
L14640 5127
L14696 5183
L14752 5296
L14752 5577
L14696 5689
L14640 5746
L14527 5802
L14190 5802
L14077 5746
L14021 5689
" />
<path d="M15821 4621
L15258 4621
L15202 5183
L15258 5127
L15371 5071
L15652 5071
L15765 5127
L15821 5183
L15877 5296
L15877 5577
L15821 5689
L15765 5746
L15652 5802
L15371 5802
L15258 5746
L15202 5689
" />
<path d="M16327 4621
L16327 4846
" />
<path d="M16777 4621
L16777 4846
" />
<path d="M18520 6252
L18464 6196
L18352 6027
L18296 5914
L18239 5746
L18183 5464
L18183 5239
L18239 4958
L18296 4790
L18352 4677
L18464 4508
L18520 4452
" />
<path d="M19589 5802
L18914 5802
" />
<path d="M19252 5802
L19252 4621
L19139 4790
L19027 4902
L18914 4958
" />
<path d="M20714 5802
L20039 5802
" />
<path d="M20376 5802
L20376 4621
L20264 4790
L20152 4902
L20039 4958
" />
<path d="M22120 5802
L22120 4621
" />
<path d="M22626 5802
L22626 5183
L22570 5071
L22457 5015
L22289 5015
L22176 5071
L22120 5127
" />
<path d="M23357 5802
L23245 5746
L23189 5689
L23132 5577
L23132 5239
L23189 5127
L23245 5071
L23357 5015
L23526 5015
L23639 5071
L23695 5127
L23751 5239
L23751 5577
L23695 5689
L23639 5746
L23526 5802
L23357 5802
" />
<path d="M24426 5802
L24314 5746
L24257 5633
L24257 4621
" />
<path d="M25326 5746
L25213 5802
L24988 5802
L24876 5746
L24820 5633
L24820 5183
L24876 5071
L24988 5015
L25213 5015
L25326 5071
L25382 5183
L25382 5296
L24820 5408
" />
<path d="M25832 5746
L25945 5802
L26170 5802
L26282 5746
L26338 5633
L26338 5577
L26282 5464
L26170 5408
L26001 5408
L25888 5352
L25832 5239
L25832 5183
L25888 5071
L26001 5015
L26170 5015
L26282 5071
" />
<path d="M26732 6252
L26788 6196
L26901 6027
L26957 5914
L27013 5746
L27069 5464
L27069 5239
L27013 4958
L26957 4790
L26901 4677
L26788 4508
L26732 4452
" />
<path d="M-520 6236
L-520 7417
" />
<path d="M-1110 6827
L70 6827
" />
<path d="M1085 6180
L1816 6180
L1423 6630
L1591 6630
L1704 6686
L1760 6742
L1816 6855
L1816 7136
L1760 7248
L1704 7305
L1591 7361
L1254 7361
L1141 7305
L1085 7248
" />
<path d="M2323 7248
L2379 7305
L2323 7361
L2266 7305
L2323 7248
L2323 7361
" />
<path d="M3110 6180
L3222 6180
L3335 6236
L3391 6292
L3447 6405
L3504 6630
L3504 6911
L3447 7136
L3391 7248
L3335 7305
L3222 7361
L3110 7361
L2997 7305
L2941 7248
L2885 7136
L2829 6911
L2829 6630
L2885 6405
L2941 6292
L2997 6236
L3110 6180
" />
<path d="M4235 6180
L4347 6180
L4460 6236
L4516 6292
L4572 6405
L4628 6630
L4628 6911
L4572 7136
L4516 7248
L4460 7305
L4347 7361
L4235 7361
L4122 7305
L4066 7248
L4010 7136
L3954 6911
L3954 6630
L4010 6405
L4066 6292
L4122 6236
L4235 6180
" />
<path d="M5135 7361
L5135 6574
" />
<path d="M5135 6686
L5191 6630
L5303 6574
L5472 6574
L5585 6630
L5641 6742
L5641 7361
" />
<path d="M5641 6742
L5697 6630
L5810 6574
L5978 6574
L6091 6630
L6147 6742
L6147 7361
" />
<path d="M6709 7361
L6709 6574
" />
<path d="M6709 6686
L6766 6630
L6878 6574
L7047 6574
L7159 6630
L7216 6742
L7216 7361
" />
<path d="M7216 6742
L7272 6630
L7384 6574
L7553 6574
L7666 6630
L7722 6742
L7722 7361
" />
<path d="M10028 6124
L9015 7642
" />
<path d="M11546 6180
L11659 6180
L11771 6236
L11828 6292
L11884 6405
L11940 6630
L11940 6911
L11884 7136
L11828 7248
L11771 7305
L11659 7361
L11546 7361
L11434 7305
L11378 7248
L11321 7136
L11265 6911
L11265 6630
L11321 6405
L11378 6292
L11434 6236
L11546 6180
" />
<path d="M12446 7248
L12502 7305
L12446 7361
L12390 7305
L12446 7248
L12446 7361
" />
<path d="M13627 7361
L12952 7361
" />
<path d="M13290 7361
L13290 6180
L13177 6349
L13065 6461
L12952 6517
" />
<path d="M14752 7361
L14077 7361
" />
<path d="M14415 7361
L14415 6180
L14302 6349
L14190 6461
L14077 6517
" />
<path d="M15427 6686
L15315 6630
L15258 6574
L15202 6461
L15202 6405
L15258 6292
L15315 6236
L15427 6180
L15652 6180
L15765 6236
L15821 6292
L15877 6405
L15877 6461
L15821 6574
L15765 6630
L15652 6686
L15427 6686
L15315 6742
L15258 6799
L15202 6911
L15202 7136
L15258 7248
L15315 7305
L15427 7361
L15652 7361
L15765 7305
L15821 7248
L15877 7136
L15877 6911
L15821 6799
L15765 6742
L15652 6686
" />
<path d="M16327 6180
L16327 6405
" />
<path d="M16777 6180
L16777 6405
" />
<path d="M18520 7811
L18464 7755
L18352 7586
L18296 7473
L18239 7305
L18183 7024
L18183 6799
L18239 6517
L18296 6349
L18352 6236
L18464 6067
L18520 6011
" />
<path d="M18914 6292
L18970 6236
L19083 6180
L19364 6180
L19477 6236
L19533 6292
L19589 6405
L19589 6517
L19533 6686
L18858 7361
L19589 7361
" />
<path d="M20995 7361
L20995 6180
" />
<path d="M21501 7361
L21501 6742
L21445 6630
L21333 6574
L21164 6574
L21051 6630
L20995 6686
" />
<path d="M22233 7361
L22120 7305
L22064 7248
L22008 7136
L22008 6799
L22064 6686
L22120 6630
L22233 6574
L22401 6574
L22514 6630
L22570 6686
L22626 6799
L22626 7136
L22570 7248
L22514 7305
L22401 7361
L22233 7361
" />
<path d="M23301 7361
L23189 7305
L23132 7192
L23132 6180
" />
<path d="M24201 7305
L24089 7361
L23864 7361
L23751 7305
L23695 7192
L23695 6742
L23751 6630
L23864 6574
L24089 6574
L24201 6630
L24257 6742
L24257 6855
L23695 6967
" />
<path d="M24707 7305
L24820 7361
L25045 7361
L25157 7305
L25213 7192
L25213 7136
L25157 7024
L25045 6967
L24876 6967
L24763 6911
L24707 6799
L24707 6742
L24763 6630
L24876 6574
L25045 6574
L25157 6630
" />
<path d="M25607 7811
L25663 7755
L25776 7586
L25832 7473
L25888 7305
L25945 7024
L25945 6799
L25888 6517
L25832 6349
L25776 6236
L25663 6067
L25607 6011
" />
</g> 
</svg>
