%TF.GenerationSoftware,KiCad,Pcbnew,no-vcs-found-7409~56~ubuntu16.04.1*%
%TF.CreationDate,2016-12-31T13:53:27+01:00*%
%TF.ProjectId,ISL03A,49534C3033412E6B696361645F706362,rev?*%
%TF.FileFunction,Soldermask,Bot*%
%TF.FilePolarity,Negative*%
%FSLAX46Y46*%
G04 Gerber Fmt 4.6, Leading zero omitted, Abs format (unit mm)*
G04 Created by KiCad (PCBNEW no-vcs-found-7409~56~ubuntu16.04.1) date Sat Dec 31 13:53:27 2016*
%MOMM*%
%LPD*%
G01*
G04 APERTURE LIST*
%ADD10C,0.350000*%
%ADD11C,0.150000*%
%ADD12R,1.129000X1.637000*%
%ADD13C,6.240000*%
%ADD14R,1.637000X1.129000*%
%ADD15R,1.764000X1.764000*%
%ADD16R,1.540480X1.939260*%
%ADD17C,0.540000*%
G04 APERTURE END LIST*
D10*
D11*
X254000Y254000D02*
X254000Y9906000D01*
X40386000Y254000D02*
X40386000Y9906000D01*
X254000Y254000D02*
X40386000Y254000D01*
X254000Y9906000D02*
X40386000Y9906000D01*
D12*
X32829500Y7112000D03*
X30924500Y7112000D03*
X32829500Y5207000D03*
X30924500Y5207000D03*
D13*
X25400000Y5080000D03*
X5080000Y5080000D03*
D12*
X30924500Y3302000D03*
X32829500Y3302000D03*
X30924500Y8953500D03*
X32829500Y8953500D03*
X30924500Y1397000D03*
X32829500Y1397000D03*
X35560000Y1651000D03*
X37465000Y1651000D03*
D14*
X38925500Y3556000D03*
X38925500Y5461000D03*
D15*
X10160000Y5842000D03*
X10160000Y8382000D03*
X12700000Y5842000D03*
X12700000Y8382000D03*
X15240000Y5842000D03*
X15240000Y8382000D03*
X17780000Y5842000D03*
X17780000Y8382000D03*
X20320000Y5842000D03*
X20320000Y8382000D03*
D16*
X11902440Y2794000D03*
X15402560Y2794000D03*
D15*
X38862000Y8382000D03*
D17*
X34973500Y6971000D03*
D10*
G36*
X35243500Y6576000D02*
X34703500Y6576000D01*
X34703500Y7366000D01*
X35243500Y7366000D01*
X35243500Y6576000D01*
X35243500Y6576000D01*
G37*
D17*
X35623500Y6971000D03*
D10*
G36*
X35893500Y6576000D02*
X35353500Y6576000D01*
X35353500Y7366000D01*
X35893500Y7366000D01*
X35893500Y6576000D01*
X35893500Y6576000D01*
G37*
D17*
X36273500Y6971000D03*
D10*
G36*
X36543500Y6576000D02*
X36003500Y6576000D01*
X36003500Y7366000D01*
X36543500Y7366000D01*
X36543500Y6576000D01*
X36543500Y6576000D01*
G37*
D17*
X36273500Y5221000D03*
D10*
G36*
X36543500Y4826000D02*
X36003500Y4826000D01*
X36003500Y5616000D01*
X36543500Y5616000D01*
X36543500Y4826000D01*
X36543500Y4826000D01*
G37*
D17*
X35623500Y5221000D03*
D10*
G36*
X35893500Y4826000D02*
X35353500Y4826000D01*
X35353500Y5616000D01*
X35893500Y5616000D01*
X35893500Y4826000D01*
X35893500Y4826000D01*
G37*
D17*
X34973500Y5221000D03*
D10*
G36*
X35243500Y4826000D02*
X34703500Y4826000D01*
X34703500Y5616000D01*
X35243500Y5616000D01*
X35243500Y4826000D01*
X35243500Y4826000D01*
G37*
M02*
