<?xml version="1.0" standalone="no"?>
 <!DOCTYPE svg PUBLIC "-//W3C//DTD SVG 1.1//EN" 
 "http://www.w3.org/Graphics/SVG/1.1/DTD/svg11.dtd"> 
<svg xmlns="http://www.w3.org/2000/svg" version="1.1" 
    width="29.7002cm" height="21.0007cm" viewBox="0 0 116930 82680 ">
<title>SVG Picture created as ISL03A-NPTH-drl_map.svg date 2016/12/31 13:19:55 </title>
  <desc>Picture generated by PCBNEW </desc>
<g style="fill:#000000; fill-opacity:1;stroke:#000000; stroke-opacity:1;
stroke-linecap:round; stroke-linejoin:round; "
 transform="translate(0 0) scale(1 1)">
</g>
<g style="fill:#000000; fill-opacity:0.0; 
stroke:#000000; stroke-width:-0.000393701; stroke-opacity:1; 
stroke-linecap:round; stroke-linejoin:round;">
</g>
<g style="fill:#000000; fill-opacity:0.0; 
stroke:#000000; stroke-width:59.0551; stroke-opacity:1; 
stroke-linecap:round; stroke-linejoin:round;">
<path d="M100 -100
L100 -3900
" />
<path d="M15900 -100
L15900 -3900
" />
<path d="M100 -100
L15900 -100
" />
<path d="M100 -3900
L15900 -3900
" />
</g>
<g style="fill:#000000; fill-opacity:0.0; 
stroke:#000000; stroke-width:78.7402; stroke-opacity:1; 
stroke-linecap:round; stroke-linejoin:round;">
</g>
<g style="fill:#000000; fill-opacity:0.0; 
stroke:#000000; stroke-width:118.11; stroke-opacity:1; 
stroke-linecap:round; stroke-linejoin:round;">
<path d="M1198 1763
L1198 581
L1479 581
L1648 638
L1760 750
L1816 863
L1873 1088
L1873 1256
L1816 1481
L1760 1594
L1648 1706
L1479 1763
L1198 1763
" />
<path d="M2379 1763
L2379 975
" />
<path d="M2379 1200
L2435 1088
L2491 1031
L2604 975
L2716 975
" />
<path d="M3110 1763
L3110 975
" />
<path d="M3110 581
L3054 638
L3110 694
L3166 638
L3110 581
L3110 694
" />
<path d="M3841 1763
L3729 1706
L3672 1594
L3672 581
" />
<path d="M4460 1763
L4347 1706
L4291 1594
L4291 581
" />
<path d="M5810 1763
L5810 581
L6203 1425
L6597 581
L6597 1763
" />
<path d="M7666 1763
L7666 1144
L7609 1031
L7497 975
L7272 975
L7159 1031
" />
<path d="M7666 1706
L7553 1763
L7272 1763
L7159 1706
L7103 1594
L7103 1481
L7159 1369
L7272 1313
L7553 1313
L7666 1256
" />
<path d="M8228 975
L8228 2156
" />
<path d="M8228 1031
L8341 975
L8565 975
L8678 1031
L8734 1088
L8790 1200
L8790 1538
L8734 1650
L8678 1706
L8565 1763
L8341 1763
L8228 1706
" />
<path d="M9297 1650
L9353 1706
L9297 1763
L9240 1706
L9297 1650
L9297 1763
" />
<path d="M9297 1031
L9353 1088
L9297 1144
L9240 1088
L9297 1031
L9297 1144
" />
</g> 
</svg>
