M48
;DRILL file {KiCad no-vcs-found-7409~56~ubuntu16.04.1} date Sat Dec 31 13:19:55 2016
;FORMAT={-:-/ absolute / metric / decimal}
FMAT,2
METRIC,TZ
T1C0.400
T2C0.889
T3C3.000
%
G90
G05
M71
T1
X19.12Y1.68
X20.066Y4.064
X20.13Y2.921
X21.209Y4.064
X21.209Y2.921
X28.092Y7.671
X29.337Y2.667
X31.623Y5.207
X34.022Y5.207
X34.036Y7.493
X34.099Y8.954
X34.099Y3.302
X37.465Y3.556
X38.672Y2.095
X39.306Y1.333
T2
X10.16Y8.382
X10.16Y5.842
X12.7Y8.382
X12.7Y5.842
X15.24Y8.382
X15.24Y5.842
X17.78Y8.382
X17.78Y5.842
X20.32Y8.382
X20.32Y5.842
X38.862Y8.382
T3
X5.08Y5.08
X25.4Y5.08
T0
M30
