<?xml version="1.0" standalone="no"?>
 <!DOCTYPE svg PUBLIC "-//W3C//DTD SVG 1.1//EN" 
 "http://www.w3.org/Graphics/SVG/1.1/DTD/svg11.dtd"> 
<svg xmlns="http://www.w3.org/2000/svg" version="1.1" 
    width="29.7002cm" height="21.0007cm" viewBox="0 0 116930 82680 ">
<title>SVG Picture created as ISL03A-F_Mask.svg date 2016/12/31 13:53:27 </title>
  <desc>Picture generated by PCBNEW </desc>
<g style="fill:#000000; fill-opacity:1;stroke:#000000; stroke-opacity:1;
stroke-linecap:round; stroke-linejoin:round; "
 transform="translate(0 0) scale(1 1)">
</g>
<g style="fill:#000000; fill-opacity:0.0; 
stroke:#000000; stroke-width:-0.000393701; stroke-opacity:1; 
stroke-linecap:round; stroke-linejoin:round;">
</g>
<g style="fill:#000000; fill-opacity:0.0; 
stroke:#000000; stroke-width:59.0551; stroke-opacity:1; 
stroke-linecap:round; stroke-linejoin:round;">
<path d="M100 -100
L100 -3900
" />
<path d="M15900 -100
L15900 -3900
" />
<path d="M100 -100
L15900 -100
" />
<path d="M100 -3900
L15900 -3900
" />
</g>
<g style="fill:#000000; fill-opacity:1.0; 
stroke:#000000; stroke-width:0; stroke-opacity:1; 
stroke-linecap:round; stroke-linejoin:round;">
<circle cx="10000" cy="-2000" r="1228.35" /> 
</g>
<g style="fill:#000000; fill-opacity:1.0; 
stroke:#000000; stroke-width:137.795; stroke-opacity:1; 
stroke-linecap:round; stroke-linejoin:round;">
</g>
<g style="fill:#000000; fill-opacity:1.0; 
stroke:#000000; stroke-width:0; stroke-opacity:1; 
stroke-linecap:round; stroke-linejoin:round;">
<circle cx="2000" cy="-2000" r="1228.35" /> 
</g>
<g style="fill:#000000; fill-opacity:1.0; 
stroke:#000000; stroke-width:137.795; stroke-opacity:1; 
stroke-linecap:round; stroke-linejoin:round;">
</g>
<g style="fill:#000000; fill-opacity:1.0; 
stroke:#000000; stroke-width:0; stroke-opacity:1; 
stroke-linecap:round; stroke-linejoin:round;">
<polyline style="fill-rule:evenodd;"
points="4347,-1952
3652,-1952
3652,-2647
4347,-2647
4347,-1952
" /> 
<polyline style="fill-rule:evenodd;"
points="4347,-2952
3652,-2952
3652,-3647
4347,-3647
4347,-2952
" /> 
<polyline style="fill-rule:evenodd;"
points="5347,-1952
4652,-1952
4652,-2647
5347,-2647
5347,-1952
" /> 
<polyline style="fill-rule:evenodd;"
points="5347,-2952
4652,-2952
4652,-3647
5347,-3647
5347,-2952
" /> 
<polyline style="fill-rule:evenodd;"
points="6347,-1952
5652,-1952
5652,-2647
6347,-2647
6347,-1952
" /> 
<polyline style="fill-rule:evenodd;"
points="6347,-2952
5652,-2952
5652,-3647
6347,-3647
6347,-2952
" /> 
<polyline style="fill-rule:evenodd;"
points="7347,-1952
6652,-1952
6652,-2647
7347,-2647
7347,-1952
" /> 
<polyline style="fill-rule:evenodd;"
points="7347,-2952
6652,-2952
6652,-3647
7347,-3647
7347,-2952
" /> 
<polyline style="fill-rule:evenodd;"
points="8347,-1952
7652,-1952
7652,-2647
8347,-2647
8347,-1952
" /> 
<polyline style="fill-rule:evenodd;"
points="8347,-2952
7652,-2952
7652,-3647
8347,-3647
8347,-2952
" /> 
<polyline style="fill-rule:evenodd;"
points="14952,-2952
14952,-3647
15647,-3647
15647,-2952
14952,-2952
" /> 
</g> 
</svg>
