<?xml version="1.0" standalone="no"?>
 <!DOCTYPE svg PUBLIC "-//W3C//DTD SVG 1.1//EN" 
 "http://www.w3.org/Graphics/SVG/1.1/DTD/svg11.dtd"> 
<svg xmlns="http://www.w3.org/2000/svg" version="1.1" 
    width="29.7002cm" height="21.0007cm" viewBox="0 0 116930 82680 ">
<title>SVG Picture created as ISL03A-B_Mask.svg date 2016/12/31 13:53:27 </title>
  <desc>Picture generated by PCBNEW </desc>
<g style="fill:#000000; fill-opacity:1;stroke:#000000; stroke-opacity:1;
stroke-linecap:round; stroke-linejoin:round; "
 transform="translate(0 0) scale(1 1)">
</g>
<g style="fill:#000000; fill-opacity:0.0; 
stroke:#000000; stroke-width:-0.000393701; stroke-opacity:1; 
stroke-linecap:round; stroke-linejoin:round;">
</g>
<g style="fill:#000000; fill-opacity:0.0; 
stroke:#000000; stroke-width:59.0551; stroke-opacity:1; 
stroke-linecap:round; stroke-linejoin:round;">
<path d="M100 -100
L100 -3900
" />
<path d="M15900 -100
L15900 -3900
" />
<path d="M100 -100
L15900 -100
" />
<path d="M100 -3900
L15900 -3900
" />
</g>
<g style="fill:#000000; fill-opacity:0.0; 
stroke:#000000; stroke-width:0; stroke-opacity:1; 
stroke-linecap:round; stroke-linejoin:round;">
</g>
<g style="fill:#000000; fill-opacity:1.0; 
stroke:#000000; stroke-width:0; stroke-opacity:1; 
stroke-linecap:round; stroke-linejoin:round;">
<polyline style="fill-rule:evenodd;"
points="13147,-3122
13147,-2477
12702,-2477
12702,-3122
13147,-3122
" /> 
<polyline style="fill-rule:evenodd;"
points="12397,-3122
12397,-2477
11952,-2477
11952,-3122
12397,-3122
" /> 
<polyline style="fill-rule:evenodd;"
points="13147,-2372
13147,-1727
12702,-1727
12702,-2372
13147,-2372
" /> 
<polyline style="fill-rule:evenodd;"
points="12397,-2372
12397,-1727
11952,-1727
11952,-2372
12397,-2372
" /> 
<circle cx="10000" cy="-2000" r="1228.35" /> 
</g>
<g style="fill:#000000; fill-opacity:1.0; 
stroke:#000000; stroke-width:137.795; stroke-opacity:1; 
stroke-linecap:round; stroke-linejoin:round;">
</g>
<g style="fill:#000000; fill-opacity:1.0; 
stroke:#000000; stroke-width:0; stroke-opacity:1; 
stroke-linecap:round; stroke-linejoin:round;">
<circle cx="2000" cy="-2000" r="1228.35" /> 
</g>
<g style="fill:#000000; fill-opacity:1.0; 
stroke:#000000; stroke-width:137.795; stroke-opacity:1; 
stroke-linecap:round; stroke-linejoin:round;">
</g>
<g style="fill:#000000; fill-opacity:1.0; 
stroke:#000000; stroke-width:0; stroke-opacity:1; 
stroke-linecap:round; stroke-linejoin:round;">
<polyline style="fill-rule:evenodd;"
points="11952,-977
11952,-1622
12397,-1622
12397,-977
11952,-977
" /> 
<polyline style="fill-rule:evenodd;"
points="12702,-977
12702,-1622
13147,-1622
13147,-977
12702,-977
" /> 
<polyline style="fill-rule:evenodd;"
points="11952,-3202
11952,-3847
12397,-3847
12397,-3202
11952,-3202
" /> 
<polyline style="fill-rule:evenodd;"
points="12702,-3202
12702,-3847
13147,-3847
13147,-3202
12702,-3202
" /> 
<polyline style="fill-rule:evenodd;"
points="11952,-227
11952,-872
12397,-872
12397,-227
11952,-227
" /> 
<polyline style="fill-rule:evenodd;"
points="12702,-227
12702,-872
13147,-872
13147,-227
12702,-227
" /> 
<polyline style="fill-rule:evenodd;"
points="13777,-327
13777,-972
14222,-972
14222,-327
13777,-327
" /> 
<polyline style="fill-rule:evenodd;"
points="14527,-327
14527,-972
14972,-972
14972,-327
14527,-327
" /> 
<polyline style="fill-rule:evenodd;"
points="15647,-1177
15002,-1177
15002,-1622
15647,-1622
15647,-1177
" /> 
<polyline style="fill-rule:evenodd;"
points="15647,-1927
15002,-1927
15002,-2372
15647,-2372
15647,-1927
" /> 
<polyline style="fill-rule:evenodd;"
points="4347,-1952
3652,-1952
3652,-2647
4347,-2647
4347,-1952
" /> 
<polyline style="fill-rule:evenodd;"
points="4347,-2952
3652,-2952
3652,-3647
4347,-3647
4347,-2952
" /> 
<polyline style="fill-rule:evenodd;"
points="5347,-1952
4652,-1952
4652,-2647
5347,-2647
5347,-1952
" /> 
<polyline style="fill-rule:evenodd;"
points="5347,-2952
4652,-2952
4652,-3647
5347,-3647
5347,-2952
" /> 
<polyline style="fill-rule:evenodd;"
points="6347,-1952
5652,-1952
5652,-2647
6347,-2647
6347,-1952
" /> 
<polyline style="fill-rule:evenodd;"
points="6347,-2952
5652,-2952
5652,-3647
6347,-3647
6347,-2952
" /> 
<polyline style="fill-rule:evenodd;"
points="7347,-1952
6652,-1952
6652,-2647
7347,-2647
7347,-1952
" /> 
<polyline style="fill-rule:evenodd;"
points="7347,-2952
6652,-2952
6652,-3647
7347,-3647
7347,-2952
" /> 
<polyline style="fill-rule:evenodd;"
points="8347,-1952
7652,-1952
7652,-2647
8347,-2647
8347,-1952
" /> 
<polyline style="fill-rule:evenodd;"
points="8347,-2952
7652,-2952
7652,-3647
8347,-3647
8347,-2952
" /> 
<polyline style="fill-rule:evenodd;"
points="4382,-718
4382,-1481
4989,-1481
4989,-718
4382,-718
" /> 
<polyline style="fill-rule:evenodd;"
points="5760,-718
5760,-1481
6367,-1481
6367,-718
5760,-718
" /> 
<polyline style="fill-rule:evenodd;"
points="14952,-2952
14952,-3647
15647,-3647
15647,-2952
14952,-2952
" /> 
<polyline style="fill-rule:evenodd;"
points="13875,-2588
13662,-2588
13662,-2900
13875,-2900
13875,-2588
" /> 
<polyline style="fill-rule:evenodd;"
points="14131,-2588
13918,-2588
13918,-2900
14131,-2900
14131,-2588
" /> 
<polyline style="fill-rule:evenodd;"
points="14387,-2588
14174,-2588
14174,-2900
14387,-2900
14387,-2588
" /> 
<polyline style="fill-rule:evenodd;"
points="14387,-1900
14174,-1900
14174,-2211
14387,-2211
14387,-1900
" /> 
<polyline style="fill-rule:evenodd;"
points="14131,-1900
13918,-1900
13918,-2211
14131,-2211
14131,-1900
" /> 
<polyline style="fill-rule:evenodd;"
points="13875,-1900
13662,-1900
13662,-2211
13875,-2211
13875,-1900
" /> 
</g> 
</svg>
