<?xml version="1.0" standalone="no"?>
 <!DOCTYPE svg PUBLIC "-//W3C//DTD SVG 1.1//EN" 
 "http://www.w3.org/Graphics/SVG/1.1/DTD/svg11.dtd"> 
<svg xmlns="http://www.w3.org/2000/svg" version="1.1" 
    width="29.7002cm" height="21.0007cm" viewBox="0 0 116930 82680 ">
<title>SVG Picture created as PWMLED01B-NPTH-drl_map.svg date 2016/12/31 13:53:23 </title>
  <desc>Picture generated by PCBNEW </desc>
<g style="fill:#000000; fill-opacity:1;stroke:#000000; stroke-opacity:1;
stroke-linecap:round; stroke-linejoin:round; "
 transform="translate(0 0) scale(1 1)">
</g>
<g style="fill:#000000; fill-opacity:0.0; 
stroke:#000000; stroke-width:-0.000393701; stroke-opacity:1; 
stroke-linecap:round; stroke-linejoin:round;">
</g>
<g style="fill:#000000; fill-opacity:0.0; 
stroke:#000000; stroke-width:39.3701; stroke-opacity:1; 
stroke-linecap:round; stroke-linejoin:round;">
<path d="M49100 42099
L49100 26300
" />
<path d="M60899 26300
L49100 26300
" />
<path d="M60899 42099
L60899 26300
" />
<path d="M49100 42099
L60899 42099
" />
</g>
<g style="fill:#000000; fill-opacity:0.0; 
stroke:#000000; stroke-width:78.7402; stroke-opacity:1; 
stroke-linecap:round; stroke-linejoin:round;">
</g>
<g style="fill:#000000; fill-opacity:0.0; 
stroke:#000000; stroke-width:118.11; stroke-opacity:1; 
stroke-linecap:round; stroke-linejoin:round;">
<path d="M50208 43952
L50208 42771
L50489 42771
L50658 42827
L50771 42940
L50827 43052
L50883 43277
L50883 43446
L50827 43671
L50771 43783
L50658 43896
L50489 43952
L50208 43952
" />
<path d="M51389 43952
L51389 43165
" />
<path d="M51389 43389
L51446 43277
L51502 43221
L51614 43165
L51727 43165
" />
<path d="M52121 43952
L52121 43165
" />
<path d="M52121 42771
L52064 42827
L52121 42883
L52177 42827
L52121 42771
L52121 42883
" />
<path d="M52852 43952
L52739 43896
L52683 43783
L52683 42771
" />
<path d="M53470 43952
L53358 43896
L53302 43783
L53302 42771
" />
<path d="M54820 43952
L54820 42771
L55214 43614
L55608 42771
L55608 43952
" />
<path d="M56676 43952
L56676 43333
L56620 43221
L56507 43165
L56283 43165
L56170 43221
" />
<path d="M56676 43896
L56564 43952
L56283 43952
L56170 43896
L56114 43783
L56114 43671
L56170 43558
L56283 43502
L56564 43502
L56676 43446
" />
<path d="M57239 43165
L57239 44346
" />
<path d="M57239 43221
L57351 43165
L57576 43165
L57689 43221
L57745 43277
L57801 43389
L57801 43727
L57745 43839
L57689 43896
L57576 43952
L57351 43952
L57239 43896
" />
<path d="M58307 43839
L58364 43896
L58307 43952
L58251 43896
L58307 43839
L58307 43952
" />
<path d="M58307 43221
L58364 43277
L58307 43333
L58251 43277
L58307 43221
L58307 43333
" />
</g> 
</svg>
