M48
;DRILL file {KiCad no-vcs-found-7409~56~ubuntu16.04.1} date Sat Dec 31 13:53:23 2016
;FORMAT={-:-/ absolute / metric / decimal}
FMAT,2
METRIC,TZ
T1C0.400
T2C0.889
T3C1.300
T4C3.000
%
G90
G05
M71
T1
X125.73Y-86.36
X127.Y-75.438
X128.27Y-75.438
X129.54Y-75.438
X129.54Y-86.614
X131.236Y-75.438
X131.66Y-89.192
X131.66Y-90.132
X131.826Y-87.122
X132.5Y-89.192
X132.5Y-90.132
X133.561Y-92.063
X133.604Y-75.438
X133.858Y-93.218
X141.224Y-84.074
X141.732Y-85.852
X141.732Y-86.868
X141.732Y-87.884
X141.732Y-88.9
T2
X127.Y-77.47
X127.Y-80.01
X127.Y-82.55
X127.Y-85.09
X127.Y-93.726
X127.Y-96.266
X129.54Y-77.47
X129.54Y-80.01
X129.54Y-82.55
X129.54Y-85.09
X129.54Y-93.726
X129.54Y-96.266
T3
X136.906Y-96.774
X136.906Y-101.774
X137.668Y-71.962
X137.668Y-76.962
X141.986Y-96.774
X141.986Y-101.774
X142.748Y-71.962
X142.748Y-76.962
T4
X129.54Y-71.628
X129.54Y-102.108
X149.84Y-71.628
X149.84Y-102.108
T0
M30
