<?xml version="1.0" standalone="no"?>
 <!DOCTYPE svg PUBLIC "-//W3C//DTD SVG 1.1//EN" 
 "http://www.w3.org/Graphics/SVG/1.1/DTD/svg11.dtd"> 
<svg xmlns="http://www.w3.org/2000/svg" version="1.1" 
    width="29.7002cm" height="21.0007cm" viewBox="0 0 116930 82680 ">
<title>SVG Picture created as PWMLED01B-F_Mask.svg date 2016/12/31 13:21:34 </title>
  <desc>Picture generated by PCBNEW </desc>
<g style="fill:#000000; fill-opacity:1;stroke:#000000; stroke-opacity:1;
stroke-linecap:round; stroke-linejoin:round; "
 transform="translate(0 0) scale(1 1)">
</g>
<g style="fill:#000000; fill-opacity:0.0; 
stroke:#000000; stroke-width:-0.000393701; stroke-opacity:1; 
stroke-linecap:round; stroke-linejoin:round;">
</g>
<g style="fill:#000000; fill-opacity:0.0; 
stroke:#000000; stroke-width:39.3701; stroke-opacity:1; 
stroke-linecap:round; stroke-linejoin:round;">
<path d="M49100 42099
L49100 26300
" />
<path d="M60899 26300
L49100 26300
" />
<path d="M60899 42099
L60899 26300
" />
<path d="M49100 42099
L60899 42099
" />
</g>
<g style="fill:#000000; fill-opacity:0.0; 
stroke:#000000; stroke-width:0; stroke-opacity:1; 
stroke-linecap:round; stroke-linejoin:round;">
</g>
<g style="fill:#000000; fill-opacity:1.0; 
stroke:#000000; stroke-width:0; stroke-opacity:1; 
stroke-linecap:round; stroke-linejoin:round;">
<polyline style="fill-rule:evenodd;"
points="51300,38200
50700,38200
50700,37600
51300,37600
51300,38200
" /> 
<polyline style="fill-rule:evenodd;"
points="50300,38200
49700,38200
49700,37600
50300,37600
50300,38200
" /> 
<polyline style="fill-rule:evenodd;"
points="51300,37200
50700,37200
50700,36600
51300,36600
51300,37200
" /> 
<polyline style="fill-rule:evenodd;"
points="50300,37200
49700,37200
49700,36600
50300,36600
50300,37200
" /> 
<polyline style="fill-rule:evenodd;"
points="54650,39318
54650,40818
53150,40818
53150,39318
54650,39318
" /> 
<polyline style="fill-rule:evenodd;"
points="54650,37350
54650,38850
53150,38850
53150,37350
54650,37350
" /> 
<polyline style="fill-rule:evenodd;"
points="56650,39318
56650,40818
55150,40818
55150,39318
56650,39318
" /> 
<polyline style="fill-rule:evenodd;"
points="56650,37350
56650,38850
55150,38850
55150,37350
56650,37350
" /> 
<polyline style="fill-rule:evenodd;"
points="49700,30800
49700,30200
50300,30200
50300,30800
49700,30800
" /> 
<polyline style="fill-rule:evenodd;"
points="50700,30800
50700,30200
51300,30200
51300,30800
50700,30800
" /> 
<polyline style="fill-rule:evenodd;"
points="49700,31800
49700,31200
50300,31200
50300,31800
49700,31800
" /> 
<polyline style="fill-rule:evenodd;"
points="50700,31800
50700,31200
51300,31200
51300,31800
50700,31800
" /> 
<polyline style="fill-rule:evenodd;"
points="49700,32800
49700,32200
50300,32200
50300,32800
49700,32800
" /> 
<polyline style="fill-rule:evenodd;"
points="50700,32800
50700,32200
51300,32200
51300,32800
50700,32800
" /> 
<polyline style="fill-rule:evenodd;"
points="49700,33800
49700,33200
50300,33200
50300,33800
49700,33800
" /> 
<polyline style="fill-rule:evenodd;"
points="50700,33800
50700,33200
51300,33200
51300,33800
50700,33800
" /> 
<polyline style="fill-rule:evenodd;"
points="55450,29081
55450,27581
56950,27581
56950,29081
55450,29081
" /> 
<polyline style="fill-rule:evenodd;"
points="55450,31050
55450,29550
56950,29550
56950,31050
55450,31050
" /> 
<polyline style="fill-rule:evenodd;"
points="53450,29081
53450,27581
54950,27581
54950,29081
53450,29081
" /> 
<polyline style="fill-rule:evenodd;"
points="53450,31050
53450,29550
54950,29550
54950,31050
53450,31050
" /> 
<circle cx="58992.1" cy="40200" r="1181.1" /> 
</g>
<g style="fill:#000000; fill-opacity:1.0; 
stroke:#000000; stroke-width:137.795; stroke-opacity:1; 
stroke-linecap:round; stroke-linejoin:round;">
</g>
<g style="fill:#000000; fill-opacity:1.0; 
stroke:#000000; stroke-width:0; stroke-opacity:1; 
stroke-linecap:round; stroke-linejoin:round;">
<circle cx="58992.1" cy="28200" r="1181.1" /> 
</g>
<g style="fill:#000000; fill-opacity:1.0; 
stroke:#000000; stroke-width:137.795; stroke-opacity:1; 
stroke-linecap:round; stroke-linejoin:round;">
</g>
<g style="fill:#000000; fill-opacity:1.0; 
stroke:#000000; stroke-width:0; stroke-opacity:1; 
stroke-linecap:round; stroke-linejoin:round;">
<circle cx="51000" cy="28200" r="1181.1" /> 
</g>
<g style="fill:#000000; fill-opacity:1.0; 
stroke:#000000; stroke-width:137.795; stroke-opacity:1; 
stroke-linecap:round; stroke-linejoin:round;">
</g>
<g style="fill:#000000; fill-opacity:1.0; 
stroke:#000000; stroke-width:0; stroke-opacity:1; 
stroke-linecap:round; stroke-linejoin:round;">
<circle cx="51000" cy="40200" r="1181.1" /> 
</g>
<g style="fill:#000000; fill-opacity:1.0; 
stroke:#000000; stroke-width:137.795; stroke-opacity:1; 
stroke-linecap:round; stroke-linejoin:round;">
</g> 
</svg>
