%TF.GenerationSoftware,KiCad,Pcbnew,no-vcs-found-7409~56~ubuntu16.04.1*%
%TF.CreationDate,2016-12-31T13:53:23+01:00*%
%TF.ProjectId,PWMLED01B,50574D4C45443031422E6B696361645F,rev?*%
%TF.FileFunction,Copper,L2,Bot,Signal*%
%TF.FilePolarity,Positive*%
%FSLAX46Y46*%
G04 Gerber Fmt 4.6, Leading zero omitted, Abs format (unit mm)*
G04 Created by KiCad (PCBNEW no-vcs-found-7409~56~ubuntu16.04.1) date Sat Dec 31 13:53:23 2016*
%MOMM*%
%LPD*%
G01*
G04 APERTURE LIST*
%ADD10C,0.350000*%
%ADD11C,0.300000*%
%ADD12C,0.100000*%
%ADD13R,1.397000X0.889000*%
%ADD14R,2.499360X2.550160*%
%ADD15R,1.699260X1.300480*%
%ADD16R,1.524000X1.524000*%
%ADD17R,3.810000X3.810000*%
%ADD18R,5.500000X3.000000*%
%ADD19C,6.000000*%
%ADD20R,0.889000X1.397000*%
%ADD21R,1.550000X0.420000*%
%ADD22R,0.840000X0.940000*%
%ADD23C,0.600000*%
%ADD24C,0.400000*%
%ADD25C,0.250000*%
%ADD26C,0.600000*%
%ADD27C,0.254000*%
%ADD28C,0.350000*%
G04 APERTURE END LIST*
D10*
D11*
X153605238Y-96854095D02*
X153605238Y-95554095D01*
X153171904Y-96482666D01*
X152738571Y-95554095D01*
X152738571Y-96854095D01*
X151500476Y-96854095D02*
X152119523Y-96854095D01*
X152119523Y-95554095D01*
X151129047Y-96482666D02*
X150510000Y-96482666D01*
X151252857Y-96854095D02*
X150819523Y-95554095D01*
X150386190Y-96854095D01*
X149519523Y-96173142D02*
X149333809Y-96235047D01*
X149271904Y-96296952D01*
X149210000Y-96420761D01*
X149210000Y-96606476D01*
X149271904Y-96730285D01*
X149333809Y-96792190D01*
X149457619Y-96854095D01*
X149952857Y-96854095D01*
X149952857Y-95554095D01*
X149519523Y-95554095D01*
X149395714Y-95616000D01*
X149333809Y-95677904D01*
X149271904Y-95801714D01*
X149271904Y-95925523D01*
X149333809Y-96049333D01*
X149395714Y-96111238D01*
X149519523Y-96173142D01*
X149952857Y-96173142D01*
X148652857Y-96730285D02*
X148590952Y-96792190D01*
X148652857Y-96854095D01*
X148714761Y-96792190D01*
X148652857Y-96730285D01*
X148652857Y-96854095D01*
X147290952Y-96730285D02*
X147352857Y-96792190D01*
X147538571Y-96854095D01*
X147662380Y-96854095D01*
X147848095Y-96792190D01*
X147971904Y-96668380D01*
X148033809Y-96544571D01*
X148095714Y-96296952D01*
X148095714Y-96111238D01*
X148033809Y-95863619D01*
X147971904Y-95739809D01*
X147848095Y-95616000D01*
X147662380Y-95554095D01*
X147538571Y-95554095D01*
X147352857Y-95616000D01*
X147290952Y-95677904D01*
X146857619Y-95554095D02*
X145990952Y-95554095D01*
X146857619Y-96854095D01*
X145990952Y-96854095D01*
D12*
X124716000Y-106932000D02*
X124716000Y-66804000D01*
X154684000Y-66804000D02*
X124716000Y-66804000D01*
X154684000Y-106932000D02*
X154684000Y-66804000D01*
X124716000Y-106932000D02*
X154684000Y-106932000D01*
D13*
X136652000Y-88963500D03*
X136652000Y-90868500D03*
D14*
X133096000Y-77739240D03*
X133096000Y-82788760D03*
X137668000Y-80787240D03*
X137668000Y-85836760D03*
D15*
X139446000Y-91920060D03*
X139446000Y-88419940D03*
D16*
X129540000Y-96266000D03*
X127000000Y-96266000D03*
X129540000Y-93726000D03*
X127000000Y-93726000D03*
D17*
X136906000Y-101774000D03*
X136906000Y-96774000D03*
X141986000Y-101774000D03*
X141986000Y-96774000D03*
D16*
X127000000Y-77470000D03*
X129540000Y-77470000D03*
X127000000Y-80010000D03*
X129540000Y-80010000D03*
X127000000Y-82550000D03*
X129540000Y-82550000D03*
X127000000Y-85090000D03*
X129540000Y-85090000D03*
D17*
X142748000Y-71962000D03*
X142748000Y-76962000D03*
X137668000Y-71962000D03*
X137668000Y-76962000D03*
D18*
X147574000Y-81360000D03*
X147574000Y-91360000D03*
D19*
X149840000Y-102108000D03*
X149840000Y-71628000D03*
X129540000Y-71628000D03*
X129540000Y-102108000D03*
D13*
X132334000Y-93281500D03*
X132334000Y-95186500D03*
D20*
X127698500Y-87884000D03*
X125793500Y-87884000D03*
D21*
X129975000Y-90637000D03*
X129975000Y-89987000D03*
X129975000Y-89337000D03*
X129975000Y-88687000D03*
X134185000Y-88687000D03*
X134185000Y-89337000D03*
X134185000Y-89987000D03*
X134185000Y-90637000D03*
D22*
X132500000Y-89192000D03*
X132500000Y-90132000D03*
X131660000Y-89192000D03*
X131660000Y-90132000D03*
D23*
X131660000Y-89192000D03*
X131660000Y-90132000D03*
X132500000Y-90132000D03*
X132500000Y-89192000D03*
X141732000Y-88900000D03*
X141732000Y-87884000D03*
X141732000Y-86868000D03*
X141732000Y-85852000D03*
X141224000Y-84074000D03*
X127000000Y-75438000D03*
X128270000Y-75438000D03*
X129540000Y-75438000D03*
X133604000Y-75438000D03*
X131236226Y-75438000D03*
X125730000Y-86360000D03*
X129540000Y-86614000D03*
X131826000Y-87122000D03*
X133560706Y-92062706D03*
X133858000Y-93218000D03*
D24*
X136278500Y-89337000D02*
X136652000Y-88963500D01*
X134185000Y-89337000D02*
X136278500Y-89337000D01*
X135770500Y-89987000D02*
X134185000Y-89987000D01*
X136652000Y-90868500D02*
X135770500Y-89987000D01*
X141986000Y-94469000D02*
X141986000Y-96774000D01*
X141243000Y-93726000D02*
X141986000Y-94469000D01*
X135224000Y-93726000D02*
X141243000Y-93726000D01*
X125838000Y-77470000D02*
X125476000Y-77832000D01*
X127000000Y-77470000D02*
X125838000Y-77470000D01*
X125838000Y-85090000D02*
X127000000Y-85090000D01*
X125476000Y-84728000D02*
X125838000Y-85090000D01*
X125476000Y-77832000D02*
X125476000Y-84728000D01*
D25*
X137600500Y-90868500D02*
X138299000Y-90170000D01*
X136652000Y-90868500D02*
X137600500Y-90868500D01*
X138299000Y-90170000D02*
X140716000Y-90170000D01*
X141732000Y-89154000D02*
X141732000Y-88900000D01*
X140716000Y-90170000D02*
X141732000Y-89154000D01*
X141732000Y-87884000D02*
X141732000Y-86868000D01*
X141732000Y-84582000D02*
X141224000Y-84074000D01*
X141732000Y-85852000D02*
X141732000Y-84582000D01*
X127000000Y-75438000D02*
X128270000Y-75438000D01*
X129540000Y-75438000D02*
X131236226Y-75438000D01*
X129540000Y-85090000D02*
X129540000Y-86614000D01*
X132500000Y-91002000D02*
X133560706Y-92062706D01*
X132500000Y-90132000D02*
X132500000Y-91002000D01*
D24*
X133560706Y-92062706D02*
X135224000Y-93726000D01*
D25*
X133560706Y-92920706D02*
X133858000Y-93218000D01*
X133560706Y-92062706D02*
X133560706Y-92920706D01*
D24*
X134185000Y-88687000D02*
X134185000Y-87049000D01*
X135397240Y-85836760D02*
X137668000Y-85836760D01*
X134185000Y-87049000D02*
X135397240Y-85836760D01*
D26*
X137668000Y-76962000D02*
X137668000Y-71962000D01*
X142748000Y-71962000D02*
X142748000Y-76962000D01*
D24*
X128799999Y-89987001D02*
X128524000Y-90263000D01*
X129975000Y-89987000D02*
X128799999Y-89987001D01*
X128524000Y-90263000D02*
X128524000Y-91948000D01*
X128524000Y-91948000D02*
X128778000Y-92202000D01*
X130810000Y-92202000D02*
X131064000Y-92456000D01*
X128778000Y-92202000D02*
X130810000Y-92202000D01*
X130702000Y-96266000D02*
X129540000Y-96266000D01*
X131064000Y-95904000D02*
X130702000Y-96266000D01*
X131064000Y-92456000D02*
X131064000Y-95904000D01*
X129540000Y-96266000D02*
X127000000Y-96266000D01*
X129540000Y-93726000D02*
X127000000Y-93726000D01*
X127000000Y-92564000D02*
X127000000Y-93726000D01*
X127000000Y-90938458D02*
X127000000Y-92564000D01*
X128601458Y-89337000D02*
X127000000Y-90938458D01*
X129975000Y-89337000D02*
X128601458Y-89337000D01*
X130340001Y-91002001D02*
X131388001Y-91002001D01*
X129975000Y-90637000D02*
X130340001Y-91002001D01*
X132334000Y-91948000D02*
X132334000Y-93281500D01*
X131388001Y-91002001D02*
X132334000Y-91948000D01*
X128501500Y-88687000D02*
X127698500Y-87884000D01*
X129975000Y-88687000D02*
X128501500Y-88687000D01*
X134185000Y-90637000D02*
X134185000Y-91247000D01*
X134185000Y-91247000D02*
X135394000Y-92456000D01*
X135394000Y-92456000D02*
X137160000Y-92456000D01*
X137695940Y-91920060D02*
X139446000Y-91920060D01*
X137160000Y-92456000D02*
X137695940Y-91920060D01*
D27*
G36*
X150241000Y-92837000D02*
X135515867Y-92837000D01*
X134453240Y-91774372D01*
X134353823Y-91533763D01*
X134091033Y-91270514D01*
X133747505Y-91127868D01*
X133725453Y-91127848D01*
X133489920Y-90892315D01*
X133517377Y-90851640D01*
X133518820Y-90844440D01*
X134960000Y-90844440D01*
X135001000Y-90836485D01*
X135001000Y-90984605D01*
X135306060Y-91289665D01*
X135306060Y-91313000D01*
X135353037Y-91555123D01*
X135492827Y-91767927D01*
X135703860Y-91910377D01*
X135953500Y-91960440D01*
X135976835Y-91960440D01*
X136091395Y-92075000D01*
X137456333Y-92075000D01*
X138472333Y-91313000D01*
X141016980Y-91313000D01*
X142794980Y-89789000D01*
X150241000Y-89789000D01*
X150241000Y-92837000D01*
X150241000Y-92837000D01*
G37*
X150241000Y-92837000D02*
X135515867Y-92837000D01*
X134453240Y-91774372D01*
X134353823Y-91533763D01*
X134091033Y-91270514D01*
X133747505Y-91127868D01*
X133725453Y-91127848D01*
X133489920Y-90892315D01*
X133517377Y-90851640D01*
X133518820Y-90844440D01*
X134960000Y-90844440D01*
X135001000Y-90836485D01*
X135001000Y-90984605D01*
X135306060Y-91289665D01*
X135306060Y-91313000D01*
X135353037Y-91555123D01*
X135492827Y-91767927D01*
X135703860Y-91910377D01*
X135953500Y-91960440D01*
X135976835Y-91960440D01*
X136091395Y-92075000D01*
X137456333Y-92075000D01*
X138472333Y-91313000D01*
X141016980Y-91313000D01*
X142794980Y-89789000D01*
X150241000Y-89789000D01*
X150241000Y-92837000D01*
G36*
X140335000Y-89027000D02*
X138557000Y-89027000D01*
X138557000Y-87503000D01*
X136336961Y-87503000D01*
X136042113Y-87871560D01*
X135953500Y-87871560D01*
X135711377Y-87918537D01*
X135498573Y-88058327D01*
X135356123Y-88269360D01*
X135309469Y-88502000D01*
X135071897Y-88502000D01*
X134960000Y-88479560D01*
X133520254Y-88479560D01*
X133380673Y-88267073D01*
X133223000Y-88160642D01*
X133223000Y-84768032D01*
X132372453Y-84201000D01*
X131106333Y-84201000D01*
X130853545Y-84011409D01*
X130762673Y-83873073D01*
X130551640Y-83730623D01*
X130452711Y-83710783D01*
X130090333Y-83439000D01*
X126311000Y-83439000D01*
X126311000Y-79121000D01*
X130738094Y-79121000D01*
X131500094Y-80391000D01*
X132080000Y-80391000D01*
X133665039Y-80391000D01*
X134248431Y-79661760D01*
X134345680Y-79661760D01*
X134587803Y-79614783D01*
X134800607Y-79474993D01*
X134943057Y-79263960D01*
X134993120Y-79014320D01*
X134993120Y-76464160D01*
X134946143Y-76222037D01*
X134806353Y-76009233D01*
X134747000Y-75969169D01*
X134747000Y-75744605D01*
X135434605Y-75057000D01*
X139573000Y-75057000D01*
X139573000Y-78823491D01*
X139507737Y-78867000D01*
X138929049Y-78867000D01*
X138917680Y-78864720D01*
X136418320Y-78864720D01*
X136406568Y-78867000D01*
X135763000Y-78867000D01*
X135763000Y-82813026D01*
X136017000Y-83067026D01*
X136017000Y-83566000D01*
X136017000Y-84455000D01*
X138430000Y-84455000D01*
X138938000Y-84455000D01*
X139647395Y-84455000D01*
X140335000Y-85142605D01*
X140335000Y-89027000D01*
X140335000Y-89027000D01*
G37*
X140335000Y-89027000D02*
X138557000Y-89027000D01*
X138557000Y-87503000D01*
X136336961Y-87503000D01*
X136042113Y-87871560D01*
X135953500Y-87871560D01*
X135711377Y-87918537D01*
X135498573Y-88058327D01*
X135356123Y-88269360D01*
X135309469Y-88502000D01*
X135071897Y-88502000D01*
X134960000Y-88479560D01*
X133520254Y-88479560D01*
X133380673Y-88267073D01*
X133223000Y-88160642D01*
X133223000Y-84768032D01*
X132372453Y-84201000D01*
X131106333Y-84201000D01*
X130853545Y-84011409D01*
X130762673Y-83873073D01*
X130551640Y-83730623D01*
X130452711Y-83710783D01*
X130090333Y-83439000D01*
X126311000Y-83439000D01*
X126311000Y-79121000D01*
X130738094Y-79121000D01*
X131500094Y-80391000D01*
X132080000Y-80391000D01*
X133665039Y-80391000D01*
X134248431Y-79661760D01*
X134345680Y-79661760D01*
X134587803Y-79614783D01*
X134800607Y-79474993D01*
X134943057Y-79263960D01*
X134993120Y-79014320D01*
X134993120Y-76464160D01*
X134946143Y-76222037D01*
X134806353Y-76009233D01*
X134747000Y-75969169D01*
X134747000Y-75744605D01*
X135434605Y-75057000D01*
X139573000Y-75057000D01*
X139573000Y-78823491D01*
X139507737Y-78867000D01*
X138929049Y-78867000D01*
X138917680Y-78864720D01*
X136418320Y-78864720D01*
X136406568Y-78867000D01*
X135763000Y-78867000D01*
X135763000Y-82813026D01*
X136017000Y-83067026D01*
X136017000Y-83566000D01*
X136017000Y-84455000D01*
X138430000Y-84455000D01*
X138938000Y-84455000D01*
X139647395Y-84455000D01*
X140335000Y-85142605D01*
X140335000Y-89027000D01*
G36*
X150495000Y-82931000D02*
X136958605Y-82931000D01*
X136525000Y-82497395D01*
X136525000Y-79629000D01*
X139738453Y-79629000D01*
X140589000Y-79061968D01*
X140589000Y-75057000D01*
X144988666Y-75057000D01*
X150495000Y-79562183D01*
X150495000Y-82931000D01*
X150495000Y-82931000D01*
G37*
X150495000Y-82931000D02*
X136958605Y-82931000D01*
X136525000Y-82497395D01*
X136525000Y-79629000D01*
X139738453Y-79629000D01*
X140589000Y-79061968D01*
X140589000Y-75057000D01*
X144988666Y-75057000D01*
X150495000Y-79562183D01*
X150495000Y-82931000D01*
G36*
X153999000Y-106247000D02*
X139458440Y-106247000D01*
X139458440Y-103679000D01*
X139458440Y-99869000D01*
X139411463Y-99626877D01*
X139271673Y-99414073D01*
X139062818Y-99273093D01*
X139265927Y-99139673D01*
X139408377Y-98928640D01*
X139458440Y-98679000D01*
X139458440Y-94869000D01*
X139411463Y-94626877D01*
X139271673Y-94414073D01*
X139060640Y-94271623D01*
X138811000Y-94221560D01*
X135001000Y-94221560D01*
X134758877Y-94268537D01*
X134546073Y-94408327D01*
X134403623Y-94619360D01*
X134353560Y-94869000D01*
X134353560Y-98679000D01*
X134400537Y-98921123D01*
X134540327Y-99133927D01*
X134749181Y-99274906D01*
X134546073Y-99408327D01*
X134403623Y-99619360D01*
X134353560Y-99869000D01*
X134353560Y-103679000D01*
X134400537Y-103921123D01*
X134540327Y-104133927D01*
X134751360Y-104276377D01*
X135001000Y-104326440D01*
X138811000Y-104326440D01*
X139053123Y-104279463D01*
X139265927Y-104139673D01*
X139408377Y-103928640D01*
X139458440Y-103679000D01*
X139458440Y-106247000D01*
X125401000Y-106247000D01*
X125401000Y-84201000D01*
X129836333Y-84201000D01*
X130852333Y-84963000D01*
X132141737Y-84963000D01*
X132461000Y-85175842D01*
X132461000Y-89535000D01*
X132762560Y-89535000D01*
X132762560Y-89547000D01*
X132809513Y-89789000D01*
X132715000Y-89789000D01*
X132715000Y-91148132D01*
X131978435Y-90411567D01*
X131707542Y-90230562D01*
X131397440Y-90168878D01*
X131397440Y-89777000D01*
X131374758Y-89660099D01*
X131397440Y-89547000D01*
X131397440Y-89127000D01*
X131374758Y-89010099D01*
X131397440Y-88897000D01*
X131397440Y-88477000D01*
X131350463Y-88234877D01*
X131210673Y-88022073D01*
X130999640Y-87879623D01*
X130750000Y-87829560D01*
X129200000Y-87829560D01*
X129084342Y-87852000D01*
X128847368Y-87852000D01*
X128790440Y-87795072D01*
X128790440Y-87185500D01*
X128743463Y-86943377D01*
X128603673Y-86730573D01*
X128392640Y-86588123D01*
X128143000Y-86538060D01*
X127254000Y-86538060D01*
X127011877Y-86585037D01*
X126799073Y-86724827D01*
X126656623Y-86935860D01*
X126606560Y-87185500D01*
X126606560Y-88582500D01*
X126653537Y-88824623D01*
X126793327Y-89037427D01*
X127004360Y-89179877D01*
X127254000Y-89229940D01*
X127527650Y-89229940D01*
X126409566Y-90348024D01*
X126228561Y-90618917D01*
X126165000Y-90938458D01*
X126165000Y-92330723D01*
X125995877Y-92363537D01*
X125783073Y-92503327D01*
X125640623Y-92714360D01*
X125590560Y-92964000D01*
X125590560Y-94488000D01*
X125637537Y-94730123D01*
X125777327Y-94942927D01*
X125855541Y-94995722D01*
X125783073Y-95043327D01*
X125640623Y-95254360D01*
X125590560Y-95504000D01*
X125590560Y-97028000D01*
X125637537Y-97270123D01*
X125777327Y-97482927D01*
X125988360Y-97625377D01*
X126238000Y-97675440D01*
X127762000Y-97675440D01*
X128004123Y-97628463D01*
X128216927Y-97488673D01*
X128269722Y-97410458D01*
X128317327Y-97482927D01*
X128528360Y-97625377D01*
X128778000Y-97675440D01*
X130302000Y-97675440D01*
X130544123Y-97628463D01*
X130756927Y-97488673D01*
X130899377Y-97277640D01*
X130944472Y-97052768D01*
X131021540Y-97037439D01*
X131021541Y-97037439D01*
X131292434Y-96856434D01*
X131654434Y-96494434D01*
X131835439Y-96223541D01*
X131835439Y-96223540D01*
X131899000Y-95904000D01*
X131899000Y-94373440D01*
X133032500Y-94373440D01*
X133274623Y-94326463D01*
X133487427Y-94186673D01*
X133629877Y-93975640D01*
X133679940Y-93726000D01*
X133679940Y-92837000D01*
X133632963Y-92594877D01*
X133493173Y-92382073D01*
X133282140Y-92239623D01*
X133169000Y-92216934D01*
X133169000Y-91948000D01*
X133105440Y-91628460D01*
X133105439Y-91628459D01*
X133018863Y-91498889D01*
X134424987Y-92905013D01*
X134678987Y-93159013D01*
X135118974Y-93599000D01*
X151003000Y-93599000D01*
X151003000Y-89027000D01*
X142513098Y-89027000D01*
X140735098Y-90551000D01*
X138218333Y-90551000D01*
X137437787Y-91136409D01*
X137376400Y-91148620D01*
X137130388Y-91313000D01*
X136407026Y-91313000D01*
X135763000Y-90668974D01*
X135763000Y-90172000D01*
X136278500Y-90172000D01*
X136598040Y-90108439D01*
X136598041Y-90108439D01*
X136677358Y-90055440D01*
X136677359Y-90055440D01*
X137350500Y-90055440D01*
X137592623Y-90008463D01*
X137805427Y-89868673D01*
X137859207Y-89789000D01*
X141097000Y-89789000D01*
X141097000Y-84826974D01*
X139963026Y-83693000D01*
X151257000Y-83693000D01*
X151257000Y-79201087D01*
X145669000Y-74629087D01*
X145669000Y-69215000D01*
X140335000Y-69215000D01*
X139827000Y-69215000D01*
X134747000Y-69215000D01*
X134747000Y-74666974D01*
X133985000Y-75428974D01*
X133985000Y-78771254D01*
X133298803Y-79629000D01*
X132080000Y-79629000D01*
X131931531Y-79629000D01*
X131169531Y-78359000D01*
X125401000Y-78359000D01*
X125401000Y-67489000D01*
X153999000Y-67489000D01*
X153999000Y-94271000D01*
X145020238Y-94271000D01*
X145020238Y-97961000D01*
X153999000Y-97961000D01*
X153999000Y-106247000D01*
X153999000Y-106247000D01*
G37*
X153999000Y-106247000D02*
X139458440Y-106247000D01*
X139458440Y-103679000D01*
X139458440Y-99869000D01*
X139411463Y-99626877D01*
X139271673Y-99414073D01*
X139062818Y-99273093D01*
X139265927Y-99139673D01*
X139408377Y-98928640D01*
X139458440Y-98679000D01*
X139458440Y-94869000D01*
X139411463Y-94626877D01*
X139271673Y-94414073D01*
X139060640Y-94271623D01*
X138811000Y-94221560D01*
X135001000Y-94221560D01*
X134758877Y-94268537D01*
X134546073Y-94408327D01*
X134403623Y-94619360D01*
X134353560Y-94869000D01*
X134353560Y-98679000D01*
X134400537Y-98921123D01*
X134540327Y-99133927D01*
X134749181Y-99274906D01*
X134546073Y-99408327D01*
X134403623Y-99619360D01*
X134353560Y-99869000D01*
X134353560Y-103679000D01*
X134400537Y-103921123D01*
X134540327Y-104133927D01*
X134751360Y-104276377D01*
X135001000Y-104326440D01*
X138811000Y-104326440D01*
X139053123Y-104279463D01*
X139265927Y-104139673D01*
X139408377Y-103928640D01*
X139458440Y-103679000D01*
X139458440Y-106247000D01*
X125401000Y-106247000D01*
X125401000Y-84201000D01*
X129836333Y-84201000D01*
X130852333Y-84963000D01*
X132141737Y-84963000D01*
X132461000Y-85175842D01*
X132461000Y-89535000D01*
X132762560Y-89535000D01*
X132762560Y-89547000D01*
X132809513Y-89789000D01*
X132715000Y-89789000D01*
X132715000Y-91148132D01*
X131978435Y-90411567D01*
X131707542Y-90230562D01*
X131397440Y-90168878D01*
X131397440Y-89777000D01*
X131374758Y-89660099D01*
X131397440Y-89547000D01*
X131397440Y-89127000D01*
X131374758Y-89010099D01*
X131397440Y-88897000D01*
X131397440Y-88477000D01*
X131350463Y-88234877D01*
X131210673Y-88022073D01*
X130999640Y-87879623D01*
X130750000Y-87829560D01*
X129200000Y-87829560D01*
X129084342Y-87852000D01*
X128847368Y-87852000D01*
X128790440Y-87795072D01*
X128790440Y-87185500D01*
X128743463Y-86943377D01*
X128603673Y-86730573D01*
X128392640Y-86588123D01*
X128143000Y-86538060D01*
X127254000Y-86538060D01*
X127011877Y-86585037D01*
X126799073Y-86724827D01*
X126656623Y-86935860D01*
X126606560Y-87185500D01*
X126606560Y-88582500D01*
X126653537Y-88824623D01*
X126793327Y-89037427D01*
X127004360Y-89179877D01*
X127254000Y-89229940D01*
X127527650Y-89229940D01*
X126409566Y-90348024D01*
X126228561Y-90618917D01*
X126165000Y-90938458D01*
X126165000Y-92330723D01*
X125995877Y-92363537D01*
X125783073Y-92503327D01*
X125640623Y-92714360D01*
X125590560Y-92964000D01*
X125590560Y-94488000D01*
X125637537Y-94730123D01*
X125777327Y-94942927D01*
X125855541Y-94995722D01*
X125783073Y-95043327D01*
X125640623Y-95254360D01*
X125590560Y-95504000D01*
X125590560Y-97028000D01*
X125637537Y-97270123D01*
X125777327Y-97482927D01*
X125988360Y-97625377D01*
X126238000Y-97675440D01*
X127762000Y-97675440D01*
X128004123Y-97628463D01*
X128216927Y-97488673D01*
X128269722Y-97410458D01*
X128317327Y-97482927D01*
X128528360Y-97625377D01*
X128778000Y-97675440D01*
X130302000Y-97675440D01*
X130544123Y-97628463D01*
X130756927Y-97488673D01*
X130899377Y-97277640D01*
X130944472Y-97052768D01*
X131021540Y-97037439D01*
X131021541Y-97037439D01*
X131292434Y-96856434D01*
X131654434Y-96494434D01*
X131835439Y-96223541D01*
X131835439Y-96223540D01*
X131899000Y-95904000D01*
X131899000Y-94373440D01*
X133032500Y-94373440D01*
X133274623Y-94326463D01*
X133487427Y-94186673D01*
X133629877Y-93975640D01*
X133679940Y-93726000D01*
X133679940Y-92837000D01*
X133632963Y-92594877D01*
X133493173Y-92382073D01*
X133282140Y-92239623D01*
X133169000Y-92216934D01*
X133169000Y-91948000D01*
X133105440Y-91628460D01*
X133105439Y-91628459D01*
X133018863Y-91498889D01*
X134424987Y-92905013D01*
X134678987Y-93159013D01*
X135118974Y-93599000D01*
X151003000Y-93599000D01*
X151003000Y-89027000D01*
X142513098Y-89027000D01*
X140735098Y-90551000D01*
X138218333Y-90551000D01*
X137437787Y-91136409D01*
X137376400Y-91148620D01*
X137130388Y-91313000D01*
X136407026Y-91313000D01*
X135763000Y-90668974D01*
X135763000Y-90172000D01*
X136278500Y-90172000D01*
X136598040Y-90108439D01*
X136598041Y-90108439D01*
X136677358Y-90055440D01*
X136677359Y-90055440D01*
X137350500Y-90055440D01*
X137592623Y-90008463D01*
X137805427Y-89868673D01*
X137859207Y-89789000D01*
X141097000Y-89789000D01*
X141097000Y-84826974D01*
X139963026Y-83693000D01*
X151257000Y-83693000D01*
X151257000Y-79201087D01*
X145669000Y-74629087D01*
X145669000Y-69215000D01*
X140335000Y-69215000D01*
X139827000Y-69215000D01*
X134747000Y-69215000D01*
X134747000Y-74666974D01*
X133985000Y-75428974D01*
X133985000Y-78771254D01*
X133298803Y-79629000D01*
X132080000Y-79629000D01*
X131931531Y-79629000D01*
X131169531Y-78359000D01*
X125401000Y-78359000D01*
X125401000Y-67489000D01*
X153999000Y-67489000D01*
X153999000Y-94271000D01*
X145020238Y-94271000D01*
X145020238Y-97961000D01*
X153999000Y-97961000D01*
X153999000Y-106247000D01*
G36*
X139573000Y-75057000D02*
X135509000Y-75057000D01*
X135509000Y-69977000D01*
X139573000Y-69977000D01*
X139573000Y-70104000D01*
X139573000Y-75057000D01*
X139573000Y-75057000D01*
G37*
X139573000Y-75057000D02*
X135509000Y-75057000D01*
X135509000Y-69977000D01*
X139573000Y-69977000D01*
X139573000Y-70104000D01*
X139573000Y-75057000D01*
G36*
X144907000Y-74803000D02*
X140589000Y-74803000D01*
X140589000Y-69977000D01*
X144907000Y-69977000D01*
X144907000Y-74803000D01*
X144907000Y-74803000D01*
G37*
X144907000Y-74803000D02*
X140589000Y-74803000D01*
X140589000Y-69977000D01*
X144907000Y-69977000D01*
X144907000Y-74803000D01*
D28*
X131660000Y-89192000D03*
X131660000Y-90132000D03*
X132500000Y-90132000D03*
X132500000Y-89192000D03*
X141732000Y-88900000D03*
X141732000Y-87884000D03*
X141732000Y-86868000D03*
X141732000Y-85852000D03*
X141224000Y-84074000D03*
X127000000Y-75438000D03*
X128270000Y-75438000D03*
X129540000Y-75438000D03*
X133604000Y-75438000D03*
X131236226Y-75438000D03*
X125730000Y-86360000D03*
X129540000Y-86614000D03*
X131826000Y-87122000D03*
X133560706Y-92062706D03*
X133858000Y-93218000D03*
X129540000Y-96266000D03*
X127000000Y-96266000D03*
X129540000Y-93726000D03*
X127000000Y-93726000D03*
X136906000Y-101774000D03*
X136906000Y-96774000D03*
X141986000Y-101774000D03*
X141986000Y-96774000D03*
X127000000Y-77470000D03*
X129540000Y-77470000D03*
X127000000Y-80010000D03*
X129540000Y-80010000D03*
X127000000Y-82550000D03*
X129540000Y-82550000D03*
X127000000Y-85090000D03*
X129540000Y-85090000D03*
X142748000Y-71962000D03*
X142748000Y-76962000D03*
X137668000Y-71962000D03*
X137668000Y-76962000D03*
X149840000Y-102108000D03*
X149840000Y-71628000D03*
X129540000Y-71628000D03*
X129540000Y-102108000D03*
M02*
