<?xml version="1.0" standalone="no"?>
 <!DOCTYPE svg PUBLIC "-//W3C//DTD SVG 1.1//EN" 
 "http://www.w3.org/Graphics/SVG/1.1/DTD/svg11.dtd"> 
<svg xmlns="http://www.w3.org/2000/svg" version="1.1" 
    width="29.7002cm" height="21.0007cm" viewBox="0 0 116930 82680 ">
<title>SVG Picture created as PWMLED01B-PTH-drl_map.svg date 2016/12/31 13:21:34 </title>
  <desc>Picture generated by PCBNEW </desc>
<g style="fill:#000000; fill-opacity:1;stroke:#000000; stroke-opacity:1;
stroke-linecap:round; stroke-linejoin:round; "
 transform="translate(0 0) scale(1 1)">
</g>
<g style="fill:#000000; fill-opacity:0.0; 
stroke:#000000; stroke-width:-0.000393701; stroke-opacity:1; 
stroke-linecap:round; stroke-linejoin:round;">
</g>
<g style="fill:#000000; fill-opacity:0.0; 
stroke:#000000; stroke-width:39.3701; stroke-opacity:1; 
stroke-linecap:round; stroke-linejoin:round;">
<path d="M49100 42099
L49100 26300
" />
<path d="M60899 26300
L49100 26300
" />
<path d="M60899 42099
L60899 26300
" />
<path d="M49100 42099
L60899 42099
" />
</g>
<g style="fill:#000000; fill-opacity:0.0; 
stroke:#000000; stroke-width:78.7402; stroke-opacity:1; 
stroke-linecap:round; stroke-linejoin:round;">
<path d="M49421 33921
L49578 34078
" />
<path d="M49578 33921
L49421 34078
" />
<path d="M49921 29621
L50078 29778
" />
<path d="M50078 29621
L49921 29778
" />
<path d="M50421 29621
L50578 29778
" />
<path d="M50578 29621
L50421 29778
" />
<path d="M50921 29621
L51078 29778
" />
<path d="M51078 29621
L50921 29778
" />
<path d="M50921 34021
L51078 34178
" />
<path d="M51078 34021
L50921 34178
" />
<path d="M51589 29621
L51746 29778
" />
<path d="M51746 29621
L51589 29778
" />
<path d="M51755 35036
L51913 35193
" />
<path d="M51913 35036
L51755 35193
" />
<path d="M51755 35406
L51913 35563
" />
<path d="M51913 35406
L51755 35563
" />
<path d="M51821 34221
L51978 34378
" />
<path d="M51978 34221
L51821 34378
" />
<path d="M52086 35036
L52244 35193
" />
<path d="M52244 35036
L52086 35193
" />
<path d="M52086 35406
L52244 35563
" />
<path d="M52244 35406
L52086 35563
" />
<path d="M52504 36166
L52661 36323
" />
<path d="M52661 36166
L52504 36323
" />
<path d="M52521 29621
L52678 29778
" />
<path d="M52678 29621
L52521 29778
" />
<path d="M52621 36621
L52778 36778
" />
<path d="M52778 36621
L52621 36778
" />
<path d="M55521 33021
L55678 33178
" />
<path d="M55678 33021
L55521 33178
" />
<path d="M55721 33721
L55878 33878
" />
<path d="M55878 33721
L55721 33878
" />
<path d="M55721 34121
L55878 34278
" />
<path d="M55878 34121
L55721 34278
" />
<path d="M55721 34521
L55878 34678
" />
<path d="M55878 34521
L55721 34678
" />
<path d="M55721 34921
L55878 35078
" />
<path d="M55878 34921
L55721 35078
" />
<circle cx="50000" cy="30500" r="175" /> 
<circle cx="50000" cy="31500" r="175" /> 
<circle cx="50000" cy="32500" r="175" /> 
<circle cx="50000" cy="33500" r="175" /> 
<circle cx="50000" cy="36900" r="175" /> 
<circle cx="50000" cy="37900" r="175" /> 
<circle cx="51000" cy="30500" r="175" /> 
<circle cx="51000" cy="31500" r="175" /> 
<circle cx="51000" cy="32500" r="175" /> 
<circle cx="51000" cy="33500" r="175" /> 
<circle cx="51000" cy="36900" r="175" /> 
<circle cx="51000" cy="37900" r="175" /> 
<path d="M53900 37844
L53900 38355
" />
<path d="M53644 38100
L54155 38100
" />
<path d="M53900 39812
L53900 40324
" />
<path d="M53644 40068
L54155 40068
" />
<path d="M54200 28075
L54200 28587
" />
<path d="M53944 28331
L54455 28331
" />
<path d="M54200 30044
L54200 30555
" />
<path d="M53944 30300
L54455 30300
" />
<path d="M55900 37844
L55900 38355
" />
<path d="M55644 38100
L56155 38100
" />
<path d="M55900 39812
L55900 40324
" />
<path d="M55644 40068
L56155 40068
" />
<path d="M56200 28075
L56200 28587
" />
<path d="M55944 28331
L56455 28331
" />
<path d="M56200 30044
L56200 30555
" />
<path d="M55944 30300
L56455 30300
" />
<polyline fill="none;"
points="51417,28617
51417,27782
50582,27782
50582,28617
51417,28617
" /> 
<polyline fill="none;"
points="51417,40617
51417,39782
50582,39782
50582,40617
51417,40617
" /> 
<polyline fill="none;"
points="59409,28617
59409,27782
58574,27782
58574,28617
59409,28617
" /> 
<polyline fill="none;"
points="59409,40617
59409,39782
58574,39782
58574,40617
59409,40617
" /> 
</g>
<g style="fill:#000000; fill-opacity:0.0; 
stroke:#000000; stroke-width:118.11; stroke-opacity:1; 
stroke-linecap:round; stroke-linejoin:round;">
<path d="M50208 43952
L50208 42771
L50489 42771
L50658 42827
L50771 42940
L50827 43052
L50883 43277
L50883 43446
L50827 43671
L50771 43783
L50658 43896
L50489 43952
L50208 43952
" />
<path d="M51389 43952
L51389 43165
" />
<path d="M51389 43389
L51446 43277
L51502 43221
L51614 43165
L51727 43165
" />
<path d="M52121 43952
L52121 43165
" />
<path d="M52121 42771
L52064 42827
L52121 42883
L52177 42827
L52121 42771
L52121 42883
" />
<path d="M52852 43952
L52739 43896
L52683 43783
L52683 42771
" />
<path d="M53470 43952
L53358 43896
L53302 43783
L53302 42771
" />
<path d="M54820 43952
L54820 42771
L55214 43614
L55608 42771
L55608 43952
" />
<path d="M56676 43952
L56676 43333
L56620 43221
L56507 43165
L56283 43165
L56170 43221
" />
<path d="M56676 43896
L56564 43952
L56283 43952
L56170 43896
L56114 43783
L56114 43671
L56170 43558
L56283 43502
L56564 43502
L56676 43446
" />
<path d="M57239 43165
L57239 44346
" />
<path d="M57239 43221
L57351 43165
L57576 43165
L57689 43221
L57745 43277
L57801 43389
L57801 43727
L57745 43839
L57689 43896
L57576 43952
L57351 43952
L57239 43896
" />
<path d="M58307 43839
L58364 43896
L58307 43952
L58251 43896
L58307 43839
L58307 43952
" />
<path d="M58307 43221
L58364 43277
L58307 43333
L58251 43277
L58307 43221
L58307 43333
" />
<path d="M48923 45819
L49081 45977
" />
<path d="M49081 45819
L48923 45977
" />
<path d="M50433 45251
L50546 45251
L50658 45307
L50714 45364
L50771 45476
L50827 45701
L50827 45982
L50771 46207
L50714 46320
L50658 46376
L50546 46432
L50433 46432
L50321 46376
L50265 46320
L50208 46207
L50152 45982
L50152 45701
L50208 45476
L50265 45364
L50321 45307
L50433 45251
" />
<path d="M51333 46320
L51389 46376
L51333 46432
L51277 46376
L51333 46320
L51333 46432
" />
<path d="M52402 45645
L52402 46432
" />
<path d="M52121 45195
L51839 46039
L52570 46039
" />
<path d="M53245 45251
L53358 45251
L53470 45307
L53527 45364
L53583 45476
L53639 45701
L53639 45982
L53583 46207
L53527 46320
L53470 46376
L53358 46432
L53245 46432
L53133 46376
L53077 46320
L53020 46207
L52964 45982
L52964 45701
L53020 45476
L53077 45364
L53133 45307
L53245 45251
" />
<path d="M54145 46432
L54145 45645
" />
<path d="M54145 45757
L54202 45701
L54314 45645
L54483 45645
L54595 45701
L54651 45814
L54651 46432
" />
<path d="M54651 45814
L54708 45701
L54820 45645
L54989 45645
L55101 45701
L55158 45814
L55158 46432
" />
<path d="M55720 46432
L55720 45645
" />
<path d="M55720 45757
L55776 45701
L55889 45645
L56058 45645
L56170 45701
L56226 45814
L56226 46432
" />
<path d="M56226 45814
L56283 45701
L56395 45645
L56564 45645
L56676 45701
L56732 45814
L56732 46432
" />
<path d="M59038 45195
L58026 46713
" />
<path d="M60557 45251
L60669 45251
L60782 45307
L60838 45364
L60894 45476
L60951 45701
L60951 45982
L60894 46207
L60838 46320
L60782 46376
L60669 46432
L60557 46432
L60444 46376
L60388 46320
L60332 46207
L60276 45982
L60276 45701
L60332 45476
L60388 45364
L60444 45307
L60557 45251
" />
<path d="M61457 46320
L61513 46376
L61457 46432
L61401 46376
L61457 46320
L61457 46432
" />
<path d="M62244 45251
L62357 45251
L62469 45307
L62525 45364
L62582 45476
L62638 45701
L62638 45982
L62582 46207
L62525 46320
L62469 46376
L62357 46432
L62244 46432
L62132 46376
L62076 46320
L62019 46207
L61963 45982
L61963 45701
L62019 45476
L62076 45364
L62132 45307
L62244 45251
" />
<path d="M63763 46432
L63088 46432
" />
<path d="M63425 46432
L63425 45251
L63313 45420
L63200 45532
L63088 45589
" />
<path d="M64775 45251
L64550 45251
L64438 45307
L64382 45364
L64269 45532
L64213 45757
L64213 46207
L64269 46320
L64325 46376
L64438 46432
L64663 46432
L64775 46376
L64831 46320
L64888 46207
L64888 45926
L64831 45814
L64775 45757
L64663 45701
L64438 45701
L64325 45757
L64269 45814
L64213 45926
" />
<path d="M65338 45251
L65338 45476
" />
<path d="M65788 45251
L65788 45476
" />
<path d="M67531 46882
L67475 46826
L67362 46657
L67306 46545
L67250 46376
L67194 46095
L67194 45870
L67250 45589
L67306 45420
L67362 45307
L67475 45139
L67531 45082
" />
<path d="M68600 46432
L67925 46432
" />
<path d="M68262 46432
L68262 45251
L68150 45420
L68037 45532
L67925 45589
" />
<path d="M69162 46432
L69387 46432
L69500 46376
L69556 46320
L69668 46151
L69725 45926
L69725 45476
L69668 45364
L69612 45307
L69500 45251
L69275 45251
L69162 45307
L69106 45364
L69050 45476
L69050 45757
L69106 45870
L69162 45926
L69275 45982
L69500 45982
L69612 45926
L69668 45870
L69725 45757
" />
<path d="M71131 46432
L71131 45251
" />
<path d="M71637 46432
L71637 45814
L71581 45701
L71468 45645
L71299 45645
L71187 45701
L71131 45757
" />
<path d="M72368 46432
L72256 46376
L72199 46320
L72143 46207
L72143 45870
L72199 45757
L72256 45701
L72368 45645
L72537 45645
L72649 45701
L72705 45757
L72762 45870
L72762 46207
L72705 46320
L72649 46376
L72537 46432
L72368 46432
" />
<path d="M73437 46432
L73324 46376
L73268 46264
L73268 45251
" />
<path d="M74337 46376
L74224 46432
L73999 46432
L73887 46376
L73830 46264
L73830 45814
L73887 45701
L73999 45645
L74224 45645
L74337 45701
L74393 45814
L74393 45926
L73830 46039
" />
<path d="M74843 46376
L74955 46432
L75180 46432
L75293 46376
L75349 46264
L75349 46207
L75293 46095
L75180 46039
L75011 46039
L74899 45982
L74843 45870
L74843 45814
L74899 45701
L75011 45645
L75180 45645
L75293 45701
" />
<path d="M75743 46882
L75799 46826
L75911 46657
L75968 46545
L76024 46376
L76080 46095
L76080 45870
L76024 45589
L75968 45420
L75911 45307
L75799 45139
L75743 45082
" />
<circle cx="48906.1" cy="47457.5" r="175" /> 
<path d="M50433 46810
L50546 46810
L50658 46866
L50714 46923
L50771 47035
L50827 47260
L50827 47541
L50771 47766
L50714 47879
L50658 47935
L50546 47991
L50433 47991
L50321 47935
L50265 47879
L50208 47766
L50152 47541
L50152 47260
L50208 47035
L50265 46923
L50321 46866
L50433 46810
" />
<path d="M51333 47879
L51389 47935
L51333 47991
L51277 47935
L51333 47879
L51333 47991
" />
<path d="M52064 47316
L51952 47260
L51896 47204
L51839 47091
L51839 47035
L51896 46923
L51952 46866
L52064 46810
L52289 46810
L52402 46866
L52458 46923
L52514 47035
L52514 47091
L52458 47204
L52402 47260
L52289 47316
L52064 47316
L51952 47373
L51896 47429
L51839 47541
L51839 47766
L51896 47879
L51952 47935
L52064 47991
L52289 47991
L52402 47935
L52458 47879
L52514 47766
L52514 47541
L52458 47429
L52402 47373
L52289 47316
" />
<path d="M53077 47991
L53302 47991
L53414 47935
L53470 47879
L53583 47710
L53639 47485
L53639 47035
L53583 46923
L53527 46866
L53414 46810
L53189 46810
L53077 46866
L53020 46923
L52964 47035
L52964 47316
L53020 47429
L53077 47485
L53189 47541
L53414 47541
L53527 47485
L53583 47429
L53639 47316
" />
<path d="M54145 47991
L54145 47204
" />
<path d="M54145 47316
L54202 47260
L54314 47204
L54483 47204
L54595 47260
L54651 47373
L54651 47991
" />
<path d="M54651 47373
L54708 47260
L54820 47204
L54989 47204
L55101 47260
L55158 47373
L55158 47991
" />
<path d="M55720 47991
L55720 47204
" />
<path d="M55720 47316
L55776 47260
L55889 47204
L56058 47204
L56170 47260
L56226 47373
L56226 47991
" />
<path d="M56226 47373
L56283 47260
L56395 47204
L56564 47204
L56676 47260
L56732 47373
L56732 47991
" />
<path d="M59038 46754
L58026 48273
" />
<path d="M60557 46810
L60669 46810
L60782 46866
L60838 46923
L60894 47035
L60951 47260
L60951 47541
L60894 47766
L60838 47879
L60782 47935
L60669 47991
L60557 47991
L60444 47935
L60388 47879
L60332 47766
L60276 47541
L60276 47260
L60332 47035
L60388 46923
L60444 46866
L60557 46810
" />
<path d="M61457 47879
L61513 47935
L61457 47991
L61401 47935
L61457 47879
L61457 47991
" />
<path d="M62244 46810
L62357 46810
L62469 46866
L62525 46923
L62582 47035
L62638 47260
L62638 47541
L62582 47766
L62525 47879
L62469 47935
L62357 47991
L62244 47991
L62132 47935
L62076 47879
L62019 47766
L61963 47541
L61963 47260
L62019 47035
L62076 46923
L62132 46866
L62244 46810
" />
<path d="M63032 46810
L63763 46810
L63369 47260
L63538 47260
L63650 47316
L63707 47373
L63763 47485
L63763 47766
L63707 47879
L63650 47935
L63538 47991
L63200 47991
L63088 47935
L63032 47879
" />
<path d="M64831 46810
L64269 46810
L64213 47373
L64269 47316
L64382 47260
L64663 47260
L64775 47316
L64831 47373
L64888 47485
L64888 47766
L64831 47879
L64775 47935
L64663 47991
L64382 47991
L64269 47935
L64213 47879
" />
<path d="M65338 46810
L65338 47035
" />
<path d="M65788 46810
L65788 47035
" />
<path d="M67531 48441
L67475 48385
L67362 48216
L67306 48104
L67250 47935
L67194 47654
L67194 47429
L67250 47148
L67306 46979
L67362 46866
L67475 46698
L67531 46641
" />
<path d="M68600 47991
L67925 47991
" />
<path d="M68262 47991
L68262 46810
L68150 46979
L68037 47091
L67925 47148
" />
<path d="M69050 46923
L69106 46866
L69218 46810
L69500 46810
L69612 46866
L69668 46923
L69725 47035
L69725 47148
L69668 47316
L68993 47991
L69725 47991
" />
<path d="M71131 47991
L71131 46810
" />
<path d="M71637 47991
L71637 47373
L71581 47260
L71468 47204
L71299 47204
L71187 47260
L71131 47316
" />
<path d="M72368 47991
L72256 47935
L72199 47879
L72143 47766
L72143 47429
L72199 47316
L72256 47260
L72368 47204
L72537 47204
L72649 47260
L72705 47316
L72762 47429
L72762 47766
L72705 47879
L72649 47935
L72537 47991
L72368 47991
" />
<path d="M73437 47991
L73324 47935
L73268 47823
L73268 46810
" />
<path d="M74337 47935
L74224 47991
L73999 47991
L73887 47935
L73830 47823
L73830 47373
L73887 47260
L73999 47204
L74224 47204
L74337 47260
L74393 47373
L74393 47485
L73830 47598
" />
<path d="M74843 47935
L74955 47991
L75180 47991
L75293 47935
L75349 47823
L75349 47766
L75293 47654
L75180 47598
L75011 47598
L74899 47541
L74843 47429
L74843 47373
L74899 47260
L75011 47204
L75180 47204
L75293 47260
" />
<path d="M75743 48441
L75799 48385
L75911 48216
L75968 48104
L76024 47935
L76080 47654
L76080 47429
L76024 47148
L75968 46979
L75911 46866
L75799 46698
L75743 46641
" />
<path d="M48825 48760
L48825 49272
" />
<path d="M48569 49016
L49081 49016
" />
<path d="M50827 49550
L50152 49550
" />
<path d="M50489 49550
L50489 48369
L50377 48538
L50265 48650
L50152 48707
" />
<path d="M51333 49438
L51389 49494
L51333 49550
L51277 49494
L51333 49438
L51333 49550
" />
<path d="M51783 48369
L52514 48369
L52121 48819
L52289 48819
L52402 48875
L52458 48932
L52514 49044
L52514 49325
L52458 49438
L52402 49494
L52289 49550
L51952 49550
L51839 49494
L51783 49438
" />
<path d="M53245 48369
L53358 48369
L53470 48425
L53527 48482
L53583 48594
L53639 48819
L53639 49100
L53583 49325
L53527 49438
L53470 49494
L53358 49550
L53245 49550
L53133 49494
L53077 49438
L53020 49325
L52964 49100
L52964 48819
L53020 48594
L53077 48482
L53133 48425
L53245 48369
" />
<path d="M54145 49550
L54145 48763
" />
<path d="M54145 48875
L54202 48819
L54314 48763
L54483 48763
L54595 48819
L54651 48932
L54651 49550
" />
<path d="M54651 48932
L54708 48819
L54820 48763
L54989 48763
L55101 48819
L55158 48932
L55158 49550
" />
<path d="M55720 49550
L55720 48763
" />
<path d="M55720 48875
L55776 48819
L55889 48763
L56058 48763
L56170 48819
L56226 48932
L56226 49550
" />
<path d="M56226 48932
L56283 48819
L56395 48763
L56564 48763
L56676 48819
L56732 48932
L56732 49550
" />
<path d="M59038 48313
L58026 49832
" />
<path d="M60557 48369
L60669 48369
L60782 48425
L60838 48482
L60894 48594
L60951 48819
L60951 49100
L60894 49325
L60838 49438
L60782 49494
L60669 49550
L60557 49550
L60444 49494
L60388 49438
L60332 49325
L60276 49100
L60276 48819
L60332 48594
L60388 48482
L60444 48425
L60557 48369
" />
<path d="M61457 49438
L61513 49494
L61457 49550
L61401 49494
L61457 49438
L61457 49550
" />
<path d="M62244 48369
L62357 48369
L62469 48425
L62525 48482
L62582 48594
L62638 48819
L62638 49100
L62582 49325
L62525 49438
L62469 49494
L62357 49550
L62244 49550
L62132 49494
L62076 49438
L62019 49325
L61963 49100
L61963 48819
L62019 48594
L62076 48482
L62132 48425
L62244 48369
" />
<path d="M63707 48369
L63144 48369
L63088 48932
L63144 48875
L63257 48819
L63538 48819
L63650 48875
L63707 48932
L63763 49044
L63763 49325
L63707 49438
L63650 49494
L63538 49550
L63257 49550
L63144 49494
L63088 49438
" />
<path d="M64888 49550
L64213 49550
" />
<path d="M64550 49550
L64550 48369
L64438 48538
L64325 48650
L64213 48707
" />
<path d="M65338 48369
L65338 48594
" />
<path d="M65788 48369
L65788 48594
" />
<path d="M67531 50000
L67475 49944
L67362 49775
L67306 49663
L67250 49494
L67194 49213
L67194 48988
L67250 48707
L67306 48538
L67362 48425
L67475 48257
L67531 48201
" />
<path d="M68150 48875
L68037 48819
L67981 48763
L67925 48650
L67925 48594
L67981 48482
L68037 48425
L68150 48369
L68375 48369
L68487 48425
L68543 48482
L68600 48594
L68600 48650
L68543 48763
L68487 48819
L68375 48875
L68150 48875
L68037 48932
L67981 48988
L67925 49100
L67925 49325
L67981 49438
L68037 49494
L68150 49550
L68375 49550
L68487 49494
L68543 49438
L68600 49325
L68600 49100
L68543 48988
L68487 48932
L68375 48875
" />
<path d="M70006 49550
L70006 48369
" />
<path d="M70512 49550
L70512 48932
L70456 48819
L70343 48763
L70175 48763
L70062 48819
L70006 48875
" />
<path d="M71243 49550
L71131 49494
L71074 49438
L71018 49325
L71018 48988
L71074 48875
L71131 48819
L71243 48763
L71412 48763
L71524 48819
L71581 48875
L71637 48988
L71637 49325
L71581 49438
L71524 49494
L71412 49550
L71243 49550
" />
<path d="M72312 49550
L72199 49494
L72143 49382
L72143 48369
" />
<path d="M73212 49494
L73099 49550
L72874 49550
L72762 49494
L72705 49382
L72705 48932
L72762 48819
L72874 48763
L73099 48763
L73212 48819
L73268 48932
L73268 49044
L72705 49157
" />
<path d="M73718 49494
L73830 49550
L74055 49550
L74168 49494
L74224 49382
L74224 49325
L74168 49213
L74055 49157
L73887 49157
L73774 49100
L73718 48988
L73718 48932
L73774 48819
L73887 48763
L74055 48763
L74168 48819
" />
<path d="M74618 50000
L74674 49944
L74786 49775
L74843 49663
L74899 49494
L74955 49213
L74955 48988
L74899 48707
L74843 48538
L74786 48425
L74674 48257
L74618 48201
" />
<polyline fill="none;"
points="48908,50993
48908,50158
48072,50158
48072,50993
48908,50993
" /> 
<path d="M50096 49928
L50827 49928
L50433 50378
L50602 50378
L50714 50434
L50771 50491
L50827 50603
L50827 50884
L50771 50997
L50714 51053
L50602 51109
L50265 51109
L50152 51053
L50096 50997
" />
<path d="M51333 50997
L51389 51053
L51333 51109
L51277 51053
L51333 50997
L51333 51109
" />
<path d="M52121 49928
L52233 49928
L52346 49985
L52402 50041
L52458 50153
L52514 50378
L52514 50659
L52458 50884
L52402 50997
L52346 51053
L52233 51109
L52121 51109
L52008 51053
L51952 50997
L51896 50884
L51839 50659
L51839 50378
L51896 50153
L51952 50041
L52008 49985
L52121 49928
" />
<path d="M53245 49928
L53358 49928
L53470 49985
L53527 50041
L53583 50153
L53639 50378
L53639 50659
L53583 50884
L53527 50997
L53470 51053
L53358 51109
L53245 51109
L53133 51053
L53077 50997
L53020 50884
L52964 50659
L52964 50378
L53020 50153
L53077 50041
L53133 49985
L53245 49928
" />
<path d="M54145 51109
L54145 50322
" />
<path d="M54145 50434
L54202 50378
L54314 50322
L54483 50322
L54595 50378
L54651 50491
L54651 51109
" />
<path d="M54651 50491
L54708 50378
L54820 50322
L54989 50322
L55101 50378
L55158 50491
L55158 51109
" />
<path d="M55720 51109
L55720 50322
" />
<path d="M55720 50434
L55776 50378
L55889 50322
L56058 50322
L56170 50378
L56226 50491
L56226 51109
" />
<path d="M56226 50491
L56283 50378
L56395 50322
L56564 50322
L56676 50378
L56732 50491
L56732 51109
" />
<path d="M59038 49872
L58026 51391
" />
<path d="M60557 49928
L60669 49928
L60782 49985
L60838 50041
L60894 50153
L60951 50378
L60951 50659
L60894 50884
L60838 50997
L60782 51053
L60669 51109
L60557 51109
L60444 51053
L60388 50997
L60332 50884
L60276 50659
L60276 50378
L60332 50153
L60388 50041
L60444 49985
L60557 49928
" />
<path d="M61457 50997
L61513 51053
L61457 51109
L61401 51053
L61457 50997
L61457 51109
" />
<path d="M62638 51109
L61963 51109
" />
<path d="M62301 51109
L62301 49928
L62188 50097
L62076 50210
L61963 50266
" />
<path d="M63763 51109
L63088 51109
" />
<path d="M63425 51109
L63425 49928
L63313 50097
L63200 50210
L63088 50266
" />
<path d="M64438 50434
L64325 50378
L64269 50322
L64213 50210
L64213 50153
L64269 50041
L64325 49985
L64438 49928
L64663 49928
L64775 49985
L64831 50041
L64888 50153
L64888 50210
L64831 50322
L64775 50378
L64663 50434
L64438 50434
L64325 50491
L64269 50547
L64213 50659
L64213 50884
L64269 50997
L64325 51053
L64438 51109
L64663 51109
L64775 51053
L64831 50997
L64888 50884
L64888 50659
L64831 50547
L64775 50491
L64663 50434
" />
<path d="M65338 49928
L65338 50153
" />
<path d="M65788 49928
L65788 50153
" />
<path d="M67531 51559
L67475 51503
L67362 51334
L67306 51222
L67250 51053
L67194 50772
L67194 50547
L67250 50266
L67306 50097
L67362 49985
L67475 49816
L67531 49760
" />
<path d="M68487 50322
L68487 51109
" />
<path d="M68206 49872
L67925 50716
L68656 50716
" />
<path d="M70006 51109
L70006 49928
" />
<path d="M70512 51109
L70512 50491
L70456 50378
L70343 50322
L70175 50322
L70062 50378
L70006 50434
" />
<path d="M71243 51109
L71131 51053
L71074 50997
L71018 50884
L71018 50547
L71074 50434
L71131 50378
L71243 50322
L71412 50322
L71524 50378
L71581 50434
L71637 50547
L71637 50884
L71581 50997
L71524 51053
L71412 51109
L71243 51109
" />
<path d="M72312 51109
L72199 51053
L72143 50941
L72143 49928
" />
<path d="M73212 51053
L73099 51109
L72874 51109
L72762 51053
L72705 50941
L72705 50491
L72762 50378
L72874 50322
L73099 50322
L73212 50378
L73268 50491
L73268 50603
L72705 50716
" />
<path d="M73718 51053
L73830 51109
L74055 51109
L74168 51053
L74224 50941
L74224 50884
L74168 50772
L74055 50716
L73887 50716
L73774 50659
L73718 50547
L73718 50491
L73774 50378
L73887 50322
L74055 50322
L74168 50378
" />
<path d="M74618 51559
L74674 51503
L74786 51334
L74843 51222
L74899 51053
L74955 50772
L74955 50547
L74899 50266
L74843 50097
L74786 49985
L74674 49816
L74618 49760
" />
</g> 
</svg>
