%TF.GenerationSoftware,KiCad,Pcbnew,no-vcs-found-7409~56~ubuntu16.04.1*%
%TF.CreationDate,2016-12-31T13:53:23+01:00*%
%TF.ProjectId,PWMLED01B,50574D4C45443031422E6B696361645F,rev?*%
%TF.FileFunction,Copper,L1,Top,Signal*%
%TF.FilePolarity,Positive*%
%FSLAX46Y46*%
G04 Gerber Fmt 4.6, Leading zero omitted, Abs format (unit mm)*
G04 Created by KiCad (PCBNEW no-vcs-found-7409~56~ubuntu16.04.1) date Sat Dec 31 13:53:23 2016*
%MOMM*%
%LPD*%
G01*
G04 APERTURE LIST*
%ADD10C,0.350000*%
%ADD11C,0.100000*%
%ADD12R,1.524000X1.524000*%
%ADD13R,3.810000X3.810000*%
%ADD14C,6.000000*%
%ADD15C,0.600000*%
%ADD16C,0.600000*%
%ADD17C,0.250000*%
%ADD18C,0.254000*%
%ADD19C,0.350000*%
G04 APERTURE END LIST*
D10*
D11*
X124716000Y-106932000D02*
X124716000Y-66804000D01*
X154684000Y-66804000D02*
X124716000Y-66804000D01*
X154684000Y-106932000D02*
X154684000Y-66804000D01*
X124716000Y-106932000D02*
X154684000Y-106932000D01*
D12*
X129540000Y-96266000D03*
X127000000Y-96266000D03*
X129540000Y-93726000D03*
X127000000Y-93726000D03*
D13*
X136906000Y-101774000D03*
X136906000Y-96774000D03*
X141986000Y-101774000D03*
X141986000Y-96774000D03*
D12*
X127000000Y-77470000D03*
X129540000Y-77470000D03*
X127000000Y-80010000D03*
X129540000Y-80010000D03*
X127000000Y-82550000D03*
X129540000Y-82550000D03*
X127000000Y-85090000D03*
X129540000Y-85090000D03*
D13*
X142748000Y-71962000D03*
X142748000Y-76962000D03*
X137668000Y-71962000D03*
X137668000Y-76962000D03*
D14*
X149840000Y-102108000D03*
X149840000Y-71628000D03*
X129540000Y-71628000D03*
X129540000Y-102108000D03*
D15*
X131660000Y-89192000D03*
X131660000Y-90132000D03*
X132500000Y-90132000D03*
X132500000Y-89192000D03*
X141732000Y-88900000D03*
X141732000Y-87884000D03*
X141732000Y-86868000D03*
X141732000Y-85852000D03*
X141224000Y-84074000D03*
X127000000Y-75438000D03*
X128270000Y-75438000D03*
X129540000Y-75438000D03*
X133604000Y-75438000D03*
X131236226Y-75438000D03*
X125730000Y-86360000D03*
X129540000Y-86614000D03*
X131826000Y-87122000D03*
X133560706Y-92062706D03*
X133858000Y-93218000D03*
D16*
X131660000Y-90132000D02*
X132500000Y-90132000D01*
X131660000Y-89192000D02*
X131660000Y-90132000D01*
X132500000Y-90132000D02*
X132500000Y-90032000D01*
X132500000Y-90032000D02*
X131660000Y-89192000D01*
X132500000Y-89192000D02*
X132500000Y-90132000D01*
X131660000Y-89192000D02*
X132500000Y-89192000D01*
D17*
X141732000Y-88900000D02*
X141732000Y-87884000D01*
X141732000Y-86868000D02*
X141732000Y-85852000D01*
X127000000Y-77470000D02*
X127000000Y-75438000D01*
X128270000Y-75438000D02*
X129540000Y-75438000D01*
X133604000Y-75438000D02*
X131236226Y-75438000D01*
X127000000Y-85090000D02*
X125730000Y-86360000D01*
X131660000Y-87288000D02*
X131826000Y-87122000D01*
X131660000Y-89192000D02*
X131660000Y-87288000D01*
D18*
G36*
X138811000Y-103759000D02*
X135001000Y-103759000D01*
X135001000Y-90385547D01*
X132761084Y-87025674D01*
X132761162Y-86936833D01*
X132619117Y-86593057D01*
X132356327Y-86329808D01*
X132274530Y-86295842D01*
X130944023Y-84300083D01*
X130902463Y-84085877D01*
X130762673Y-83873073D01*
X130574810Y-83746263D01*
X130369968Y-83439000D01*
X126111000Y-83439000D01*
X126111000Y-79121000D01*
X130745328Y-79121000D01*
X138811000Y-90211298D01*
X138811000Y-94742000D01*
X138811000Y-103759000D01*
X138811000Y-103759000D01*
G37*
X138811000Y-103759000D02*
X135001000Y-103759000D01*
X135001000Y-90385547D01*
X132761084Y-87025674D01*
X132761162Y-86936833D01*
X132619117Y-86593057D01*
X132356327Y-86329808D01*
X132274530Y-86295842D01*
X130944023Y-84300083D01*
X130902463Y-84085877D01*
X130762673Y-83873073D01*
X130574810Y-83746263D01*
X130369968Y-83439000D01*
X126111000Y-83439000D01*
X126111000Y-79121000D01*
X130745328Y-79121000D01*
X138811000Y-90211298D01*
X138811000Y-94742000D01*
X138811000Y-103759000D01*
G36*
X153999000Y-106247000D02*
X145300440Y-106247000D01*
X145300440Y-78867000D01*
X145300440Y-75057000D01*
X145253463Y-74814877D01*
X145113673Y-74602073D01*
X144904818Y-74461093D01*
X145107927Y-74327673D01*
X145250377Y-74116640D01*
X145300440Y-73867000D01*
X145300440Y-70057000D01*
X145253463Y-69814877D01*
X145113673Y-69602073D01*
X144902640Y-69459623D01*
X144653000Y-69409560D01*
X140843000Y-69409560D01*
X140600877Y-69456537D01*
X140388073Y-69596327D01*
X140245623Y-69807360D01*
X140208205Y-69993942D01*
X140173463Y-69814877D01*
X140033673Y-69602073D01*
X139822640Y-69459623D01*
X139573000Y-69409560D01*
X135763000Y-69409560D01*
X135520877Y-69456537D01*
X135308073Y-69596327D01*
X135165623Y-69807360D01*
X135115560Y-70057000D01*
X135115560Y-73867000D01*
X135162537Y-74109123D01*
X135302327Y-74321927D01*
X135511181Y-74462906D01*
X135308073Y-74596327D01*
X135165623Y-74807360D01*
X135115560Y-75057000D01*
X135115560Y-78867000D01*
X135162537Y-79109123D01*
X135302327Y-79321927D01*
X135513360Y-79464377D01*
X135763000Y-79514440D01*
X139573000Y-79514440D01*
X139815123Y-79467463D01*
X140027927Y-79327673D01*
X140170377Y-79116640D01*
X140207794Y-78930057D01*
X140242537Y-79109123D01*
X140382327Y-79321927D01*
X140593360Y-79464377D01*
X140843000Y-79514440D01*
X144653000Y-79514440D01*
X144895123Y-79467463D01*
X145107927Y-79327673D01*
X145250377Y-79116640D01*
X145300440Y-78867000D01*
X145300440Y-106247000D01*
X130949440Y-106247000D01*
X130949440Y-97028000D01*
X130949440Y-95504000D01*
X130902463Y-95261877D01*
X130762673Y-95049073D01*
X130684458Y-94996277D01*
X130756927Y-94948673D01*
X130899377Y-94737640D01*
X130949440Y-94488000D01*
X130949440Y-92964000D01*
X130902463Y-92721877D01*
X130762673Y-92509073D01*
X130551640Y-92366623D01*
X130302000Y-92316560D01*
X128778000Y-92316560D01*
X128535877Y-92363537D01*
X128323073Y-92503327D01*
X128270277Y-92581541D01*
X128222673Y-92509073D01*
X128011640Y-92366623D01*
X127762000Y-92316560D01*
X126238000Y-92316560D01*
X125995877Y-92363537D01*
X125783073Y-92503327D01*
X125640623Y-92714360D01*
X125590560Y-92964000D01*
X125590560Y-94488000D01*
X125637537Y-94730123D01*
X125777327Y-94942927D01*
X125855541Y-94995722D01*
X125783073Y-95043327D01*
X125640623Y-95254360D01*
X125590560Y-95504000D01*
X125590560Y-97028000D01*
X125637537Y-97270123D01*
X125777327Y-97482927D01*
X125988360Y-97625377D01*
X126238000Y-97675440D01*
X127762000Y-97675440D01*
X128004123Y-97628463D01*
X128216927Y-97488673D01*
X128269722Y-97410458D01*
X128317327Y-97482927D01*
X128528360Y-97625377D01*
X128778000Y-97675440D01*
X130302000Y-97675440D01*
X130544123Y-97628463D01*
X130756927Y-97488673D01*
X130899377Y-97277640D01*
X130949440Y-97028000D01*
X130949440Y-106247000D01*
X125401000Y-106247000D01*
X125401000Y-84201000D01*
X129962158Y-84201000D01*
X134239000Y-90616263D01*
X134239000Y-104521000D01*
X139573000Y-104521000D01*
X139573000Y-94742000D01*
X139573000Y-89963508D01*
X131133358Y-78359000D01*
X125401000Y-78359000D01*
X125401000Y-67489000D01*
X153999000Y-67489000D01*
X153999000Y-106247000D01*
X153999000Y-106247000D01*
G37*
X153999000Y-106247000D02*
X145300440Y-106247000D01*
X145300440Y-78867000D01*
X145300440Y-75057000D01*
X145253463Y-74814877D01*
X145113673Y-74602073D01*
X144904818Y-74461093D01*
X145107927Y-74327673D01*
X145250377Y-74116640D01*
X145300440Y-73867000D01*
X145300440Y-70057000D01*
X145253463Y-69814877D01*
X145113673Y-69602073D01*
X144902640Y-69459623D01*
X144653000Y-69409560D01*
X140843000Y-69409560D01*
X140600877Y-69456537D01*
X140388073Y-69596327D01*
X140245623Y-69807360D01*
X140208205Y-69993942D01*
X140173463Y-69814877D01*
X140033673Y-69602073D01*
X139822640Y-69459623D01*
X139573000Y-69409560D01*
X135763000Y-69409560D01*
X135520877Y-69456537D01*
X135308073Y-69596327D01*
X135165623Y-69807360D01*
X135115560Y-70057000D01*
X135115560Y-73867000D01*
X135162537Y-74109123D01*
X135302327Y-74321927D01*
X135511181Y-74462906D01*
X135308073Y-74596327D01*
X135165623Y-74807360D01*
X135115560Y-75057000D01*
X135115560Y-78867000D01*
X135162537Y-79109123D01*
X135302327Y-79321927D01*
X135513360Y-79464377D01*
X135763000Y-79514440D01*
X139573000Y-79514440D01*
X139815123Y-79467463D01*
X140027927Y-79327673D01*
X140170377Y-79116640D01*
X140207794Y-78930057D01*
X140242537Y-79109123D01*
X140382327Y-79321927D01*
X140593360Y-79464377D01*
X140843000Y-79514440D01*
X144653000Y-79514440D01*
X144895123Y-79467463D01*
X145107927Y-79327673D01*
X145250377Y-79116640D01*
X145300440Y-78867000D01*
X145300440Y-106247000D01*
X130949440Y-106247000D01*
X130949440Y-97028000D01*
X130949440Y-95504000D01*
X130902463Y-95261877D01*
X130762673Y-95049073D01*
X130684458Y-94996277D01*
X130756927Y-94948673D01*
X130899377Y-94737640D01*
X130949440Y-94488000D01*
X130949440Y-92964000D01*
X130902463Y-92721877D01*
X130762673Y-92509073D01*
X130551640Y-92366623D01*
X130302000Y-92316560D01*
X128778000Y-92316560D01*
X128535877Y-92363537D01*
X128323073Y-92503327D01*
X128270277Y-92581541D01*
X128222673Y-92509073D01*
X128011640Y-92366623D01*
X127762000Y-92316560D01*
X126238000Y-92316560D01*
X125995877Y-92363537D01*
X125783073Y-92503327D01*
X125640623Y-92714360D01*
X125590560Y-92964000D01*
X125590560Y-94488000D01*
X125637537Y-94730123D01*
X125777327Y-94942927D01*
X125855541Y-94995722D01*
X125783073Y-95043327D01*
X125640623Y-95254360D01*
X125590560Y-95504000D01*
X125590560Y-97028000D01*
X125637537Y-97270123D01*
X125777327Y-97482927D01*
X125988360Y-97625377D01*
X126238000Y-97675440D01*
X127762000Y-97675440D01*
X128004123Y-97628463D01*
X128216927Y-97488673D01*
X128269722Y-97410458D01*
X128317327Y-97482927D01*
X128528360Y-97625377D01*
X128778000Y-97675440D01*
X130302000Y-97675440D01*
X130544123Y-97628463D01*
X130756927Y-97488673D01*
X130899377Y-97277640D01*
X130949440Y-97028000D01*
X130949440Y-106247000D01*
X125401000Y-106247000D01*
X125401000Y-84201000D01*
X129962158Y-84201000D01*
X134239000Y-90616263D01*
X134239000Y-104521000D01*
X139573000Y-104521000D01*
X139573000Y-94742000D01*
X139573000Y-89963508D01*
X131133358Y-78359000D01*
X125401000Y-78359000D01*
X125401000Y-67489000D01*
X153999000Y-67489000D01*
X153999000Y-106247000D01*
D19*
X131660000Y-89192000D03*
X131660000Y-90132000D03*
X132500000Y-90132000D03*
X132500000Y-89192000D03*
X141732000Y-88900000D03*
X141732000Y-87884000D03*
X141732000Y-86868000D03*
X141732000Y-85852000D03*
X141224000Y-84074000D03*
X127000000Y-75438000D03*
X128270000Y-75438000D03*
X129540000Y-75438000D03*
X133604000Y-75438000D03*
X131236226Y-75438000D03*
X125730000Y-86360000D03*
X129540000Y-86614000D03*
X131826000Y-87122000D03*
X133560706Y-92062706D03*
X133858000Y-93218000D03*
X129540000Y-96266000D03*
X127000000Y-96266000D03*
X129540000Y-93726000D03*
X127000000Y-93726000D03*
X136906000Y-101774000D03*
X136906000Y-96774000D03*
X141986000Y-101774000D03*
X141986000Y-96774000D03*
X127000000Y-77470000D03*
X129540000Y-77470000D03*
X127000000Y-80010000D03*
X129540000Y-80010000D03*
X127000000Y-82550000D03*
X129540000Y-82550000D03*
X127000000Y-85090000D03*
X129540000Y-85090000D03*
X142748000Y-71962000D03*
X142748000Y-76962000D03*
X137668000Y-71962000D03*
X137668000Y-76962000D03*
X149840000Y-102108000D03*
X149840000Y-71628000D03*
X129540000Y-71628000D03*
X129540000Y-102108000D03*
M02*
