<?xml version="1.0" standalone="no"?>
 <!DOCTYPE svg PUBLIC "-//W3C//DTD SVG 1.1//EN" 
 "http://www.w3.org/Graphics/SVG/1.1/DTD/svg11.dtd"> 
<svg xmlns="http://www.w3.org/2000/svg" version="1.1" 
    width="29.7002cm" height="21.0007cm" viewBox="0 0 116930 82680 ">
<title>SVG Picture created as PWMLED01B-B_Cu.svg date 2016/12/31 13:53:23 </title>
  <desc>Picture generated by PCBNEW </desc>
<g style="fill:#000000; fill-opacity:1;stroke:#000000; stroke-opacity:1;
stroke-linecap:round; stroke-linejoin:round; "
 transform="translate(0 0) scale(1 1)">
</g>
<g style="fill:#000000; fill-opacity:0.0; 
stroke:#000000; stroke-width:-0.000393701; stroke-opacity:1; 
stroke-linecap:round; stroke-linejoin:round;">
</g>
<g style="fill:#000000; fill-opacity:0.0; 
stroke:#000000; stroke-width:118.11; stroke-opacity:1; 
stroke-linecap:round; stroke-linejoin:round;">
<path d="M60474 38131
L60474 37619
L60303 37985
L60133 37619
L60133 38131
" />
<path d="M59645 38131
L59889 38131
L59889 37619
" />
<path d="M59499 37985
L59255 37985
" />
<path d="M59548 38131
L59377 37619
L59207 38131
" />
<path d="M58865 37863
L58792 37887
L58768 37912
L58744 37960
L58744 38034
L58768 38082
L58792 38107
L58841 38131
L59036 38131
L59036 37619
L58865 37619
L58817 37644
L58792 37668
L58768 37717
L58768 37765
L58792 37814
L58817 37839
L58865 37863
L59036 37863
" />
<path d="M58524 38082
L58500 38107
L58524 38131
L58549 38107
L58524 38082
L58524 38131
" />
<path d="M57988 38082
L58012 38107
L58086 38131
L58134 38131
L58207 38107
L58256 38058
L58281 38009
L58305 37912
L58305 37839
L58281 37741
L58256 37692
L58207 37644
L58134 37619
L58086 37619
L58012 37644
L57988 37668
" />
<path d="M57817 37619
L57476 37619
L57817 38131
L57476 38131
" />
</g>
<g style="fill:#000000; fill-opacity:0.0; 
stroke:#000000; stroke-width:39.3701; stroke-opacity:1; 
stroke-linecap:round; stroke-linejoin:round;">
<path d="M49100 42099
L49100 26300
" />
<path d="M60899 26300
L49100 26300
" />
<path d="M60899 42099
L60899 26300
" />
<path d="M49100 42099
L60899 42099
" />
</g>
<g style="fill:#000000; fill-opacity:0.0; 
stroke:#000000; stroke-width:0; stroke-opacity:1; 
stroke-linecap:round; stroke-linejoin:round;">
</g>
<g style="fill:#000000; fill-opacity:1.0; 
stroke:#000000; stroke-width:0; stroke-opacity:1; 
stroke-linecap:round; stroke-linejoin:round;">
<polyline style="fill-rule:evenodd;"
points="53525,34850
54075,34850
54075,35200
53525,35200
53525,34850
" /> 
<polyline style="fill-rule:evenodd;"
points="53525,35600
54075,35600
54075,35950
53525,35950
53525,35600
" /> 
<polyline style="fill-rule:evenodd;"
points="52892,31108
51908,31108
51908,30104
52892,30104
52892,31108
" /> 
<polyline style="fill-rule:evenodd;"
points="52892,33096
51908,33096
51908,32092
52892,32092
52892,33096
" /> 
<polyline style="fill-rule:evenodd;"
points="54692,32308
53708,32308
53708,31304
54692,31304
54692,32308
" /> 
<polyline style="fill-rule:evenodd;"
points="54692,34296
53708,34296
53708,33292
54692,33292
54692,34296
" /> 
<polyline style="fill-rule:evenodd;"
points="55234,36445
54565,36445
54565,35933
55234,35933
55234,36445
" /> 
<polyline style="fill-rule:evenodd;"
points="55234,35067
54565,35067
54565,34555
55234,34555
55234,35067
" /> 
<polyline style="fill-rule:evenodd;"
points="51300,38200
50700,38200
50700,37600
51300,37600
51300,38200
" /> 
<polyline style="fill-rule:evenodd;"
points="50300,38200
49700,38200
49700,37600
50300,37600
50300,38200
" /> 
<polyline style="fill-rule:evenodd;"
points="51300,37200
50700,37200
50700,36600
51300,36600
51300,37200
" /> 
<polyline style="fill-rule:evenodd;"
points="50300,37200
49700,37200
49700,36600
50300,36600
50300,37200
" /> 
<polyline style="fill-rule:evenodd;"
points="54650,39318
54650,40818
53150,40818
53150,39318
54650,39318
" /> 
<polyline style="fill-rule:evenodd;"
points="54650,37350
54650,38850
53150,38850
53150,37350
54650,37350
" /> 
<polyline style="fill-rule:evenodd;"
points="56650,39318
56650,40818
55150,40818
55150,39318
56650,39318
" /> 
<polyline style="fill-rule:evenodd;"
points="56650,37350
56650,38850
55150,38850
55150,37350
56650,37350
" /> 
<polyline style="fill-rule:evenodd;"
points="49700,30800
49700,30200
50300,30200
50300,30800
49700,30800
" /> 
<polyline style="fill-rule:evenodd;"
points="50700,30800
50700,30200
51300,30200
51300,30800
50700,30800
" /> 
<polyline style="fill-rule:evenodd;"
points="49700,31800
49700,31200
50300,31200
50300,31800
49700,31800
" /> 
<polyline style="fill-rule:evenodd;"
points="50700,31800
50700,31200
51300,31200
51300,31800
50700,31800
" /> 
<polyline style="fill-rule:evenodd;"
points="49700,32800
49700,32200
50300,32200
50300,32800
49700,32800
" /> 
<polyline style="fill-rule:evenodd;"
points="50700,32800
50700,32200
51300,32200
51300,32800
50700,32800
" /> 
<polyline style="fill-rule:evenodd;"
points="49700,33800
49700,33200
50300,33200
50300,33800
49700,33800
" /> 
<polyline style="fill-rule:evenodd;"
points="50700,33800
50700,33200
51300,33200
51300,33800
50700,33800
" /> 
<polyline style="fill-rule:evenodd;"
points="55450,29081
55450,27581
56950,27581
56950,29081
55450,29081
" /> 
<polyline style="fill-rule:evenodd;"
points="55450,31050
55450,29550
56950,29550
56950,31050
55450,31050
" /> 
<polyline style="fill-rule:evenodd;"
points="53450,29081
53450,27581
54950,27581
54950,29081
53450,29081
" /> 
<polyline style="fill-rule:evenodd;"
points="53450,31050
53450,29550
54950,29550
54950,31050
53450,31050
" /> 
<polyline style="fill-rule:evenodd;"
points="59182,32622
57017,32622
57017,31440
59182,31440
59182,32622
" /> 
<polyline style="fill-rule:evenodd;"
points="59182,36559
57017,36559
57017,35377
59182,35377
59182,36559
" /> 
<circle cx="58992.1" cy="40200" r="1181.1" /> 
</g>
<g style="fill:#000000; fill-opacity:1.0; 
stroke:#000000; stroke-width:137.795; stroke-opacity:1; 
stroke-linecap:round; stroke-linejoin:round;">
</g>
<g style="fill:#000000; fill-opacity:1.0; 
stroke:#000000; stroke-width:0; stroke-opacity:1; 
stroke-linecap:round; stroke-linejoin:round;">
<circle cx="58992.1" cy="28200" r="1181.1" /> 
</g>
<g style="fill:#000000; fill-opacity:1.0; 
stroke:#000000; stroke-width:137.795; stroke-opacity:1; 
stroke-linecap:round; stroke-linejoin:round;">
</g>
<g style="fill:#000000; fill-opacity:1.0; 
stroke:#000000; stroke-width:0; stroke-opacity:1; 
stroke-linecap:round; stroke-linejoin:round;">
<circle cx="51000" cy="28200" r="1181.1" /> 
</g>
<g style="fill:#000000; fill-opacity:1.0; 
stroke:#000000; stroke-width:137.795; stroke-opacity:1; 
stroke-linecap:round; stroke-linejoin:round;">
</g>
<g style="fill:#000000; fill-opacity:1.0; 
stroke:#000000; stroke-width:0; stroke-opacity:1; 
stroke-linecap:round; stroke-linejoin:round;">
<circle cx="51000" cy="40200" r="1181.1" /> 
</g>
<g style="fill:#000000; fill-opacity:1.0; 
stroke:#000000; stroke-width:137.795; stroke-opacity:1; 
stroke-linecap:round; stroke-linejoin:round;">
</g>
<g style="fill:#000000; fill-opacity:1.0; 
stroke:#000000; stroke-width:0; stroke-opacity:1; 
stroke-linecap:round; stroke-linejoin:round;">
<polyline style="fill-rule:evenodd;"
points="51825,36550
52375,36550
52375,36900
51825,36900
51825,36550
" /> 
<polyline style="fill-rule:evenodd;"
points="51825,37300
52375,37300
52375,37650
51825,37650
51825,37300
" /> 
<polyline style="fill-rule:evenodd;"
points="50450,34325
50450,34875
50100,34875
50100,34325
50450,34325
" /> 
<polyline style="fill-rule:evenodd;"
points="49700,34325
49700,34875
49350,34875
49350,34325
49700,34325
" /> 
<polyline style="fill-rule:evenodd;"
points="50866,35766
50866,35601
51476,35601
51476,35766
50866,35766
" /> 
<polyline style="fill-rule:evenodd;"
points="50866,35510
50866,35345
51476,35345
51476,35510
50866,35510
" /> 
<polyline style="fill-rule:evenodd;"
points="50866,35254
50866,35089
51476,35089
51476,35254
50866,35254
" /> 
<polyline style="fill-rule:evenodd;"
points="50866,34998
50866,34833
51476,34833
51476,34998
50866,34998
" /> 
<polyline style="fill-rule:evenodd;"
points="52523,34998
52523,34833
53133,34833
53133,34998
52523,34998
" /> 
<polyline style="fill-rule:evenodd;"
points="52523,35254
52523,35089
53133,35089
53133,35254
52523,35254
" /> 
<polyline style="fill-rule:evenodd;"
points="52523,35510
52523,35345
53133,35345
53133,35510
52523,35510
" /> 
<polyline style="fill-rule:evenodd;"
points="52523,35766
52523,35601
53133,35601
53133,35766
52523,35766
" /> 
<polyline style="fill-rule:evenodd;"
points="52000,35300
52000,34929
52330,34929
52330,35300
52000,35300
" /> 
<polyline style="fill-rule:evenodd;"
points="52000,35670
52000,35300
52330,35300
52330,35670
52000,35670
" /> 
<polyline style="fill-rule:evenodd;"
points="51669,35300
51669,34929
52000,34929
52000,35300
51669,35300
" /> 
<polyline style="fill-rule:evenodd;"
points="51669,35670
51669,35300
52000,35300
52000,35670
51669,35670
" /> 
<circle cx="51834.6" cy="35115" r="118.11" /> 
</g>
<g style="fill:#000000; fill-opacity:1.0; 
stroke:#000000; stroke-width:137.795; stroke-opacity:1; 
stroke-linecap:round; stroke-linejoin:round;">
</g>
<g style="fill:#000000; fill-opacity:1.0; 
stroke:#000000; stroke-width:0; stroke-opacity:1; 
stroke-linecap:round; stroke-linejoin:round;">
<circle cx="51834.6" cy="35485" r="118.11" /> 
</g>
<g style="fill:#000000; fill-opacity:1.0; 
stroke:#000000; stroke-width:137.795; stroke-opacity:1; 
stroke-linecap:round; stroke-linejoin:round;">
</g>
<g style="fill:#000000; fill-opacity:1.0; 
stroke:#000000; stroke-width:0; stroke-opacity:1; 
stroke-linecap:round; stroke-linejoin:round;">
<circle cx="52165.4" cy="35485" r="118.11" /> 
</g>
<g style="fill:#000000; fill-opacity:1.0; 
stroke:#000000; stroke-width:137.795; stroke-opacity:1; 
stroke-linecap:round; stroke-linejoin:round;">
</g>
<g style="fill:#000000; fill-opacity:1.0; 
stroke:#000000; stroke-width:0; stroke-opacity:1; 
stroke-linecap:round; stroke-linejoin:round;">
<circle cx="52165.4" cy="35115" r="118.11" /> 
</g>
<g style="fill:#000000; fill-opacity:1.0; 
stroke:#000000; stroke-width:137.795; stroke-opacity:1; 
stroke-linecap:round; stroke-linejoin:round;">
</g>
<g style="fill:#000000; fill-opacity:1.0; 
stroke:#000000; stroke-width:0; stroke-opacity:1; 
stroke-linecap:round; stroke-linejoin:round;">
<circle cx="55800" cy="35000" r="118.11" /> 
</g>
<g style="fill:#000000; fill-opacity:1.0; 
stroke:#000000; stroke-width:137.795; stroke-opacity:1; 
stroke-linecap:round; stroke-linejoin:round;">
</g>
<g style="fill:#000000; fill-opacity:1.0; 
stroke:#000000; stroke-width:0; stroke-opacity:1; 
stroke-linecap:round; stroke-linejoin:round;">
<circle cx="55800" cy="34600" r="118.11" /> 
</g>
<g style="fill:#000000; fill-opacity:1.0; 
stroke:#000000; stroke-width:137.795; stroke-opacity:1; 
stroke-linecap:round; stroke-linejoin:round;">
</g>
<g style="fill:#000000; fill-opacity:1.0; 
stroke:#000000; stroke-width:0; stroke-opacity:1; 
stroke-linecap:round; stroke-linejoin:round;">
<circle cx="55800" cy="34200" r="118.11" /> 
</g>
<g style="fill:#000000; fill-opacity:1.0; 
stroke:#000000; stroke-width:137.795; stroke-opacity:1; 
stroke-linecap:round; stroke-linejoin:round;">
</g>
<g style="fill:#000000; fill-opacity:1.0; 
stroke:#000000; stroke-width:0; stroke-opacity:1; 
stroke-linecap:round; stroke-linejoin:round;">
<circle cx="55800" cy="33800" r="118.11" /> 
</g>
<g style="fill:#000000; fill-opacity:1.0; 
stroke:#000000; stroke-width:137.795; stroke-opacity:1; 
stroke-linecap:round; stroke-linejoin:round;">
</g>
<g style="fill:#000000; fill-opacity:1.0; 
stroke:#000000; stroke-width:0; stroke-opacity:1; 
stroke-linecap:round; stroke-linejoin:round;">
<circle cx="55600" cy="33100" r="118.11" /> 
</g>
<g style="fill:#000000; fill-opacity:1.0; 
stroke:#000000; stroke-width:137.795; stroke-opacity:1; 
stroke-linecap:round; stroke-linejoin:round;">
</g>
<g style="fill:#000000; fill-opacity:1.0; 
stroke:#000000; stroke-width:0; stroke-opacity:1; 
stroke-linecap:round; stroke-linejoin:round;">
<circle cx="50000" cy="29700" r="118.11" /> 
</g>
<g style="fill:#000000; fill-opacity:1.0; 
stroke:#000000; stroke-width:137.795; stroke-opacity:1; 
stroke-linecap:round; stroke-linejoin:round;">
</g>
<g style="fill:#000000; fill-opacity:1.0; 
stroke:#000000; stroke-width:0; stroke-opacity:1; 
stroke-linecap:round; stroke-linejoin:round;">
<circle cx="50500" cy="29700" r="118.11" /> 
</g>
<g style="fill:#000000; fill-opacity:1.0; 
stroke:#000000; stroke-width:137.795; stroke-opacity:1; 
stroke-linecap:round; stroke-linejoin:round;">
</g>
<g style="fill:#000000; fill-opacity:1.0; 
stroke:#000000; stroke-width:0; stroke-opacity:1; 
stroke-linecap:round; stroke-linejoin:round;">
<circle cx="51000" cy="29700" r="118.11" /> 
</g>
<g style="fill:#000000; fill-opacity:1.0; 
stroke:#000000; stroke-width:137.795; stroke-opacity:1; 
stroke-linecap:round; stroke-linejoin:round;">
</g>
<g style="fill:#000000; fill-opacity:1.0; 
stroke:#000000; stroke-width:0; stroke-opacity:1; 
stroke-linecap:round; stroke-linejoin:round;">
<circle cx="52600" cy="29700" r="118.11" /> 
</g>
<g style="fill:#000000; fill-opacity:1.0; 
stroke:#000000; stroke-width:137.795; stroke-opacity:1; 
stroke-linecap:round; stroke-linejoin:round;">
</g>
<g style="fill:#000000; fill-opacity:1.0; 
stroke:#000000; stroke-width:0; stroke-opacity:1; 
stroke-linecap:round; stroke-linejoin:round;">
<circle cx="51667.8" cy="29700" r="118.11" /> 
</g>
<g style="fill:#000000; fill-opacity:1.0; 
stroke:#000000; stroke-width:137.795; stroke-opacity:1; 
stroke-linecap:round; stroke-linejoin:round;">
</g>
<g style="fill:#000000; fill-opacity:1.0; 
stroke:#000000; stroke-width:0; stroke-opacity:1; 
stroke-linecap:round; stroke-linejoin:round;">
<circle cx="49500" cy="34000" r="118.11" /> 
</g>
<g style="fill:#000000; fill-opacity:1.0; 
stroke:#000000; stroke-width:137.795; stroke-opacity:1; 
stroke-linecap:round; stroke-linejoin:round;">
</g>
<g style="fill:#000000; fill-opacity:1.0; 
stroke:#000000; stroke-width:0; stroke-opacity:1; 
stroke-linecap:round; stroke-linejoin:round;">
<circle cx="51000" cy="34100" r="118.11" /> 
</g>
<g style="fill:#000000; fill-opacity:1.0; 
stroke:#000000; stroke-width:137.795; stroke-opacity:1; 
stroke-linecap:round; stroke-linejoin:round;">
</g>
<g style="fill:#000000; fill-opacity:1.0; 
stroke:#000000; stroke-width:0; stroke-opacity:1; 
stroke-linecap:round; stroke-linejoin:round;">
<circle cx="51900" cy="34300" r="118.11" /> 
</g>
<g style="fill:#000000; fill-opacity:1.0; 
stroke:#000000; stroke-width:137.795; stroke-opacity:1; 
stroke-linecap:round; stroke-linejoin:round;">
</g>
<g style="fill:#000000; fill-opacity:1.0; 
stroke:#000000; stroke-width:0; stroke-opacity:1; 
stroke-linecap:round; stroke-linejoin:round;">
<circle cx="52583" cy="36245.2" r="118.11" /> 
</g>
<g style="fill:#000000; fill-opacity:1.0; 
stroke:#000000; stroke-width:137.795; stroke-opacity:1; 
stroke-linecap:round; stroke-linejoin:round;">
</g>
<g style="fill:#000000; fill-opacity:1.0; 
stroke:#000000; stroke-width:0; stroke-opacity:1; 
stroke-linecap:round; stroke-linejoin:round;">
<circle cx="52700" cy="36700" r="118.11" /> 
</g>
<g style="fill:#000000; fill-opacity:1.0; 
stroke:#000000; stroke-width:137.795; stroke-opacity:1; 
stroke-linecap:round; stroke-linejoin:round;">
</g>
<g style="fill:#000000; fill-opacity:1.0; 
stroke:#000000; stroke-width:157.48; stroke-opacity:1; 
stroke-linecap:round; stroke-linejoin:round;">
</g>
<g style="fill:#000000; fill-opacity:0.0; 
stroke:#000000; stroke-width:157.48; stroke-opacity:1; 
stroke-linecap:round; stroke-linejoin:round;">
<path d="M53652 35172
L53800 35025
" />
<path d="M52828 35172
L53652 35172
" />
<path d="M53452 35427
L52828 35427
" />
<path d="M53800 35775
L53452 35427
" />
<path d="M55900 37192
L55900 38100
" />
<path d="M55607 36900
L55900 37192
" />
<path d="M53237 36900
L55607 36900
" />
<path d="M49542 30500
L49400 30642
" />
<path d="M50000 30500
L49542 30500
" />
<path d="M49542 33500
L50000 33500
" />
<path d="M49400 33357
L49542 33500
" />
<path d="M49400 30642
L49400 33357
" />
</g>
<g style="fill:#000000; fill-opacity:0.0; 
stroke:#000000; stroke-width:98.4252; stroke-opacity:1; 
stroke-linecap:round; stroke-linejoin:round;">
<path d="M54173 35775
L54448 35500
" />
<path d="M53800 35775
L54173 35775
" />
<path d="M54448 35500
L55400 35500
" />
<path d="M55800 35100
L55800 35000
" />
<path d="M55400 35500
L55800 35100
" />
<path d="M55800 34600
L55800 34200
" />
<path d="M55800 33300
L55600 33100
" />
<path d="M55800 33800
L55800 33300
" />
<path d="M50000 29700
L50500 29700
" />
<path d="M51000 29700
L51667 29700
" />
<path d="M51000 33500
L51000 34100
" />
<path d="M52165 35827
L52582 36245
" />
<path d="M52165 35485
L52165 35827
" />
</g>
<g style="fill:#000000; fill-opacity:0.0; 
stroke:#000000; stroke-width:157.48; stroke-opacity:1; 
stroke-linecap:round; stroke-linejoin:round;">
<path d="M52582 36245
L53237 36900
" />
</g>
<g style="fill:#000000; fill-opacity:0.0; 
stroke:#000000; stroke-width:98.4252; stroke-opacity:1; 
stroke-linecap:round; stroke-linejoin:round;">
<path d="M52582 36582
L52700 36700
" />
<path d="M52582 36245
L52582 36582
" />
</g>
<g style="fill:#000000; fill-opacity:0.0; 
stroke:#000000; stroke-width:157.48; stroke-opacity:1; 
stroke-linecap:round; stroke-linejoin:round;">
<path d="M52828 34916
L52828 34271
" />
<path d="M53306 33794
L54200 33794
" />
<path d="M52828 34271
L53306 33794
" />
</g>
<g style="fill:#000000; fill-opacity:0.0; 
stroke:#000000; stroke-width:236.22; stroke-opacity:1; 
stroke-linecap:round; stroke-linejoin:round;">
<path d="M54200 30300
L54200 28331
" />
<path d="M56200 28331
L56200 30300
" />
</g>
<g style="fill:#000000; fill-opacity:0.0; 
stroke:#000000; stroke-width:157.48; stroke-opacity:1; 
stroke-linecap:round; stroke-linejoin:round;">
<path d="M50708 35427
L50600 35536
" />
<path d="M51171 35427
L50708 35427
" />
<path d="M50600 35536
L50600 36200
" />
<path d="M50600 36200
L50700 36300
" />
<path d="M51500 36300
L51600 36400
" />
<path d="M50700 36300
L51500 36300
" />
<path d="M51457 37900
L51000 37900
" />
<path d="M51600 37757
L51457 37900
" />
<path d="M51600 36400
L51600 37757
" />
<path d="M51000 37900
L50000 37900
" />
<path d="M51000 36900
L50000 36900
" />
<path d="M50000 36442
L50000 36900
" />
<path d="M50000 35802
L50000 36442
" />
<path d="M50630 35172
L50000 35802
" />
<path d="M51171 35172
L50630 35172
" />
<path d="M51314 35827
L51727 35827
" />
<path d="M51171 35683
L51314 35827
" />
<path d="M52100 36200
L52100 36725
" />
<path d="M51727 35827
L52100 36200
" />
<path d="M50591 34916
L50275 34600
" />
<path d="M51171 34916
L50591 34916
" />
<path d="M52828 35683
L52828 35924
" />
<path d="M52828 35924
L53304 36400
" />
<path d="M53304 36400
L54000 36400
" />
<path d="M54211 36189
L54900 36189
" />
<path d="M54000 36400
L54211 36189
" />
</g>
<g style="fill:#000000; fill-opacity:1.0; 
stroke:#000000; stroke-width:100; stroke-opacity:1; 
stroke-linecap:round; stroke-linejoin:round;">
<polyline style="fill-rule:evenodd;"
points="59150,36550
53352,36550
52934,36131
52895,36036
52791,35933
52656,35877
52647,35877
52555,35784
52565,35768
52566,35765
53133,35765
53150,35762
53150,35820
53270,35940
53270,35950
53288,36045
53343,36129
53426,36185
53525,36204
53534,36204
53579,36250
54116,36250
54516,35950
55518,35950
56218,35350
59150,35350
59150,36550
" /> 
<polyline style="fill-rule:evenodd;"
points="55250,35050
54550,35050
54550,34450
53675,34450
53559,34595
53525,34595
53429,34613
53345,34668
53289,34751
53271,34843
53177,34843
53133,34834
52567,34834
52512,34750
52450,34708
52450,33373
52115,33150
51616,33150
51517,33075
51481,33020
51398,32964
51359,32957
51216,32850
49728,32850
49728,31150
51471,31150
51771,31650
52000,31650
52624,31650
52853,31362
52892,31362
52987,31344
53071,31289
53127,31206
53146,31108
53146,30104
53128,30008
53073,29924
53050,29909
53050,29820
53320,29550
54950,29550
54950,31032
54924,31050
54696,31050
54692,31049
53708,31049
53703,31050
53450,31050
53450,32603
53550,32703
53550,32900
53550,33250
54500,33250
54700,33250
54979,33250
55250,33520
55250,35050
" /> 
<polyline style="fill-rule:evenodd;"
points="59250,32650
53920,32650
53750,32479
53750,31350
55015,31350
55350,31126
55350,29550
57082,29550
59250,31323
59250,32650
" /> 
<polyline style="fill-rule:evenodd;"
points="60629,41829
54904,41829
54904,40818
54904,39318
54886,39223
54831,39139
54749,39083
54829,39031
54885,38948
54904,38850
54904,37350
54886,37254
54831,37170
54748,37114
54650,37095
53150,37095
53054,37113
52970,37168
52914,37251
52895,37350
52895,38850
52913,38945
52968,39029
53050,39084
52970,39137
52914,39220
52895,39318
52895,40818
52913,40913
52968,40997
53051,41053
53150,41073
54650,41073
54745,41054
54829,40999
54885,40916
54904,40818
54904,41829
49370,41829
49370,33150
51116,33150
51516,33450
52024,33450
52150,33533
52150,35250
52268,35250
52268,35254
52287,35350
52250,35350
52250,35885
51960,35595
51853,35523
51731,35499
51731,35345
51722,35299
51731,35254
51731,35089
51722,35043
51731,34998
51731,34833
51712,34738
51657,34654
51574,34598
51476,34578
50866,34578
50820,34587
50727,34587
50704,34564
50704,34325
50686,34229
50631,34145
50548,34089
50450,34070
50100,34070
50004,34088
49920,34143
49864,34226
49845,34325
49845,34875
49863,34970
49918,35054
50001,35110
50100,35129
50207,35129
49767,35570
49696,35676
49671,35802
49671,36350
49604,36363
49520,36418
49464,36501
49445,36600
49445,37200
49463,37295
49518,37379
49549,37399
49520,37418
49464,37501
49445,37600
49445,38200
49463,38295
49518,38379
49601,38435
49700,38454
50300,38454
50395,38436
50479,38381
50499,38350
50518,38379
50601,38435
50700,38454
51300,38454
51395,38436
51479,38381
51535,38298
51552,38209
51583,38203
51583,38203
51689,38132
51832,37989
51903,37883
51903,37883
51928,37757
51928,37154
52375,37154
52470,37136
52554,37081
52610,36998
52629,36900
52629,36550
52611,36454
52556,36370
52473,36314
52428,36305
52428,36200
52403,36074
52403,36074
52369,36023
52923,36576
53023,36676
53196,36850
59450,36850
59450,35050
56107,35050
55407,35650
54416,35650
54109,35880
54085,35885
53988,35950
53703,35950
53450,35696
53450,35500
53652,35500
53778,35475
53778,35475
53809,35454
53809,35454
54075,35454
54170,35436
54254,35381
54275,35350
55550,35350
55550,33396
55103,32950
59550,32950
59550,31181
57350,29381
57350,27250
55250,27250
55050,27250
53050,27250
53050,29396
52750,29696
52750,31012
52479,31350
52000,31350
51941,31350
51641,30850
49370,30850
49370,26570
60629,26570
60629,37114
57094,37114
57094,38567
60629,38567
60629,41829
" /> 
<polyline style="fill-rule:evenodd;"
points="54950,29550
53350,29550
53350,27550
54950,27550
54950,27600
54950,29550
" /> 
<polyline style="fill-rule:evenodd;"
points="57050,29450
55350,29450
55350,27550
57050,27550
57050,29450
" /> 
</g>
<g style="fill:#FFFFFF; fill-opacity:1.0; 
stroke:#FFFFFF; stroke-width:100; stroke-opacity:1; 
stroke-linecap:round; stroke-linejoin:round;">
</g>
<g style="fill:#FFFFFF; fill-opacity:1.0; 
stroke:#FFFFFF; stroke-width:0; stroke-opacity:1; 
stroke-linecap:round; stroke-linejoin:round;">
<circle cx="51834.6" cy="35115" r="68.8976" /> 
</g>
<g style="fill:#FFFFFF; fill-opacity:1.0; 
stroke:#FFFFFF; stroke-width:137.795; stroke-opacity:1; 
stroke-linecap:round; stroke-linejoin:round;">
</g>
<g style="fill:#FFFFFF; fill-opacity:1.0; 
stroke:#FFFFFF; stroke-width:0; stroke-opacity:1; 
stroke-linecap:round; stroke-linejoin:round;">
<circle cx="51834.6" cy="35485" r="68.8976" /> 
</g>
<g style="fill:#FFFFFF; fill-opacity:1.0; 
stroke:#FFFFFF; stroke-width:137.795; stroke-opacity:1; 
stroke-linecap:round; stroke-linejoin:round;">
</g>
<g style="fill:#FFFFFF; fill-opacity:1.0; 
stroke:#FFFFFF; stroke-width:0; stroke-opacity:1; 
stroke-linecap:round; stroke-linejoin:round;">
<circle cx="52165.4" cy="35485" r="68.8976" /> 
</g>
<g style="fill:#FFFFFF; fill-opacity:1.0; 
stroke:#FFFFFF; stroke-width:137.795; stroke-opacity:1; 
stroke-linecap:round; stroke-linejoin:round;">
</g>
<g style="fill:#FFFFFF; fill-opacity:1.0; 
stroke:#FFFFFF; stroke-width:0; stroke-opacity:1; 
stroke-linecap:round; stroke-linejoin:round;">
<circle cx="52165.4" cy="35115" r="68.8976" /> 
</g>
<g style="fill:#FFFFFF; fill-opacity:1.0; 
stroke:#FFFFFF; stroke-width:137.795; stroke-opacity:1; 
stroke-linecap:round; stroke-linejoin:round;">
</g>
<g style="fill:#FFFFFF; fill-opacity:1.0; 
stroke:#FFFFFF; stroke-width:0; stroke-opacity:1; 
stroke-linecap:round; stroke-linejoin:round;">
<circle cx="55800" cy="35000" r="68.8976" /> 
</g>
<g style="fill:#FFFFFF; fill-opacity:1.0; 
stroke:#FFFFFF; stroke-width:137.795; stroke-opacity:1; 
stroke-linecap:round; stroke-linejoin:round;">
</g>
<g style="fill:#FFFFFF; fill-opacity:1.0; 
stroke:#FFFFFF; stroke-width:0; stroke-opacity:1; 
stroke-linecap:round; stroke-linejoin:round;">
<circle cx="55800" cy="34600" r="68.8976" /> 
</g>
<g style="fill:#FFFFFF; fill-opacity:1.0; 
stroke:#FFFFFF; stroke-width:137.795; stroke-opacity:1; 
stroke-linecap:round; stroke-linejoin:round;">
</g>
<g style="fill:#FFFFFF; fill-opacity:1.0; 
stroke:#FFFFFF; stroke-width:0; stroke-opacity:1; 
stroke-linecap:round; stroke-linejoin:round;">
<circle cx="55800" cy="34200" r="68.8976" /> 
</g>
<g style="fill:#FFFFFF; fill-opacity:1.0; 
stroke:#FFFFFF; stroke-width:137.795; stroke-opacity:1; 
stroke-linecap:round; stroke-linejoin:round;">
</g>
<g style="fill:#FFFFFF; fill-opacity:1.0; 
stroke:#FFFFFF; stroke-width:0; stroke-opacity:1; 
stroke-linecap:round; stroke-linejoin:round;">
<circle cx="55800" cy="33800" r="68.8976" /> 
</g>
<g style="fill:#FFFFFF; fill-opacity:1.0; 
stroke:#FFFFFF; stroke-width:137.795; stroke-opacity:1; 
stroke-linecap:round; stroke-linejoin:round;">
</g>
<g style="fill:#FFFFFF; fill-opacity:1.0; 
stroke:#FFFFFF; stroke-width:0; stroke-opacity:1; 
stroke-linecap:round; stroke-linejoin:round;">
<circle cx="55600" cy="33100" r="68.8976" /> 
</g>
<g style="fill:#FFFFFF; fill-opacity:1.0; 
stroke:#FFFFFF; stroke-width:137.795; stroke-opacity:1; 
stroke-linecap:round; stroke-linejoin:round;">
</g>
<g style="fill:#FFFFFF; fill-opacity:1.0; 
stroke:#FFFFFF; stroke-width:0; stroke-opacity:1; 
stroke-linecap:round; stroke-linejoin:round;">
<circle cx="50000" cy="29700" r="68.8976" /> 
</g>
<g style="fill:#FFFFFF; fill-opacity:1.0; 
stroke:#FFFFFF; stroke-width:137.795; stroke-opacity:1; 
stroke-linecap:round; stroke-linejoin:round;">
</g>
<g style="fill:#FFFFFF; fill-opacity:1.0; 
stroke:#FFFFFF; stroke-width:0; stroke-opacity:1; 
stroke-linecap:round; stroke-linejoin:round;">
<circle cx="50500" cy="29700" r="68.8976" /> 
</g>
<g style="fill:#FFFFFF; fill-opacity:1.0; 
stroke:#FFFFFF; stroke-width:137.795; stroke-opacity:1; 
stroke-linecap:round; stroke-linejoin:round;">
</g>
<g style="fill:#FFFFFF; fill-opacity:1.0; 
stroke:#FFFFFF; stroke-width:0; stroke-opacity:1; 
stroke-linecap:round; stroke-linejoin:round;">
<circle cx="51000" cy="29700" r="68.8976" /> 
</g>
<g style="fill:#FFFFFF; fill-opacity:1.0; 
stroke:#FFFFFF; stroke-width:137.795; stroke-opacity:1; 
stroke-linecap:round; stroke-linejoin:round;">
</g>
<g style="fill:#FFFFFF; fill-opacity:1.0; 
stroke:#FFFFFF; stroke-width:0; stroke-opacity:1; 
stroke-linecap:round; stroke-linejoin:round;">
<circle cx="52600" cy="29700" r="68.8976" /> 
</g>
<g style="fill:#FFFFFF; fill-opacity:1.0; 
stroke:#FFFFFF; stroke-width:137.795; stroke-opacity:1; 
stroke-linecap:round; stroke-linejoin:round;">
</g>
<g style="fill:#FFFFFF; fill-opacity:1.0; 
stroke:#FFFFFF; stroke-width:0; stroke-opacity:1; 
stroke-linecap:round; stroke-linejoin:round;">
<circle cx="51667.8" cy="29700" r="68.8976" /> 
</g>
<g style="fill:#FFFFFF; fill-opacity:1.0; 
stroke:#FFFFFF; stroke-width:137.795; stroke-opacity:1; 
stroke-linecap:round; stroke-linejoin:round;">
</g>
<g style="fill:#FFFFFF; fill-opacity:1.0; 
stroke:#FFFFFF; stroke-width:0; stroke-opacity:1; 
stroke-linecap:round; stroke-linejoin:round;">
<circle cx="49500" cy="34000" r="68.8976" /> 
</g>
<g style="fill:#FFFFFF; fill-opacity:1.0; 
stroke:#FFFFFF; stroke-width:137.795; stroke-opacity:1; 
stroke-linecap:round; stroke-linejoin:round;">
</g>
<g style="fill:#FFFFFF; fill-opacity:1.0; 
stroke:#FFFFFF; stroke-width:0; stroke-opacity:1; 
stroke-linecap:round; stroke-linejoin:round;">
<circle cx="51000" cy="34100" r="68.8976" /> 
</g>
<g style="fill:#FFFFFF; fill-opacity:1.0; 
stroke:#FFFFFF; stroke-width:137.795; stroke-opacity:1; 
stroke-linecap:round; stroke-linejoin:round;">
</g>
<g style="fill:#FFFFFF; fill-opacity:1.0; 
stroke:#FFFFFF; stroke-width:0; stroke-opacity:1; 
stroke-linecap:round; stroke-linejoin:round;">
<circle cx="51900" cy="34300" r="68.8976" /> 
</g>
<g style="fill:#FFFFFF; fill-opacity:1.0; 
stroke:#FFFFFF; stroke-width:137.795; stroke-opacity:1; 
stroke-linecap:round; stroke-linejoin:round;">
</g>
<g style="fill:#FFFFFF; fill-opacity:1.0; 
stroke:#FFFFFF; stroke-width:0; stroke-opacity:1; 
stroke-linecap:round; stroke-linejoin:round;">
<circle cx="52583" cy="36245.2" r="68.8976" /> 
</g>
<g style="fill:#FFFFFF; fill-opacity:1.0; 
stroke:#FFFFFF; stroke-width:137.795; stroke-opacity:1; 
stroke-linecap:round; stroke-linejoin:round;">
</g>
<g style="fill:#FFFFFF; fill-opacity:1.0; 
stroke:#FFFFFF; stroke-width:0; stroke-opacity:1; 
stroke-linecap:round; stroke-linejoin:round;">
<circle cx="52700" cy="36700" r="68.8976" /> 
</g>
<g style="fill:#FFFFFF; fill-opacity:1.0; 
stroke:#FFFFFF; stroke-width:137.795; stroke-opacity:1; 
stroke-linecap:round; stroke-linejoin:round;">
</g>
<g style="fill:#FFFFFF; fill-opacity:1.0; 
stroke:#FFFFFF; stroke-width:0; stroke-opacity:1; 
stroke-linecap:round; stroke-linejoin:round;">
<circle cx="51000" cy="37900" r="68.8976" /> 
</g>
<g style="fill:#FFFFFF; fill-opacity:1.0; 
stroke:#FFFFFF; stroke-width:137.795; stroke-opacity:1; 
stroke-linecap:round; stroke-linejoin:round;">
</g>
<g style="fill:#FFFFFF; fill-opacity:1.0; 
stroke:#FFFFFF; stroke-width:0; stroke-opacity:1; 
stroke-linecap:round; stroke-linejoin:round;">
<circle cx="50000" cy="37900" r="68.8976" /> 
</g>
<g style="fill:#FFFFFF; fill-opacity:1.0; 
stroke:#FFFFFF; stroke-width:137.795; stroke-opacity:1; 
stroke-linecap:round; stroke-linejoin:round;">
</g>
<g style="fill:#FFFFFF; fill-opacity:1.0; 
stroke:#FFFFFF; stroke-width:0; stroke-opacity:1; 
stroke-linecap:round; stroke-linejoin:round;">
<circle cx="51000" cy="36900" r="68.8976" /> 
</g>
<g style="fill:#FFFFFF; fill-opacity:1.0; 
stroke:#FFFFFF; stroke-width:137.795; stroke-opacity:1; 
stroke-linecap:round; stroke-linejoin:round;">
</g>
<g style="fill:#FFFFFF; fill-opacity:1.0; 
stroke:#FFFFFF; stroke-width:0; stroke-opacity:1; 
stroke-linecap:round; stroke-linejoin:round;">
<circle cx="50000" cy="36900" r="68.8976" /> 
</g>
<g style="fill:#FFFFFF; fill-opacity:1.0; 
stroke:#FFFFFF; stroke-width:137.795; stroke-opacity:1; 
stroke-linecap:round; stroke-linejoin:round;">
</g>
<g style="fill:#FFFFFF; fill-opacity:1.0; 
stroke:#FFFFFF; stroke-width:0; stroke-opacity:1; 
stroke-linecap:round; stroke-linejoin:round;">
<circle cx="53900" cy="40068.5" r="68.8976" /> 
</g>
<g style="fill:#FFFFFF; fill-opacity:1.0; 
stroke:#FFFFFF; stroke-width:137.795; stroke-opacity:1; 
stroke-linecap:round; stroke-linejoin:round;">
</g>
<g style="fill:#FFFFFF; fill-opacity:1.0; 
stroke:#FFFFFF; stroke-width:0; stroke-opacity:1; 
stroke-linecap:round; stroke-linejoin:round;">
<circle cx="53900" cy="38100" r="68.8976" /> 
</g>
<g style="fill:#FFFFFF; fill-opacity:1.0; 
stroke:#FFFFFF; stroke-width:137.795; stroke-opacity:1; 
stroke-linecap:round; stroke-linejoin:round;">
</g>
<g style="fill:#FFFFFF; fill-opacity:1.0; 
stroke:#FFFFFF; stroke-width:0; stroke-opacity:1; 
stroke-linecap:round; stroke-linejoin:round;">
<circle cx="55900" cy="40068.5" r="68.8976" /> 
</g>
<g style="fill:#FFFFFF; fill-opacity:1.0; 
stroke:#FFFFFF; stroke-width:137.795; stroke-opacity:1; 
stroke-linecap:round; stroke-linejoin:round;">
</g>
<g style="fill:#FFFFFF; fill-opacity:1.0; 
stroke:#FFFFFF; stroke-width:0; stroke-opacity:1; 
stroke-linecap:round; stroke-linejoin:round;">
<circle cx="55900" cy="38100" r="68.8976" /> 
</g>
<g style="fill:#FFFFFF; fill-opacity:1.0; 
stroke:#FFFFFF; stroke-width:137.795; stroke-opacity:1; 
stroke-linecap:round; stroke-linejoin:round;">
</g>
<g style="fill:#FFFFFF; fill-opacity:1.0; 
stroke:#FFFFFF; stroke-width:0; stroke-opacity:1; 
stroke-linecap:round; stroke-linejoin:round;">
<circle cx="50000" cy="30500" r="68.8976" /> 
</g>
<g style="fill:#FFFFFF; fill-opacity:1.0; 
stroke:#FFFFFF; stroke-width:137.795; stroke-opacity:1; 
stroke-linecap:round; stroke-linejoin:round;">
</g>
<g style="fill:#FFFFFF; fill-opacity:1.0; 
stroke:#FFFFFF; stroke-width:0; stroke-opacity:1; 
stroke-linecap:round; stroke-linejoin:round;">
<circle cx="51000" cy="30500" r="68.8976" /> 
</g>
<g style="fill:#FFFFFF; fill-opacity:1.0; 
stroke:#FFFFFF; stroke-width:137.795; stroke-opacity:1; 
stroke-linecap:round; stroke-linejoin:round;">
</g>
<g style="fill:#FFFFFF; fill-opacity:1.0; 
stroke:#FFFFFF; stroke-width:0; stroke-opacity:1; 
stroke-linecap:round; stroke-linejoin:round;">
<circle cx="50000" cy="31500" r="68.8976" /> 
</g>
<g style="fill:#FFFFFF; fill-opacity:1.0; 
stroke:#FFFFFF; stroke-width:137.795; stroke-opacity:1; 
stroke-linecap:round; stroke-linejoin:round;">
</g>
<g style="fill:#FFFFFF; fill-opacity:1.0; 
stroke:#FFFFFF; stroke-width:0; stroke-opacity:1; 
stroke-linecap:round; stroke-linejoin:round;">
<circle cx="51000" cy="31500" r="68.8976" /> 
</g>
<g style="fill:#FFFFFF; fill-opacity:1.0; 
stroke:#FFFFFF; stroke-width:137.795; stroke-opacity:1; 
stroke-linecap:round; stroke-linejoin:round;">
</g>
<g style="fill:#FFFFFF; fill-opacity:1.0; 
stroke:#FFFFFF; stroke-width:0; stroke-opacity:1; 
stroke-linecap:round; stroke-linejoin:round;">
<circle cx="50000" cy="32500" r="68.8976" /> 
</g>
<g style="fill:#FFFFFF; fill-opacity:1.0; 
stroke:#FFFFFF; stroke-width:137.795; stroke-opacity:1; 
stroke-linecap:round; stroke-linejoin:round;">
</g>
<g style="fill:#FFFFFF; fill-opacity:1.0; 
stroke:#FFFFFF; stroke-width:0; stroke-opacity:1; 
stroke-linecap:round; stroke-linejoin:round;">
<circle cx="51000" cy="32500" r="68.8976" /> 
</g>
<g style="fill:#FFFFFF; fill-opacity:1.0; 
stroke:#FFFFFF; stroke-width:137.795; stroke-opacity:1; 
stroke-linecap:round; stroke-linejoin:round;">
</g>
<g style="fill:#FFFFFF; fill-opacity:1.0; 
stroke:#FFFFFF; stroke-width:0; stroke-opacity:1; 
stroke-linecap:round; stroke-linejoin:round;">
<circle cx="50000" cy="33500" r="68.8976" /> 
</g>
<g style="fill:#FFFFFF; fill-opacity:1.0; 
stroke:#FFFFFF; stroke-width:137.795; stroke-opacity:1; 
stroke-linecap:round; stroke-linejoin:round;">
</g>
<g style="fill:#FFFFFF; fill-opacity:1.0; 
stroke:#FFFFFF; stroke-width:0; stroke-opacity:1; 
stroke-linecap:round; stroke-linejoin:round;">
<circle cx="51000" cy="33500" r="68.8976" /> 
</g>
<g style="fill:#FFFFFF; fill-opacity:1.0; 
stroke:#FFFFFF; stroke-width:137.795; stroke-opacity:1; 
stroke-linecap:round; stroke-linejoin:round;">
</g>
<g style="fill:#FFFFFF; fill-opacity:1.0; 
stroke:#FFFFFF; stroke-width:0; stroke-opacity:1; 
stroke-linecap:round; stroke-linejoin:round;">
<circle cx="56200" cy="28331.5" r="68.8976" /> 
</g>
<g style="fill:#FFFFFF; fill-opacity:1.0; 
stroke:#FFFFFF; stroke-width:137.795; stroke-opacity:1; 
stroke-linecap:round; stroke-linejoin:round;">
</g>
<g style="fill:#FFFFFF; fill-opacity:1.0; 
stroke:#FFFFFF; stroke-width:0; stroke-opacity:1; 
stroke-linecap:round; stroke-linejoin:round;">
<circle cx="56200" cy="30300" r="68.8976" /> 
</g>
<g style="fill:#FFFFFF; fill-opacity:1.0; 
stroke:#FFFFFF; stroke-width:137.795; stroke-opacity:1; 
stroke-linecap:round; stroke-linejoin:round;">
</g>
<g style="fill:#FFFFFF; fill-opacity:1.0; 
stroke:#FFFFFF; stroke-width:0; stroke-opacity:1; 
stroke-linecap:round; stroke-linejoin:round;">
<circle cx="54200" cy="28331.5" r="68.8976" /> 
</g>
<g style="fill:#FFFFFF; fill-opacity:1.0; 
stroke:#FFFFFF; stroke-width:137.795; stroke-opacity:1; 
stroke-linecap:round; stroke-linejoin:round;">
</g>
<g style="fill:#FFFFFF; fill-opacity:1.0; 
stroke:#FFFFFF; stroke-width:0; stroke-opacity:1; 
stroke-linecap:round; stroke-linejoin:round;">
<circle cx="54200" cy="30300" r="68.8976" /> 
</g>
<g style="fill:#FFFFFF; fill-opacity:1.0; 
stroke:#FFFFFF; stroke-width:137.795; stroke-opacity:1; 
stroke-linecap:round; stroke-linejoin:round;">
</g>
<g style="fill:#FFFFFF; fill-opacity:1.0; 
stroke:#FFFFFF; stroke-width:0; stroke-opacity:1; 
stroke-linecap:round; stroke-linejoin:round;">
<circle cx="58992.1" cy="40200" r="68.8976" /> 
</g>
<g style="fill:#FFFFFF; fill-opacity:1.0; 
stroke:#FFFFFF; stroke-width:137.795; stroke-opacity:1; 
stroke-linecap:round; stroke-linejoin:round;">
</g>
<g style="fill:#FFFFFF; fill-opacity:1.0; 
stroke:#FFFFFF; stroke-width:0; stroke-opacity:1; 
stroke-linecap:round; stroke-linejoin:round;">
<circle cx="58992.1" cy="28200" r="68.8976" /> 
</g>
<g style="fill:#FFFFFF; fill-opacity:1.0; 
stroke:#FFFFFF; stroke-width:137.795; stroke-opacity:1; 
stroke-linecap:round; stroke-linejoin:round;">
</g>
<g style="fill:#FFFFFF; fill-opacity:1.0; 
stroke:#FFFFFF; stroke-width:0; stroke-opacity:1; 
stroke-linecap:round; stroke-linejoin:round;">
<circle cx="51000" cy="28200" r="68.8976" /> 
</g>
<g style="fill:#FFFFFF; fill-opacity:1.0; 
stroke:#FFFFFF; stroke-width:137.795; stroke-opacity:1; 
stroke-linecap:round; stroke-linejoin:round;">
</g>
<g style="fill:#FFFFFF; fill-opacity:1.0; 
stroke:#FFFFFF; stroke-width:0; stroke-opacity:1; 
stroke-linecap:round; stroke-linejoin:round;">
<circle cx="51000" cy="40200" r="68.8976" /> 
</g>
<g style="fill:#FFFFFF; fill-opacity:1.0; 
stroke:#FFFFFF; stroke-width:137.795; stroke-opacity:1; 
stroke-linecap:round; stroke-linejoin:round;">
</g>
<g style="fill:#000000; fill-opacity:1.0; 
stroke:#000000; stroke-width:137.795; stroke-opacity:1; 
stroke-linecap:round; stroke-linejoin:round;">
</g> 
</svg>
