<?xml version="1.0" standalone="no"?>
 <!DOCTYPE svg PUBLIC "-//W3C//DTD SVG 1.1//EN" 
 "http://www.w3.org/Graphics/SVG/1.1/DTD/svg11.dtd"> 
<svg xmlns="http://www.w3.org/2000/svg" version="1.1" 
    width="29.7002cm" height="21.0007cm" viewBox="0 0 116930 82680 ">
<title>SVG Picture created as SHT31V01A-F_SilkS.svg date 2017/01/01 20:03:32 </title>
  <desc>Picture generated by PCBNEW </desc>
<g style="fill:#000000; fill-opacity:1;stroke:#000000; stroke-opacity:1;
stroke-linecap:round; stroke-linejoin:round; "
 transform="translate(0 0) scale(1 1)">
</g>
<g style="fill:#000000; fill-opacity:0.0; 
stroke:#000000; stroke-width:-0.000393701; stroke-opacity:1; 
stroke-linecap:round; stroke-linejoin:round;">
</g>
<g style="fill:#000000; fill-opacity:0.0; 
stroke:#000000; stroke-width:118.11; stroke-opacity:1; 
stroke-linecap:round; stroke-linejoin:round;">
<path d="M56294 35419
L56343 35419
L56391 35444
L56416 35468
L56440 35517
L56465 35614
L56465 35736
L56440 35834
L56416 35882
L56391 35907
L56343 35931
L56294 35931
L56245 35907
L56221 35882
L56196 35834
L56172 35736
L56172 35614
L56196 35517
L56221 35468
L56245 35444
L56294 35419
" />
<path d="M56635 35419
L56976 35931
" />
<path d="M56976 35419
L56635 35931
" />
<path d="M57391 35590
L57391 35931
" />
<path d="M57269 35395
L57147 35760
L57464 35760
" />
<path d="M57903 35419
L57659 35419
L57634 35663
L57659 35639
L57708 35614
L57829 35614
L57878 35639
L57903 35663
L57927 35712
L57927 35834
L57903 35882
L57878 35907
L57829 35931
L57708 35931
L57659 35907
L57634 35882
" />
<path d="M56294 32369
L56343 32369
L56391 32394
L56416 32418
L56440 32467
L56465 32564
L56465 32686
L56440 32784
L56416 32832
L56391 32857
L56343 32881
L56294 32881
L56245 32857
L56221 32832
L56196 32784
L56172 32686
L56172 32564
L56196 32467
L56221 32418
L56245 32394
L56294 32369
" />
<path d="M56635 32369
L56976 32881
" />
<path d="M56976 32369
L56635 32881
" />
<path d="M57391 32540
L57391 32881
" />
<path d="M57269 32345
L57147 32710
L57464 32710
" />
<path d="M57878 32540
L57878 32881
" />
<path d="M57756 32345
L57634 32710
L57951 32710
" />
<path d="M47790 35486
L47812 35463
L47857 35441
L47970 35441
L48015 35463
L48037 35486
L48060 35531
L48060 35576
L48037 35643
L47767 35913
L48060 35913
" />
<path d="M48352 35441
L48397 35441
L48442 35463
L48465 35486
L48487 35531
L48510 35621
L48510 35733
L48487 35823
L48465 35868
L48442 35891
L48397 35913
L48352 35913
L48307 35891
L48285 35868
L48262 35823
L48240 35733
L48240 35621
L48262 35531
L48285 35486
L48307 35463
L48352 35441
" />
<path d="M48959 35913
L48689 35913
" />
<path d="M48824 35913
L48824 35441
L48779 35508
L48734 35553
L48689 35576
" />
<path d="M49364 35441
L49274 35441
L49229 35463
L49207 35486
L49162 35553
L49139 35643
L49139 35823
L49162 35868
L49184 35891
L49229 35913
L49319 35913
L49364 35891
L49387 35868
L49409 35823
L49409 35711
L49387 35666
L49364 35643
L49319 35621
L49229 35621
L49184 35643
L49162 35666
L49139 35711
" />
<path d="M58975 34731
L58975 34219
L59146 34585
L59316 34219
L59316 34731
" />
<path d="M59804 34731
L59560 34731
L59560 34219
" />
<path d="M59950 34585
L60194 34585
" />
<path d="M59901 34731
L60072 34219
L60242 34731
" />
<path d="M60584 34463
L60657 34487
L60681 34512
L60705 34560
L60705 34634
L60681 34682
L60657 34707
L60608 34731
L60413 34731
L60413 34219
L60584 34219
L60632 34244
L60657 34268
L60681 34317
L60681 34365
L60657 34414
L60632 34439
L60584 34463
L60413 34463
" />
<path d="M60925 34682
L60949 34707
L60925 34731
L60900 34707
L60925 34682
L60925 34731
" />
<path d="M61461 34682
L61437 34707
L61363 34731
L61315 34731
L61242 34707
L61193 34658
L61168 34609
L61144 34512
L61144 34439
L61168 34341
L61193 34292
L61242 34244
L61315 34219
L61363 34219
L61437 34244
L61461 34268
" />
<path d="M61632 34219
L61973 34219
L61632 34731
L61973 34731
" />
<path d="M58477 35857
L58550 35881
L58672 35881
L58720 35857
L58745 35832
L58769 35784
L58769 35735
L58745 35686
L58720 35662
L58672 35637
L58574 35613
L58525 35589
L58501 35564
L58477 35515
L58477 35467
L58501 35418
L58525 35394
L58574 35369
L58696 35369
L58769 35394
" />
<path d="M58988 35881
L58988 35369
" />
<path d="M58988 35613
L59281 35613
" />
<path d="M59281 35881
L59281 35369
" />
<path d="M59452 35369
L59744 35369
" />
<path d="M59598 35881
L59598 35369
" />
<path d="M59866 35369
L60183 35369
L60012 35564
L60085 35564
L60134 35589
L60158 35613
L60183 35662
L60183 35784
L60158 35832
L60134 35857
L60085 35881
L59939 35881
L59890 35857
L59866 35832
" />
<path d="M60670 35881
L60378 35881
" />
<path d="M60524 35881
L60524 35369
L60475 35442
L60426 35491
L60378 35515
" />
<path d="M60816 35369
L60987 35881
L61158 35369
" />
<path d="M61426 35369
L61474 35369
L61523 35394
L61547 35418
L61572 35467
L61596 35564
L61596 35686
L61572 35784
L61547 35832
L61523 35857
L61474 35881
L61426 35881
L61377 35857
L61353 35832
L61328 35784
L61304 35686
L61304 35564
L61328 35467
L61353 35418
L61377 35394
L61426 35369
" />
<path d="M62084 35881
L61791 35881
" />
<path d="M61937 35881
L61937 35369
L61889 35442
L61840 35491
L61791 35515
" />
<path d="M62279 35735
L62522 35735
" />
<path d="M62230 35881
L62401 35369
L62571 35881
" />
<path d="M59939 33748
L60220 33748
" />
<path d="M59883 33917
L60079 33326
L60276 33917
" />
<path d="M60754 33917
L60473 33917
L60473 33326
" />
<path d="M60951 33607
L61148 33607
" />
<path d="M61232 33917
L60951 33917
L60951 33326
L61232 33326
" />
<path d="M60804 33117
L60607 32835
" />
<path d="M60467 33117
L60467 32526
L60692 32526
L60748 32554
L60776 32582
L60804 32639
L60804 32723
L60776 32779
L60748 32807
L60692 32835
L60467 32835
" />
<path d="M61057 32807
L61254 32807
" />
<path d="M61339 33117
L61057 33117
L61057 32526
L61339 32526
" />
<path d="M61564 33089
L61648 33117
L61789 33117
L61845 33089
L61873 33060
L61901 33004
L61901 32948
L61873 32892
L61845 32864
L61789 32835
L61676 32807
L61620 32779
L61592 32751
L61564 32695
L61564 32639
L61592 32582
L61620 32554
L61676 32526
L61817 32526
L61901 32554
" />
<path d="M55445 34826
L55473 34770
L55473 34686
L55445 34601
L55389 34545
L55332 34517
L55220 34489
L55135 34489
L55023 34517
L54967 34545
L54910 34601
L54882 34686
L54882 34742
L54910 34826
L54939 34854
L55135 34854
L55135 34742
" />
<path d="M54882 35107
L55473 35107
L54882 35445
L55473 35445
" />
<path d="M54882 35726
L55473 35726
L55473 35867
L55445 35951
L55389 36007
L55332 36035
L55220 36064
L55135 36064
L55023 36035
L54967 36007
L54910 35951
L54882 35867
L54882 35726
" />
<path d="M54060 34489
L54032 34573
L54032 34714
L54060 34770
L54089 34798
L54145 34826
L54201 34826
L54257 34798
L54285 34770
L54314 34714
L54342 34601
L54370 34545
L54398 34517
L54454 34489
L54510 34489
L54567 34517
L54595 34545
L54623 34601
L54623 34742
L54595 34826
" />
<path d="M54089 35417
L54060 35389
L54032 35304
L54032 35248
L54060 35164
L54117 35107
L54173 35079
L54285 35051
L54370 35051
L54482 35079
L54539 35107
L54595 35164
L54623 35248
L54623 35304
L54595 35389
L54567 35417
" />
<path d="M54032 35951
L54032 35670
L54623 35670
" />
<path d="M53473 34483
L52882 34679
L53473 34876
" />
<path d="M52882 35073
L53473 35073
L53473 35214
L53445 35298
L53389 35354
L53332 35382
L53220 35411
L53135 35411
L53023 35382
L52967 35354
L52910 35298
L52882 35214
L52882 35073
" />
<path d="M52882 35664
L53473 35664
L53473 35804
L53445 35889
L53389 35945
L53332 35973
L53220 36001
L53135 36001
L53023 35973
L52967 35945
L52910 35889
L52882 35804
L52882 35664
" />
<path d="M51910 34489
L51882 34573
L51882 34714
L51910 34770
L51939 34798
L51995 34826
L52051 34826
L52107 34798
L52135 34770
L52164 34714
L52192 34601
L52220 34545
L52248 34517
L52304 34489
L52360 34489
L52417 34517
L52445 34545
L52473 34601
L52473 34742
L52445 34826
" />
<path d="M51882 35079
L52473 35079
L52473 35220
L52445 35304
L52389 35361
L52332 35389
L52220 35417
L52135 35417
L52023 35389
L51967 35361
L51910 35304
L51882 35220
L51882 35079
" />
<path d="M52051 35642
L52051 35923
" />
<path d="M51882 35585
L52473 35782
L51882 35979
" />
<path d="M51445 34826
L51473 34770
L51473 34686
L51445 34601
L51389 34545
L51332 34517
L51220 34489
L51135 34489
L51023 34517
L50967 34545
L50910 34601
L50882 34686
L50882 34742
L50910 34826
L50939 34854
L51135 34854
L51135 34742
" />
<path d="M50882 35107
L51473 35107
L50882 35445
L51473 35445
" />
<path d="M50882 35726
L51473 35726
L51473 35867
L51445 35951
L51389 36007
L51332 36035
L51220 36064
L51135 36064
L51023 36035
L50967 36007
L50910 35951
L50882 35867
L50882 35726
" />
</g>
<g style="fill:#000000; fill-opacity:0.0; 
stroke:#000000; stroke-width:59.0551; stroke-opacity:1; 
stroke-linecap:round; stroke-linejoin:round;">
<path d="M47400 36050
L47400 32250
" />
<path d="M47400 36050
L63200 36050
" />
<path d="M63200 32250
L63200 36050
" />
<path d="M47400 32250
L63200 32250
" />
<path d="M58650 32800
L59650 32800
" />
<path d="M59650 32800
L59650 33800
" />
<path d="M59650 33800
L58650 33800
" />
<path d="M58650 33800
L58650 32800
" />
<path d="M61950 32300
L62950 32300
" />
<path d="M62950 32300
L62950 33300
" />
<path d="M62950 33300
L61950 33300
" />
<path d="M61950 33300
L61950 32300
" />
<path d="M52650 32300
L53650 32300
" />
<path d="M53650 32300
L53650 34300
" />
<path d="M53650 34300
L52650 34300
" />
<path d="M52650 34300
L52650 32300
" />
<path d="M51650 32300
L52650 32300
" />
<path d="M52650 32300
L52650 34300
" />
<path d="M52650 34300
L51650 34300
" />
<path d="M51650 34300
L51650 32300
" />
<path d="M53650 32300
L54650 32300
" />
<path d="M54650 32300
L54650 34300
" />
<path d="M54650 34300
L53650 34300
" />
<path d="M53650 34300
L53650 32300
" />
<path d="M50650 32300
L51650 32300
" />
<path d="M51650 32300
L51650 34300
" />
<path d="M51650 34300
L50650 34300
" />
<path d="M50650 34300
L50650 32300
" />
<path d="M54650 32300
L55650 32300
" />
<path d="M55650 32300
L55650 34300
" />
<path d="M55650 34300
L54650 34300
" />
<path d="M54650 34300
L54650 32300
" />
</g> 
</svg>
