<?xml version="1.0" standalone="no"?>
 <!DOCTYPE svg PUBLIC "-//W3C//DTD SVG 1.1//EN" 
 "http://www.w3.org/Graphics/SVG/1.1/DTD/svg11.dtd"> 
<svg xmlns="http://www.w3.org/2000/svg" version="1.1" 
    width="29.7002cm" height="21.0007cm" viewBox="0 0 116930 82680 ">
<title>SVG Picture created as SHT31V01A-NPTH-drl_map.svg date 2016/12/31 21:41:18 </title>
  <desc>Picture generated by PCBNEW </desc>
<g style="fill:#000000; fill-opacity:1;stroke:#000000; stroke-opacity:1;
stroke-linecap:round; stroke-linejoin:round; "
 transform="translate(0 0) scale(1 1)">
</g>
<g style="fill:#000000; fill-opacity:0.0; 
stroke:#000000; stroke-width:-0.000393701; stroke-opacity:1; 
stroke-linecap:round; stroke-linejoin:round;">
</g>
<g style="fill:#000000; fill-opacity:0.0; 
stroke:#000000; stroke-width:59.0551; stroke-opacity:1; 
stroke-linecap:round; stroke-linejoin:round;">
<path d="M47400 36050
L47400 32250
" />
<path d="M47400 36050
L63200 36050
" />
<path d="M63200 32250
L63200 36050
" />
<path d="M47400 32250
L63200 32250
" />
</g>
<g style="fill:#000000; fill-opacity:0.0; 
stroke:#000000; stroke-width:78.7402; stroke-opacity:1; 
stroke-linecap:round; stroke-linejoin:round;">
</g>
<g style="fill:#000000; fill-opacity:0.0; 
stroke:#000000; stroke-width:118.11; stroke-opacity:1; 
stroke-linecap:round; stroke-linejoin:round;">
<path d="M48498 37913
L48498 36731
L48779 36731
L48948 36788
L49060 36900
L49116 37013
L49173 37238
L49173 37406
L49116 37631
L49060 37744
L48948 37856
L48779 37913
L48498 37913
" />
<path d="M49679 37913
L49679 37125
" />
<path d="M49679 37350
L49735 37238
L49791 37181
L49904 37125
L50016 37125
" />
<path d="M50410 37913
L50410 37125
" />
<path d="M50410 36731
L50354 36788
L50410 36844
L50466 36788
L50410 36731
L50410 36844
" />
<path d="M51141 37913
L51029 37856
L50972 37744
L50972 36731
" />
<path d="M51760 37913
L51647 37856
L51591 37744
L51591 36731
" />
<path d="M53110 37913
L53110 36731
L53503 37575
L53897 36731
L53897 37913
" />
<path d="M54966 37913
L54966 37294
L54909 37181
L54797 37125
L54572 37125
L54459 37181
" />
<path d="M54966 37856
L54853 37913
L54572 37913
L54459 37856
L54403 37744
L54403 37631
L54459 37519
L54572 37463
L54853 37463
L54966 37406
" />
<path d="M55528 37125
L55528 38306
" />
<path d="M55528 37181
L55641 37125
L55865 37125
L55978 37181
L56034 37238
L56090 37350
L56090 37688
L56034 37800
L55978 37856
L55865 37913
L55641 37913
L55528 37856
" />
<path d="M56597 37800
L56653 37856
L56597 37913
L56540 37856
L56597 37800
L56597 37913
" />
<path d="M56597 37181
L56653 37238
L56597 37294
L56540 37238
L56597 37181
L56597 37294
" />
</g> 
</svg>
