<?xml version="1.0" standalone="no"?>
 <!DOCTYPE svg PUBLIC "-//W3C//DTD SVG 1.1//EN" 
 "http://www.w3.org/Graphics/SVG/1.1/DTD/svg11.dtd"> 
<svg xmlns="http://www.w3.org/2000/svg" version="1.1" 
    width="29.7002cm" height="21.0007cm" viewBox="0 0 116930 82680 ">
<title>SVG Picture created as SHT31V01A-B_Mask.svg date 2016/12/31 21:41:18 </title>
  <desc>Picture generated by PCBNEW </desc>
<g style="fill:#000000; fill-opacity:1;stroke:#000000; stroke-opacity:1;
stroke-linecap:round; stroke-linejoin:round; "
 transform="translate(0 0) scale(1 1)">
</g>
<g style="fill:#000000; fill-opacity:0.0; 
stroke:#000000; stroke-width:-0.000393701; stroke-opacity:1; 
stroke-linecap:round; stroke-linejoin:round;">
</g>
<g style="fill:#000000; fill-opacity:0.0; 
stroke:#000000; stroke-width:59.0551; stroke-opacity:1; 
stroke-linecap:round; stroke-linejoin:round;">
<path d="M47400 36050
L47400 32250
" />
<path d="M47400 36050
L63200 36050
" />
<path d="M63200 32250
L63200 36050
" />
<path d="M47400 32250
L63200 32250
" />
</g>
<g style="fill:#000000; fill-opacity:0.0; 
stroke:#000000; stroke-width:0; stroke-opacity:1; 
stroke-linecap:round; stroke-linejoin:round;">
</g>
<g style="fill:#000000; fill-opacity:1.0; 
stroke:#000000; stroke-width:0; stroke-opacity:1; 
stroke-linecap:round; stroke-linejoin:round;">
<polyline style="fill-rule:evenodd;"
points="58802,33647
58802,32952
59497,32952
59497,33647
58802,33647
" /> 
<polyline style="fill-rule:evenodd;"
points="62102,33147
62102,32452
62797,32452
62797,33147
62102,33147
" /> 
<polyline style="fill-rule:evenodd;"
points="52802,34147
52802,33452
53497,33452
53497,34147
52802,34147
" /> 
<polyline style="fill-rule:evenodd;"
points="52802,33147
52802,32452
53497,32452
53497,33147
52802,33147
" /> 
<polyline style="fill-rule:evenodd;"
points="51802,34147
51802,33452
52497,33452
52497,34147
51802,34147
" /> 
<polyline style="fill-rule:evenodd;"
points="51802,33147
51802,32452
52497,32452
52497,33147
51802,33147
" /> 
<polyline style="fill-rule:evenodd;"
points="53802,34147
53802,33452
54497,33452
54497,34147
53802,34147
" /> 
<polyline style="fill-rule:evenodd;"
points="53802,33147
53802,32452
54497,32452
54497,33147
53802,33147
" /> 
<polyline style="fill-rule:evenodd;"
points="50802,34147
50802,33452
51497,33452
51497,34147
50802,34147
" /> 
<polyline style="fill-rule:evenodd;"
points="50802,33147
50802,32452
51497,32452
51497,33147
50802,33147
" /> 
<polyline style="fill-rule:evenodd;"
points="54802,34147
54802,33452
55497,33452
55497,34147
54802,34147
" /> 
<polyline style="fill-rule:evenodd;"
points="54802,33147
54802,32452
55497,32452
55497,33147
54802,33147
" /> 
<circle cx="57300" cy="34150" r="1228.35" /> 
</g>
<g style="fill:#000000; fill-opacity:1.0; 
stroke:#000000; stroke-width:137.795; stroke-opacity:1; 
stroke-linecap:round; stroke-linejoin:round;">
</g>
<g style="fill:#000000; fill-opacity:1.0; 
stroke:#000000; stroke-width:0; stroke-opacity:1; 
stroke-linecap:round; stroke-linejoin:round;">
<circle cx="49300" cy="34150" r="1228.35" /> 
</g>
<g style="fill:#000000; fill-opacity:1.0; 
stroke:#000000; stroke-width:137.795; stroke-opacity:1; 
stroke-linecap:round; stroke-linejoin:round;">
</g>
<g style="fill:#000000; fill-opacity:1.0; 
stroke:#000000; stroke-width:0; stroke-opacity:1; 
stroke-linecap:round; stroke-linejoin:round;">
<polyline style="fill-rule:evenodd;"
points="60222,33877
60222,34522
59777,34522
59777,33877
60222,33877
" /> 
<polyline style="fill-rule:evenodd;"
points="59472,33877
59472,34522
59027,34522
59027,33877
59472,33877
" /> 
<polyline style="fill-rule:evenodd;"
points="60627,33022
60627,32377
61072,32377
61072,33022
60627,33022
" /> 
<polyline style="fill-rule:evenodd;"
points="61377,33022
61377,32377
61822,32377
61822,33022
61377,33022
" /> 
<polyline style="fill-rule:evenodd;"
points="63172,35897
62527,35897
62527,35452
63172,35452
63172,35897
" /> 
<polyline style="fill-rule:evenodd;"
points="63172,35147
62527,35147
62527,34702
63172,34702
63172,35147
" /> 
<polyline style="fill-rule:evenodd;"
points="63172,34597
62527,34597
62527,34152
63172,34152
63172,34597
" /> 
<polyline style="fill-rule:evenodd;"
points="63172,33847
62527,33847
62527,33402
63172,33402
63172,33847
" /> 
<polyline style="fill-rule:evenodd;"
points="59677,34727
60322,34727
60322,35172
59677,35172
59677,34727
" /> 
<polyline style="fill-rule:evenodd;"
points="59677,35477
60322,35477
60322,35922
59677,35922
59677,35477
" /> 
<polyline style="fill-rule:evenodd;"
points="60427,33927
61072,33927
61072,34372
60427,34372
60427,33927
" /> 
<polyline style="fill-rule:evenodd;"
points="60427,34677
61072,34677
61072,35122
60427,35122
60427,34677
" /> 
<polyline style="fill-rule:evenodd;"
points="60922,33177
60922,33822
60477,33822
60477,33177
60922,33177
" /> 
<polyline style="fill-rule:evenodd;"
points="60172,33177
60172,33822
59727,33822
59727,33177
60172,33177
" /> 
<polyline style="fill-rule:evenodd;"
points="62251,34787
62038,34787
62038,34457
62251,34457
62251,34787
" /> 
<polyline style="fill-rule:evenodd;"
points="62054,34787
61842,34787
61842,34457
62054,34457
62054,34787
" /> 
<polyline style="fill-rule:evenodd;"
points="61857,34787
61645,34787
61645,34457
61857,34457
61857,34787
" /> 
<polyline style="fill-rule:evenodd;"
points="61661,34787
61448,34787
61448,34457
61661,34457
61661,34787
" /> 
<polyline style="fill-rule:evenodd;"
points="61661,33842
61448,33842
61448,33512
61661,33512
61661,33842
" /> 
<polyline style="fill-rule:evenodd;"
points="61857,33842
61645,33842
61645,33512
61857,33512
61857,33842
" /> 
<polyline style="fill-rule:evenodd;"
points="62054,33842
61842,33842
61842,33512
62054,33512
62054,33842
" /> 
<polyline style="fill-rule:evenodd;"
points="62251,33842
62038,33842
62038,33512
62251,33512
62251,33842
" /> 
<polyline style="fill-rule:evenodd;"
points="62231,34394
61468,34394
61468,33905
62231,33905
62231,34394
" /> 
<polyline style="fill-rule:evenodd;"
points="51307,35331
51307,34568
51914,34568
51914,35331
51307,35331
" /> 
<polyline style="fill-rule:evenodd;"
points="52685,35331
52685,34568
53292,34568
53292,35331
52685,35331
" /> 
</g> 
</svg>
