<?xml version="1.0" standalone="no"?>
 <!DOCTYPE svg PUBLIC "-//W3C//DTD SVG 1.1//EN" 
 "http://www.w3.org/Graphics/SVG/1.1/DTD/svg11.dtd"> 
<svg xmlns="http://www.w3.org/2000/svg" version="1.1" 
    width="29.7002cm" height="21.0007cm" viewBox="0 0 116930 82680 ">
<title>SVG Picture created as SHT31V01A-PTH-drl_map.svg date 2016/12/31 13:18:19 </title>
  <desc>Picture generated by PCBNEW </desc>
<g style="fill:#000000; fill-opacity:1;stroke:#000000; stroke-opacity:1;
stroke-linecap:round; stroke-linejoin:round; "
 transform="translate(0 0) scale(1 1)">
</g>
<g style="fill:#000000; fill-opacity:0.0; 
stroke:#000000; stroke-width:-0.000393701; stroke-opacity:1; 
stroke-linecap:round; stroke-linejoin:round;">
</g>
<g style="fill:#000000; fill-opacity:0.0; 
stroke:#000000; stroke-width:59.0551; stroke-opacity:1; 
stroke-linecap:round; stroke-linejoin:round;">
<path d="M47400 36050
L47400 32250
" />
<path d="M47400 36050
L63200 36050
" />
<path d="M63200 32250
L63200 36050
" />
<path d="M47400 32250
L63200 32250
" />
</g>
<g style="fill:#000000; fill-opacity:0.0; 
stroke:#000000; stroke-width:78.7402; stroke-opacity:1; 
stroke-linecap:round; stroke-linejoin:round;">
<path d="M53651 34851
L53848 35048
" />
<path d="M53848 34851
L53651 35048
" />
<path d="M53701 35251
L53898 35448
" />
<path d="M53898 35251
L53701 35448
" />
<path d="M60151 32953
L60348 33150
" />
<path d="M60348 32953
L60151 33150
" />
<path d="M60651 34051
L60848 34248
" />
<path d="M60848 34051
L60651 34248
" />
<path d="M60651 34801
L60848 34998
" />
<path d="M60848 34801
L60651 34998
" />
<path d="M61818 35037
L62015 35234
" />
<path d="M62015 35037
L61818 35234
" />
<path d="M62401 33401
L62598 33598
" />
<path d="M62598 33401
L62401 33598
" />
<path d="M62751 34551
L62948 34748
" />
<path d="M62948 34551
L62751 34748
" />
<path d="M62751 35301
L62948 35498
" />
<path d="M62948 35301
L62751 35498
" />
<circle cx="51150" cy="32800" r="175" /> 
<circle cx="51150" cy="33800" r="175" /> 
<circle cx="52150" cy="32800" r="175" /> 
<circle cx="52150" cy="33800" r="175" /> 
<circle cx="53150" cy="32800" r="175" /> 
<circle cx="53150" cy="33800" r="175" /> 
<circle cx="54150" cy="32800" r="175" /> 
<circle cx="54150" cy="33800" r="175" /> 
<circle cx="55150" cy="32800" r="175" /> 
<circle cx="55150" cy="33800" r="175" /> 
<circle cx="59150" cy="33300" r="175" /> 
<circle cx="62450" cy="32800" r="175" /> 
<path d="M49300 33559
L49300 34740
" />
<path d="M48709 34150
L49890 34150
" />
<path d="M57300 33559
L57300 34740
" />
<path d="M56709 34150
L57890 34150
" />
</g>
<g style="fill:#000000; fill-opacity:0.0; 
stroke:#000000; stroke-width:118.11; stroke-opacity:1; 
stroke-linecap:round; stroke-linejoin:round;">
<path d="M48498 37913
L48498 36731
L48779 36731
L48948 36788
L49060 36900
L49116 37013
L49173 37238
L49173 37406
L49116 37631
L49060 37744
L48948 37856
L48779 37913
L48498 37913
" />
<path d="M49679 37913
L49679 37125
" />
<path d="M49679 37350
L49735 37238
L49791 37181
L49904 37125
L50016 37125
" />
<path d="M50410 37913
L50410 37125
" />
<path d="M50410 36731
L50354 36788
L50410 36844
L50466 36788
L50410 36731
L50410 36844
" />
<path d="M51141 37913
L51029 37856
L50972 37744
L50972 36731
" />
<path d="M51760 37913
L51647 37856
L51591 37744
L51591 36731
" />
<path d="M53110 37913
L53110 36731
L53503 37575
L53897 36731
L53897 37913
" />
<path d="M54966 37913
L54966 37294
L54909 37181
L54797 37125
L54572 37125
L54459 37181
" />
<path d="M54966 37856
L54853 37913
L54572 37913
L54459 37856
L54403 37744
L54403 37631
L54459 37519
L54572 37463
L54853 37463
L54966 37406
" />
<path d="M55528 37125
L55528 38306
" />
<path d="M55528 37181
L55641 37125
L55865 37125
L55978 37181
L56034 37238
L56090 37350
L56090 37688
L56034 37800
L55978 37856
L55865 37913
L55641 37913
L55528 37856
" />
<path d="M56597 37800
L56653 37856
L56597 37913
L56540 37856
L56597 37800
L56597 37913
" />
<path d="M56597 37181
L56653 37238
L56597 37294
L56540 37238
L56597 37181
L56597 37294
" />
<path d="M47173 39760
L47370 39957
" />
<path d="M47370 39760
L47173 39957
" />
<path d="M48723 39212
L48835 39212
L48948 39268
L49004 39324
L49060 39437
L49116 39662
L49116 39943
L49060 40168
L49004 40280
L48948 40337
L48835 40393
L48723 40393
L48610 40337
L48554 40280
L48498 40168
L48441 39943
L48441 39662
L48498 39437
L48554 39324
L48610 39268
L48723 39212
" />
<path d="M49623 40280
L49679 40337
L49623 40393
L49566 40337
L49623 40280
L49623 40393
" />
<path d="M50747 39212
L50185 39212
L50129 39774
L50185 39718
L50297 39662
L50579 39662
L50691 39718
L50747 39774
L50804 39887
L50804 40168
L50747 40280
L50691 40337
L50579 40393
L50297 40393
L50185 40337
L50129 40280
" />
<path d="M51535 39212
L51647 39212
L51760 39268
L51816 39324
L51872 39437
L51928 39662
L51928 39943
L51872 40168
L51816 40280
L51760 40337
L51647 40393
L51535 40393
L51422 40337
L51366 40280
L51310 40168
L51254 39943
L51254 39662
L51310 39437
L51366 39324
L51422 39268
L51535 39212
" />
<path d="M52435 40393
L52435 39605
" />
<path d="M52435 39718
L52491 39662
L52603 39605
L52772 39605
L52885 39662
L52941 39774
L52941 40393
" />
<path d="M52941 39774
L52997 39662
L53110 39605
L53278 39605
L53391 39662
L53447 39774
L53447 40393
" />
<path d="M54009 40393
L54009 39605
" />
<path d="M54009 39718
L54066 39662
L54178 39605
L54347 39605
L54459 39662
L54516 39774
L54516 40393
" />
<path d="M54516 39774
L54572 39662
L54684 39605
L54853 39605
L54966 39662
L55022 39774
L55022 40393
" />
<path d="M57328 39156
L56315 40674
" />
<path d="M58846 39212
L58959 39212
L59071 39268
L59128 39324
L59184 39437
L59240 39662
L59240 39943
L59184 40168
L59128 40280
L59071 40337
L58959 40393
L58846 40393
L58734 40337
L58678 40280
L58621 40168
L58565 39943
L58565 39662
L58621 39437
L58678 39324
L58734 39268
L58846 39212
" />
<path d="M59746 40280
L59802 40337
L59746 40393
L59690 40337
L59746 40280
L59746 40393
" />
<path d="M60534 39212
L60646 39212
L60759 39268
L60815 39324
L60871 39437
L60927 39662
L60927 39943
L60871 40168
L60815 40280
L60759 40337
L60646 40393
L60534 40393
L60421 40337
L60365 40280
L60309 40168
L60252 39943
L60252 39662
L60309 39437
L60365 39324
L60421 39268
L60534 39212
" />
<path d="M61377 39324
L61434 39268
L61546 39212
L61827 39212
L61940 39268
L61996 39324
L62052 39437
L62052 39549
L61996 39718
L61321 40393
L62052 40393
" />
<path d="M62783 39212
L62896 39212
L63008 39268
L63065 39324
L63121 39437
L63177 39662
L63177 39943
L63121 40168
L63065 40280
L63008 40337
L62896 40393
L62783 40393
L62671 40337
L62615 40280
L62558 40168
L62502 39943
L62502 39662
L62558 39437
L62615 39324
L62671 39268
L62783 39212
" />
<path d="M63627 39212
L63627 39437
" />
<path d="M64077 39212
L64077 39437
" />
<path d="M65820 40843
L65764 40787
L65652 40618
L65596 40505
L65539 40337
L65483 40055
L65483 39830
L65539 39549
L65596 39380
L65652 39268
L65764 39099
L65820 39043
" />
<path d="M66327 40393
L66552 40393
L66664 40337
L66720 40280
L66833 40112
L66889 39887
L66889 39437
L66833 39324
L66777 39268
L66664 39212
L66439 39212
L66327 39268
L66270 39324
L66214 39437
L66214 39718
L66270 39830
L66327 39887
L66439 39943
L66664 39943
L66777 39887
L66833 39830
L66889 39718
" />
<path d="M68295 40393
L68295 39212
" />
<path d="M68801 40393
L68801 39774
L68745 39662
L68633 39605
L68464 39605
L68351 39662
L68295 39718
" />
<path d="M69533 40393
L69420 40337
L69364 40280
L69308 40168
L69308 39830
L69364 39718
L69420 39662
L69533 39605
L69701 39605
L69814 39662
L69870 39718
L69926 39830
L69926 40168
L69870 40280
L69814 40337
L69701 40393
L69533 40393
" />
<path d="M70601 40393
L70489 40337
L70432 40224
L70432 39212
" />
<path d="M71501 40337
L71389 40393
L71164 40393
L71051 40337
L70995 40224
L70995 39774
L71051 39662
L71164 39605
L71389 39605
L71501 39662
L71557 39774
L71557 39887
L70995 39999
" />
<path d="M72007 40337
L72120 40393
L72345 40393
L72457 40337
L72513 40224
L72513 40168
L72457 40055
L72345 39999
L72176 39999
L72063 39943
L72007 39830
L72007 39774
L72063 39662
L72176 39605
L72345 39605
L72457 39662
" />
<path d="M72907 40843
L72963 40787
L73076 40618
L73132 40505
L73188 40337
L73245 40055
L73245 39830
L73188 39549
L73132 39380
L73076 39268
L72963 39099
L72907 39043
" />
<circle cx="47195.5" cy="41418.1" r="175" /> 
<path d="M48723 40771
L48835 40771
L48948 40827
L49004 40883
L49060 40996
L49116 41221
L49116 41502
L49060 41727
L49004 41839
L48948 41896
L48835 41952
L48723 41952
L48610 41896
L48554 41839
L48498 41727
L48441 41502
L48441 41221
L48498 40996
L48554 40883
L48610 40827
L48723 40771
" />
<path d="M49623 41839
L49679 41896
L49623 41952
L49566 41896
L49623 41839
L49623 41952
" />
<path d="M50354 41277
L50241 41221
L50185 41165
L50129 41052
L50129 40996
L50185 40883
L50241 40827
L50354 40771
L50579 40771
L50691 40827
L50747 40883
L50804 40996
L50804 41052
L50747 41165
L50691 41221
L50579 41277
L50354 41277
L50241 41333
L50185 41389
L50129 41502
L50129 41727
L50185 41839
L50241 41896
L50354 41952
L50579 41952
L50691 41896
L50747 41839
L50804 41727
L50804 41502
L50747 41389
L50691 41333
L50579 41277
" />
<path d="M51366 41952
L51591 41952
L51703 41896
L51760 41839
L51872 41671
L51928 41446
L51928 40996
L51872 40883
L51816 40827
L51703 40771
L51479 40771
L51366 40827
L51310 40883
L51254 40996
L51254 41277
L51310 41389
L51366 41446
L51479 41502
L51703 41502
L51816 41446
L51872 41389
L51928 41277
" />
<path d="M52435 41952
L52435 41165
" />
<path d="M52435 41277
L52491 41221
L52603 41165
L52772 41165
L52885 41221
L52941 41333
L52941 41952
" />
<path d="M52941 41333
L52997 41221
L53110 41165
L53278 41165
L53391 41221
L53447 41333
L53447 41952
" />
<path d="M54009 41952
L54009 41165
" />
<path d="M54009 41277
L54066 41221
L54178 41165
L54347 41165
L54459 41221
L54516 41333
L54516 41952
" />
<path d="M54516 41333
L54572 41221
L54684 41165
L54853 41165
L54966 41221
L55022 41333
L55022 41952
" />
<path d="M57328 40715
L56315 42233
" />
<path d="M58846 40771
L58959 40771
L59071 40827
L59128 40883
L59184 40996
L59240 41221
L59240 41502
L59184 41727
L59128 41839
L59071 41896
L58959 41952
L58846 41952
L58734 41896
L58678 41839
L58621 41727
L58565 41502
L58565 41221
L58621 40996
L58678 40883
L58734 40827
L58846 40771
" />
<path d="M59746 41839
L59802 41896
L59746 41952
L59690 41896
L59746 41839
L59746 41952
" />
<path d="M60534 40771
L60646 40771
L60759 40827
L60815 40883
L60871 40996
L60927 41221
L60927 41502
L60871 41727
L60815 41839
L60759 41896
L60646 41952
L60534 41952
L60421 41896
L60365 41839
L60309 41727
L60252 41502
L60252 41221
L60309 40996
L60365 40883
L60421 40827
L60534 40771
" />
<path d="M61321 40771
L62052 40771
L61658 41221
L61827 41221
L61940 41277
L61996 41333
L62052 41446
L62052 41727
L61996 41839
L61940 41896
L61827 41952
L61490 41952
L61377 41896
L61321 41839
" />
<path d="M63121 40771
L62558 40771
L62502 41333
L62558 41277
L62671 41221
L62952 41221
L63065 41277
L63121 41333
L63177 41446
L63177 41727
L63121 41839
L63065 41896
L62952 41952
L62671 41952
L62558 41896
L62502 41839
" />
<path d="M63627 40771
L63627 40996
" />
<path d="M64077 40771
L64077 40996
" />
<path d="M65820 42402
L65764 42346
L65652 42177
L65596 42064
L65539 41896
L65483 41614
L65483 41389
L65539 41108
L65596 40940
L65652 40827
L65764 40658
L65820 40602
" />
<path d="M66889 41952
L66214 41952
" />
<path d="M66552 41952
L66552 40771
L66439 40940
L66327 41052
L66214 41108
" />
<path d="M67339 40883
L67395 40827
L67508 40771
L67789 40771
L67901 40827
L67958 40883
L68014 40996
L68014 41108
L67958 41277
L67283 41952
L68014 41952
" />
<path d="M69420 41952
L69420 40771
" />
<path d="M69926 41952
L69926 41333
L69870 41221
L69757 41165
L69589 41165
L69476 41221
L69420 41277
" />
<path d="M70657 41952
L70545 41896
L70489 41839
L70432 41727
L70432 41389
L70489 41277
L70545 41221
L70657 41165
L70826 41165
L70939 41221
L70995 41277
L71051 41389
L71051 41727
L70995 41839
L70939 41896
L70826 41952
L70657 41952
" />
<path d="M71726 41952
L71614 41896
L71557 41783
L71557 40771
" />
<path d="M72626 41896
L72513 41952
L72288 41952
L72176 41896
L72120 41783
L72120 41333
L72176 41221
L72288 41165
L72513 41165
L72626 41221
L72682 41333
L72682 41446
L72120 41558
" />
<path d="M73132 41896
L73245 41952
L73470 41952
L73582 41896
L73638 41783
L73638 41727
L73582 41614
L73470 41558
L73301 41558
L73188 41502
L73132 41389
L73132 41333
L73188 41221
L73301 41165
L73470 41165
L73582 41221
" />
<path d="M74032 42402
L74088 42346
L74201 42177
L74257 42064
L74313 41896
L74369 41614
L74369 41389
L74313 41108
L74257 40940
L74201 40827
L74088 40658
L74032 40602
" />
<path d="M46779 42386
L46779 43567
" />
<path d="M46189 42977
L47370 42977
" />
<path d="M48385 42330
L49116 42330
L48723 42780
L48891 42780
L49004 42836
L49060 42892
L49116 43005
L49116 43286
L49060 43398
L49004 43455
L48891 43511
L48554 43511
L48441 43455
L48385 43398
" />
<path d="M49623 43398
L49679 43455
L49623 43511
L49566 43455
L49623 43398
L49623 43511
" />
<path d="M50410 42330
L50522 42330
L50635 42386
L50691 42442
L50747 42555
L50804 42780
L50804 43061
L50747 43286
L50691 43398
L50635 43455
L50522 43511
L50410 43511
L50297 43455
L50241 43398
L50185 43286
L50129 43061
L50129 42780
L50185 42555
L50241 42442
L50297 42386
L50410 42330
" />
<path d="M51535 42330
L51647 42330
L51760 42386
L51816 42442
L51872 42555
L51928 42780
L51928 43061
L51872 43286
L51816 43398
L51760 43455
L51647 43511
L51535 43511
L51422 43455
L51366 43398
L51310 43286
L51254 43061
L51254 42780
L51310 42555
L51366 42442
L51422 42386
L51535 42330
" />
<path d="M52435 43511
L52435 42724
" />
<path d="M52435 42836
L52491 42780
L52603 42724
L52772 42724
L52885 42780
L52941 42892
L52941 43511
" />
<path d="M52941 42892
L52997 42780
L53110 42724
L53278 42724
L53391 42780
L53447 42892
L53447 43511
" />
<path d="M54009 43511
L54009 42724
" />
<path d="M54009 42836
L54066 42780
L54178 42724
L54347 42724
L54459 42780
L54516 42892
L54516 43511
" />
<path d="M54516 42892
L54572 42780
L54684 42724
L54853 42724
L54966 42780
L55022 42892
L55022 43511
" />
<path d="M57328 42274
L56315 43792
" />
<path d="M58846 42330
L58959 42330
L59071 42386
L59128 42442
L59184 42555
L59240 42780
L59240 43061
L59184 43286
L59128 43398
L59071 43455
L58959 43511
L58846 43511
L58734 43455
L58678 43398
L58621 43286
L58565 43061
L58565 42780
L58621 42555
L58678 42442
L58734 42386
L58846 42330
" />
<path d="M59746 43398
L59802 43455
L59746 43511
L59690 43455
L59746 43398
L59746 43511
" />
<path d="M60927 43511
L60252 43511
" />
<path d="M60590 43511
L60590 42330
L60477 42499
L60365 42611
L60252 42667
" />
<path d="M62052 43511
L61377 43511
" />
<path d="M61715 43511
L61715 42330
L61602 42499
L61490 42611
L61377 42667
" />
<path d="M62727 42836
L62615 42780
L62558 42724
L62502 42611
L62502 42555
L62558 42442
L62615 42386
L62727 42330
L62952 42330
L63065 42386
L63121 42442
L63177 42555
L63177 42611
L63121 42724
L63065 42780
L62952 42836
L62727 42836
L62615 42892
L62558 42949
L62502 43061
L62502 43286
L62558 43398
L62615 43455
L62727 43511
L62952 43511
L63065 43455
L63121 43398
L63177 43286
L63177 43061
L63121 42949
L63065 42892
L62952 42836
" />
<path d="M63627 42330
L63627 42555
" />
<path d="M64077 42330
L64077 42555
" />
<path d="M65820 43961
L65764 43905
L65652 43736
L65596 43623
L65539 43455
L65483 43174
L65483 42949
L65539 42667
L65596 42499
L65652 42386
L65764 42217
L65820 42161
" />
<path d="M66214 42442
L66270 42386
L66383 42330
L66664 42330
L66777 42386
L66833 42442
L66889 42555
L66889 42667
L66833 42836
L66158 43511
L66889 43511
" />
<path d="M68295 43511
L68295 42330
" />
<path d="M68801 43511
L68801 42892
L68745 42780
L68633 42724
L68464 42724
L68351 42780
L68295 42836
" />
<path d="M69533 43511
L69420 43455
L69364 43398
L69308 43286
L69308 42949
L69364 42836
L69420 42780
L69533 42724
L69701 42724
L69814 42780
L69870 42836
L69926 42949
L69926 43286
L69870 43398
L69814 43455
L69701 43511
L69533 43511
" />
<path d="M70601 43511
L70489 43455
L70432 43342
L70432 42330
" />
<path d="M71501 43455
L71389 43511
L71164 43511
L71051 43455
L70995 43342
L70995 42892
L71051 42780
L71164 42724
L71389 42724
L71501 42780
L71557 42892
L71557 43005
L70995 43117
" />
<path d="M72007 43455
L72120 43511
L72345 43511
L72457 43455
L72513 43342
L72513 43286
L72457 43174
L72345 43117
L72176 43117
L72063 43061
L72007 42949
L72007 42892
L72063 42780
L72176 42724
L72345 42724
L72457 42780
" />
<path d="M72907 43961
L72963 43905
L73076 43736
L73132 43623
L73188 43455
L73245 43174
L73245 42949
L73188 42667
L73132 42499
L73076 42386
L72963 42217
L72907 42161
" />
</g> 
</svg>
