%TF.GenerationSoftware,KiCad,Pcbnew,no-vcs-found-7409~56~ubuntu16.04.1*%
%TF.CreationDate,2016-12-31T13:53:34+01:00*%
%TF.ProjectId,SHT31V01A,5348543331563031412E6B696361645F,rev?*%
%TF.FileFunction,Copper,L2,Bot,Signal*%
%TF.FilePolarity,Positive*%
%FSLAX46Y46*%
G04 Gerber Fmt 4.6, Leading zero omitted, Abs format (unit mm)*
G04 Created by KiCad (PCBNEW no-vcs-found-7409~56~ubuntu16.04.1) date Sat Dec 31 13:53:34 2016*
%MOMM*%
%LPD*%
G01*
G04 APERTURE LIST*
%ADD10C,0.350000*%
%ADD11C,0.150000*%
%ADD12R,1.524000X1.524000*%
%ADD13C,6.000000*%
%ADD14R,0.889000X1.397000*%
%ADD15R,1.397000X0.889000*%
%ADD16R,0.300000X0.600000*%
%ADD17R,1.700000X1.000000*%
%ADD18R,1.300480X1.699260*%
%ADD19C,0.890000*%
%ADD20C,0.500000*%
%ADD21C,0.300000*%
%ADD22C,1.300000*%
%ADD23C,0.254000*%
%ADD24C,0.350000*%
G04 APERTURE END LIST*
D10*
D11*
X120396000Y-91567000D02*
X120396000Y-81915000D01*
X120396000Y-91567000D02*
X160528000Y-91567000D01*
X160528000Y-81915000D02*
X160528000Y-91567000D01*
X120396000Y-81915000D02*
X160528000Y-81915000D01*
D12*
X150241000Y-84582000D03*
X158623000Y-83312000D03*
X135001000Y-85852000D03*
X135001000Y-83312000D03*
X132461000Y-85852000D03*
X132461000Y-83312000D03*
X137541000Y-85852000D03*
X137541000Y-83312000D03*
X129921000Y-85852000D03*
X129921000Y-83312000D03*
X140081000Y-85852000D03*
X140081000Y-83312000D03*
D13*
X145542000Y-86741000D03*
X125222000Y-86741000D03*
D14*
X152400000Y-86868000D03*
X150495000Y-86868000D03*
X154559000Y-83058000D03*
X156464000Y-83058000D03*
D15*
X159639000Y-90614500D03*
X159639000Y-88709500D03*
X159639000Y-87312500D03*
X159639000Y-85407500D03*
X152400000Y-88773000D03*
X152400000Y-90678000D03*
X154305000Y-86741000D03*
X154305000Y-88646000D03*
D14*
X154178000Y-85090000D03*
X152273000Y-85090000D03*
D16*
X157849000Y-87941000D03*
X157349000Y-87941000D03*
X156849000Y-87941000D03*
X156349000Y-87941000D03*
X156349000Y-85541000D03*
X156849000Y-85541000D03*
X157349000Y-85541000D03*
X157849000Y-85541000D03*
D17*
X157099000Y-86741000D03*
D18*
X131091940Y-88773000D03*
X134592060Y-88773000D03*
D19*
X154305000Y-86741000D03*
X159639000Y-89916000D03*
X154305000Y-88646000D03*
X136652000Y-89789000D03*
X136525000Y-88773000D03*
X158750000Y-85090000D03*
X153035000Y-83953010D03*
X159639000Y-88011000D03*
X157268139Y-89246174D03*
D20*
X150495000Y-86868000D02*
X150495000Y-88821002D01*
X150495000Y-88821002D02*
X151457497Y-89783499D01*
X155606501Y-89783499D02*
X156363000Y-89027000D01*
X151457497Y-89783499D02*
X155606501Y-89783499D01*
X150241000Y-84582000D02*
X150241000Y-86614000D01*
X150241000Y-86614000D02*
X150495000Y-86868000D01*
D21*
X156849000Y-87941000D02*
X156849000Y-88541000D01*
X156849000Y-88541000D02*
X156363000Y-89027000D01*
D20*
X156464000Y-83058000D02*
X158369000Y-83058000D01*
X158369000Y-83058000D02*
X158623000Y-83312000D01*
D21*
X156849000Y-85541000D02*
X156849000Y-83443000D01*
X156849000Y-83443000D02*
X156464000Y-83058000D01*
D22*
X135001000Y-85852000D02*
X135001000Y-88364060D01*
X135001000Y-88364060D02*
X134592060Y-88773000D01*
D20*
X159639000Y-90614500D02*
X159639000Y-89916000D01*
X135536940Y-86387940D02*
X135001000Y-85852000D01*
X152400000Y-88773000D02*
X152400000Y-86868000D01*
D21*
X156349000Y-85541000D02*
X154629000Y-85541000D01*
X154629000Y-85541000D02*
X154178000Y-85090000D01*
D20*
X154559000Y-83058000D02*
X154559000Y-84709000D01*
X154559000Y-84709000D02*
X154178000Y-85090000D01*
X154305000Y-86741000D02*
X154305000Y-85217000D01*
X154305000Y-85217000D02*
X154178000Y-85090000D01*
X152400000Y-86868000D02*
X154178000Y-86868000D01*
X154178000Y-86868000D02*
X154305000Y-86741000D01*
X135001000Y-85852000D02*
X135001000Y-84455000D01*
X135001000Y-84455000D02*
X135001000Y-83312000D01*
X154559000Y-83058000D02*
X148149002Y-83058000D01*
X148149002Y-83058000D02*
X147582001Y-82490999D01*
X147582001Y-82490999D02*
X143236003Y-82490999D01*
X143236003Y-82490999D02*
X141203001Y-84524001D01*
X141203001Y-84524001D02*
X135070001Y-84524001D01*
X135070001Y-84524001D02*
X135001000Y-84455000D01*
X152400000Y-90678000D02*
X151201500Y-90678000D01*
X151201500Y-90678000D02*
X150888499Y-90991001D01*
X150888499Y-90991001D02*
X134500189Y-90991001D01*
X134500189Y-90991001D02*
X132461000Y-88951812D01*
X132461000Y-88951812D02*
X132461000Y-87114000D01*
X132461000Y-87114000D02*
X132461000Y-85852000D01*
X132461000Y-83312000D02*
X132461000Y-85852000D01*
X158242000Y-90043000D02*
X157607000Y-90678000D01*
X157607000Y-90678000D02*
X152400000Y-90678000D01*
D21*
X158242000Y-88934000D02*
X158242000Y-90043000D01*
X157849000Y-87941000D02*
X157849000Y-88541000D01*
X157849000Y-88541000D02*
X158242000Y-88934000D01*
X156349000Y-87941000D02*
X155010000Y-87941000D01*
X155010000Y-87941000D02*
X154305000Y-88646000D01*
X136525000Y-88773000D02*
X136652000Y-89789000D01*
X157349000Y-85541000D02*
X157849000Y-85541000D01*
D20*
X159639000Y-85407500D02*
X159067500Y-85407500D01*
X159067500Y-85407500D02*
X158750000Y-85090000D01*
X152273000Y-85090000D02*
X152273000Y-84715010D01*
X152273000Y-84715010D02*
X153035000Y-83953010D01*
X159639000Y-88709500D02*
X159639000Y-88011000D01*
X159639000Y-88011000D02*
X159639000Y-87312500D01*
D21*
X157349000Y-87941000D02*
X157349000Y-89165313D01*
X157349000Y-89165313D02*
X157268139Y-89246174D01*
D23*
G36*
X131051560Y-84074000D02*
X131095838Y-84309317D01*
X131234910Y-84525441D01*
X131316770Y-84581374D01*
X131247559Y-84625910D01*
X131102569Y-84838110D01*
X131051560Y-85090000D01*
X131051560Y-86614000D01*
X131095838Y-86849317D01*
X131234910Y-87065441D01*
X131447110Y-87210431D01*
X131576000Y-87236532D01*
X131576000Y-88951807D01*
X131575999Y-88951812D01*
X131628849Y-89217500D01*
X131643367Y-89290487D01*
X131776061Y-89489079D01*
X131835210Y-89577602D01*
X133114609Y-90857000D01*
X121106000Y-90857000D01*
X121106000Y-82625000D01*
X131051560Y-82625000D01*
X131051560Y-84074000D01*
X131051560Y-84074000D01*
G37*
X131051560Y-84074000D02*
X131095838Y-84309317D01*
X131234910Y-84525441D01*
X131316770Y-84581374D01*
X131247559Y-84625910D01*
X131102569Y-84838110D01*
X131051560Y-85090000D01*
X131051560Y-86614000D01*
X131095838Y-86849317D01*
X131234910Y-87065441D01*
X131447110Y-87210431D01*
X131576000Y-87236532D01*
X131576000Y-88951807D01*
X131575999Y-88951812D01*
X131628849Y-89217500D01*
X131643367Y-89290487D01*
X131776061Y-89489079D01*
X131835210Y-89577602D01*
X133114609Y-90857000D01*
X121106000Y-90857000D01*
X121106000Y-82625000D01*
X131051560Y-82625000D01*
X131051560Y-84074000D01*
G36*
X147523210Y-83683787D02*
X147523212Y-83683790D01*
X147613413Y-83744060D01*
X147810328Y-83875634D01*
X148149002Y-83943001D01*
X148149007Y-83943000D01*
X148831560Y-83943000D01*
X148831560Y-85344000D01*
X148875838Y-85579317D01*
X149014910Y-85795441D01*
X149227110Y-85940431D01*
X149356000Y-85966532D01*
X149356000Y-86613995D01*
X149355999Y-86614000D01*
X149402808Y-86849317D01*
X149403060Y-86850585D01*
X149403060Y-87566500D01*
X149447338Y-87801817D01*
X149586410Y-88017941D01*
X149610000Y-88034059D01*
X149610000Y-88820997D01*
X149609999Y-88821002D01*
X149665172Y-89098367D01*
X149677367Y-89159677D01*
X149830807Y-89389317D01*
X149869210Y-89446792D01*
X150525170Y-90102751D01*
X150521920Y-90106001D01*
X135663777Y-90106001D01*
X135693741Y-90086720D01*
X135838731Y-89874520D01*
X135889740Y-89622630D01*
X135889740Y-89292585D01*
X135909632Y-89272693D01*
X136188185Y-88855809D01*
X136204657Y-88773000D01*
X136286000Y-88364060D01*
X136286000Y-87020514D01*
X136314910Y-87065441D01*
X136527110Y-87210431D01*
X136779000Y-87261440D01*
X138303000Y-87261440D01*
X138538317Y-87217162D01*
X138754441Y-87078090D01*
X138899431Y-86865890D01*
X138950440Y-86614000D01*
X138950440Y-85409001D01*
X141202996Y-85409001D01*
X141203001Y-85409002D01*
X141529781Y-85344000D01*
X141541676Y-85341634D01*
X141828791Y-85149791D01*
X143602583Y-83375999D01*
X147215421Y-83375999D01*
X147523210Y-83683787D01*
X147523210Y-83683787D01*
G37*
X147523210Y-83683787D02*
X147523212Y-83683790D01*
X147613413Y-83744060D01*
X147810328Y-83875634D01*
X148149002Y-83943001D01*
X148149007Y-83943000D01*
X148831560Y-83943000D01*
X148831560Y-85344000D01*
X148875838Y-85579317D01*
X149014910Y-85795441D01*
X149227110Y-85940431D01*
X149356000Y-85966532D01*
X149356000Y-86613995D01*
X149355999Y-86614000D01*
X149402808Y-86849317D01*
X149403060Y-86850585D01*
X149403060Y-87566500D01*
X149447338Y-87801817D01*
X149586410Y-88017941D01*
X149610000Y-88034059D01*
X149610000Y-88820997D01*
X149609999Y-88821002D01*
X149665172Y-89098367D01*
X149677367Y-89159677D01*
X149830807Y-89389317D01*
X149869210Y-89446792D01*
X150525170Y-90102751D01*
X150521920Y-90106001D01*
X135663777Y-90106001D01*
X135693741Y-90086720D01*
X135838731Y-89874520D01*
X135889740Y-89622630D01*
X135889740Y-89292585D01*
X135909632Y-89272693D01*
X136188185Y-88855809D01*
X136204657Y-88773000D01*
X136286000Y-88364060D01*
X136286000Y-87020514D01*
X136314910Y-87065441D01*
X136527110Y-87210431D01*
X136779000Y-87261440D01*
X138303000Y-87261440D01*
X138538317Y-87217162D01*
X138754441Y-87078090D01*
X138899431Y-86865890D01*
X138950440Y-86614000D01*
X138950440Y-85409001D01*
X141202996Y-85409001D01*
X141203001Y-85409002D01*
X141529781Y-85344000D01*
X141541676Y-85341634D01*
X141828791Y-85149791D01*
X143602583Y-83375999D01*
X147215421Y-83375999D01*
X147523210Y-83683787D01*
G36*
X159818000Y-86220560D02*
X158940500Y-86220560D01*
X158705183Y-86264838D01*
X158489059Y-86403910D01*
X158344069Y-86616110D01*
X158293060Y-86868000D01*
X158293060Y-87073383D01*
X158250890Y-87044569D01*
X157999000Y-86993560D01*
X157699000Y-86993560D01*
X157595329Y-87013067D01*
X157499000Y-86993560D01*
X157199000Y-86993560D01*
X157095329Y-87013067D01*
X156999000Y-86993560D01*
X156699000Y-86993560D01*
X156595329Y-87013067D01*
X156499000Y-86993560D01*
X156199000Y-86993560D01*
X155963683Y-87037838D01*
X155780054Y-87156000D01*
X155650940Y-87156000D01*
X155650940Y-86326000D01*
X155784025Y-86326000D01*
X155947110Y-86437431D01*
X156199000Y-86488440D01*
X156499000Y-86488440D01*
X156602671Y-86468933D01*
X156699000Y-86488440D01*
X156999000Y-86488440D01*
X157234317Y-86444162D01*
X157450441Y-86305090D01*
X157595431Y-86092890D01*
X157646440Y-85841000D01*
X157646440Y-85241000D01*
X157634000Y-85174887D01*
X157634000Y-84675471D01*
X157861000Y-84721440D01*
X159385000Y-84721440D01*
X159620317Y-84677162D01*
X159818000Y-84549956D01*
X159818000Y-86220560D01*
X159818000Y-86220560D01*
G37*
X159818000Y-86220560D02*
X158940500Y-86220560D01*
X158705183Y-86264838D01*
X158489059Y-86403910D01*
X158344069Y-86616110D01*
X158293060Y-86868000D01*
X158293060Y-87073383D01*
X158250890Y-87044569D01*
X157999000Y-86993560D01*
X157699000Y-86993560D01*
X157595329Y-87013067D01*
X157499000Y-86993560D01*
X157199000Y-86993560D01*
X157095329Y-87013067D01*
X156999000Y-86993560D01*
X156699000Y-86993560D01*
X156595329Y-87013067D01*
X156499000Y-86993560D01*
X156199000Y-86993560D01*
X155963683Y-87037838D01*
X155780054Y-87156000D01*
X155650940Y-87156000D01*
X155650940Y-86326000D01*
X155784025Y-86326000D01*
X155947110Y-86437431D01*
X156199000Y-86488440D01*
X156499000Y-86488440D01*
X156602671Y-86468933D01*
X156699000Y-86488440D01*
X156999000Y-86488440D01*
X157234317Y-86444162D01*
X157450441Y-86305090D01*
X157595431Y-86092890D01*
X157646440Y-85841000D01*
X157646440Y-85241000D01*
X157634000Y-85174887D01*
X157634000Y-84675471D01*
X157861000Y-84721440D01*
X159385000Y-84721440D01*
X159620317Y-84677162D01*
X159818000Y-84549956D01*
X159818000Y-86220560D01*
G36*
X153137069Y-84139610D02*
X153086060Y-84391500D01*
X153086060Y-85570977D01*
X152844500Y-85522060D01*
X151955500Y-85522060D01*
X151720183Y-85566338D01*
X151540717Y-85681822D01*
X151599431Y-85595890D01*
X151650440Y-85344000D01*
X151650440Y-83943000D01*
X153271407Y-83943000D01*
X153137069Y-84139610D01*
X153137069Y-84139610D01*
G37*
X153137069Y-84139610D02*
X153086060Y-84391500D01*
X153086060Y-85570977D01*
X152844500Y-85522060D01*
X151955500Y-85522060D01*
X151720183Y-85566338D01*
X151540717Y-85681822D01*
X151599431Y-85595890D01*
X151650440Y-85344000D01*
X151650440Y-83943000D01*
X153271407Y-83943000D01*
X153137069Y-84139610D01*
G36*
X140836421Y-83639001D02*
X138950440Y-83639001D01*
X138950440Y-82625000D01*
X141850422Y-82625000D01*
X140836421Y-83639001D01*
X140836421Y-83639001D01*
G37*
X140836421Y-83639001D02*
X138950440Y-83639001D01*
X138950440Y-82625000D01*
X141850422Y-82625000D01*
X140836421Y-83639001D01*
D24*
X154305000Y-86741000D03*
X159639000Y-89916000D03*
X154305000Y-88646000D03*
X136652000Y-89789000D03*
X136525000Y-88773000D03*
X158750000Y-85090000D03*
X153035000Y-83953010D03*
X159639000Y-88011000D03*
X157268139Y-89246174D03*
X150241000Y-84582000D03*
X158623000Y-83312000D03*
X135001000Y-85852000D03*
X135001000Y-83312000D03*
X132461000Y-85852000D03*
X132461000Y-83312000D03*
X137541000Y-85852000D03*
X137541000Y-83312000D03*
X129921000Y-85852000D03*
X129921000Y-83312000D03*
X140081000Y-85852000D03*
X140081000Y-83312000D03*
X145542000Y-86741000D03*
X125222000Y-86741000D03*
M02*
