<?xml version="1.0" standalone="no"?>
 <!DOCTYPE svg PUBLIC "-//W3C//DTD SVG 1.1//EN" 
 "http://www.w3.org/Graphics/SVG/1.1/DTD/svg11.dtd"> 
<svg xmlns="http://www.w3.org/2000/svg" version="1.1" 
    width="29.7002cm" height="21.0007cm" viewBox="0 0 116930 82680 ">
<title>SVG Picture created as SHT31V01A-B_Cu.svg date 2016/12/31 13:18:19 </title>
  <desc>Picture generated by PCBNEW </desc>
<g style="fill:#000000; fill-opacity:1;stroke:#000000; stroke-opacity:1;
stroke-linecap:round; stroke-linejoin:round; "
 transform="translate(0 0) scale(1 1)">
</g>
<g style="fill:#000000; fill-opacity:0.0; 
stroke:#000000; stroke-width:-0.000393701; stroke-opacity:1; 
stroke-linecap:round; stroke-linejoin:round;">
</g>
<g style="fill:#000000; fill-opacity:0.0; 
stroke:#000000; stroke-width:59.0551; stroke-opacity:1; 
stroke-linecap:round; stroke-linejoin:round;">
<path d="M47400 36050
L47400 32250
" />
<path d="M47400 36050
L63200 36050
" />
<path d="M63200 32250
L63200 36050
" />
<path d="M47400 32250
L63200 32250
" />
</g>
<g style="fill:#000000; fill-opacity:0.0; 
stroke:#000000; stroke-width:0; stroke-opacity:1; 
stroke-linecap:round; stroke-linejoin:round;">
</g>
<g style="fill:#000000; fill-opacity:1.0; 
stroke:#000000; stroke-width:0; stroke-opacity:1; 
stroke-linecap:round; stroke-linejoin:round;">
<polyline style="fill-rule:evenodd;"
points="58850,33600
58850,33000
59450,33000
59450,33600
58850,33600
" /> 
<polyline style="fill-rule:evenodd;"
points="62150,33100
62150,32500
62750,32500
62750,33100
62150,33100
" /> 
<polyline style="fill-rule:evenodd;"
points="52850,34100
52850,33500
53450,33500
53450,34100
52850,34100
" /> 
<polyline style="fill-rule:evenodd;"
points="52850,33100
52850,32500
53450,32500
53450,33100
52850,33100
" /> 
<polyline style="fill-rule:evenodd;"
points="51850,34100
51850,33500
52450,33500
52450,34100
51850,34100
" /> 
<polyline style="fill-rule:evenodd;"
points="51850,33100
51850,32500
52450,32500
52450,33100
51850,33100
" /> 
<polyline style="fill-rule:evenodd;"
points="53850,34100
53850,33500
54450,33500
54450,34100
53850,34100
" /> 
<polyline style="fill-rule:evenodd;"
points="53850,33100
53850,32500
54450,32500
54450,33100
53850,33100
" /> 
<polyline style="fill-rule:evenodd;"
points="50850,34100
50850,33500
51450,33500
51450,34100
50850,34100
" /> 
<polyline style="fill-rule:evenodd;"
points="50850,33100
50850,32500
51450,32500
51450,33100
50850,33100
" /> 
<polyline style="fill-rule:evenodd;"
points="54850,34100
54850,33500
55450,33500
55450,34100
54850,34100
" /> 
<polyline style="fill-rule:evenodd;"
points="54850,33100
54850,32500
55450,32500
55450,33100
54850,33100
" /> 
<circle cx="57300" cy="34150" r="1181.1" /> 
</g>
<g style="fill:#000000; fill-opacity:1.0; 
stroke:#000000; stroke-width:137.795; stroke-opacity:1; 
stroke-linecap:round; stroke-linejoin:round;">
</g>
<g style="fill:#000000; fill-opacity:1.0; 
stroke:#000000; stroke-width:0; stroke-opacity:1; 
stroke-linecap:round; stroke-linejoin:round;">
<circle cx="49300" cy="34150" r="1181.1" /> 
</g>
<g style="fill:#000000; fill-opacity:1.0; 
stroke:#000000; stroke-width:137.795; stroke-opacity:1; 
stroke-linecap:round; stroke-linejoin:round;">
</g>
<g style="fill:#000000; fill-opacity:1.0; 
stroke:#000000; stroke-width:0; stroke-opacity:1; 
stroke-linecap:round; stroke-linejoin:round;">
<polyline style="fill-rule:evenodd;"
points="60175,33925
60175,34475
59825,34475
59825,33925
60175,33925
" /> 
<polyline style="fill-rule:evenodd;"
points="59425,33925
59425,34475
59075,34475
59075,33925
59425,33925
" /> 
<polyline style="fill-rule:evenodd;"
points="60675,32975
60675,32425
61025,32425
61025,32975
60675,32975
" /> 
<polyline style="fill-rule:evenodd;"
points="61425,32975
61425,32425
61775,32425
61775,32975
61425,32975
" /> 
<polyline style="fill-rule:evenodd;"
points="63125,35850
62575,35850
62575,35500
63125,35500
63125,35850
" /> 
<polyline style="fill-rule:evenodd;"
points="63125,35100
62575,35100
62575,34750
63125,34750
63125,35100
" /> 
<polyline style="fill-rule:evenodd;"
points="63125,34550
62575,34550
62575,34200
63125,34200
63125,34550
" /> 
<polyline style="fill-rule:evenodd;"
points="63125,33800
62575,33800
62575,33450
63125,33450
63125,33800
" /> 
<polyline style="fill-rule:evenodd;"
points="59725,34775
60275,34775
60275,35125
59725,35125
59725,34775
" /> 
<polyline style="fill-rule:evenodd;"
points="59725,35525
60275,35525
60275,35875
59725,35875
59725,35525
" /> 
<polyline style="fill-rule:evenodd;"
points="60475,33975
61025,33975
61025,34325
60475,34325
60475,33975
" /> 
<polyline style="fill-rule:evenodd;"
points="60475,34725
61025,34725
61025,35075
60475,35075
60475,34725
" /> 
<polyline style="fill-rule:evenodd;"
points="60875,33225
60875,33775
60525,33775
60525,33225
60875,33225
" /> 
<polyline style="fill-rule:evenodd;"
points="60125,33225
60125,33775
59775,33775
59775,33225
60125,33225
" /> 
<polyline style="fill-rule:evenodd;"
points="62204,34740
62086,34740
62086,34504
62204,34504
62204,34740
" /> 
<polyline style="fill-rule:evenodd;"
points="62007,34740
61889,34740
61889,34504
62007,34504
62007,34740
" /> 
<polyline style="fill-rule:evenodd;"
points="61810,34740
61692,34740
61692,34504
61810,34504
61810,34740
" /> 
<polyline style="fill-rule:evenodd;"
points="61613,34740
61495,34740
61495,34504
61613,34504
61613,34740
" /> 
<polyline style="fill-rule:evenodd;"
points="61613,33795
61495,33795
61495,33559
61613,33559
61613,33795
" /> 
<polyline style="fill-rule:evenodd;"
points="61810,33795
61692,33795
61692,33559
61810,33559
61810,33795
" /> 
<polyline style="fill-rule:evenodd;"
points="62007,33795
61889,33795
61889,33559
62007,33559
62007,33795
" /> 
<polyline style="fill-rule:evenodd;"
points="62204,33795
62086,33795
62086,33559
62204,33559
62204,33795
" /> 
<polyline style="fill-rule:evenodd;"
points="62184,34346
61515,34346
61515,33953
62184,33953
62184,34346
" /> 
<polyline style="fill-rule:evenodd;"
points="51355,35284
51355,34615
51867,34615
51867,35284
51355,35284
" /> 
<polyline style="fill-rule:evenodd;"
points="52733,35284
52733,34615
53245,34615
53245,35284
52733,35284
" /> 
<circle cx="60750" cy="34150" r="175.197" /> 
</g>
<g style="fill:#000000; fill-opacity:1.0; 
stroke:#000000; stroke-width:137.795; stroke-opacity:1; 
stroke-linecap:round; stroke-linejoin:round;">
</g>
<g style="fill:#000000; fill-opacity:1.0; 
stroke:#000000; stroke-width:0; stroke-opacity:1; 
stroke-linecap:round; stroke-linejoin:round;">
<circle cx="62850" cy="35400" r="175.197" /> 
</g>
<g style="fill:#000000; fill-opacity:1.0; 
stroke:#000000; stroke-width:137.795; stroke-opacity:1; 
stroke-linecap:round; stroke-linejoin:round;">
</g>
<g style="fill:#000000; fill-opacity:1.0; 
stroke:#000000; stroke-width:0; stroke-opacity:1; 
stroke-linecap:round; stroke-linejoin:round;">
<circle cx="60750" cy="34900" r="175.197" /> 
</g>
<g style="fill:#000000; fill-opacity:1.0; 
stroke:#000000; stroke-width:137.795; stroke-opacity:1; 
stroke-linecap:round; stroke-linejoin:round;">
</g>
<g style="fill:#000000; fill-opacity:1.0; 
stroke:#000000; stroke-width:0; stroke-opacity:1; 
stroke-linecap:round; stroke-linejoin:round;">
<circle cx="53800" cy="35350" r="175.197" /> 
</g>
<g style="fill:#000000; fill-opacity:1.0; 
stroke:#000000; stroke-width:137.795; stroke-opacity:1; 
stroke-linecap:round; stroke-linejoin:round;">
</g>
<g style="fill:#000000; fill-opacity:1.0; 
stroke:#000000; stroke-width:0; stroke-opacity:1; 
stroke-linecap:round; stroke-linejoin:round;">
<circle cx="53750" cy="34950" r="175.197" /> 
</g>
<g style="fill:#000000; fill-opacity:1.0; 
stroke:#000000; stroke-width:137.795; stroke-opacity:1; 
stroke-linecap:round; stroke-linejoin:round;">
</g>
<g style="fill:#000000; fill-opacity:1.0; 
stroke:#000000; stroke-width:0; stroke-opacity:1; 
stroke-linecap:round; stroke-linejoin:round;">
<circle cx="62500" cy="33500" r="175.197" /> 
</g>
<g style="fill:#000000; fill-opacity:1.0; 
stroke:#000000; stroke-width:137.795; stroke-opacity:1; 
stroke-linecap:round; stroke-linejoin:round;">
</g>
<g style="fill:#000000; fill-opacity:1.0; 
stroke:#000000; stroke-width:0; stroke-opacity:1; 
stroke-linecap:round; stroke-linejoin:round;">
<circle cx="60250" cy="33052.4" r="175.197" /> 
</g>
<g style="fill:#000000; fill-opacity:1.0; 
stroke:#000000; stroke-width:137.795; stroke-opacity:1; 
stroke-linecap:round; stroke-linejoin:round;">
</g>
<g style="fill:#000000; fill-opacity:1.0; 
stroke:#000000; stroke-width:0; stroke-opacity:1; 
stroke-linecap:round; stroke-linejoin:round;">
<circle cx="62850" cy="34650" r="175.197" /> 
</g>
<g style="fill:#000000; fill-opacity:1.0; 
stroke:#000000; stroke-width:137.795; stroke-opacity:1; 
stroke-linecap:round; stroke-linejoin:round;">
</g>
<g style="fill:#000000; fill-opacity:1.0; 
stroke:#000000; stroke-width:0; stroke-opacity:1; 
stroke-linecap:round; stroke-linejoin:round;">
<circle cx="61916.6" cy="35136.3" r="175.197" /> 
</g>
<g style="fill:#000000; fill-opacity:1.0; 
stroke:#000000; stroke-width:137.795; stroke-opacity:1; 
stroke-linecap:round; stroke-linejoin:round;">
</g>
<g style="fill:#000000; fill-opacity:1.0; 
stroke:#000000; stroke-width:196.85; stroke-opacity:1; 
stroke-linecap:round; stroke-linejoin:round;">
</g>
<g style="fill:#000000; fill-opacity:0.0; 
stroke:#000000; stroke-width:196.85; stroke-opacity:1; 
stroke-linecap:round; stroke-linejoin:round;">
<path d="M59250 34200
L59250 34968
" />
<path d="M59250 34968
L59628 35347
" />
<path d="M61262 35347
L61560 35050
" />
<path d="M59628 35347
L61262 35347
" />
<path d="M59150 33300
L59150 34100
" />
<path d="M59150 34100
L59250 34200
" />
</g>
<g style="fill:#000000; fill-opacity:0.0; 
stroke:#000000; stroke-width:118.11; stroke-opacity:1; 
stroke-linecap:round; stroke-linejoin:round;">
<path d="M61751 34622
L61751 34858
" />
<path d="M61751 34858
L61560 35050
" />
</g>
<g style="fill:#000000; fill-opacity:0.0; 
stroke:#000000; stroke-width:196.85; stroke-opacity:1; 
stroke-linecap:round; stroke-linejoin:round;">
<path d="M61600 32700
L62350 32700
" />
<path d="M62350 32700
L62450 32800
" />
</g>
<g style="fill:#000000; fill-opacity:0.0; 
stroke:#000000; stroke-width:118.11; stroke-opacity:1; 
stroke-linecap:round; stroke-linejoin:round;">
<path d="M61751 33677
L61751 32851
" />
<path d="M61751 32851
L61600 32700
" />
</g>
<g style="fill:#000000; fill-opacity:0.0; 
stroke:#000000; stroke-width:511.811; stroke-opacity:1; 
stroke-linecap:round; stroke-linejoin:round;">
<path d="M53150 33800
L53150 34789
" />
<path d="M53150 34789
L52989 34950
" />
</g>
<g style="fill:#000000; fill-opacity:0.0; 
stroke:#000000; stroke-width:196.85; stroke-opacity:1; 
stroke-linecap:round; stroke-linejoin:round;">
<path d="M62850 35675
L62850 35400
" />
<path d="M53361 34011
L53150 33800
" />
<path d="M60000 34950
L60000 34200
" />
</g>
<g style="fill:#000000; fill-opacity:0.0; 
stroke:#000000; stroke-width:118.11; stroke-opacity:1; 
stroke-linecap:round; stroke-linejoin:round;">
<path d="M61554 33677
L60877 33677
" />
<path d="M60877 33677
L60700 33500
" />
</g>
<g style="fill:#000000; fill-opacity:0.0; 
stroke:#000000; stroke-width:196.85; stroke-opacity:1; 
stroke-linecap:round; stroke-linejoin:round;">
<path d="M60850 32700
L60850 33350
" />
<path d="M60850 33350
L60700 33500
" />
<path d="M60750 34150
L60750 33550
" />
<path d="M60750 33550
L60700 33500
" />
<path d="M60000 34200
L60700 34200
" />
<path d="M60700 34200
L60750 34150
" />
<path d="M53150 33800
L53150 33250
" />
<path d="M53150 33250
L53150 32800
" />
<path d="M60850 32700
L58326 32700
" />
<path d="M58326 32700
L58103 32476
" />
<path d="M58103 32476
L56392 32476
" />
<path d="M56392 32476
L55591 33277
" />
<path d="M55591 33277
L53177 33277
" />
<path d="M53177 33277
L53150 33250
" />
<path d="M60000 35700
L59528 35700
" />
<path d="M59528 35700
L59404 35823
" />
<path d="M59404 35823
L52952 35823
" />
<path d="M52952 35823
L52150 35020
" />
<path d="M52150 35020
L52150 34296
" />
<path d="M52150 34296
L52150 33800
" />
<path d="M52150 32800
L52150 33800
" />
<path d="M62300 35450
L62050 35700
" />
<path d="M62050 35700
L60000 35700
" />
</g>
<g style="fill:#000000; fill-opacity:0.0; 
stroke:#000000; stroke-width:118.11; stroke-opacity:1; 
stroke-linecap:round; stroke-linejoin:round;">
<path d="M62300 35013
L62300 35450
" />
<path d="M62145 34622
L62145 34858
" />
<path d="M62145 34858
L62300 35013
" />
<path d="M61554 34622
L61027 34622
" />
<path d="M61027 34622
L60750 34900
" />
<path d="M53750 34950
L53800 35350
" />
<path d="M61948 33677
L62145 33677
" />
</g>
<g style="fill:#000000; fill-opacity:0.0; 
stroke:#000000; stroke-width:196.85; stroke-opacity:1; 
stroke-linecap:round; stroke-linejoin:round;">
<path d="M62850 33625
L62625 33625
" />
<path d="M62625 33625
L62500 33500
" />
<path d="M59950 33500
L59950 33352
" />
<path d="M59950 33352
L60250 33052
" />
<path d="M62850 34925
L62850 34650
" />
<path d="M62850 34650
L62850 34375
" />
</g>
<g style="fill:#000000; fill-opacity:0.0; 
stroke:#000000; stroke-width:118.11; stroke-opacity:1; 
stroke-linecap:round; stroke-linejoin:round;">
<path d="M61948 34622
L61948 35104
" />
<path d="M61948 35104
L61916 35136
" />
</g>
<g style="fill:#000000; fill-opacity:1.0; 
stroke:#000000; stroke-width:100; stroke-opacity:1; 
stroke-linecap:round; stroke-linejoin:round;">
<polyline style="fill-rule:evenodd;"
points="51595,33100
51612,33192
51667,33277
51699,33299
51672,33317
51615,33400
51595,33500
51595,34100
51612,34192
51667,34277
51750,34334
51801,34345
51801,35020
51801,35020
51822,35125
51828,35153
51880,35231
51903,35266
52407,35770
47679,35770
47679,32529
51595,32529
51595,33100
" /> 
<polyline style="fill-rule:evenodd;"
points="58080,32946
58080,32946
58115,32970
58193,33021
58326,33048
58326,33048
58595,33048
58595,33600
58612,33692
58667,33777
58750,33834
58801,33845
58801,34099
58801,34100
58820,34192
58820,34193
58820,34475
58837,34567
58892,34652
58901,34659
58901,34968
58901,34968
58923,35078
58928,35102
58988,35192
59003,35215
59261,35473
59260,35474
53410,35474
53422,35467
53479,35383
53499,35284
53499,35154
53507,35146
53617,34982
53623,34950
53655,34789
53655,34260
53667,34277
53750,34334
53850,34354
54450,34354
54542,34337
54627,34282
54684,34199
54704,34100
54704,33625
55591,33625
55591,33625
55720,33600
55725,33599
55838,33523
56536,32825
57958,32825
58080,32946
" /> 
<polyline style="fill-rule:evenodd;"
points="62920,33945
62575,33945
62482,33962
62397,34017
62340,34100
62320,34200
62320,34280
62303,34269
62204,34249
62086,34249
62045,34257
62007,34249
61889,34249
61848,34257
61810,34249
61692,34249
61651,34257
61613,34249
61495,34249
61403,34266
61330,34313
61279,34313
61279,33986
61332,33986
61396,34030
61495,34050
61613,34050
61654,34042
61692,34050
61810,34050
61903,34033
61988,33978
62045,33894
62065,33795
62065,33559
62060,33533
62060,33336
62150,33354
62750,33354
62842,33337
62920,33287
62920,33945
" /> 
<polyline style="fill-rule:evenodd;"
points="60290,33125
60270,33225
60270,33689
60175,33670
59825,33670
59732,33687
59661,33733
59684,33699
59704,33600
59704,33048
60343,33048
60290,33125
" /> 
<polyline style="fill-rule:evenodd;"
points="55447,32928
54704,32928
54704,32529
55846,32529
55447,32928
" /> 
</g>
<g style="fill:#FFFFFF; fill-opacity:1.0; 
stroke:#FFFFFF; stroke-width:100; stroke-opacity:1; 
stroke-linecap:round; stroke-linejoin:round;">
</g>
<g style="fill:#FFFFFF; fill-opacity:1.0; 
stroke:#FFFFFF; stroke-width:0; stroke-opacity:1; 
stroke-linecap:round; stroke-linejoin:round;">
<circle cx="60750" cy="34150" r="68.8976" /> 
</g>
<g style="fill:#FFFFFF; fill-opacity:1.0; 
stroke:#FFFFFF; stroke-width:137.795; stroke-opacity:1; 
stroke-linecap:round; stroke-linejoin:round;">
</g>
<g style="fill:#FFFFFF; fill-opacity:1.0; 
stroke:#FFFFFF; stroke-width:0; stroke-opacity:1; 
stroke-linecap:round; stroke-linejoin:round;">
<circle cx="62850" cy="35400" r="68.8976" /> 
</g>
<g style="fill:#FFFFFF; fill-opacity:1.0; 
stroke:#FFFFFF; stroke-width:137.795; stroke-opacity:1; 
stroke-linecap:round; stroke-linejoin:round;">
</g>
<g style="fill:#FFFFFF; fill-opacity:1.0; 
stroke:#FFFFFF; stroke-width:0; stroke-opacity:1; 
stroke-linecap:round; stroke-linejoin:round;">
<circle cx="60750" cy="34900" r="68.8976" /> 
</g>
<g style="fill:#FFFFFF; fill-opacity:1.0; 
stroke:#FFFFFF; stroke-width:137.795; stroke-opacity:1; 
stroke-linecap:round; stroke-linejoin:round;">
</g>
<g style="fill:#FFFFFF; fill-opacity:1.0; 
stroke:#FFFFFF; stroke-width:0; stroke-opacity:1; 
stroke-linecap:round; stroke-linejoin:round;">
<circle cx="53800" cy="35350" r="68.8976" /> 
</g>
<g style="fill:#FFFFFF; fill-opacity:1.0; 
stroke:#FFFFFF; stroke-width:137.795; stroke-opacity:1; 
stroke-linecap:round; stroke-linejoin:round;">
</g>
<g style="fill:#FFFFFF; fill-opacity:1.0; 
stroke:#FFFFFF; stroke-width:0; stroke-opacity:1; 
stroke-linecap:round; stroke-linejoin:round;">
<circle cx="53750" cy="34950" r="68.8976" /> 
</g>
<g style="fill:#FFFFFF; fill-opacity:1.0; 
stroke:#FFFFFF; stroke-width:137.795; stroke-opacity:1; 
stroke-linecap:round; stroke-linejoin:round;">
</g>
<g style="fill:#FFFFFF; fill-opacity:1.0; 
stroke:#FFFFFF; stroke-width:0; stroke-opacity:1; 
stroke-linecap:round; stroke-linejoin:round;">
<circle cx="62500" cy="33500" r="68.8976" /> 
</g>
<g style="fill:#FFFFFF; fill-opacity:1.0; 
stroke:#FFFFFF; stroke-width:137.795; stroke-opacity:1; 
stroke-linecap:round; stroke-linejoin:round;">
</g>
<g style="fill:#FFFFFF; fill-opacity:1.0; 
stroke:#FFFFFF; stroke-width:0; stroke-opacity:1; 
stroke-linecap:round; stroke-linejoin:round;">
<circle cx="60250" cy="33052.4" r="68.8976" /> 
</g>
<g style="fill:#FFFFFF; fill-opacity:1.0; 
stroke:#FFFFFF; stroke-width:137.795; stroke-opacity:1; 
stroke-linecap:round; stroke-linejoin:round;">
</g>
<g style="fill:#FFFFFF; fill-opacity:1.0; 
stroke:#FFFFFF; stroke-width:0; stroke-opacity:1; 
stroke-linecap:round; stroke-linejoin:round;">
<circle cx="62850" cy="34650" r="68.8976" /> 
</g>
<g style="fill:#FFFFFF; fill-opacity:1.0; 
stroke:#FFFFFF; stroke-width:137.795; stroke-opacity:1; 
stroke-linecap:round; stroke-linejoin:round;">
</g>
<g style="fill:#FFFFFF; fill-opacity:1.0; 
stroke:#FFFFFF; stroke-width:0; stroke-opacity:1; 
stroke-linecap:round; stroke-linejoin:round;">
<circle cx="61916.6" cy="35136.3" r="68.8976" /> 
</g>
<g style="fill:#FFFFFF; fill-opacity:1.0; 
stroke:#FFFFFF; stroke-width:137.795; stroke-opacity:1; 
stroke-linecap:round; stroke-linejoin:round;">
</g>
<g style="fill:#FFFFFF; fill-opacity:1.0; 
stroke:#FFFFFF; stroke-width:0; stroke-opacity:1; 
stroke-linecap:round; stroke-linejoin:round;">
<circle cx="59150" cy="33300" r="68.8976" /> 
</g>
<g style="fill:#FFFFFF; fill-opacity:1.0; 
stroke:#FFFFFF; stroke-width:137.795; stroke-opacity:1; 
stroke-linecap:round; stroke-linejoin:round;">
</g>
<g style="fill:#FFFFFF; fill-opacity:1.0; 
stroke:#FFFFFF; stroke-width:0; stroke-opacity:1; 
stroke-linecap:round; stroke-linejoin:round;">
<circle cx="62450" cy="32800" r="68.8976" /> 
</g>
<g style="fill:#FFFFFF; fill-opacity:1.0; 
stroke:#FFFFFF; stroke-width:137.795; stroke-opacity:1; 
stroke-linecap:round; stroke-linejoin:round;">
</g>
<g style="fill:#FFFFFF; fill-opacity:1.0; 
stroke:#FFFFFF; stroke-width:0; stroke-opacity:1; 
stroke-linecap:round; stroke-linejoin:round;">
<circle cx="53150" cy="33800" r="68.8976" /> 
</g>
<g style="fill:#FFFFFF; fill-opacity:1.0; 
stroke:#FFFFFF; stroke-width:137.795; stroke-opacity:1; 
stroke-linecap:round; stroke-linejoin:round;">
</g>
<g style="fill:#FFFFFF; fill-opacity:1.0; 
stroke:#FFFFFF; stroke-width:0; stroke-opacity:1; 
stroke-linecap:round; stroke-linejoin:round;">
<circle cx="53150" cy="32800" r="68.8976" /> 
</g>
<g style="fill:#FFFFFF; fill-opacity:1.0; 
stroke:#FFFFFF; stroke-width:137.795; stroke-opacity:1; 
stroke-linecap:round; stroke-linejoin:round;">
</g>
<g style="fill:#FFFFFF; fill-opacity:1.0; 
stroke:#FFFFFF; stroke-width:0; stroke-opacity:1; 
stroke-linecap:round; stroke-linejoin:round;">
<circle cx="52150" cy="33800" r="68.8976" /> 
</g>
<g style="fill:#FFFFFF; fill-opacity:1.0; 
stroke:#FFFFFF; stroke-width:137.795; stroke-opacity:1; 
stroke-linecap:round; stroke-linejoin:round;">
</g>
<g style="fill:#FFFFFF; fill-opacity:1.0; 
stroke:#FFFFFF; stroke-width:0; stroke-opacity:1; 
stroke-linecap:round; stroke-linejoin:round;">
<circle cx="52150" cy="32800" r="68.8976" /> 
</g>
<g style="fill:#FFFFFF; fill-opacity:1.0; 
stroke:#FFFFFF; stroke-width:137.795; stroke-opacity:1; 
stroke-linecap:round; stroke-linejoin:round;">
</g>
<g style="fill:#FFFFFF; fill-opacity:1.0; 
stroke:#FFFFFF; stroke-width:0; stroke-opacity:1; 
stroke-linecap:round; stroke-linejoin:round;">
<circle cx="54150" cy="33800" r="68.8976" /> 
</g>
<g style="fill:#FFFFFF; fill-opacity:1.0; 
stroke:#FFFFFF; stroke-width:137.795; stroke-opacity:1; 
stroke-linecap:round; stroke-linejoin:round;">
</g>
<g style="fill:#FFFFFF; fill-opacity:1.0; 
stroke:#FFFFFF; stroke-width:0; stroke-opacity:1; 
stroke-linecap:round; stroke-linejoin:round;">
<circle cx="54150" cy="32800" r="68.8976" /> 
</g>
<g style="fill:#FFFFFF; fill-opacity:1.0; 
stroke:#FFFFFF; stroke-width:137.795; stroke-opacity:1; 
stroke-linecap:round; stroke-linejoin:round;">
</g>
<g style="fill:#FFFFFF; fill-opacity:1.0; 
stroke:#FFFFFF; stroke-width:0; stroke-opacity:1; 
stroke-linecap:round; stroke-linejoin:round;">
<circle cx="51150" cy="33800" r="68.8976" /> 
</g>
<g style="fill:#FFFFFF; fill-opacity:1.0; 
stroke:#FFFFFF; stroke-width:137.795; stroke-opacity:1; 
stroke-linecap:round; stroke-linejoin:round;">
</g>
<g style="fill:#FFFFFF; fill-opacity:1.0; 
stroke:#FFFFFF; stroke-width:0; stroke-opacity:1; 
stroke-linecap:round; stroke-linejoin:round;">
<circle cx="51150" cy="32800" r="68.8976" /> 
</g>
<g style="fill:#FFFFFF; fill-opacity:1.0; 
stroke:#FFFFFF; stroke-width:137.795; stroke-opacity:1; 
stroke-linecap:round; stroke-linejoin:round;">
</g>
<g style="fill:#FFFFFF; fill-opacity:1.0; 
stroke:#FFFFFF; stroke-width:0; stroke-opacity:1; 
stroke-linecap:round; stroke-linejoin:round;">
<circle cx="55150" cy="33800" r="68.8976" /> 
</g>
<g style="fill:#FFFFFF; fill-opacity:1.0; 
stroke:#FFFFFF; stroke-width:137.795; stroke-opacity:1; 
stroke-linecap:round; stroke-linejoin:round;">
</g>
<g style="fill:#FFFFFF; fill-opacity:1.0; 
stroke:#FFFFFF; stroke-width:0; stroke-opacity:1; 
stroke-linecap:round; stroke-linejoin:round;">
<circle cx="55150" cy="32800" r="68.8976" /> 
</g>
<g style="fill:#FFFFFF; fill-opacity:1.0; 
stroke:#FFFFFF; stroke-width:137.795; stroke-opacity:1; 
stroke-linecap:round; stroke-linejoin:round;">
</g>
<g style="fill:#FFFFFF; fill-opacity:1.0; 
stroke:#FFFFFF; stroke-width:0; stroke-opacity:1; 
stroke-linecap:round; stroke-linejoin:round;">
<circle cx="57300" cy="34150" r="68.8976" /> 
</g>
<g style="fill:#FFFFFF; fill-opacity:1.0; 
stroke:#FFFFFF; stroke-width:137.795; stroke-opacity:1; 
stroke-linecap:round; stroke-linejoin:round;">
</g>
<g style="fill:#FFFFFF; fill-opacity:1.0; 
stroke:#FFFFFF; stroke-width:0; stroke-opacity:1; 
stroke-linecap:round; stroke-linejoin:round;">
<circle cx="49300" cy="34150" r="68.8976" /> 
</g>
<g style="fill:#FFFFFF; fill-opacity:1.0; 
stroke:#FFFFFF; stroke-width:137.795; stroke-opacity:1; 
stroke-linecap:round; stroke-linejoin:round;">
</g>
<g style="fill:#000000; fill-opacity:1.0; 
stroke:#000000; stroke-width:137.795; stroke-opacity:1; 
stroke-linecap:round; stroke-linejoin:round;">
</g> 
</svg>
