<?xml version="1.0" standalone="no"?>
 <!DOCTYPE svg PUBLIC "-//W3C//DTD SVG 1.1//EN" 
 "http://www.w3.org/Graphics/SVG/1.1/DTD/svg11.dtd"> 
<svg xmlns="http://www.w3.org/2000/svg" version="1.1" 
    width="29.7002cm" height="21.0007cm" viewBox="0 0 116930 82680 ">
<title>SVG Picture created as SHT31V01A-F_Mask.svg date 2016/12/31 21:41:18 </title>
  <desc>Picture generated by PCBNEW </desc>
<g style="fill:#000000; fill-opacity:1;stroke:#000000; stroke-opacity:1;
stroke-linecap:round; stroke-linejoin:round; "
 transform="translate(0 0) scale(1 1)">
</g>
<g style="fill:#000000; fill-opacity:0.0; 
stroke:#000000; stroke-width:-0.000393701; stroke-opacity:1; 
stroke-linecap:round; stroke-linejoin:round;">
</g>
<g style="fill:#000000; fill-opacity:0.0; 
stroke:#000000; stroke-width:59.0551; stroke-opacity:1; 
stroke-linecap:round; stroke-linejoin:round;">
<path d="M47400 36050
L47400 32250
" />
<path d="M47400 36050
L63200 36050
" />
<path d="M63200 32250
L63200 36050
" />
<path d="M47400 32250
L63200 32250
" />
</g>
<g style="fill:#000000; fill-opacity:0.0; 
stroke:#000000; stroke-width:0; stroke-opacity:1; 
stroke-linecap:round; stroke-linejoin:round;">
</g>
<g style="fill:#000000; fill-opacity:1.0; 
stroke:#000000; stroke-width:0; stroke-opacity:1; 
stroke-linecap:round; stroke-linejoin:round;">
<polyline style="fill-rule:evenodd;"
points="58802,33647
58802,32952
59497,32952
59497,33647
58802,33647
" /> 
<polyline style="fill-rule:evenodd;"
points="62102,33147
62102,32452
62797,32452
62797,33147
62102,33147
" /> 
<polyline style="fill-rule:evenodd;"
points="52802,34147
52802,33452
53497,33452
53497,34147
52802,34147
" /> 
<polyline style="fill-rule:evenodd;"
points="52802,33147
52802,32452
53497,32452
53497,33147
52802,33147
" /> 
<polyline style="fill-rule:evenodd;"
points="51802,34147
51802,33452
52497,33452
52497,34147
51802,34147
" /> 
<polyline style="fill-rule:evenodd;"
points="51802,33147
51802,32452
52497,32452
52497,33147
51802,33147
" /> 
<polyline style="fill-rule:evenodd;"
points="53802,34147
53802,33452
54497,33452
54497,34147
53802,34147
" /> 
<polyline style="fill-rule:evenodd;"
points="53802,33147
53802,32452
54497,32452
54497,33147
53802,33147
" /> 
<polyline style="fill-rule:evenodd;"
points="50802,34147
50802,33452
51497,33452
51497,34147
50802,34147
" /> 
<polyline style="fill-rule:evenodd;"
points="50802,33147
50802,32452
51497,32452
51497,33147
50802,33147
" /> 
<polyline style="fill-rule:evenodd;"
points="54802,34147
54802,33452
55497,33452
55497,34147
54802,34147
" /> 
<polyline style="fill-rule:evenodd;"
points="54802,33147
54802,32452
55497,32452
55497,33147
54802,33147
" /> 
<circle cx="57300" cy="34150" r="1228.35" /> 
</g>
<g style="fill:#000000; fill-opacity:1.0; 
stroke:#000000; stroke-width:137.795; stroke-opacity:1; 
stroke-linecap:round; stroke-linejoin:round;">
</g>
<g style="fill:#000000; fill-opacity:1.0; 
stroke:#000000; stroke-width:0; stroke-opacity:1; 
stroke-linecap:round; stroke-linejoin:round;">
<circle cx="49300" cy="34150" r="1228.35" /> 
</g>
<g style="fill:#000000; fill-opacity:1.0; 
stroke:#000000; stroke-width:137.795; stroke-opacity:1; 
stroke-linecap:round; stroke-linejoin:round;">
</g> 
</svg>
