<?xml version="1.0" encoding="UTF-8" standalone="no"?>
<svg
   xmlns:dc="http://purl.org/dc/elements/1.1/"
   xmlns:cc="http://creativecommons.org/ns#"
   xmlns:rdf="http://www.w3.org/1999/02/22-rdf-syntax-ns#"
   xmlns:svg="http://www.w3.org/2000/svg"
   xmlns="http://www.w3.org/2000/svg"
   xmlns:sodipodi="http://sodipodi.sourceforge.net/DTD/sodipodi-0.dtd"
   xmlns:inkscape="http://www.inkscape.org/namespaces/inkscape"
   version="1.1"
   width="4.0284095cm"
   height="0.98041266cm"
   viewBox="0 0 15859.891 3859.896"
   id="svg2"
   inkscape:version="0.91 r13725"
   sodipodi:docname="SHT31V01A-MLABb.svg">
  <metadata
     id="metadata290">
    <rdf:RDF>
      <cc:Work
         rdf:about="">
        <dc:format>image/svg+xml</dc:format>
        <dc:type
           rdf:resource="http://purl.org/dc/dcmitype/StillImage" />
        <dc:title>SVG Picture created as SHT31V01A-MLABb.svg date 2017/01/01 20:03:32 </dc:title>
      </cc:Work>
    </rdf:RDF>
  </metadata>
  <defs
     id="defs288" />
  <sodipodi:namedview
     pagecolor="#ffffff"
     bordercolor="#666666"
     borderopacity="1"
     objecttolerance="10"
     gridtolerance="10"
     guidetolerance="10"
     inkscape:pageopacity="0"
     inkscape:pageshadow="2"
     inkscape:window-width="1440"
     inkscape:window-height="2536"
     id="namedview286"
     showgrid="false"
     fit-margin-top="0"
     fit-margin-left="0"
     fit-margin-right="0"
     fit-margin-bottom="0"
     inkscape:zoom="0.29077246"
     inkscape:cx="42.884501"
     inkscape:cy="-47.340429"
     inkscape:window-x="1600"
     inkscape:window-y="24"
     inkscape:window-maximized="1"
     inkscape:current-layer="svg2" />
  <title
     id="title4">SVG Picture created as SHT31V01A-MLABb.svg date 2017/01/01 20:03:32 </title>
  <desc
     id="desc6">Picture generated by PCBNEW </desc>
  <g
     style="fill:#000000;fill-opacity:1;stroke:#000000;stroke-linecap:round;stroke-linejoin:round;stroke-opacity:1"
     id="g8"
     transform="translate(-53700.072,-32220.052)" />
  <g
     style="fill:#000000;fill-opacity:0;stroke:#000000;stroke-width:-0.0003937;stroke-linecap:round;stroke-linejoin:round;stroke-opacity:1"
     id="g10"
     transform="translate(-53700.072,-32220.052)" />
  <g
     style="fill:#000000;fill-opacity:0;stroke:#000000;stroke-width:59.05509949;stroke-linecap:round;stroke-linejoin:round;stroke-opacity:1"
     id="g12"
     transform="translate(-53700.072,-32220.052)">
    <path
       d="m 69530,36050 0,-3800"
       id="path14"
       inkscape:connector-curvature="0" />
    <path
       d="m 69530,36050 -15800,0"
       id="path16"
       inkscape:connector-curvature="0" />
    <path
       d="m 53730,32250 0,3800"
       id="path18"
       inkscape:connector-curvature="0" />
    <path
       d="m 69530,32250 -15800,0"
       id="path20"
       inkscape:connector-curvature="0" />
    <circle
       cx="56655"
       cy="34500"
       r="50"
       id="circle22" />
    <path
       d="m 57105,34500 -400,0"
       id="path24"
       inkscape:connector-curvature="0" />
    <path
       d="m 56705,34500 0,-600"
       id="path26"
       inkscape:connector-curvature="0" />
    <path
       d="m 56705,33900 400,0"
       id="path28"
       inkscape:connector-curvature="0" />
    <path
       d="m 57505,33900 400,0"
       id="path30"
       inkscape:connector-curvature="0" />
    <path
       d="m 57905,33900 0,600"
       id="path32"
       inkscape:connector-curvature="0" />
    <path
       d="m 57905,34500 -400,0"
       id="path34"
       inkscape:connector-curvature="0" />
    <circle
       cx="56355"
       cy="32400"
       r="50"
       id="circle36" />
    <path
       d="m 55905,32400 400,0"
       id="path38"
       inkscape:connector-curvature="0" />
    <path
       d="m 56305,32400 0,600"
       id="path40"
       inkscape:connector-curvature="0" />
    <path
       d="m 56305,33000 -400,0"
       id="path42"
       inkscape:connector-curvature="0" />
    <path
       d="m 55505,33000 -400,0"
       id="path44"
       inkscape:connector-curvature="0" />
    <path
       d="m 55105,33000 0,-600"
       id="path46"
       inkscape:connector-curvature="0" />
    <path
       d="m 55105,32400 400,0"
       id="path48"
       inkscape:connector-curvature="0" />
    <circle
       cx="54380"
       cy="35950"
       r="50"
       id="circle50" />
    <path
       d="m 54380,35500 0,400"
       id="path52"
       inkscape:connector-curvature="0" />
    <path
       d="m 54380,35900 -600,0"
       id="path54"
       inkscape:connector-curvature="0" />
    <path
       d="m 53780,35900 0,-400"
       id="path56"
       inkscape:connector-curvature="0" />
    <path
       d="m 53780,35100 0,-400"
       id="path58"
       inkscape:connector-curvature="0" />
    <path
       d="m 53780,34700 600,0"
       id="path60"
       inkscape:connector-curvature="0" />
    <path
       d="m 54380,34700 0,400"
       id="path62"
       inkscape:connector-curvature="0" />
    <circle
       cx="54380"
       cy="34650"
       r="50"
       id="circle64" />
    <path
       d="m 54380,34200 0,400"
       id="path66"
       inkscape:connector-curvature="0" />
    <path
       d="m 54380,34600 -600,0"
       id="path68"
       inkscape:connector-curvature="0" />
    <path
       d="m 53780,34600 0,-400"
       id="path70"
       inkscape:connector-curvature="0" />
    <path
       d="m 53780,33800 0,-400"
       id="path72"
       inkscape:connector-curvature="0" />
    <path
       d="m 53780,33400 600,0"
       id="path74"
       inkscape:connector-curvature="0" />
    <path
       d="m 54380,33400 0,400"
       id="path76"
       inkscape:connector-curvature="0" />
    <circle
       cx="56630"
       cy="34675"
       r="50"
       id="circle78" />
    <path
       d="m 56630,35125 0,-400"
       id="path80"
       inkscape:connector-curvature="0" />
    <path
       d="m 56630,34725 600,0"
       id="path82"
       inkscape:connector-curvature="0" />
    <path
       d="m 57230,34725 0,400"
       id="path84"
       inkscape:connector-curvature="0" />
    <path
       d="m 57230,35525 0,400"
       id="path86"
       inkscape:connector-curvature="0" />
    <path
       d="m 57230,35925 -600,0"
       id="path88"
       inkscape:connector-curvature="0" />
    <path
       d="m 56630,35925 0,-400"
       id="path90"
       inkscape:connector-curvature="0" />
    <circle
       cx="55880"
       cy="33875"
       r="50"
       id="circle92" />
    <path
       d="m 55880,34325 0,-400"
       id="path94"
       inkscape:connector-curvature="0" />
    <path
       d="m 55880,33925 600,0"
       id="path96"
       inkscape:connector-curvature="0" />
    <path
       d="m 56480,33925 0,400"
       id="path98"
       inkscape:connector-curvature="0" />
    <path
       d="m 56480,34725 0,400"
       id="path100"
       inkscape:connector-curvature="0" />
    <path
       d="m 56480,35125 -600,0"
       id="path102"
       inkscape:connector-curvature="0" />
    <path
       d="m 55880,35125 0,-400"
       id="path104"
       inkscape:connector-curvature="0" />
    <circle
       cx="55955"
       cy="33800"
       r="50"
       id="circle106" />
    <path
       d="m 56405,33800 -400,0"
       id="path108"
       inkscape:connector-curvature="0" />
    <path
       d="m 56005,33800 0,-600"
       id="path110"
       inkscape:connector-curvature="0" />
    <path
       d="m 56005,33200 400,0"
       id="path112"
       inkscape:connector-curvature="0" />
    <path
       d="m 56805,33200 400,0"
       id="path114"
       inkscape:connector-curvature="0" />
    <path
       d="m 57205,33200 0,600"
       id="path116"
       inkscape:connector-curvature="0" />
    <path
       d="m 57205,33800 -400,0"
       id="path118"
       inkscape:connector-curvature="0" />
    <path
       d="m 54607,34622 0,-945"
       id="path120"
       inkscape:connector-curvature="0" />
    <path
       d="m 55552,34622 0,-945"
       id="path122"
       inkscape:connector-curvature="0" />
    <path
       d="m 64374,34930 394,414"
       id="path124"
       inkscape:connector-curvature="0" />
    <path
       d="m 64768,35344 0,-788"
       id="path126"
       inkscape:connector-curvature="0" />
    <path
       d="m 64768,34556 -394,394"
       id="path128"
       inkscape:connector-curvature="0" />
    <path
       d="m 64374,35363 0,-826"
       id="path130"
       inkscape:connector-curvature="0" />
  </g>
  <g
     style="fill:#000000;fill-opacity:0;stroke:#000000;stroke-width:43;stroke-linecap:round;stroke-linejoin:round;stroke-opacity:1"
     id="g132"
     transform="translate(-53700.072,-32220.052)">
    <path
       d="m 57272,34164 -66,-94"
       id="path134"
       inkscape:connector-curvature="0" />
    <path
       d="m 57159,34164 0,-197 75,0 19,9 9,9 10,19 0,28 -10,19 -9,9 -19,10 -75,0"
       id="path136"
       inkscape:connector-curvature="0" />
    <path
       d="m 57459,34164 -112,0"
       id="path138"
       inkscape:connector-curvature="0" />
    <path
       d="m 57403,34164 0,-197 -19,28 -19,19 -18,9"
       id="path140"
       inkscape:connector-curvature="0" />
    <path
       d="m 57237,34439 -112,0"
       id="path142"
       inkscape:connector-curvature="0" />
    <path
       d="m 57181,34439 0,-197 -19,28 -19,19 -18,9"
       id="path144"
       inkscape:connector-curvature="0" />
    <path
       d="m 57359,34242 19,0 19,9 9,9 9,19 10,38 0,47 -10,37 -9,19 -9,9 -19,10 -19,0 -19,-10 -9,-9 -9,-19 -10,-37 0,-47 10,-38 9,-19 9,-9 19,-9"
       id="path146"
       inkscape:connector-curvature="0" />
    <path
       d="m 57509,34439 0,-197"
       id="path148"
       inkscape:connector-curvature="0" />
    <path
       d="m 57528,34364 56,75"
       id="path150"
       inkscape:connector-curvature="0" />
    <path
       d="m 57584,34307 -75,75"
       id="path152"
       inkscape:connector-curvature="0" />
    <path
       d="m 55672,32914 -66,-94"
       id="path154"
       inkscape:connector-curvature="0" />
    <path
       d="m 55559,32914 0,-197 75,0 19,9 9,9 10,19 0,28 -10,19 -9,9 -19,10 -75,0"
       id="path156"
       inkscape:connector-curvature="0" />
    <path
       d="m 55747,32735 9,-9 19,-9 47,0 19,9 9,9 9,19 0,19 -9,28 -113,113 122,0"
       id="path158"
       inkscape:connector-curvature="0" />
    <path
       d="m 55537,32639 -112,0"
       id="path160"
       inkscape:connector-curvature="0" />
    <path
       d="m 55481,32639 0,-197 -19,28 -19,19 -18,9"
       id="path162"
       inkscape:connector-curvature="0" />
    <path
       d="m 55659,32442 19,0 19,9 9,9 9,19 10,38 0,47 -10,37 -9,19 -9,9 -19,10 -19,0 -19,-10 -9,-9 -9,-19 -10,-37 0,-47 10,-38 9,-19 9,-9 19,-9"
       id="path164"
       inkscape:connector-curvature="0" />
    <path
       d="m 55809,32639 0,-197"
       id="path166"
       inkscape:connector-curvature="0" />
    <path
       d="m 55828,32564 56,75"
       id="path168"
       inkscape:connector-curvature="0" />
    <path
       d="m 55884,32507 -75,75"
       id="path170"
       inkscape:connector-curvature="0" />
    <path
       d="m 53865,35267 94,-66"
       id="path172"
       inkscape:connector-curvature="0" />
    <path
       d="m 53865,35154 197,0 0,75 -9,19 -9,9 -19,10 -28,0 -19,-10 -9,-9 -10,-19 0,-75"
       id="path174"
       inkscape:connector-curvature="0" />
    <path
       d="m 54062,35332 0,122 -75,-65 0,28 -9,19 -9,9 -19,9 -47,0 -19,-9 -9,-9 -10,-19 0,-57 10,-18 9,-10"
       id="path176"
       inkscape:connector-curvature="0" />
    <path
       d="m 54215,35174 0,151"
       id="path178"
       inkscape:connector-curvature="0" />
    <path
       d="m 53865,33967 94,-66"
       id="path180"
       inkscape:connector-curvature="0" />
    <path
       d="m 53865,33854 197,0 0,75 -9,19 -9,9 -19,10 -28,0 -19,-10 -9,-9 -10,-19 0,-75"
       id="path182"
       inkscape:connector-curvature="0" />
    <path
       d="m 53997,34136 -132,0"
       id="path184"
       inkscape:connector-curvature="0" />
    <path
       d="m 54072,34089 -141,-47 0,122"
       id="path186"
       inkscape:connector-curvature="0" />
    <path
       d="m 54337,33842 0,18 -9,19 -9,10 -19,9 -38,9 -47,0 -37,-9 -19,-9 -9,-10 -10,-19 0,-18 10,-19 9,-10 19,-9 37,-9 47,0 38,9 19,9 9,10 9,19"
       id="path188"
       inkscape:connector-curvature="0" />
    <path
       d="m 54140,34104 94,-65"
       id="path190"
       inkscape:connector-curvature="0" />
    <path
       d="m 54140,33992 197,0 0,75 -9,19 -9,9 -19,9 -28,0 -19,-9 -9,-9 -10,-19 0,-75"
       id="path192"
       inkscape:connector-curvature="0" />
    <path
       d="m 56965,35292 94,-66"
       id="path194"
       inkscape:connector-curvature="0" />
    <path
       d="m 56965,35179 197,0 0,75 -9,19 -9,9 -19,10 -28,0 -19,-10 -9,-9 -10,-19 0,-75"
       id="path196"
       inkscape:connector-curvature="0" />
    <path
       d="m 57162,35470 0,-94 -93,-9 9,9 9,19 0,47 -9,19 -9,9 -19,9 -47,0 -19,-9 -9,-9 -10,-19 0,-47 10,-19 9,-9"
       id="path198"
       inkscape:connector-curvature="0" />
    <path
       d="m 56690,35257 0,-112"
       id="path200"
       inkscape:connector-curvature="0" />
    <path
       d="m 56690,35201 197,0 -28,-19 -19,-19 -9,-18"
       id="path202"
       inkscape:connector-curvature="0" />
    <path
       d="m 56887,35379 0,19 -9,19 -9,9 -19,9 -38,10 -47,0 -37,-10 -19,-9 -9,-9 -10,-19 0,-19 10,-19 9,-9 19,-9 37,-10 47,0 38,10 19,9 9,9 9,19"
       id="path204"
       inkscape:connector-curvature="0" />
    <path
       d="m 56690,35529 197,0"
       id="path206"
       inkscape:connector-curvature="0" />
    <path
       d="m 56765,35548 -75,56"
       id="path208"
       inkscape:connector-curvature="0" />
    <path
       d="m 56822,35604 -75,-75"
       id="path210"
       inkscape:connector-curvature="0" />
    <path
       d="m 56215,34492 94,-66"
       id="path212"
       inkscape:connector-curvature="0" />
    <path
       d="m 56215,34379 197,0 0,75 -9,19 -9,9 -19,10 -28,0 -19,-10 -9,-9 -10,-19 0,-75"
       id="path214"
       inkscape:connector-curvature="0" />
    <path
       d="m 56412,34661 0,-38 -9,-19 -9,-9 -29,-19 -37,-9 -75,0 -19,9 -9,9 -10,19 0,38 10,19 9,9 19,9 47,0 19,-9 9,-9 9,-19 0,-38 -9,-19 -9,-9 -19,-9"
       id="path216"
       inkscape:connector-curvature="0" />
    <path
       d="m 55940,34457 0,-112"
       id="path218"
       inkscape:connector-curvature="0" />
    <path
       d="m 55940,34401 197,0 -28,-19 -19,-19 -9,-18"
       id="path220"
       inkscape:connector-curvature="0" />
    <path
       d="m 56137,34579 0,19 -9,19 -9,9 -19,9 -38,10 -47,0 -37,-10 -19,-9 -9,-9 -10,-19 0,-19 10,-19 9,-9 19,-9 37,-10 47,0 38,10 19,9 9,9 9,19"
       id="path222"
       inkscape:connector-curvature="0" />
    <path
       d="m 55940,34729 197,0"
       id="path224"
       inkscape:connector-curvature="0" />
    <path
       d="m 56015,34748 -75,56"
       id="path226"
       inkscape:connector-curvature="0" />
    <path
       d="m 56072,34804 -75,-75"
       id="path228"
       inkscape:connector-curvature="0" />
    <path
       d="m 56572,33445 -10,9 -28,10 -19,0 -28,-10 -19,-19 -9,-18 -9,-38 0,-28 9,-37 9,-19 19,-19 28,-9 19,0 28,9 10,9"
       id="path230"
       inkscape:connector-curvature="0" />
    <path
       d="m 56759,33464 -112,0"
       id="path232"
       inkscape:connector-curvature="0" />
    <path
       d="m 56703,33464 0,-197 -19,28 -19,19 -18,9"
       id="path234"
       inkscape:connector-curvature="0" />
    <path
       d="m 56350,33739 -113,0"
       id="path236"
       inkscape:connector-curvature="0" />
    <path
       d="m 56293,33739 0,-197 -18,28 -19,19 -19,9"
       id="path238"
       inkscape:connector-curvature="0" />
    <path
       d="m 56472,33542 18,0 19,9 9,9 10,19 9,38 0,47 -9,37 -10,19 -9,9 -19,10 -18,0 -19,-10 -10,-9 -9,-19 -9,-37 0,-47 9,-38 9,-19 10,-9 19,-9"
       id="path240"
       inkscape:connector-curvature="0" />
    <path
       d="m 56659,33542 19,0 19,9 9,9 9,19 10,38 0,47 -10,37 -9,19 -9,9 -19,10 -19,0 -19,-10 -9,-9 -9,-19 -10,-37 0,-47 10,-38 9,-19 9,-9 19,-9"
       id="path242"
       inkscape:connector-curvature="0" />
    <path
       d="m 56809,33607 0,132"
       id="path244"
       inkscape:connector-curvature="0" />
    <path
       d="m 56809,33626 10,-9 18,-10 29,0 18,10 10,18 0,104"
       id="path246"
       inkscape:connector-curvature="0" />
    <path
       d="m 57053,33635 -65,0"
       id="path248"
       inkscape:connector-curvature="0" />
    <path
       d="m 56988,33739 0,-197 93,0"
       id="path250"
       inkscape:connector-curvature="0" />
  </g>
  <g
     style="fill:#000000;fill-opacity:0;stroke:#000000;stroke-width:59.05509949;stroke-linecap:round;stroke-linejoin:round;stroke-opacity:1"
     id="g252"
     transform="translate(-53700.072,-32220.052)">
    <path
       d="m 55395,33650 -319,0 -37,18 -19,19 -19,38 0,75 19,37 19,19 37,19 319,0"
       id="path254"
       inkscape:connector-curvature="0" />
    <path
       d="m 55001,34268 0,-225"
       id="path256"
       inkscape:connector-curvature="0" />
    <path
       d="m 55001,34156 394,0 -56,-38 -38,-37 -18,-38"
       id="path258"
       inkscape:connector-curvature="0" />
    <path
       d="m 55125,34445 -94,0"
       id="path260"
       inkscape:connector-curvature="0" />
    <path
       d="m 55069,34351 -38,94 38,93"
       id="path262"
       inkscape:connector-curvature="0" />
    <path
       d="m 54956,34388 75,57 -75,56"
       id="path264"
       inkscape:connector-curvature="0" />
  </g>
  <g
     style="fill:#000000;fill-opacity:0;stroke:#000000;stroke-width:120;stroke-linecap:round;stroke-linejoin:round;stroke-opacity:1"
     id="g266"
     transform="translate(-53700.072,-32220.052)">
    <path
       d="m 62837,35271 0,-600 143,0 85,29 57,57 29,57 29,114 0,86 -29,114 -29,57 -57,57 -85,29 -143,0"
       id="path268"
       inkscape:connector-curvature="0" />
    <path
       d="m 63751,35271 -343,0"
       id="path270"
       inkscape:connector-curvature="0" />
    <path
       d="m 63580,35271 0,-600 -58,86 -57,57 -57,28"
       id="path272"
       inkscape:connector-curvature="0" />
  </g>
  <g
     style="fill:#000000;fill-opacity:0;stroke:#000000;stroke-width:39;stroke-linecap:round;stroke-linejoin:round;stroke-opacity:1"
     id="g274"
     transform="translate(-53700.072,-32220.052)">
    <path
       d="m 65292,34372 93,0"
       id="path276"
       inkscape:connector-curvature="0" />
    <path
       d="m 65273,34429 66,-197 65,197"
       id="path278"
       inkscape:connector-curvature="0" />
    <path
       d="m 63869,34429 0,-197"
       id="path280"
       inkscape:connector-curvature="0" />
    <path
       d="m 63981,34429 -84,-113"
       id="path282"
       inkscape:connector-curvature="0" />
    <path
       d="m 63981,34232 -112,112"
       id="path284"
       inkscape:connector-curvature="0" />
  </g>
</svg>
