<?xml version="1.0" encoding="UTF-8" standalone="no"?>
<svg
   xmlns:dc="http://purl.org/dc/elements/1.1/"
   xmlns:cc="http://creativecommons.org/ns#"
   xmlns:rdf="http://www.w3.org/1999/02/22-rdf-syntax-ns#"
   xmlns:svg="http://www.w3.org/2000/svg"
   xmlns="http://www.w3.org/2000/svg"
   xmlns:sodipodi="http://sodipodi.sourceforge.net/DTD/sodipodi-0.dtd"
   xmlns:inkscape="http://www.inkscape.org/namespaces/inkscape"
   version="1.1"
   width="4.0284095cm"
   height="0.9913618cm"
   viewBox="0 0 15859.891 3903.0029"
   id="svg2"
   inkscape:version="0.91 r13725"
   sodipodi:docname="SHT31V01A-MLABa.svg">
  <metadata
     id="metadata264">
    <rdf:RDF>
      <cc:Work
         rdf:about="">
        <dc:format>image/svg+xml</dc:format>
        <dc:type
           rdf:resource="http://purl.org/dc/dcmitype/StillImage" />
        <dc:title>SVG Picture created as SHT31V01A-MLABa.svg date 2017/01/01 20:03:32 </dc:title>
      </cc:Work>
    </rdf:RDF>
  </metadata>
  <defs
     id="defs262" />
  <sodipodi:namedview
     pagecolor="#ffffff"
     bordercolor="#666666"
     borderopacity="1"
     objecttolerance="10"
     gridtolerance="10"
     guidetolerance="10"
     inkscape:pageopacity="0"
     inkscape:pageshadow="2"
     inkscape:window-width="963"
     inkscape:window-height="480"
     id="namedview260"
     showgrid="false"
     fit-margin-top="0"
     fit-margin-left="0"
     fit-margin-right="0"
     fit-margin-bottom="0"
     inkscape:zoom="2.7962421"
     inkscape:cx="71.780904"
     inkscape:cy="20.217361"
     inkscape:window-x="1636"
     inkscape:window-y="125"
     inkscape:window-maximized="0"
     inkscape:current-layer="svg2" />
  <title
     id="title4">SVG Picture created as SHT31V01A-MLABa.svg date 2017/01/01 20:03:32 </title>
  <desc
     id="desc6">Picture generated by PCBNEW </desc>
  <g
     style="fill:#000000;fill-opacity:1;stroke:#000000;stroke-linecap:round;stroke-linejoin:round;stroke-opacity:1"
     id="g8"
     transform="translate(-47370.072,-32220.052)" />
  <g
     style="fill:#000000;fill-opacity:0;stroke:#000000;stroke-width:-0.0003937;stroke-linecap:round;stroke-linejoin:round;stroke-opacity:1"
     id="g10"
     transform="translate(-47370.072,-32220.052)" />
  <g
     style="fill:#000000;fill-opacity:0;stroke:#000000;stroke-width:118.11000061;stroke-linecap:round;stroke-linejoin:round;stroke-opacity:1"
     id="g12"
     transform="translate(-47370.072,-32220.052)">
    <path
       d="m 56294,35419 49,0 48,25 25,24 24,49 25,97 0,122 -25,98 -24,48 -25,25 -48,24 -49,0 -49,-24 -24,-25 -25,-48 -24,-98 0,-122 24,-97 25,-49 24,-24 49,-25"
       id="path14"
       inkscape:connector-curvature="0" />
    <path
       d="m 56635,35419 341,512"
       id="path16"
       inkscape:connector-curvature="0" />
    <path
       d="m 56976,35419 -341,512"
       id="path18"
       inkscape:connector-curvature="0" />
    <path
       d="m 57391,35590 0,341"
       id="path20"
       inkscape:connector-curvature="0" />
    <path
       d="m 57269,35395 -122,365 317,0"
       id="path22"
       inkscape:connector-curvature="0" />
    <path
       d="m 57903,35419 -244,0 -25,244 25,-24 49,-25 121,0 49,25 25,24 24,49 0,122 -24,48 -25,25 -49,24 -121,0 -49,-24 -25,-25"
       id="path24"
       inkscape:connector-curvature="0" />
    <path
       d="m 56294,32369 49,0 48,25 25,24 24,49 25,97 0,122 -25,98 -24,48 -25,25 -48,24 -49,0 -49,-24 -24,-25 -25,-48 -24,-98 0,-122 24,-97 25,-49 24,-24 49,-25"
       id="path26"
       inkscape:connector-curvature="0" />
    <path
       d="m 56635,32369 341,512"
       id="path28"
       inkscape:connector-curvature="0" />
    <path
       d="m 56976,32369 -341,512"
       id="path30"
       inkscape:connector-curvature="0" />
    <path
       d="m 57391,32540 0,341"
       id="path32"
       inkscape:connector-curvature="0" />
    <path
       d="m 57269,32345 -122,365 317,0"
       id="path34"
       inkscape:connector-curvature="0" />
    <path
       d="m 57878,32540 0,341"
       id="path36"
       inkscape:connector-curvature="0" />
    <path
       d="m 57756,32345 -122,365 317,0"
       id="path38"
       inkscape:connector-curvature="0" />
    <path
       d="m 47790,35486 22,-23 45,-22 113,0 45,22 22,23 23,45 0,45 -23,67 -270,270 293,0"
       id="path40"
       inkscape:connector-curvature="0" />
    <path
       d="m 48352,35441 45,0 45,22 23,23 22,45 23,90 0,112 -23,90 -22,45 -23,23 -45,22 -45,0 -45,-22 -22,-23 -23,-45 -22,-90 0,-112 22,-90 23,-45 22,-23 45,-22"
       id="path42"
       inkscape:connector-curvature="0" />
    <path
       d="m 48959,35913 -270,0"
       id="path44"
       inkscape:connector-curvature="0" />
    <path
       d="m 48824,35913 0,-472 -45,67 -45,45 -45,23"
       id="path46"
       inkscape:connector-curvature="0" />
    <path
       d="m 49364,35441 -90,0 -45,22 -22,23 -45,67 -23,90 0,180 23,45 22,23 45,22 90,0 45,-22 23,-23 22,-45 0,-112 -22,-45 -23,-23 -45,-22 -90,0 -45,22 -22,23 -23,45"
       id="path48"
       inkscape:connector-curvature="0" />
    <path
       d="m 58975,34731 0,-512 171,366 170,-366 0,512"
       id="path50"
       inkscape:connector-curvature="0" />
    <path
       d="m 59804,34731 -244,0 0,-512"
       id="path52"
       inkscape:connector-curvature="0" />
    <path
       d="m 59950,34585 244,0"
       id="path54"
       inkscape:connector-curvature="0" />
    <path
       d="m 59901,34731 171,-512 170,512"
       id="path56"
       inkscape:connector-curvature="0" />
    <path
       d="m 60584,34463 73,24 24,25 24,48 0,74 -24,48 -24,25 -49,24 -195,0 0,-512 171,0 48,25 25,24 24,49 0,48 -24,49 -25,25 -48,24 -171,0"
       id="path58"
       inkscape:connector-curvature="0" />
    <path
       d="m 60925,34682 24,25 -24,24 -25,-24 25,-25 0,49"
       id="path60"
       inkscape:connector-curvature="0" />
    <path
       d="m 61461,34682 -24,25 -74,24 -48,0 -73,-24 -49,-49 -25,-49 -24,-97 0,-73 24,-98 25,-49 49,-48 73,-25 48,0 74,25 24,24"
       id="path62"
       inkscape:connector-curvature="0" />
    <path
       d="m 61632,34219 341,0 -341,512 341,0"
       id="path64"
       inkscape:connector-curvature="0" />
    <path
       d="m 58477,35857 73,24 122,0 48,-24 25,-25 24,-48 0,-49 -24,-49 -25,-24 -48,-25 -98,-24 -49,-24 -24,-25 -24,-49 0,-48 24,-49 24,-24 49,-25 122,0 73,25"
       id="path66"
       inkscape:connector-curvature="0" />
    <path
       d="m 58988,35881 0,-512"
       id="path68"
       inkscape:connector-curvature="0" />
    <path
       d="m 58988,35613 293,0"
       id="path70"
       inkscape:connector-curvature="0" />
    <path
       d="m 59281,35881 0,-512"
       id="path72"
       inkscape:connector-curvature="0" />
    <path
       d="m 59452,35369 292,0"
       id="path74"
       inkscape:connector-curvature="0" />
    <path
       d="m 59598,35881 0,-512"
       id="path76"
       inkscape:connector-curvature="0" />
    <path
       d="m 59866,35369 317,0 -171,195 73,0 49,25 24,24 25,49 0,122 -25,48 -24,25 -49,24 -146,0 -49,-24 -24,-25"
       id="path78"
       inkscape:connector-curvature="0" />
    <path
       d="m 60670,35881 -292,0"
       id="path80"
       inkscape:connector-curvature="0" />
    <path
       d="m 60524,35881 0,-512 -49,73 -49,49 -48,24"
       id="path82"
       inkscape:connector-curvature="0" />
    <path
       d="m 60816,35369 171,512 171,-512"
       id="path84"
       inkscape:connector-curvature="0" />
    <path
       d="m 61426,35369 48,0 49,25 24,24 25,49 24,97 0,122 -24,98 -25,48 -24,25 -49,24 -48,0 -49,-24 -24,-25 -25,-48 -24,-98 0,-122 24,-97 25,-49 24,-24 49,-25"
       id="path86"
       inkscape:connector-curvature="0" />
    <path
       d="m 62084,35881 -293,0"
       id="path88"
       inkscape:connector-curvature="0" />
    <path
       d="m 61937,35881 0,-512 -48,73 -49,49 -49,24"
       id="path90"
       inkscape:connector-curvature="0" />
    <path
       d="m 62279,35735 243,0"
       id="path92"
       inkscape:connector-curvature="0" />
    <path
       d="m 62230,35881 171,-512 170,512"
       id="path94"
       inkscape:connector-curvature="0" />
    <path
       d="m 59939,33748 281,0"
       id="path96"
       inkscape:connector-curvature="0" />
    <path
       d="m 59883,33917 196,-591 197,591"
       id="path98"
       inkscape:connector-curvature="0" />
    <path
       d="m 60754,33917 -281,0 0,-591"
       id="path100"
       inkscape:connector-curvature="0" />
    <path
       d="m 60951,33607 197,0"
       id="path102"
       inkscape:connector-curvature="0" />
    <path
       d="m 61232,33917 -281,0 0,-591 281,0"
       id="path104"
       inkscape:connector-curvature="0" />
    <path
       d="m 60804,33117 -197,-282"
       id="path106"
       inkscape:connector-curvature="0" />
    <path
       d="m 60467,33117 0,-591 225,0 56,28 28,28 28,57 0,84 -28,56 -28,28 -56,28 -225,0"
       id="path108"
       inkscape:connector-curvature="0" />
    <path
       d="m 61057,32807 197,0"
       id="path110"
       inkscape:connector-curvature="0" />
    <path
       d="m 61339,33117 -282,0 0,-591 282,0"
       id="path112"
       inkscape:connector-curvature="0" />
    <path
       d="m 61564,33089 84,28 141,0 56,-28 28,-29 28,-56 0,-56 -28,-56 -28,-28 -56,-29 -113,-28 -56,-28 -28,-28 -28,-56 0,-56 28,-57 28,-28 56,-28 141,0 84,28"
       id="path114"
       inkscape:connector-curvature="0" />
    <path
       d="m 55445,34826 28,-56 0,-84 -28,-85 -56,-56 -57,-28 -112,-28 -85,0 -112,28 -56,28 -57,56 -28,85 0,56 28,84 29,28 196,0 0,-112"
       id="path116"
       inkscape:connector-curvature="0" />
    <path
       d="m 54882,35107 591,0 -591,338 591,0"
       id="path118"
       inkscape:connector-curvature="0" />
    <path
       d="m 54882,35726 591,0 0,141 -28,84 -56,56 -57,28 -112,29 -85,0 -112,-29 -56,-28 -57,-56 -28,-84 0,-141"
       id="path120"
       inkscape:connector-curvature="0" />
    <path
       d="m 54060,34489 -28,84 0,141 28,56 29,28 56,28 56,0 56,-28 28,-28 29,-56 28,-113 28,-56 28,-28 56,-28 56,0 57,28 28,28 28,56 0,141 -28,84"
       id="path122"
       inkscape:connector-curvature="0" />
    <path
       d="m 54089,35417 -29,-28 -28,-85 0,-56 28,-84 57,-57 56,-28 112,-28 85,0 112,28 57,28 56,57 28,84 0,56 -28,85 -28,28"
       id="path124"
       inkscape:connector-curvature="0" />
    <path
       d="m 54032,35951 0,-281 591,0"
       id="path126"
       inkscape:connector-curvature="0" />
    <path
       d="m 53473,34483 -591,196 591,197"
       id="path128"
       inkscape:connector-curvature="0" />
    <path
       d="m 52882,35073 591,0 0,141 -28,84 -56,56 -57,28 -112,29 -85,0 -112,-29 -56,-28 -57,-56 -28,-84 0,-141"
       id="path130"
       inkscape:connector-curvature="0" />
    <path
       d="m 52882,35664 591,0 0,140 -28,85 -56,56 -57,28 -112,28 -85,0 -112,-28 -56,-28 -57,-56 -28,-85 0,-140"
       id="path132"
       inkscape:connector-curvature="0" />
    <path
       d="m 51910,34489 -28,84 0,141 28,56 29,28 56,28 56,0 56,-28 28,-28 29,-56 28,-113 28,-56 28,-28 56,-28 56,0 57,28 28,28 28,56 0,141 -28,84"
       id="path134"
       inkscape:connector-curvature="0" />
    <path
       d="m 51882,35079 591,0 0,141 -28,84 -56,57 -57,28 -112,28 -85,0 -112,-28 -56,-28 -57,-57 -28,-84 0,-141"
       id="path136"
       inkscape:connector-curvature="0" />
    <path
       d="m 52051,35642 0,281"
       id="path138"
       inkscape:connector-curvature="0" />
    <path
       d="m 51882,35585 591,197 -591,197"
       id="path140"
       inkscape:connector-curvature="0" />
    <path
       d="m 51445,34826 28,-56 0,-84 -28,-85 -56,-56 -57,-28 -112,-28 -85,0 -112,28 -56,28 -57,56 -28,85 0,56 28,84 29,28 196,0 0,-112"
       id="path142"
       inkscape:connector-curvature="0" />
    <path
       d="m 50882,35107 591,0 -591,338 591,0"
       id="path144"
       inkscape:connector-curvature="0" />
    <path
       d="m 50882,35726 591,0 0,141 -28,84 -56,56 -57,28 -112,29 -85,0 -112,-29 -56,-28 -57,-56 -28,-84 0,-141"
       id="path146"
       inkscape:connector-curvature="0" />
  </g>
  <g
     style="fill:#000000;fill-opacity:0;stroke:#000000;stroke-width:59.05509949;stroke-linecap:round;stroke-linejoin:round;stroke-opacity:1"
     id="g148"
     transform="translate(-47370.072,-32220.052)">
    <path
       d="m 47400,36050 0,-3800"
       id="path150"
       inkscape:connector-curvature="0" />
    <path
       d="m 47400,36050 15800,0"
       id="path152"
       inkscape:connector-curvature="0" />
    <path
       d="m 63200,32250 0,3800"
       id="path154"
       inkscape:connector-curvature="0" />
    <path
       d="m 47400,32250 15800,0"
       id="path156"
       inkscape:connector-curvature="0" />
    <path
       d="m 58650,32800 1000,0"
       id="path158"
       inkscape:connector-curvature="0" />
    <path
       d="m 59650,32800 0,1000"
       id="path160"
       inkscape:connector-curvature="0" />
    <path
       d="m 59650,33800 -1000,0"
       id="path162"
       inkscape:connector-curvature="0" />
    <path
       d="m 58650,33800 0,-1000"
       id="path164"
       inkscape:connector-curvature="0" />
    <path
       d="m 61950,32300 1000,0"
       id="path166"
       inkscape:connector-curvature="0" />
    <path
       d="m 62950,32300 0,1000"
       id="path168"
       inkscape:connector-curvature="0" />
    <path
       d="m 62950,33300 -1000,0"
       id="path170"
       inkscape:connector-curvature="0" />
    <path
       d="m 61950,33300 0,-1000"
       id="path172"
       inkscape:connector-curvature="0" />
    <path
       d="m 52650,32300 1000,0"
       id="path174"
       inkscape:connector-curvature="0" />
    <path
       d="m 53650,32300 0,2000"
       id="path176"
       inkscape:connector-curvature="0" />
    <path
       d="m 53650,34300 -1000,0"
       id="path178"
       inkscape:connector-curvature="0" />
    <path
       d="m 52650,34300 0,-2000"
       id="path180"
       inkscape:connector-curvature="0" />
    <path
       d="m 51650,32300 1000,0"
       id="path182"
       inkscape:connector-curvature="0" />
    <path
       d="m 52650,32300 0,2000"
       id="path184"
       inkscape:connector-curvature="0" />
    <path
       d="m 52650,34300 -1000,0"
       id="path186"
       inkscape:connector-curvature="0" />
    <path
       d="m 51650,34300 0,-2000"
       id="path188"
       inkscape:connector-curvature="0" />
    <path
       d="m 53650,32300 1000,0"
       id="path190"
       inkscape:connector-curvature="0" />
    <path
       d="m 54650,32300 0,2000"
       id="path192"
       inkscape:connector-curvature="0" />
    <path
       d="m 54650,34300 -1000,0"
       id="path194"
       inkscape:connector-curvature="0" />
    <path
       d="m 53650,34300 0,-2000"
       id="path196"
       inkscape:connector-curvature="0" />
    <path
       d="m 50650,32300 1000,0"
       id="path198"
       inkscape:connector-curvature="0" />
    <path
       d="m 51650,32300 0,2000"
       id="path200"
       inkscape:connector-curvature="0" />
    <path
       d="m 51650,34300 -1000,0"
       id="path202"
       inkscape:connector-curvature="0" />
    <path
       d="m 50650,34300 0,-2000"
       id="path204"
       inkscape:connector-curvature="0" />
    <path
       d="m 54650,32300 1000,0"
       id="path206"
       inkscape:connector-curvature="0" />
    <path
       d="m 55650,32300 0,2000"
       id="path208"
       inkscape:connector-curvature="0" />
    <path
       d="m 55650,34300 -1000,0"
       id="path210"
       inkscape:connector-curvature="0" />
    <path
       d="m 54650,34300 0,-2000"
       id="path212"
       inkscape:connector-curvature="0" />
    <path
       d="m 47400,36050 0,-3800"
       id="path214"
       inkscape:connector-curvature="0" />
    <path
       d="m 47400,36050 15800,0"
       id="path216"
       inkscape:connector-curvature="0" />
    <path
       d="m 63200,32250 0,3800"
       id="path218"
       inkscape:connector-curvature="0" />
    <path
       d="m 47400,32250 15800,0"
       id="path220"
       inkscape:connector-curvature="0" />
  </g>
  <g
     style="fill:#000000;fill-opacity:0;stroke:#000000;stroke-width:0;stroke-linecap:round;stroke-linejoin:round;stroke-opacity:1"
     id="g222"
     transform="translate(-47370.072,-32220.052)" />
  <g
     style="fill:#000000;fill-opacity:1;stroke:#000000;stroke-width:0;stroke-linecap:round;stroke-linejoin:round;stroke-opacity:1"
     id="g224"
     transform="translate(-47370.072,-32220.052)">
    <polyline
       style="fill-rule:evenodd"
       points="58802,33647 58802,32952 59497,32952 59497,33647 58802,33647 "
       id="polyline226" />
    <polyline
       style="fill-rule:evenodd"
       points="62102,33147 62102,32452 62797,32452 62797,33147 62102,33147 "
       id="polyline228" />
    <polyline
       style="fill-rule:evenodd"
       points="52802,34147 52802,33452 53497,33452 53497,34147 52802,34147 "
       id="polyline230" />
    <polyline
       style="fill-rule:evenodd"
       points="52802,33147 52802,32452 53497,32452 53497,33147 52802,33147 "
       id="polyline232" />
    <polyline
       style="fill-rule:evenodd"
       points="51802,34147 51802,33452 52497,33452 52497,34147 51802,34147 "
       id="polyline234" />
    <polyline
       style="fill-rule:evenodd"
       points="51802,33147 51802,32452 52497,32452 52497,33147 51802,33147 "
       id="polyline236" />
    <polyline
       style="fill-rule:evenodd"
       points="53802,34147 53802,33452 54497,33452 54497,34147 53802,34147 "
       id="polyline238" />
    <polyline
       style="fill-rule:evenodd"
       points="53802,33147 53802,32452 54497,32452 54497,33147 53802,33147 "
       id="polyline240" />
    <polyline
       style="fill-rule:evenodd"
       points="50802,34147 50802,33452 51497,33452 51497,34147 50802,34147 "
       id="polyline242" />
    <polyline
       style="fill-rule:evenodd"
       points="50802,33147 50802,32452 51497,32452 51497,33147 50802,33147 "
       id="polyline244" />
    <polyline
       style="fill-rule:evenodd"
       points="54802,34147 54802,33452 55497,33452 55497,34147 54802,34147 "
       id="polyline246" />
    <polyline
       style="fill-rule:evenodd"
       points="54802,33147 54802,32452 55497,32452 55497,33147 54802,33147 "
       id="polyline248" />
    <circle
       cx="57300"
       cy="34150"
       r="1228.35"
       id="circle250" />
  </g>
  <g
     style="fill:#000000;fill-opacity:1;stroke:#000000;stroke-width:137.79499817;stroke-linecap:round;stroke-linejoin:round;stroke-opacity:1"
     id="g252"
     transform="translate(-47370.072,-32220.052)" />
  <g
     style="fill:#000000;fill-opacity:1;stroke:#000000;stroke-width:0;stroke-linecap:round;stroke-linejoin:round;stroke-opacity:1"
     id="g254"
     transform="translate(-47370.072,-32220.052)">
    <circle
       cx="49300"
       cy="34150"
       r="1228.35"
       id="circle256" />
  </g>
  <g
     style="fill:#000000;fill-opacity:1;stroke:#000000;stroke-width:137.79499817;stroke-linecap:round;stroke-linejoin:round;stroke-opacity:1"
     id="g258"
     transform="translate(-47370.072,-32220.052)" />
</svg>
