<?xml version="1.0" standalone="no"?>
 <!DOCTYPE svg PUBLIC "-//W3C//DTD SVG 1.1//EN" 
 "http://www.w3.org/Graphics/SVG/1.1/DTD/svg11.dtd"> 
<svg xmlns="http://www.w3.org/2000/svg" version="1.1" 
    width="29.7002cm" height="21.0007cm" viewBox="0 0 116930 82680 ">
<title>SVG Picture created as SHT31V01A-MLABb.svg date 2016/12/31 21:41:18 </title>
  <desc>Picture generated by PCBNEW </desc>
<g style="fill:#000000; fill-opacity:1;stroke:#000000; stroke-opacity:1;
stroke-linecap:round; stroke-linejoin:round; "
 transform="translate(0 0) scale(1 1)">
</g>
<g style="fill:#000000; fill-opacity:0.0; 
stroke:#000000; stroke-width:-0.000393701; stroke-opacity:1; 
stroke-linecap:round; stroke-linejoin:round;">
</g>
<g style="fill:#000000; fill-opacity:0.0; 
stroke:#000000; stroke-width:59.0551; stroke-opacity:1; 
stroke-linecap:round; stroke-linejoin:round;">
<path d="M69530 36050
L69530 32250
" />
<path d="M69530 36050
L53730 36050
" />
<path d="M53730 32250
L53730 36050
" />
<path d="M69530 32250
L53730 32250
" />
<circle cx="56655" cy="34500" r="50" /> 
<path d="M57105 34500
L56705 34500
" />
<path d="M56705 34500
L56705 33900
" />
<path d="M56705 33900
L57105 33900
" />
<path d="M57505 33900
L57905 33900
" />
<path d="M57905 33900
L57905 34500
" />
<path d="M57905 34500
L57505 34500
" />
<circle cx="56355" cy="32400" r="50" /> 
<path d="M55905 32400
L56305 32400
" />
<path d="M56305 32400
L56305 33000
" />
<path d="M56305 33000
L55905 33000
" />
<path d="M55505 33000
L55105 33000
" />
<path d="M55105 33000
L55105 32400
" />
<path d="M55105 32400
L55505 32400
" />
<circle cx="54380" cy="35950" r="50" /> 
<path d="M54380 35500
L54380 35900
" />
<path d="M54380 35900
L53780 35900
" />
<path d="M53780 35900
L53780 35500
" />
<path d="M53780 35100
L53780 34700
" />
<path d="M53780 34700
L54380 34700
" />
<path d="M54380 34700
L54380 35100
" />
<circle cx="54380" cy="34650" r="50" /> 
<path d="M54380 34200
L54380 34600
" />
<path d="M54380 34600
L53780 34600
" />
<path d="M53780 34600
L53780 34200
" />
<path d="M53780 33800
L53780 33400
" />
<path d="M53780 33400
L54380 33400
" />
<path d="M54380 33400
L54380 33800
" />
<circle cx="56630" cy="34675" r="50" /> 
<path d="M56630 35125
L56630 34725
" />
<path d="M56630 34725
L57230 34725
" />
<path d="M57230 34725
L57230 35125
" />
<path d="M57230 35525
L57230 35925
" />
<path d="M57230 35925
L56630 35925
" />
<path d="M56630 35925
L56630 35525
" />
<circle cx="55880" cy="33875" r="50" /> 
<path d="M55880 34325
L55880 33925
" />
<path d="M55880 33925
L56480 33925
" />
<path d="M56480 33925
L56480 34325
" />
<path d="M56480 34725
L56480 35125
" />
<path d="M56480 35125
L55880 35125
" />
<path d="M55880 35125
L55880 34725
" />
<circle cx="55955" cy="33800" r="50" /> 
<path d="M56405 33800
L56005 33800
" />
<path d="M56005 33800
L56005 33200
" />
<path d="M56005 33200
L56405 33200
" />
<path d="M56805 33200
L57205 33200
" />
<path d="M57205 33200
L57205 33800
" />
<path d="M57205 33800
L56805 33800
" />
<path d="M54607 34622
L54607 33677
" />
<path d="M55552 34622
L55552 33677
" />
<path d="M64374 34930
L64768 35344
" />
<path d="M64768 35344
L64768 34556
" />
<path d="M64768 34556
L64374 34950
" />
<path d="M64374 35363
L64374 34537
" />
</g>
<g style="fill:#000000; fill-opacity:0.0; 
stroke:#000000; stroke-width:43; stroke-opacity:1; 
stroke-linecap:round; stroke-linejoin:round;">
<path d="M57272 34164
L57206 34070
" />
<path d="M57159 34164
L57159 33967
L57234 33967
L57253 33976
L57262 33985
L57272 34004
L57272 34032
L57262 34051
L57253 34060
L57234 34070
L57159 34070
" />
<path d="M57459 34164
L57347 34164
" />
<path d="M57403 34164
L57403 33967
L57384 33995
L57365 34014
L57347 34023
" />
<path d="M57237 34439
L57125 34439
" />
<path d="M57181 34439
L57181 34242
L57162 34270
L57143 34289
L57125 34298
" />
<path d="M57359 34242
L57378 34242
L57397 34251
L57406 34260
L57415 34279
L57425 34317
L57425 34364
L57415 34401
L57406 34420
L57397 34429
L57378 34439
L57359 34439
L57340 34429
L57331 34420
L57322 34401
L57312 34364
L57312 34317
L57322 34279
L57331 34260
L57340 34251
L57359 34242
" />
<path d="M57509 34439
L57509 34242
" />
<path d="M57528 34364
L57584 34439
" />
<path d="M57584 34307
L57509 34382
" />
<path d="M55672 32914
L55606 32820
" />
<path d="M55559 32914
L55559 32717
L55634 32717
L55653 32726
L55662 32735
L55672 32754
L55672 32782
L55662 32801
L55653 32810
L55634 32820
L55559 32820
" />
<path d="M55747 32735
L55756 32726
L55775 32717
L55822 32717
L55841 32726
L55850 32735
L55859 32754
L55859 32773
L55850 32801
L55737 32914
L55859 32914
" />
<path d="M55537 32639
L55425 32639
" />
<path d="M55481 32639
L55481 32442
L55462 32470
L55443 32489
L55425 32498
" />
<path d="M55659 32442
L55678 32442
L55697 32451
L55706 32460
L55715 32479
L55725 32517
L55725 32564
L55715 32601
L55706 32620
L55697 32629
L55678 32639
L55659 32639
L55640 32629
L55631 32620
L55622 32601
L55612 32564
L55612 32517
L55622 32479
L55631 32460
L55640 32451
L55659 32442
" />
<path d="M55809 32639
L55809 32442
" />
<path d="M55828 32564
L55884 32639
" />
<path d="M55884 32507
L55809 32582
" />
<path d="M53865 35267
L53959 35201
" />
<path d="M53865 35154
L54062 35154
L54062 35229
L54053 35248
L54044 35257
L54025 35267
L53997 35267
L53978 35257
L53969 35248
L53959 35229
L53959 35154
" />
<path d="M54062 35332
L54062 35454
L53987 35389
L53987 35417
L53978 35436
L53969 35445
L53950 35454
L53903 35454
L53884 35445
L53875 35436
L53865 35417
L53865 35360
L53875 35342
L53884 35332
" />
<path d="M54215 35174
L54215 35325
" />
<path d="M53865 33967
L53959 33901
" />
<path d="M53865 33854
L54062 33854
L54062 33929
L54053 33948
L54044 33957
L54025 33967
L53997 33967
L53978 33957
L53969 33948
L53959 33929
L53959 33854
" />
<path d="M53997 34136
L53865 34136
" />
<path d="M54072 34089
L53931 34042
L53931 34164
" />
<path d="M54337 33842
L54337 33860
L54328 33879
L54319 33889
L54300 33898
L54262 33907
L54215 33907
L54178 33898
L54159 33889
L54150 33879
L54140 33860
L54140 33842
L54150 33823
L54159 33813
L54178 33804
L54215 33795
L54262 33795
L54300 33804
L54319 33813
L54328 33823
L54337 33842
" />
<path d="M54140 34104
L54234 34039
" />
<path d="M54140 33992
L54337 33992
L54337 34067
L54328 34086
L54319 34095
L54300 34104
L54272 34104
L54253 34095
L54244 34086
L54234 34067
L54234 33992
" />
<path d="M56965 35292
L57059 35226
" />
<path d="M56965 35179
L57162 35179
L57162 35254
L57153 35273
L57144 35282
L57125 35292
L57097 35292
L57078 35282
L57069 35273
L57059 35254
L57059 35179
" />
<path d="M57162 35470
L57162 35376
L57069 35367
L57078 35376
L57087 35395
L57087 35442
L57078 35461
L57069 35470
L57050 35479
L57003 35479
L56984 35470
L56975 35461
L56965 35442
L56965 35395
L56975 35376
L56984 35367
" />
<path d="M56690 35257
L56690 35145
" />
<path d="M56690 35201
L56887 35201
L56859 35182
L56840 35163
L56831 35145
" />
<path d="M56887 35379
L56887 35398
L56878 35417
L56869 35426
L56850 35435
L56812 35445
L56765 35445
L56728 35435
L56709 35426
L56700 35417
L56690 35398
L56690 35379
L56700 35360
L56709 35351
L56728 35342
L56765 35332
L56812 35332
L56850 35342
L56869 35351
L56878 35360
L56887 35379
" />
<path d="M56690 35529
L56887 35529
" />
<path d="M56765 35548
L56690 35604
" />
<path d="M56822 35604
L56747 35529
" />
<path d="M56215 34492
L56309 34426
" />
<path d="M56215 34379
L56412 34379
L56412 34454
L56403 34473
L56394 34482
L56375 34492
L56347 34492
L56328 34482
L56319 34473
L56309 34454
L56309 34379
" />
<path d="M56412 34661
L56412 34623
L56403 34604
L56394 34595
L56365 34576
L56328 34567
L56253 34567
L56234 34576
L56225 34585
L56215 34604
L56215 34642
L56225 34661
L56234 34670
L56253 34679
L56300 34679
L56319 34670
L56328 34661
L56337 34642
L56337 34604
L56328 34585
L56319 34576
L56300 34567
" />
<path d="M55940 34457
L55940 34345
" />
<path d="M55940 34401
L56137 34401
L56109 34382
L56090 34363
L56081 34345
" />
<path d="M56137 34579
L56137 34598
L56128 34617
L56119 34626
L56100 34635
L56062 34645
L56015 34645
L55978 34635
L55959 34626
L55950 34617
L55940 34598
L55940 34579
L55950 34560
L55959 34551
L55978 34542
L56015 34532
L56062 34532
L56100 34542
L56119 34551
L56128 34560
L56137 34579
" />
<path d="M55940 34729
L56137 34729
" />
<path d="M56015 34748
L55940 34804
" />
<path d="M56072 34804
L55997 34729
" />
<path d="M56572 33445
L56562 33454
L56534 33464
L56515 33464
L56487 33454
L56468 33435
L56459 33417
L56450 33379
L56450 33351
L56459 33314
L56468 33295
L56487 33276
L56515 33267
L56534 33267
L56562 33276
L56572 33285
" />
<path d="M56759 33464
L56647 33464
" />
<path d="M56703 33464
L56703 33267
L56684 33295
L56665 33314
L56647 33323
" />
<path d="M56350 33739
L56237 33739
" />
<path d="M56293 33739
L56293 33542
L56275 33570
L56256 33589
L56237 33598
" />
<path d="M56472 33542
L56490 33542
L56509 33551
L56518 33560
L56528 33579
L56537 33617
L56537 33664
L56528 33701
L56518 33720
L56509 33729
L56490 33739
L56472 33739
L56453 33729
L56443 33720
L56434 33701
L56425 33664
L56425 33617
L56434 33579
L56443 33560
L56453 33551
L56472 33542
" />
<path d="M56659 33542
L56678 33542
L56697 33551
L56706 33560
L56715 33579
L56725 33617
L56725 33664
L56715 33701
L56706 33720
L56697 33729
L56678 33739
L56659 33739
L56640 33729
L56631 33720
L56622 33701
L56612 33664
L56612 33617
L56622 33579
L56631 33560
L56640 33551
L56659 33542
" />
<path d="M56809 33607
L56809 33739
" />
<path d="M56809 33626
L56819 33617
L56837 33607
L56866 33607
L56884 33617
L56894 33635
L56894 33739
" />
<path d="M57053 33635
L56988 33635
" />
<path d="M56988 33739
L56988 33542
L57081 33542
" />
</g>
<g style="fill:#000000; fill-opacity:0.0; 
stroke:#000000; stroke-width:59.0551; stroke-opacity:1; 
stroke-linecap:round; stroke-linejoin:round;">
<path d="M55395 33650
L55076 33650
L55039 33668
L55020 33687
L55001 33725
L55001 33800
L55020 33837
L55039 33856
L55076 33875
L55395 33875
" />
<path d="M55001 34268
L55001 34043
" />
<path d="M55001 34156
L55395 34156
L55339 34118
L55301 34081
L55283 34043
" />
<path d="M55125 34445
L55031 34445
" />
<path d="M55069 34351
L55031 34445
L55069 34538
" />
<path d="M54956 34388
L55031 34445
L54956 34501
" />
</g>
<g style="fill:#000000; fill-opacity:0.0; 
stroke:#000000; stroke-width:120; stroke-opacity:1; 
stroke-linecap:round; stroke-linejoin:round;">
<path d="M62837 35271
L62837 34671
L62980 34671
L63065 34700
L63122 34757
L63151 34814
L63180 34928
L63180 35014
L63151 35128
L63122 35185
L63065 35242
L62980 35271
L62837 35271
" />
<path d="M63751 35271
L63408 35271
" />
<path d="M63580 35271
L63580 34671
L63522 34757
L63465 34814
L63408 34842
" />
</g>
<g style="fill:#000000; fill-opacity:0.0; 
stroke:#000000; stroke-width:39; stroke-opacity:1; 
stroke-linecap:round; stroke-linejoin:round;">
<path d="M65292 34372
L65385 34372
" />
<path d="M65273 34429
L65339 34232
L65404 34429
" />
<path d="M63869 34429
L63869 34232
" />
<path d="M63981 34429
L63897 34316
" />
<path d="M63981 34232
L63869 34344
" />
</g> 
</svg>
