<?xml version="1.0" standalone="no"?>
 <!DOCTYPE svg PUBLIC "-//W3C//DTD SVG 1.1//EN" 
 "http://www.w3.org/Graphics/SVG/1.1/DTD/svg11.dtd"> 
<svg xmlns="http://www.w3.org/2000/svg" version="1.1" 
    width="29.7002cm" height="21.0007cm" viewBox="0 0 116930 82680 ">
<title>SVG Picture created as PWMLED01B-PasteBottom.svg date 2016/12/31 00:44:34 </title>
  <desc>Picture generated by PCBNEW </desc>
<g style="fill:#000000; fill-opacity:1;stroke:#000000; stroke-opacity:1;
stroke-linecap:round; stroke-linejoin:round; "
 transform="translate(0 0) scale(1 1)">
</g>
<g style="fill:#000000; fill-opacity:0.0; 
stroke:#000000; stroke-width:-0.000393701; stroke-opacity:1; 
stroke-linecap:round; stroke-linejoin:round;">
</g>
<g style="fill:#000000; fill-opacity:0.0; 
stroke:#000000; stroke-width:39.3701; stroke-opacity:1; 
stroke-linecap:round; stroke-linejoin:round;">
<path d="M49100 42099
L49100 26300
" />
<path d="M60899 26300
L49100 26300
" />
<path d="M60899 42099
L60899 26300
" />
<path d="M49100 42099
L60899 42099
" />
</g>
<g style="fill:#000000; fill-opacity:0.0; 
stroke:#000000; stroke-width:0; stroke-opacity:1; 
stroke-linecap:round; stroke-linejoin:round;">
</g>
<g style="fill:#000000; fill-opacity:1.0; 
stroke:#000000; stroke-width:0; stroke-opacity:1; 
stroke-linecap:round; stroke-linejoin:round;">
<polyline style="fill-rule:evenodd;"
points="53525,34850
54075,34850
54075,35200
53525,35200
53525,34850
" /> 
<polyline style="fill-rule:evenodd;"
points="53525,35600
54075,35600
54075,35950
53525,35950
53525,35600
" /> 
<polyline style="fill-rule:evenodd;"
points="52892,31108
51908,31108
51908,30104
52892,30104
52892,31108
" /> 
<polyline style="fill-rule:evenodd;"
points="52892,33096
51908,33096
51908,32092
52892,32092
52892,33096
" /> 
<polyline style="fill-rule:evenodd;"
points="54692,32308
53708,32308
53708,31304
54692,31304
54692,32308
" /> 
<polyline style="fill-rule:evenodd;"
points="54692,34296
53708,34296
53708,33292
54692,33292
54692,34296
" /> 
<polyline style="fill-rule:evenodd;"
points="55234,36445
54565,36445
54565,35933
55234,35933
55234,36445
" /> 
<polyline style="fill-rule:evenodd;"
points="55234,35067
54565,35067
54565,34555
55234,34555
55234,35067
" /> 
<polyline style="fill-rule:evenodd;"
points="59182,32622
57017,32622
57017,31440
59182,31440
59182,32622
" /> 
<polyline style="fill-rule:evenodd;"
points="59182,36559
57017,36559
57017,35377
59182,35377
59182,36559
" /> 
<polyline style="fill-rule:evenodd;"
points="51825,36550
52375,36550
52375,36900
51825,36900
51825,36550
" /> 
<polyline style="fill-rule:evenodd;"
points="51825,37300
52375,37300
52375,37650
51825,37650
51825,37300
" /> 
<polyline style="fill-rule:evenodd;"
points="50450,34325
50450,34875
50100,34875
50100,34325
50450,34325
" /> 
<polyline style="fill-rule:evenodd;"
points="49700,34325
49700,34875
49350,34875
49350,34325
49700,34325
" /> 
<polyline style="fill-rule:evenodd;"
points="50866,35766
50866,35601
51476,35601
51476,35766
50866,35766
" /> 
<polyline style="fill-rule:evenodd;"
points="50866,35510
50866,35345
51476,35345
51476,35510
50866,35510
" /> 
<polyline style="fill-rule:evenodd;"
points="50866,35254
50866,35089
51476,35089
51476,35254
50866,35254
" /> 
<polyline style="fill-rule:evenodd;"
points="50866,34998
50866,34833
51476,34833
51476,34998
50866,34998
" /> 
<polyline style="fill-rule:evenodd;"
points="52523,34998
52523,34833
53133,34833
53133,34998
52523,34998
" /> 
<polyline style="fill-rule:evenodd;"
points="52523,35254
52523,35089
53133,35089
53133,35254
52523,35254
" /> 
<polyline style="fill-rule:evenodd;"
points="52523,35510
52523,35345
53133,35345
53133,35510
52523,35510
" /> 
<polyline style="fill-rule:evenodd;"
points="52523,35766
52523,35601
53133,35601
53133,35766
52523,35766
" /> 
<polyline style="fill-rule:evenodd;"
points="52066,35225
52066,35003
52264,35003
52264,35225
52066,35225
" /> 
<polyline style="fill-rule:evenodd;"
points="52066,35596
52066,35374
52264,35374
52264,35596
52066,35596
" /> 
<polyline style="fill-rule:evenodd;"
points="51735,35225
51735,35003
51933,35003
51933,35225
51735,35225
" /> 
<polyline style="fill-rule:evenodd;"
points="51735,35596
51735,35374
51933,35374
51933,35596
51735,35596
" /> 
</g> 
</svg>
