<?xml version="1.0" standalone="no"?>
 <!DOCTYPE svg PUBLIC "-//W3C//DTD SVG 1.1//EN" 
 "http://www.w3.org/Graphics/SVG/1.1/DTD/svg11.dtd"> 
<svg xmlns="http://www.w3.org/2000/svg" version="1.1" 
    width="29.7002cm" height="21.0007cm" viewBox="0 0 116930 82680 ">
<title>SVG Picture created as PWMLED01B-AssyTop.svg date 2016/12/31 00:44:34 </title>
  <desc>Picture generated by PCBNEW </desc>
<g style="fill:#000000; fill-opacity:1;stroke:#000000; stroke-opacity:1;
stroke-linecap:round; stroke-linejoin:round; "
 transform="translate(0 0) scale(1 1)">
</g>
<g style="fill:#000000; fill-opacity:0.0; 
stroke:#000000; stroke-width:-0.000393701; stroke-opacity:1; 
stroke-linecap:round; stroke-linejoin:round;">
</g>
<g style="fill:#000000; fill-opacity:0.0; 
stroke:#000000; stroke-width:118.11; stroke-opacity:1; 
stroke-linecap:round; stroke-linejoin:round;">
<path d="M57632 30151
L57632 29870
L58223 29870
" />
<path d="M57942 30348
L57942 30545
" />
<path d="M57632 30629
L57632 30348
L58223 30348
L58223 30629
" />
<path d="M57632 30882
L58223 30882
L58223 31023
L58195 31107
L58139 31164
L58082 31192
L57970 31220
L57885 31220
L57773 31192
L57717 31164
L57660 31107
L57632 31023
L57632 30882
" />
<path d="M58223 32035
L58223 32148
L58195 32204
L58139 32260
L58026 32288
L57829 32288
L57717 32260
L57660 32204
L57632 32148
L57632 32035
L57660 31979
L57717 31923
L57829 31895
L58026 31895
L58139 31923
L58195 31979
L58223 32035
" />
<path d="M58223 32542
L57745 32542
L57689 32570
L57660 32598
L57632 32654
L57632 32767
L57660 32823
L57689 32851
L57745 32879
L58223 32879
" />
<path d="M58223 33076
L58223 33413
" />
<path d="M57632 33245
L58223 33245
" />
<path d="M59267 35787
L59295 35815
L59323 35871
L59323 36012
L59295 36068
L59267 36096
L59210 36125
L59154 36125
L59070 36096
L58732 35759
L58732 36125
" />
<path d="M59323 36490
L59323 36546
L59295 36603
L59267 36631
L59210 36659
L59098 36687
L58957 36687
L58845 36659
L58789 36631
L58760 36603
L58732 36546
L58732 36490
L58760 36434
L58789 36406
L58845 36378
L58957 36350
L59098 36350
L59210 36378
L59267 36406
L59295 36434
L59323 36490
" />
<path d="M58732 37249
L58732 36912
" />
<path d="M58732 37081
L59323 37081
L59239 37024
L59182 36968
L59154 36912
" />
<path d="M59323 37784
L59323 37503
L59042 37474
L59070 37503
L59098 37559
L59098 37699
L59070 37756
L59042 37784
L58985 37812
L58845 37812
L58789 37784
L58760 37756
L58732 37699
L58732 37559
L58760 37503
L58789 37474
" />
<path d="M60423 35717
L60001 35717
L59917 35689
L59860 35632
L59832 35548
L59832 35492
" />
<path d="M60001 35970
L60001 36251
" />
<path d="M59832 35914
L60423 36111
L59832 36307
" />
<path d="M59889 36842
L59860 36814
L59832 36729
L59832 36673
L59860 36589
L59917 36532
L59973 36504
L60085 36476
L60170 36476
L60282 36504
L60339 36532
L60395 36589
L60423 36673
L60423 36729
L60395 36814
L60367 36842
" />
<path d="M59832 37095
L60423 37095
" />
<path d="M60142 37095
L60142 37432
" />
<path d="M59832 37432
L60423 37432
" />
<path d="M60423 37826
L60423 37938
L60395 37995
L60339 38051
L60226 38079
L60029 38079
L59917 38051
L59860 37995
L59832 37938
L59832 37826
L59860 37770
L59917 37713
L60029 37685
L60226 37685
L60339 37713
L60395 37770
L60423 37826
" />
<path d="M59732 30398
L60323 30398
L59901 30595
L60323 30792
L59732 30792
" />
<path d="M59732 31354
L59732 31073
L60323 31073
" />
<path d="M59901 31523
L59901 31804
" />
<path d="M59732 31467
L60323 31664
L59732 31860
" />
<path d="M60042 32254
L60014 32339
L59985 32367
L59929 32395
L59845 32395
L59789 32367
L59760 32339
L59732 32282
L59732 32057
L60323 32057
L60323 32254
L60295 32310
L60267 32339
L60210 32367
L60154 32367
L60098 32339
L60070 32310
L60042 32254
L60042 32057
" />
<path d="M59789 32648
L59760 32676
L59732 32648
L59760 32620
L59789 32648
L59732 32648
" />
<path d="M59789 33267
L59760 33238
L59732 33154
L59732 33098
L59760 33013
L59817 32957
L59873 32929
L59985 32901
L60070 32901
L60182 32929
L60239 32957
L60295 33013
L60323 33098
L60323 33154
L60295 33238
L60267 33267
" />
<path d="M60323 33463
L60323 33857
L59732 33463
L59732 33857
" />
<path d="M58732 29611
L59323 29611
L59323 29836
L59295 29892
L59267 29920
L59210 29948
L59126 29948
L59070 29920
L59042 29892
L59014 29836
L59014 29611
" />
<path d="M59323 30145
L58732 30286
L59154 30398
L58732 30511
L59323 30651
" />
<path d="M58732 30876
L59323 30876
L58901 31073
L59323 31270
L58732 31270
" />
<path d="M58732 31832
L58732 31551
L59323 31551
" />
<path d="M59042 32029
L59042 32226
" />
<path d="M58732 32310
L58732 32029
L59323 32029
L59323 32310
" />
<path d="M58732 32564
L59323 32564
L59323 32704
L59295 32788
L59239 32845
L59182 32873
L59070 32901
L58985 32901
L58873 32873
L58817 32845
L58760 32788
L58732 32704
L58732 32564
" />
<path d="M59323 33267
L59323 33323
L59295 33379
L59267 33407
L59210 33435
L59098 33463
L58957 33463
L58845 33435
L58789 33407
L58760 33379
L58732 33323
L58732 33267
L58760 33210
L58789 33182
L58845 33154
L58957 33126
L59098 33126
L59210 33154
L59267 33182
L59295 33210
L59323 33267
" />
<path d="M58732 34026
L58732 33688
" />
<path d="M58732 33857
L59323 33857
L59239 33801
L59182 33745
L59154 33688
" />
<path d="M59042 34476
L59014 34560
L58985 34588
L58929 34616
L58845 34616
L58789 34588
L58760 34560
L58732 34504
L58732 34279
L59323 34279
L59323 34476
L59295 34532
L59267 34560
L59210 34588
L59154 34588
L59098 34560
L59070 34532
L59042 34476
L59042 34279
" />
<path d="M57475 26942
L57924 26942
" />
<path d="M52657 26775
L52657 27224
" />
<path d="M52432 27000
L52882 27000
" />
<path d="M57375 41142
L57824 41142
" />
<path d="M52357 40975
L52357 41424
" />
<path d="M52132 41200
L52582 41200
" />
<path d="M57332 34861
L57923 34861
L57923 35086
L57895 35142
L57867 35170
L57810 35198
L57726 35198
L57670 35170
L57642 35142
L57614 35086
L57614 34861
" />
<path d="M57923 35564
L57923 35676
L57895 35732
L57839 35789
L57726 35817
L57529 35817
L57417 35789
L57360 35732
L57332 35676
L57332 35564
L57360 35507
L57417 35451
L57529 35423
L57726 35423
L57839 35451
L57895 35507
L57923 35564
" />
<path d="M57923 36014
L57332 36154
L57754 36267
L57332 36379
L57923 36520
" />
<path d="M57642 36745
L57642 36942
" />
<path d="M57332 37026
L57332 36745
L57923 36745
L57923 37026
" />
<path d="M57332 37617
L57614 37420
" />
<path d="M57332 37279
L57923 37279
L57923 37504
L57895 37560
L57867 37588
L57810 37617
L57726 37617
L57670 37588
L57642 37560
L57614 37504
L57614 37279
" />
<path d="M57332 38320
L57923 38320
" />
<path d="M57332 38601
L57923 38601
L57332 38938
L57923 38938
" />
<path d="M51932 29861
L52523 29861
L52523 30086
L52495 30142
L52467 30170
L52410 30198
L52326 30198
L52270 30170
L52242 30142
L52214 30086
L52214 29861
" />
<path d="M52523 30564
L52523 30676
L52495 30732
L52439 30789
L52326 30817
L52129 30817
L52017 30789
L51960 30732
L51932 30676
L51932 30564
L51960 30507
L52017 30451
L52129 30423
L52326 30423
L52439 30451
L52495 30507
L52523 30564
" />
<path d="M52523 31014
L51932 31154
L52354 31267
L51932 31379
L52523 31520
" />
<path d="M52242 31745
L52242 31942
" />
<path d="M51932 32026
L51932 31745
L52523 31745
L52523 32026
" />
<path d="M51932 32617
L52214 32420
" />
<path d="M51932 32279
L52523 32279
L52523 32504
L52495 32560
L52467 32588
L52410 32617
L52326 32617
L52270 32588
L52242 32560
L52214 32504
L52214 32279
" />
<path d="M51932 33320
L52523 33320
" />
<path d="M51932 33601
L52523 33601
L51932 33938
L52523 33938
" />
<path d="M51832 37767
L52423 37767
L52423 37907
L52395 37992
L52339 38048
L52282 38076
L52170 38104
L52085 38104
L51973 38076
L51917 38048
L51860 37992
L51832 37907
L51832 37767
" />
<path d="M51832 38357
L52423 38357
" />
<path d="M51832 38639
L52423 38639
L52001 38835
L52423 39032
L51832 39032
" />
<path d="M52142 36164
L52142 36360
" />
<path d="M51832 36445
L51832 36164
L52423 36164
L52423 36445
" />
<path d="M51832 36698
L52423 36698
L51832 37035
L52423 37035
" />
</g>
<g style="fill:#000000; fill-opacity:0.0; 
stroke:#000000; stroke-width:39.3701; stroke-opacity:1; 
stroke-linecap:round; stroke-linejoin:round;">
<path d="M49100 42099
L49100 26300
" />
<path d="M60899 26300
L49100 26300
" />
<path d="M60899 42099
L60899 26300
" />
<path d="M49100 42099
L60899 42099
" />
</g>
<g style="fill:#000000; fill-opacity:0.0; 
stroke:#000000; stroke-width:59.0551; stroke-opacity:1; 
stroke-linecap:round; stroke-linejoin:round;">
<path d="M49500 38400
L49500 37400
" />
<path d="M49500 37400
L51500 37400
" />
<path d="M51500 37400
L51500 38400
" />
<path d="M51500 38400
L49500 38400
" />
<path d="M49500 37400
L49500 36400
" />
<path d="M49500 36400
L51500 36400
" />
<path d="M51500 36400
L51500 37400
" />
<path d="M51500 37400
L49500 37400
" />
<path d="M54884 36131
L54687 36131
" />
<path d="M53112 36131
L52915 36131
" />
<path d="M54884 38493
L52915 38493
" />
<path d="M54884 42037
L52915 42037
" />
<path d="M54490 35344
L53309 35344
" />
<path d="M54490 36328
L53309 36328
" />
<path d="M53112 35147
L54687 35147
" />
<path d="M53112 36525
L54687 36525
" />
<path d="M54490 37706
L53309 37706
" />
<path d="M53112 38690
L54687 38690
" />
<path d="M54687 41840
L53112 41840
" />
<path d="M54293 38690
L54293 38493
" />
<path d="M54490 36328
L54490 35344
" />
<path d="M54687 36525
L54687 35147
" />
<path d="M53506 38690
L53506 38493
" />
<path d="M53309 36328
L53309 35344
" />
<path d="M53112 36525
L53112 35146
" />
<path d="M54490 37706
L54490 36525
" />
<path d="M54687 41840
L54687 38690
" />
<path d="M54884 38493
L54884 36131
" />
<path d="M53309 37706
L53309 36525
" />
<path d="M53112 41840
L53112 38690
" />
<path d="M52915 38493
L52915 36131
" />
<path d="M54884 38493
L54884 42037
" />
<path d="M52915 42037
L52915 38493
" />
<path d="M56884 36131
L56687 36131
" />
<path d="M55112 36131
L54915 36131
" />
<path d="M56884 38493
L54915 38493
" />
<path d="M56884 42037
L54915 42037
" />
<path d="M56490 35344
L55309 35344
" />
<path d="M56490 36328
L55309 36328
" />
<path d="M55112 35147
L56687 35147
" />
<path d="M55112 36525
L56687 36525
" />
<path d="M56490 37706
L55309 37706
" />
<path d="M55112 38690
L56687 38690
" />
<path d="M56687 41840
L55112 41840
" />
<path d="M56293 38690
L56293 38493
" />
<path d="M56490 36328
L56490 35344
" />
<path d="M56687 36525
L56687 35147
" />
<path d="M55506 38690
L55506 38493
" />
<path d="M55309 36328
L55309 35344
" />
<path d="M55112 36525
L55112 35146
" />
<path d="M56490 37706
L56490 36525
" />
<path d="M56687 41840
L56687 38690
" />
<path d="M56884 38493
L56884 36131
" />
<path d="M55309 37706
L55309 36525
" />
<path d="M55112 41840
L55112 38690
" />
<path d="M54915 38493
L54915 36131
" />
<path d="M56884 38493
L56884 42037
" />
<path d="M54915 42037
L54915 38493
" />
<path d="M49500 30000
L51500 30000
" />
<path d="M51500 30000
L51500 34000
" />
<path d="M51500 34000
L49500 34000
" />
<path d="M49500 34000
L49500 30000
" />
<path d="M55215 32268
L55412 32268
" />
<path d="M56987 32268
L57184 32268
" />
<path d="M55215 29906
L57184 29906
" />
<path d="M55215 26362
L57184 26362
" />
<path d="M55609 33055
L56790 33055
" />
<path d="M55609 32071
L56790 32071
" />
<path d="M56987 33252
L55412 33252
" />
<path d="M56987 31874
L55412 31874
" />
<path d="M55609 30693
L56790 30693
" />
<path d="M56987 29709
L55412 29709
" />
<path d="M55412 26559
L56987 26559
" />
<path d="M55806 29709
L55806 29906
" />
<path d="M55609 32071
L55609 33055
" />
<path d="M55412 31874
L55412 33252
" />
<path d="M56593 29709
L56593 29906
" />
<path d="M56790 32071
L56790 33055
" />
<path d="M56987 31874
L56987 33253
" />
<path d="M55609 30693
L55609 31874
" />
<path d="M55412 26559
L55412 29709
" />
<path d="M55215 29906
L55215 32268
" />
<path d="M56790 30693
L56790 31874
" />
<path d="M56987 26559
L56987 29709
" />
<path d="M57184 29906
L57184 32268
" />
<path d="M55215 29906
L55215 26362
" />
<path d="M57184 26362
L57184 29906
" />
<path d="M53215 32268
L53412 32268
" />
<path d="M54987 32268
L55184 32268
" />
<path d="M53215 29906
L55184 29906
" />
<path d="M53215 26362
L55184 26362
" />
<path d="M53609 33055
L54790 33055
" />
<path d="M53609 32071
L54790 32071
" />
<path d="M54987 33252
L53412 33252
" />
<path d="M54987 31874
L53412 31874
" />
<path d="M53609 30693
L54790 30693
" />
<path d="M54987 29709
L53412 29709
" />
<path d="M53412 26559
L54987 26559
" />
<path d="M53806 29709
L53806 29906
" />
<path d="M53609 32071
L53609 33055
" />
<path d="M53412 31874
L53412 33252
" />
<path d="M54593 29709
L54593 29906
" />
<path d="M54790 32071
L54790 33055
" />
<path d="M54987 31874
L54987 33253
" />
<path d="M53609 30693
L53609 31874
" />
<path d="M53412 26559
L53412 29709
" />
<path d="M53215 29906
L53215 32268
" />
<path d="M54790 30693
L54790 31874
" />
<path d="M54987 26559
L54987 29709
" />
<path d="M55184 29906
L55184 32268
" />
<path d="M53215 29906
L53215 26362
" />
<path d="M55184 26362
L55184 29906
" />
<path d="M48676 38096
L49098 38096
L49182 38124
L49239 38181
L49267 38265
L49267 38321
" />
<path d="M49267 37506
L49267 37843
" />
<path d="M49267 37675
L48676 37675
L48760 37731
L48817 37787
L48845 37843
" />
<path d="M48676 37096
L49098 37096
L49182 37124
L49239 37181
L49267 37265
L49267 37321
" />
<path d="M48732 36843
L48704 36815
L48676 36759
L48676 36618
L48704 36562
L48732 36534
L48789 36506
L48845 36506
L48929 36534
L49267 36871
L49267 36506
" />
</g>
<g style="fill:#000000; fill-opacity:0.0; 
stroke:#000000; stroke-width:120; stroke-opacity:1; 
stroke-linecap:round; stroke-linejoin:round;">
<path d="M53700 41071
L53700 41500
L53671 41585
L53614 41642
L53528 41671
L53471 41671
" />
<path d="M53928 41071
L54300 41071
L54100 41300
L54185 41300
L54242 41328
L54271 41357
L54300 41414
L54300 41557
L54271 41614
L54242 41642
L54185 41671
L54014 41671
L53957 41642
L53928 41614
" />
<path d="M55700 41071
L55700 41500
L55671 41585
L55614 41642
L55528 41671
L55471 41671
" />
<path d="M56242 41271
L56242 41671
" />
<path d="M56100 41042
L55957 41471
L56328 41471
" />
</g>
<g style="fill:#000000; fill-opacity:0.0; 
stroke:#000000; stroke-width:59.0551; stroke-opacity:1; 
stroke-linecap:round; stroke-linejoin:round;">
<path d="M50303 29176
L50303 29598
L50275 29682
L50218 29739
L50134 29767
L50078 29767
" />
<path d="M50865 29176
L50584 29176
L50556 29457
L50584 29429
L50640 29401
L50781 29401
L50837 29429
L50865 29457
L50893 29514
L50893 29654
L50865 29710
L50837 29739
L50781 29767
L50640 29767
L50584 29739
L50556 29710
" />
</g>
<g style="fill:#000000; fill-opacity:0.0; 
stroke:#000000; stroke-width:19.685; stroke-opacity:1; 
stroke-linecap:round; stroke-linejoin:round;">
<path d="M49406 30589
L49293 30589
" />
<path d="M49350 30589
L49350 30392
L49331 30420
L49312 30439
L49293 30448
" />
</g>
<g style="fill:#000000; fill-opacity:0.0; 
stroke:#000000; stroke-width:120; stroke-opacity:1; 
stroke-linecap:round; stroke-linejoin:round;">
<path d="M56000 26771
L56000 27200
L55971 27285
L55914 27342
L55828 27371
L55771 27371
" />
<path d="M56542 26771
L56428 26771
L56371 26800
L56342 26828
L56285 26914
L56257 27028
L56257 27257
L56285 27314
L56314 27342
L56371 27371
L56485 27371
L56542 27342
L56571 27314
L56600 27257
L56600 27114
L56571 27057
L56542 27028
L56485 27000
L56371 27000
L56314 27028
L56285 27057
L56257 27114
" />
<path d="M54000 26771
L54000 27200
L53971 27285
L53914 27342
L53828 27371
L53771 27371
" />
<path d="M54228 26771
L54628 26771
L54371 27371
" />
<path d="M58549 38821
L58549 38221
L58777 38221
L58834 38250
L58863 38278
L58892 38335
L58892 38421
L58863 38478
L58834 38507
L58777 38535
L58549 38535
" />
<path d="M59463 38821
L59120 38821
" />
<path d="M59292 38821
L59292 38221
L59234 38307
L59177 38364
L59120 38392
" />
<path d="M58549 26821
L58549 26221
L58777 26221
L58834 26250
L58863 26278
L58892 26335
L58892 26421
L58863 26478
L58834 26507
L58777 26535
L58549 26535
" />
<path d="M59120 26278
L59149 26250
L59206 26221
L59349 26221
L59406 26250
L59434 26278
L59463 26335
L59463 26392
L59434 26478
L59092 26821
L59463 26821
" />
<path d="M50557 26821
L50557 26221
L50785 26221
L50842 26250
L50871 26278
L50900 26335
L50900 26421
L50871 26478
L50842 26507
L50785 26535
L50557 26535
" />
<path d="M51100 26221
L51471 26221
L51271 26450
L51357 26450
L51414 26478
L51442 26507
L51471 26564
L51471 26707
L51442 26764
L51414 26792
L51357 26821
L51185 26821
L51128 26792
L51100 26764
" />
<path d="M50557 38821
L50557 38221
L50785 38221
L50842 38250
L50871 38278
L50900 38335
L50900 38421
L50871 38478
L50842 38507
L50785 38535
L50557 38535
" />
<path d="M51414 38421
L51414 38821
" />
<path d="M51271 38192
L51128 38621
L51500 38621
" />
</g> 
</svg>
