<?xml version="1.0" standalone="no"?>
 <!DOCTYPE svg PUBLIC "-//W3C//DTD SVG 1.1//EN" 
 "http://www.w3.org/Graphics/SVG/1.1/DTD/svg11.dtd"> 
<svg xmlns="http://www.w3.org/2000/svg" version="1.1" 
    width="29.7002cm" height="21.0007cm" viewBox="0 0 116930 82680 ">
<title>SVG Picture created as PWMLED01B-SilkBottom.svg date 2016/12/31 00:44:34 </title>
  <desc>Picture generated by PCBNEW </desc>
<g style="fill:#000000; fill-opacity:1;stroke:#000000; stroke-opacity:1;
stroke-linecap:round; stroke-linejoin:round; "
 transform="translate(0 0) scale(1 1)">
</g>
<g style="fill:#000000; fill-opacity:0.0; 
stroke:#000000; stroke-width:-0.000393701; stroke-opacity:1; 
stroke-linecap:round; stroke-linejoin:round;">
</g>
<g style="fill:#000000; fill-opacity:0.0; 
stroke:#000000; stroke-width:39.3701; stroke-opacity:1; 
stroke-linecap:round; stroke-linejoin:round;">
<path d="M49100 42099
L49100 26300
" />
<path d="M60899 26300
L49100 26300
" />
<path d="M60899 42099
L60899 26300
" />
<path d="M49100 42099
L60899 42099
" />
</g>
<g style="fill:#000000; fill-opacity:0.0; 
stroke:#000000; stroke-width:59.0551; stroke-opacity:1; 
stroke-linecap:round; stroke-linejoin:round;">
<circle cx="54100" cy="34750" r="50" /> 
<path d="M54100 35200
L54100 34800
" />
<path d="M54100 34800
L53500 34800
" />
<path d="M53500 34800
L53500 35200
" />
<path d="M53500 35600
L53500 36000
" />
<path d="M53500 36000
L54100 36000
" />
<path d="M54100 36000
L54100 35600
" />
<path d="M53069 33293
L51731 33293
" />
<path d="M51731 30419
L51731 32781
" />
<path d="M53069 30419
L53069 32781
" />
<path d="M53602 33569
L53169 33569
" />
<path d="M53405 33805
L53405 33333
" />
<path d="M54869 34493
L53531 34493
" />
<path d="M53531 31619
L53531 33981
" />
<path d="M54869 31619
L54869 33981
" />
<path d="M55402 34769
L54969 34769
" />
<path d="M55205 35005
L55205 34533
" />
<path d="M54880 35244
L55294 35638
" />
<path d="M55294 35638
L54506 35638
" />
<path d="M54506 35638
L54900 35244
" />
<path d="M55313 35244
L54487 35244
" />
<path d="M60659 36559
L55540 36559
" />
<path d="M55540 36559
L55540 31440
" />
<path d="M55540 31440
L60659 31440
" />
<path d="M60659 31440
L60659 36559
" />
<path d="M58100 32200
L58100 32500
" />
<path d="M58250 32350
L57950 32350
" />
<circle cx="52400" cy="36450" r="50" /> 
<path d="M52400 36900
L52400 36500
" />
<path d="M52400 36500
L51800 36500
" />
<path d="M51800 36500
L51800 36900
" />
<path d="M51800 37300
L51800 37700
" />
<path d="M51800 37700
L52400 37700
" />
<path d="M52400 37700
L52400 37300
" />
<circle cx="50550" cy="34900" r="50" /> 
<path d="M50100 34900
L50500 34900
" />
<path d="M50500 34900
L50500 34300
" />
<path d="M50500 34300
L50100 34300
" />
<path d="M49700 34300
L49300 34300
" />
<path d="M49300 34300
L49300 34900
" />
<path d="M49300 34900
L49700 34900
" />
<path d="M51360 35939
L51360 35855
" />
<path d="M52639 35939
L52639 35855
" />
<path d="M52639 34660
L52639 34744
" />
<path d="M51360 34660
L51360 34744
" />
<path d="M51360 35939
L52639 35939
" />
<path d="M51360 34660
L52639 34660
" />
<path d="M51360 35855
L50996 35855
" />
</g>
<g style="fill:#000000; fill-opacity:0.0; 
stroke:#000000; stroke-width:43; stroke-opacity:1; 
stroke-linecap:round; stroke-linejoin:round;">
<path d="M53745 35367
L53754 35357
L53764 35329
L53764 35310
L53754 35282
L53735 35263
L53717 35254
L53679 35245
L53651 35245
L53614 35254
L53595 35263
L53576 35282
L53567 35310
L53567 35329
L53576 35357
L53585 35367
" />
<path d="M53764 35554
L53764 35442
" />
<path d="M53764 35498
L53567 35498
L53595 35479
L53614 35460
L53623 35442
" />
<path d="M54039 35332
L54039 35220
" />
<path d="M54039 35276
L53842 35276
L53870 35257
L53889 35238
L53898 35220
" />
<path d="M53907 35501
L54039 35501
" />
<path d="M53907 35417
L54010 35417
L54029 35426
L54039 35445
L54039 35473
L54029 35492
L54020 35501
" />
<path d="M53935 35661
L53935 35595
" />
<path d="M54039 35595
L53842 35595
L53842 35689
" />
</g>
<g style="fill:#000000; fill-opacity:0.0; 
stroke:#000000; stroke-width:120; stroke-opacity:1; 
stroke-linecap:round; stroke-linejoin:round;">
<path d="M52514 31400
L52542 31371
L52571 31285
L52571 31228
L52542 31142
L52485 31085
L52428 31057
L52314 31028
L52228 31028
L52114 31057
L52057 31085
L52000 31142
L51971 31228
L51971 31285
L52000 31371
L52028 31400
" />
<path d="M52028 31628
L52000 31657
L51971 31714
L51971 31857
L52000 31914
L52028 31942
L52085 31971
L52142 31971
L52228 31942
L52571 31600
L52571 31971
" />
<path d="M53446 33339
L53446 33796
" />
<path d="M53675 33568
L53218 33568
" />
<path d="M54414 32800
L54442 32771
L54471 32685
L54471 32628
L54442 32542
L54385 32485
L54328 32457
L54214 32428
L54128 32428
L54014 32457
L53957 32485
L53900 32542
L53871 32628
L53871 32685
L53900 32771
L53928 32800
" />
<path d="M53871 33000
L53871 33371
L54100 33171
L54100 33257
L54128 33314
L54157 33342
L54214 33371
L54357 33371
L54414 33342
L54442 33314
L54471 33257
L54471 33085
L54442 33028
L54414 33000
" />
<path d="M55246 34539
L55246 34996
" />
<path d="M55475 34768
L55018 34768
" />
<path d="M56171 35057
L55571 35057
L55571 35200
L55600 35285
L55657 35342
L55714 35371
L55828 35400
L55914 35400
L56028 35371
L56085 35342
L56142 35285
L56171 35200
L56171 35057
" />
<path d="M56171 35971
L56171 35628
" />
<path d="M56171 35800
L55571 35800
L55657 35742
L55714 35685
L55742 35628
" />
</g>
<g style="fill:#000000; fill-opacity:0.0; 
stroke:#000000; stroke-width:39; stroke-opacity:1; 
stroke-linecap:round; stroke-linejoin:round;">
<path d="M54322 36162
L54322 36255
" />
<path d="M54379 36143
L54182 36209
L54379 36274
" />
<path d="M54379 34739
L54182 34739
" />
<path d="M54379 34851
L54266 34767
" />
<path d="M54182 34851
L54294 34739
" />
</g>
<g style="fill:#000000; fill-opacity:0.0; 
stroke:#000000; stroke-width:120; stroke-opacity:1; 
stroke-linecap:round; stroke-linejoin:round;">
<path d="M58871 33800
L58871 33514
L58271 33514
" />
<path d="M58871 34314
L58871 33971
" />
<path d="M58871 34142
L58271 34142
L58357 34085
L58414 34028
L58442 33971
" />
</g>
<g style="fill:#000000; fill-opacity:0.0; 
stroke:#000000; stroke-width:43; stroke-opacity:1; 
stroke-linecap:round; stroke-linejoin:round;">
<path d="M52064 37067
L51970 37001
" />
<path d="M52064 36954
L51867 36954
L51867 37029
L51876 37048
L51885 37057
L51904 37067
L51932 37067
L51951 37057
L51960 37048
L51970 37029
L51970 36954
" />
<path d="M52064 37254
L52064 37142
" />
<path d="M52064 37198
L51867 37198
L51895 37179
L51914 37160
L51923 37142
" />
<path d="M52142 36812
L52142 36831
L52151 36849
L52160 36859
L52179 36868
L52217 36877
L52264 36877
L52301 36868
L52320 36859
L52329 36849
L52339 36831
L52339 36812
L52329 36793
L52320 36784
L52301 36774
L52264 36765
L52217 36765
L52179 36774
L52160 36784
L52151 36793
L52142 36812
" />
<path d="M52329 36971
L52339 36971
L52357 36962
L52367 36953
" />
<path d="M52142 37150
L52142 37056
L52235 37046
L52226 37056
L52217 37074
L52217 37121
L52226 37140
L52235 37150
L52254 37159
L52301 37159
L52320 37150
L52329 37140
L52339 37121
L52339 37074
L52329 37056
L52320 37046
" />
<path d="M52142 37328
L52142 37290
L52151 37271
L52160 37262
L52189 37243
L52226 37234
L52301 37234
L52320 37243
L52329 37253
L52339 37271
L52339 37309
L52329 37328
L52320 37337
L52301 37347
L52254 37347
L52235 37337
L52226 37328
L52217 37309
L52217 37271
L52226 37253
L52235 37243
L52254 37234
" />
<path d="M52142 37525
L52142 37431
L52235 37422
L52226 37431
L52217 37450
L52217 37497
L52226 37515
L52235 37525
L52254 37534
L52301 37534
L52320 37525
L52329 37515
L52339 37497
L52339 37450
L52329 37431
L52320 37422
" />
<path d="M49932 34564
L49998 34470
" />
<path d="M50045 34564
L50045 34367
L49970 34367
L49951 34376
L49942 34385
L49932 34404
L49932 34432
L49942 34451
L49951 34460
L49970 34470
L50045 34470
" />
<path d="M49857 34385
L49848 34376
L49829 34367
L49782 34367
L49763 34376
L49754 34385
L49745 34404
L49745 34423
L49754 34451
L49867 34564
L49745 34564
" />
<path d="M49986 34707
L49986 34839
" />
<path d="M50032 34632
L50079 34773
L49957 34773
" />
<path d="M49901 34642
L49770 34642
L49854 34839
" />
<path d="M49695 34839
L49695 34642
" />
<path d="M49676 34764
L49620 34839
" />
<path d="M49620 34707
L49695 34782
" />
</g>
<g style="fill:#000000; fill-opacity:0.0; 
stroke:#000000; stroke-width:59.0551; stroke-opacity:1; 
stroke-linecap:round; stroke-linejoin:round;">
<path d="M52299 35084
L52299 35403
L52281 35440
L52262 35459
L52224 35478
L52149 35478
L52112 35459
L52093 35440
L52074 35403
L52074 35084
" />
<path d="M51681 35478
L51906 35478
" />
<path d="M51793 35478
L51793 35084
L51831 35140
L51868 35178
L51906 35196
" />
</g> 
</svg>
