<?xml version="1.0" standalone="no"?>
 <!DOCTYPE svg PUBLIC "-//W3C//DTD SVG 1.1//EN" 
 "http://www.w3.org/Graphics/SVG/1.1/DTD/svg11.dtd"> 
<svg xmlns="http://www.w3.org/2000/svg" version="1.1" 
    width="29.7002cm" height="21.0007cm" viewBox="0 0 116930 82680 ">
<title>SVG Picture created as PWMLED01B-MaskBottom.svg date 2016/12/31 00:44:34 </title>
  <desc>Picture generated by PCBNEW </desc>
<g style="fill:#000000; fill-opacity:1;stroke:#000000; stroke-opacity:1;
stroke-linecap:round; stroke-linejoin:round; "
 transform="translate(0 0) scale(1 1)">
</g>
<g style="fill:#000000; fill-opacity:0.0; 
stroke:#000000; stroke-width:-0.000393701; stroke-opacity:1; 
stroke-linecap:round; stroke-linejoin:round;">
</g>
<g style="fill:#000000; fill-opacity:0.0; 
stroke:#000000; stroke-width:39.3701; stroke-opacity:1; 
stroke-linecap:round; stroke-linejoin:round;">
<path d="M49100 42099
L49100 26300
" />
<path d="M60899 26300
L49100 26300
" />
<path d="M60899 42099
L60899 26300
" />
<path d="M49100 42099
L60899 42099
" />
</g>
<g style="fill:#000000; fill-opacity:0.0; 
stroke:#000000; stroke-width:0; stroke-opacity:1; 
stroke-linecap:round; stroke-linejoin:round;">
</g>
<g style="fill:#000000; fill-opacity:1.0; 
stroke:#000000; stroke-width:0; stroke-opacity:1; 
stroke-linecap:round; stroke-linejoin:round;">
<polyline style="fill-rule:evenodd;"
points="53525,34850
54075,34850
54075,35200
53525,35200
53525,34850
" /> 
<polyline style="fill-rule:evenodd;"
points="53525,35600
54075,35600
54075,35950
53525,35950
53525,35600
" /> 
<polyline style="fill-rule:evenodd;"
points="52892,31108
51908,31108
51908,30104
52892,30104
52892,31108
" /> 
<polyline style="fill-rule:evenodd;"
points="52892,33096
51908,33096
51908,32092
52892,32092
52892,33096
" /> 
<polyline style="fill-rule:evenodd;"
points="54692,32308
53708,32308
53708,31304
54692,31304
54692,32308
" /> 
<polyline style="fill-rule:evenodd;"
points="54692,34296
53708,34296
53708,33292
54692,33292
54692,34296
" /> 
<polyline style="fill-rule:evenodd;"
points="55234,36445
54565,36445
54565,35933
55234,35933
55234,36445
" /> 
<polyline style="fill-rule:evenodd;"
points="55234,35067
54565,35067
54565,34555
55234,34555
55234,35067
" /> 
<polyline style="fill-rule:evenodd;"
points="51300,38200
50700,38200
50700,37600
51300,37600
51300,38200
" /> 
<polyline style="fill-rule:evenodd;"
points="50300,38200
49700,38200
49700,37600
50300,37600
50300,38200
" /> 
<polyline style="fill-rule:evenodd;"
points="51300,37200
50700,37200
50700,36600
51300,36600
51300,37200
" /> 
<polyline style="fill-rule:evenodd;"
points="50300,37200
49700,37200
49700,36600
50300,36600
50300,37200
" /> 
<polyline style="fill-rule:evenodd;"
points="54650,39318
54650,40818
53150,40818
53150,39318
54650,39318
" /> 
<polyline style="fill-rule:evenodd;"
points="54650,37350
54650,38850
53150,38850
53150,37350
54650,37350
" /> 
<polyline style="fill-rule:evenodd;"
points="56650,39318
56650,40818
55150,40818
55150,39318
56650,39318
" /> 
<polyline style="fill-rule:evenodd;"
points="56650,37350
56650,38850
55150,38850
55150,37350
56650,37350
" /> 
<polyline style="fill-rule:evenodd;"
points="49700,30800
49700,30200
50300,30200
50300,30800
49700,30800
" /> 
<polyline style="fill-rule:evenodd;"
points="50700,30800
50700,30200
51300,30200
51300,30800
50700,30800
" /> 
<polyline style="fill-rule:evenodd;"
points="49700,31800
49700,31200
50300,31200
50300,31800
49700,31800
" /> 
<polyline style="fill-rule:evenodd;"
points="50700,31800
50700,31200
51300,31200
51300,31800
50700,31800
" /> 
<polyline style="fill-rule:evenodd;"
points="49700,32800
49700,32200
50300,32200
50300,32800
49700,32800
" /> 
<polyline style="fill-rule:evenodd;"
points="50700,32800
50700,32200
51300,32200
51300,32800
50700,32800
" /> 
<polyline style="fill-rule:evenodd;"
points="49700,33800
49700,33200
50300,33200
50300,33800
49700,33800
" /> 
<polyline style="fill-rule:evenodd;"
points="50700,33800
50700,33200
51300,33200
51300,33800
50700,33800
" /> 
<polyline style="fill-rule:evenodd;"
points="55450,29081
55450,27581
56950,27581
56950,29081
55450,29081
" /> 
<polyline style="fill-rule:evenodd;"
points="55450,31050
55450,29550
56950,29550
56950,31050
55450,31050
" /> 
<polyline style="fill-rule:evenodd;"
points="53450,29081
53450,27581
54950,27581
54950,29081
53450,29081
" /> 
<polyline style="fill-rule:evenodd;"
points="53450,31050
53450,29550
54950,29550
54950,31050
53450,31050
" /> 
<polyline style="fill-rule:evenodd;"
points="59182,32622
57017,32622
57017,31440
59182,31440
59182,32622
" /> 
<polyline style="fill-rule:evenodd;"
points="59182,36559
57017,36559
57017,35377
59182,35377
59182,36559
" /> 
<circle cx="58992.1" cy="40200" r="1181.1" /> 
</g>
<g style="fill:#000000; fill-opacity:1.0; 
stroke:#000000; stroke-width:137.795; stroke-opacity:1; 
stroke-linecap:round; stroke-linejoin:round;">
</g>
<g style="fill:#000000; fill-opacity:1.0; 
stroke:#000000; stroke-width:0; stroke-opacity:1; 
stroke-linecap:round; stroke-linejoin:round;">
<circle cx="58992.1" cy="28200" r="1181.1" /> 
</g>
<g style="fill:#000000; fill-opacity:1.0; 
stroke:#000000; stroke-width:137.795; stroke-opacity:1; 
stroke-linecap:round; stroke-linejoin:round;">
</g>
<g style="fill:#000000; fill-opacity:1.0; 
stroke:#000000; stroke-width:0; stroke-opacity:1; 
stroke-linecap:round; stroke-linejoin:round;">
<circle cx="51000" cy="28200" r="1181.1" /> 
</g>
<g style="fill:#000000; fill-opacity:1.0; 
stroke:#000000; stroke-width:137.795; stroke-opacity:1; 
stroke-linecap:round; stroke-linejoin:round;">
</g>
<g style="fill:#000000; fill-opacity:1.0; 
stroke:#000000; stroke-width:0; stroke-opacity:1; 
stroke-linecap:round; stroke-linejoin:round;">
<circle cx="51000" cy="40200" r="1181.1" /> 
</g>
<g style="fill:#000000; fill-opacity:1.0; 
stroke:#000000; stroke-width:137.795; stroke-opacity:1; 
stroke-linecap:round; stroke-linejoin:round;">
</g>
<g style="fill:#000000; fill-opacity:1.0; 
stroke:#000000; stroke-width:0; stroke-opacity:1; 
stroke-linecap:round; stroke-linejoin:round;">
<polyline style="fill-rule:evenodd;"
points="51825,36550
52375,36550
52375,36900
51825,36900
51825,36550
" /> 
<polyline style="fill-rule:evenodd;"
points="51825,37300
52375,37300
52375,37650
51825,37650
51825,37300
" /> 
<polyline style="fill-rule:evenodd;"
points="50450,34325
50450,34875
50100,34875
50100,34325
50450,34325
" /> 
<polyline style="fill-rule:evenodd;"
points="49700,34325
49700,34875
49350,34875
49350,34325
49700,34325
" /> 
<polyline style="fill-rule:evenodd;"
points="50866,35766
50866,35601
51476,35601
51476,35766
50866,35766
" /> 
<polyline style="fill-rule:evenodd;"
points="50866,35510
50866,35345
51476,35345
51476,35510
50866,35510
" /> 
<polyline style="fill-rule:evenodd;"
points="50866,35254
50866,35089
51476,35089
51476,35254
50866,35254
" /> 
<polyline style="fill-rule:evenodd;"
points="50866,34998
50866,34833
51476,34833
51476,34998
50866,34998
" /> 
<polyline style="fill-rule:evenodd;"
points="52523,34998
52523,34833
53133,34833
53133,34998
52523,34998
" /> 
<polyline style="fill-rule:evenodd;"
points="52523,35254
52523,35089
53133,35089
53133,35254
52523,35254
" /> 
<polyline style="fill-rule:evenodd;"
points="52523,35510
52523,35345
53133,35345
53133,35510
52523,35510
" /> 
<polyline style="fill-rule:evenodd;"
points="52523,35766
52523,35601
53133,35601
53133,35766
52523,35766
" /> 
<polyline style="fill-rule:evenodd;"
points="52000,35300
52000,34929
52330,34929
52330,35300
52000,35300
" /> 
<polyline style="fill-rule:evenodd;"
points="52000,35670
52000,35300
52330,35300
52330,35670
52000,35670
" /> 
<polyline style="fill-rule:evenodd;"
points="51669,35300
51669,34929
52000,34929
52000,35300
51669,35300
" /> 
<polyline style="fill-rule:evenodd;"
points="51669,35670
51669,35300
52000,35300
52000,35670
51669,35670
" /> 
</g> 
</svg>
