<?xml version="1.0" standalone="no"?>
 <!DOCTYPE svg PUBLIC "-//W3C//DTD SVG 1.1//EN" 
 "http://www.w3.org/Graphics/SVG/1.1/DTD/svg11.dtd"> 
<svg xmlns="http://www.w3.org/2000/svg" version="1.1" 
    width="29.7002cm" height="21.0007cm" viewBox="0 0 116930 82680 ">
<title>SVG Picture created as ISL03A-MLABa.svg date 2016/12/31 13:53:27 </title>
  <desc>Picture generated by PCBNEW </desc>
<g style="fill:#000000; fill-opacity:1;stroke:#000000; stroke-opacity:1;
stroke-linecap:round; stroke-linejoin:round; "
 transform="translate(0 0) scale(1 1)">
</g>
<g style="fill:#000000; fill-opacity:0.0; 
stroke:#000000; stroke-width:-0.000393701; stroke-opacity:1; 
stroke-linecap:round; stroke-linejoin:round;">
</g>
<g style="fill:#000000; fill-opacity:0.0; 
stroke:#000000; stroke-width:118.11; stroke-opacity:1; 
stroke-linecap:round; stroke-linejoin:round;">
<path d="M11556 -3640
L11604 -3640
L11653 -3615
L11677 -3591
L11702 -3542
L11726 -3445
L11726 -3323
L11702 -3225
L11677 -3177
L11653 -3152
L11604 -3128
L11556 -3128
L11507 -3152
L11483 -3177
L11458 -3225
L11434 -3323
L11434 -3445
L11458 -3542
L11483 -3591
L11507 -3615
L11556 -3640
" />
<path d="M11897 -3640
L12238 -3128
" />
<path d="M12238 -3640
L11897 -3128
" />
<path d="M12701 -3128
L12409 -3128
" />
<path d="M12555 -3128
L12555 -3640
L12506 -3567
L12457 -3518
L12409 -3494
" />
<path d="M13018 -3640
L13067 -3640
L13115 -3615
L13140 -3591
L13164 -3542
L13189 -3445
L13189 -3323
L13164 -3225
L13140 -3177
L13115 -3152
L13067 -3128
L13018 -3128
L12969 -3152
L12945 -3177
L12920 -3225
L12896 -3323
L12896 -3445
L12920 -3542
L12945 -3591
L12969 -3615
L13018 -3640
" />
<path d="M11556 -2920
L11604 -2920
L11653 -2895
L11677 -2871
L11702 -2822
L11726 -2725
L11726 -2603
L11702 -2505
L11677 -2457
L11653 -2432
L11604 -2408
L11556 -2408
L11507 -2432
L11483 -2457
L11458 -2505
L11434 -2603
L11434 -2725
L11458 -2822
L11483 -2871
L11507 -2895
L11556 -2920
" />
<path d="M11897 -2920
L12238 -2408
" />
<path d="M12238 -2920
L11897 -2408
" />
<path d="M12652 -2749
L12652 -2408
" />
<path d="M12530 -2944
L12409 -2579
L12725 -2579
" />
<path d="M12994 -2700
L12945 -2725
L12920 -2749
L12896 -2798
L12896 -2822
L12920 -2871
L12945 -2895
L12994 -2920
L13091 -2920
L13140 -2895
L13164 -2871
L13189 -2822
L13189 -2798
L13164 -2749
L13140 -2725
L13091 -2700
L12994 -2700
L12945 -2676
L12920 -2652
L12896 -2603
L12896 -2505
L12920 -2457
L12945 -2432
L12994 -2408
L13091 -2408
L13140 -2432
L13164 -2457
L13189 -2505
L13189 -2603
L13164 -2652
L13140 -2676
L13091 -2700
" />
<path d="M13595 -3048
L13595 -3560
" />
<path d="M13838 -3048
L13838 -3560
L14131 -3048
L14131 -3560
" />
<path d="M14302 -3560
L14594 -3560
" />
<path d="M14448 -3048
L14448 -3560
" />
<path d="M11426 -1288
L11426 -1800
L11597 -1434
L11768 -1800
L11768 -1288
" />
<path d="M12255 -1288
L12011 -1288
L12011 -1800
" />
<path d="M12401 -1434
L12645 -1434
" />
<path d="M12353 -1288
L12523 -1800
L12694 -1288
" />
<path d="M13035 -1556
L13108 -1532
L13133 -1507
L13157 -1459
L13157 -1385
L13133 -1337
L13108 -1312
L13059 -1288
L12864 -1288
L12864 -1800
L13035 -1800
L13084 -1775
L13108 -1751
L13133 -1702
L13133 -1654
L13108 -1605
L13084 -1580
L13035 -1556
L12864 -1556
" />
<path d="M12342 -388
L12342 -900
" />
<path d="M12561 -412
L12634 -388
L12756 -388
L12805 -412
L12829 -437
L12854 -485
L12854 -534
L12829 -583
L12805 -607
L12756 -632
L12659 -656
L12610 -680
L12586 -705
L12561 -754
L12561 -802
L12586 -851
L12610 -875
L12659 -900
L12781 -900
L12854 -875
" />
<path d="M13317 -388
L13073 -388
L13073 -900
" />
<path d="M13585 -900
L13634 -900
L13682 -875
L13707 -851
L13731 -802
L13755 -705
L13755 -583
L13731 -485
L13707 -437
L13682 -412
L13634 -388
L13585 -388
L13536 -412
L13512 -437
L13487 -485
L13463 -583
L13463 -705
L13487 -802
L13512 -851
L13536 -875
L13585 -900
" />
<path d="M13926 -900
L14243 -900
L14072 -705
L14145 -705
L14194 -680
L14218 -656
L14243 -607
L14243 -485
L14218 -437
L14194 -412
L14145 -388
L13999 -388
L13950 -412
L13926 -437
" />
<path d="M14438 -534
L14682 -534
" />
<path d="M14389 -388
L14560 -900
L14730 -388
" />
<path d="M4230 -1208
L4255 -1257
L4255 -1330
L4230 -1403
L4182 -1451
L4133 -1476
L4035 -1500
L3962 -1500
L3865 -1476
L3816 -1451
L3767 -1403
L3743 -1330
L3743 -1281
L3767 -1208
L3792 -1183
L3962 -1183
L3962 -1281
" />
<path d="M3743 -964
L4255 -964
L3743 -672
L4255 -672
" />
<path d="M3743 -428
L4255 -428
L4255 -306
L4230 -233
L4182 -184
L4133 -160
L4035 -135
L3962 -135
L3865 -160
L3816 -184
L3767 -233
L3743 -306
L3743 -428
" />
<path d="M4792 -1475
L4768 -1402
L4768 -1280
L4792 -1232
L4817 -1207
L4865 -1183
L4914 -1183
L4963 -1207
L4987 -1232
L5012 -1280
L5036 -1378
L5060 -1426
L5085 -1451
L5134 -1475
L5182 -1475
L5231 -1451
L5255 -1426
L5280 -1378
L5280 -1256
L5255 -1183
" />
<path d="M4768 -963
L5280 -963
L5280 -842
L5255 -768
L5207 -720
L5158 -695
L5060 -671
L4987 -671
L4890 -695
L4841 -720
L4792 -768
L4768 -842
L4768 -963
" />
<path d="M4914 -476
L4914 -232
" />
<path d="M4768 -525
L5280 -354
L4768 -184
" />
<path d="M6772 -1485
L6748 -1412
L6748 -1290
L6772 -1242
L6797 -1217
L6845 -1193
L6894 -1193
L6943 -1217
L6967 -1242
L6992 -1290
L7016 -1388
L7040 -1436
L7065 -1461
L7114 -1485
L7162 -1485
L7211 -1461
L7235 -1436
L7260 -1388
L7260 -1266
L7235 -1193
" />
<path d="M6797 -681
L6772 -705
L6748 -778
L6748 -827
L6772 -900
L6821 -949
L6870 -973
L6967 -998
L7040 -998
L7138 -973
L7187 -949
L7235 -900
L7260 -827
L7260 -778
L7235 -705
L7211 -681
" />
<path d="M6748 -218
L6748 -462
L7260 -462
" />
<path d="M6280 -1500
L6280 -1183
L6085 -1353
L6085 -1280
L6060 -1232
L6036 -1207
L5987 -1183
L5865 -1183
L5817 -1207
L5792 -1232
L5768 -1280
L5768 -1426
L5792 -1475
L5817 -1500
" />
<path d="M6280 -1037
L5768 -866
L6280 -695
" />
<path d="M6280 -573
L6280 -257
L6085 -427
L6085 -354
L6060 -305
L6036 -281
L5987 -257
L5865 -257
L5817 -281
L5792 -305
L5768 -354
L5768 -500
L5792 -549
L5817 -573
" />
</g>
<g style="fill:#000000; fill-opacity:0.0; 
stroke:#000000; stroke-width:59.0551; stroke-opacity:1; 
stroke-linecap:round; stroke-linejoin:round;">
<path d="M100 -100
L100 -3900
" />
<path d="M15900 -100
L15900 -3900
" />
<path d="M100 -100
L15900 -100
" />
<path d="M100 -3900
L15900 -3900
" />
<path d="M3500 -1800
L3500 -3800
" />
<path d="M3500 -3800
L8500 -3800
" />
<path d="M8500 -3800
L8500 -1800
" />
<path d="M8500 -1800
L3500 -1800
" />
<path d="M14800 -3800
L15800 -3800
" />
<path d="M15800 -3800
L15800 -2800
" />
<path d="M15800 -2800
L14800 -2800
" />
<path d="M14800 -2800
L14800 -3800
" />
<path d="M100 -100
L100 -3900
" />
<path d="M15900 -100
L15900 -3900
" />
<path d="M100 -100
L15900 -100
" />
<path d="M100 -3900
L15900 -3900
" />
</g>
<g style="fill:#000000; fill-opacity:1.0; 
stroke:#000000; stroke-width:0; stroke-opacity:1; 
stroke-linecap:round; stroke-linejoin:round;">
<circle cx="10000" cy="-2000" r="1228.35" /> 
</g>
<g style="fill:#000000; fill-opacity:1.0; 
stroke:#000000; stroke-width:137.795; stroke-opacity:1; 
stroke-linecap:round; stroke-linejoin:round;">
</g>
<g style="fill:#000000; fill-opacity:1.0; 
stroke:#000000; stroke-width:0; stroke-opacity:1; 
stroke-linecap:round; stroke-linejoin:round;">
<circle cx="2000" cy="-2000" r="1228.35" /> 
</g>
<g style="fill:#000000; fill-opacity:1.0; 
stroke:#000000; stroke-width:137.795; stroke-opacity:1; 
stroke-linecap:round; stroke-linejoin:round;">
</g>
<g style="fill:#000000; fill-opacity:1.0; 
stroke:#000000; stroke-width:0; stroke-opacity:1; 
stroke-linecap:round; stroke-linejoin:round;">
<polyline style="fill-rule:evenodd;"
points="4347,-1952
3652,-1952
3652,-2647
4347,-2647
4347,-1952
" /> 
<polyline style="fill-rule:evenodd;"
points="4347,-2952
3652,-2952
3652,-3647
4347,-3647
4347,-2952
" /> 
<polyline style="fill-rule:evenodd;"
points="5347,-1952
4652,-1952
4652,-2647
5347,-2647
5347,-1952
" /> 
<polyline style="fill-rule:evenodd;"
points="5347,-2952
4652,-2952
4652,-3647
5347,-3647
5347,-2952
" /> 
<polyline style="fill-rule:evenodd;"
points="6347,-1952
5652,-1952
5652,-2647
6347,-2647
6347,-1952
" /> 
<polyline style="fill-rule:evenodd;"
points="6347,-2952
5652,-2952
5652,-3647
6347,-3647
6347,-2952
" /> 
<polyline style="fill-rule:evenodd;"
points="7347,-1952
6652,-1952
6652,-2647
7347,-2647
7347,-1952
" /> 
<polyline style="fill-rule:evenodd;"
points="7347,-2952
6652,-2952
6652,-3647
7347,-3647
7347,-2952
" /> 
<polyline style="fill-rule:evenodd;"
points="8347,-1952
7652,-1952
7652,-2647
8347,-2647
8347,-1952
" /> 
<polyline style="fill-rule:evenodd;"
points="8347,-2952
7652,-2952
7652,-3647
8347,-3647
8347,-2952
" /> 
<polyline style="fill-rule:evenodd;"
points="14952,-2952
14952,-3647
15647,-3647
15647,-2952
14952,-2952
" /> 
</g> 
</svg>
