<?xml version="1.0" standalone="no"?>
 <!DOCTYPE svg PUBLIC "-//W3C//DTD SVG 1.1//EN" 
 "http://www.w3.org/Graphics/SVG/1.1/DTD/svg11.dtd"> 
<svg xmlns="http://www.w3.org/2000/svg" version="1.1" 
    width="29.7002cm" height="21.0007cm" viewBox="0 0 116930 82680 ">
<title>SVG Picture created as ISL03A-MLABb.svg date 2016/12/31 13:53:27 </title>
  <desc>Picture generated by PCBNEW </desc>
<g style="fill:#000000; fill-opacity:1;stroke:#000000; stroke-opacity:1;
stroke-linecap:round; stroke-linejoin:round; "
 transform="translate(0 0) scale(1 1)">
</g>
<g style="fill:#000000; fill-opacity:0.0; 
stroke:#000000; stroke-width:-0.000393701; stroke-opacity:1; 
stroke-linecap:round; stroke-linejoin:round;">
</g>
<g style="fill:#000000; fill-opacity:0.0; 
stroke:#000000; stroke-width:59.0551; stroke-opacity:1; 
stroke-linecap:round; stroke-linejoin:round;">
<path d="M116830 -100
L116830 -3900
" />
<path d="M101030 -100
L101030 -3900
" />
<path d="M116830 -100
L101030 -100
" />
<path d="M116830 -3900
L101030 -3900
" />
<circle cx="103730" cy="-2500" r="50" /> 
<path d="M104180 -2500
L103780 -2500
" />
<path d="M103780 -2500
L103780 -3100
" />
<path d="M103780 -3100
L104180 -3100
" />
<path d="M104580 -3100
L104980 -3100
" />
<path d="M104980 -3100
L104980 -2500
" />
<path d="M104980 -2500
L104580 -2500
" />
<circle cx="103730" cy="-1750" r="50" /> 
<path d="M104180 -1750
L103780 -1750
" />
<path d="M103780 -1750
L103780 -2350
" />
<path d="M103780 -2350
L104180 -2350
" />
<path d="M104580 -2350
L104980 -2350
" />
<path d="M104980 -2350
L104980 -1750
" />
<path d="M104980 -1750
L104580 -1750
" />
<circle cx="105030" cy="-1600" r="50" /> 
<path d="M104580 -1600
L104980 -1600
" />
<path d="M104980 -1600
L104980 -1000
" />
<path d="M104980 -1000
L104580 -1000
" />
<path d="M104180 -1000
L103780 -1000
" />
<path d="M103780 -1000
L103780 -1600
" />
<path d="M103780 -1600
L104180 -1600
" />
<circle cx="105030" cy="-3825" r="50" /> 
<path d="M104580 -3825
L104980 -3825
" />
<path d="M104980 -3825
L104980 -3225
" />
<path d="M104980 -3225
L104580 -3225
" />
<path d="M104180 -3225
L103780 -3225
" />
<path d="M103780 -3225
L103780 -3825
" />
<path d="M103780 -3825
L104180 -3825
" />
<circle cx="105030" cy="-850" r="50" /> 
<path d="M104580 -850
L104980 -850
" />
<path d="M104980 -850
L104980 -250
" />
<path d="M104980 -250
L104580 -250
" />
<path d="M104180 -250
L103780 -250
" />
<path d="M103780 -250
L103780 -850
" />
<path d="M103780 -850
L104180 -850
" />
<circle cx="103205" cy="-950" r="50" /> 
<path d="M102755 -950
L103155 -950
" />
<path d="M103155 -950
L103155 -350
" />
<path d="M103155 -350
L102755 -350
" />
<path d="M102355 -350
L101955 -350
" />
<path d="M101955 -350
L101955 -950
" />
<path d="M101955 -950
L102355 -950
" />
<circle cx="101905" cy="-1125" r="50" /> 
<path d="M101905 -1575
L101905 -1175
" />
<path d="M101905 -1175
L101305 -1175
" />
<path d="M101305 -1175
L101305 -1575
" />
<path d="M101305 -1975
L101305 -2375
" />
<path d="M101305 -2375
L101905 -2375
" />
<path d="M101905 -2375
L101905 -1975
" />
<path d="M111299 -1120
L111693 -706
" />
<path d="M111693 -706
L111693 -1494
" />
<path d="M111693 -1494
L111299 -1100
" />
<path d="M111299 -687
L111299 -1513
" />
<path d="M103095 -2785
L103280 -2590
" />
<path d="M102511 -2006
L102511 -2793
" />
<path d="M102511 -2793
L103298 -2793
" />
<path d="M103298 -2793
L103298 -2006
" />
<path d="M103298 -2006
L102511 -2006
" />
</g>
<g style="fill:#000000; fill-opacity:0.0; 
stroke:#000000; stroke-width:43; stroke-opacity:1; 
stroke-linecap:round; stroke-linejoin:round;">
<path d="M104347 -2854
L104337 -2845
L104309 -2835
L104290 -2835
L104262 -2845
L104243 -2864
L104234 -2882
L104225 -2920
L104225 -2948
L104234 -2985
L104243 -3004
L104262 -3023
L104290 -3032
L104309 -3032
L104337 -3023
L104347 -3014
" />
<path d="M104534 -2835
L104422 -2835
" />
<path d="M104478 -2835
L104478 -3032
L104459 -3004
L104440 -2985
L104422 -2976
" />
<path d="M104218 -2560
L104106 -2560
" />
<path d="M104162 -2560
L104162 -2757
L104143 -2729
L104125 -2710
L104106 -2701
" />
<path d="M104340 -2757
L104359 -2757
L104378 -2748
L104387 -2739
L104397 -2720
L104406 -2682
L104406 -2635
L104397 -2598
L104387 -2579
L104378 -2570
L104359 -2560
L104340 -2560
L104322 -2570
L104312 -2579
L104303 -2598
L104293 -2635
L104293 -2682
L104303 -2720
L104312 -2739
L104322 -2748
L104340 -2757
" />
<path d="M104575 -2692
L104575 -2560
" />
<path d="M104490 -2692
L104490 -2589
L104500 -2570
L104519 -2560
L104547 -2560
L104566 -2570
L104575 -2579
" />
<path d="M104734 -2664
L104669 -2664
" />
<path d="M104669 -2560
L104669 -2757
L104763 -2757
" />
<path d="M104347 -2104
L104337 -2095
L104309 -2085
L104290 -2085
L104262 -2095
L104243 -2114
L104234 -2132
L104225 -2170
L104225 -2198
L104234 -2235
L104243 -2254
L104262 -2273
L104290 -2282
L104309 -2282
L104337 -2273
L104347 -2264
" />
<path d="M104422 -2264
L104431 -2273
L104450 -2282
L104497 -2282
L104516 -2273
L104525 -2264
L104534 -2245
L104534 -2226
L104525 -2198
L104412 -2085
L104534 -2085
" />
<path d="M104125 -1810
L104012 -1810
" />
<path d="M104068 -1810
L104068 -2007
L104050 -1979
L104031 -1960
L104012 -1951
" />
<path d="M104247 -2007
L104265 -2007
L104284 -1998
L104293 -1989
L104303 -1970
L104312 -1932
L104312 -1885
L104303 -1848
L104293 -1829
L104284 -1820
L104265 -1810
L104247 -1810
L104228 -1820
L104218 -1829
L104209 -1848
L104200 -1885
L104200 -1932
L104209 -1970
L104218 -1989
L104228 -1998
L104247 -2007
" />
<path d="M104434 -2007
L104453 -2007
L104472 -1998
L104481 -1989
L104490 -1970
L104500 -1932
L104500 -1885
L104490 -1848
L104481 -1829
L104472 -1820
L104453 -1810
L104434 -1810
L104415 -1820
L104406 -1829
L104397 -1848
L104387 -1885
L104387 -1932
L104397 -1970
L104406 -1989
L104415 -1998
L104434 -2007
" />
<path d="M104584 -1942
L104584 -1810
" />
<path d="M104584 -1923
L104594 -1932
L104612 -1942
L104641 -1942
L104659 -1932
L104669 -1914
L104669 -1810
" />
<path d="M104828 -1914
L104763 -1914
" />
<path d="M104763 -1810
L104763 -2007
L104856 -2007
" />
<path d="M104347 -1085
L104281 -1179
" />
<path d="M104234 -1085
L104234 -1282
L104309 -1282
L104328 -1273
L104337 -1264
L104347 -1245
L104347 -1217
L104337 -1198
L104328 -1189
L104309 -1179
L104234 -1179
" />
<path d="M104534 -1085
L104422 -1085
" />
<path d="M104478 -1085
L104478 -1282
L104459 -1254
L104440 -1235
L104422 -1226
" />
<path d="M104193 -1492
L104193 -1360
" />
<path d="M104147 -1567
L104100 -1426
L104222 -1426
" />
<path d="M104297 -1360
L104297 -1557
" />
<path d="M104315 -1435
L104372 -1360
" />
<path d="M104372 -1492
L104297 -1417
" />
<path d="M104437 -1557
L104569 -1557
L104484 -1360
" />
<path d="M104347 -3310
L104281 -3404
" />
<path d="M104234 -3310
L104234 -3507
L104309 -3507
L104328 -3498
L104337 -3489
L104347 -3470
L104347 -3442
L104337 -3423
L104328 -3414
L104309 -3404
L104234 -3404
" />
<path d="M104422 -3489
L104431 -3498
L104450 -3507
L104497 -3507
L104516 -3498
L104525 -3489
L104534 -3470
L104534 -3451
L104525 -3423
L104412 -3310
L104534 -3310
" />
<path d="M104193 -3717
L104193 -3585
" />
<path d="M104147 -3792
L104100 -3651
L104222 -3651
" />
<path d="M104297 -3585
L104297 -3782
" />
<path d="M104315 -3660
L104372 -3585
" />
<path d="M104372 -3717
L104297 -3642
" />
<path d="M104437 -3782
L104569 -3782
L104484 -3585
" />
<path d="M104347 -335
L104281 -429
" />
<path d="M104234 -335
L104234 -532
L104309 -532
L104328 -523
L104337 -514
L104347 -495
L104347 -467
L104337 -448
L104328 -439
L104309 -429
L104234 -429
" />
<path d="M104412 -532
L104534 -532
L104469 -457
L104497 -457
L104516 -448
L104525 -439
L104534 -420
L104534 -373
L104525 -354
L104516 -345
L104497 -335
L104440 -335
L104422 -345
L104412 -354
" />
<path d="M104254 -685
L104405 -685
" />
<path d="M102522 -435
L102456 -529
" />
<path d="M102409 -435
L102409 -632
L102484 -632
L102503 -623
L102512 -614
L102522 -595
L102522 -567
L102512 -548
L102503 -539
L102484 -529
L102409 -529
" />
<path d="M102691 -567
L102691 -435
" />
<path d="M102644 -642
L102597 -501
L102719 -501
" />
<path d="M102397 -907
L102415 -907
L102434 -898
L102444 -889
L102453 -870
L102462 -832
L102462 -785
L102453 -748
L102444 -729
L102434 -720
L102415 -710
L102397 -710
L102378 -720
L102368 -729
L102359 -748
L102350 -785
L102350 -832
L102359 -870
L102368 -889
L102378 -898
L102397 -907
" />
<path d="M102659 -710
L102594 -804
" />
<path d="M102547 -710
L102547 -907
L102622 -907
L102641 -898
L102650 -889
L102659 -870
L102659 -842
L102650 -823
L102641 -814
L102622 -804
L102547 -804
" />
<path d="M101390 -1807
L101484 -1873
" />
<path d="M101390 -1920
L101587 -1920
L101587 -1845
L101578 -1826
L101569 -1817
L101550 -1807
L101522 -1807
L101503 -1817
L101494 -1826
L101484 -1845
L101484 -1920
" />
<path d="M101587 -1629
L101587 -1723
L101494 -1732
L101503 -1723
L101512 -1704
L101512 -1657
L101503 -1638
L101494 -1629
L101475 -1620
L101428 -1620
L101409 -1629
L101400 -1638
L101390 -1657
L101390 -1704
L101400 -1723
L101409 -1732
" />
<path d="M101665 -1942
L101665 -2054
" />
<path d="M101665 -1998
L101862 -1998
L101834 -2017
L101815 -2036
L101806 -2054
" />
<path d="M101862 -1820
L101862 -1801
L101853 -1782
L101844 -1773
L101825 -1764
L101787 -1754
L101740 -1754
L101703 -1764
L101684 -1773
L101675 -1782
L101665 -1801
L101665 -1820
L101675 -1839
L101684 -1848
L101703 -1857
L101740 -1867
L101787 -1867
L101825 -1857
L101844 -1848
L101853 -1839
L101862 -1820
" />
<path d="M101665 -1670
L101862 -1670
" />
<path d="M101740 -1651
L101665 -1595
" />
<path d="M101797 -1595
L101722 -1670
" />
</g>
<g style="fill:#000000; fill-opacity:0.0; 
stroke:#000000; stroke-width:120; stroke-opacity:1; 
stroke-linecap:round; stroke-linejoin:round;">
<path d="M111027 -1768
L111027 -2368
L111170 -2368
L111255 -2340
L111312 -2282
L111341 -2225
L111370 -2111
L111370 -2025
L111341 -1911
L111312 -1854
L111255 -1797
L111170 -1768
L111027 -1768
" />
<path d="M111941 -1768
L111598 -1768
" />
<path d="M111770 -1768
L111770 -2368
L111712 -2282
L111655 -2225
L111598 -2197
" />
</g>
<g style="fill:#000000; fill-opacity:0.0; 
stroke:#000000; stroke-width:39; stroke-opacity:1; 
stroke-linecap:round; stroke-linejoin:round;">
<path d="M112217 -1677
L112310 -1677
" />
<path d="M112198 -1620
L112264 -1817
L112329 -1620
" />
<path d="M110794 -1620
L110794 -1817
" />
<path d="M110906 -1620
L110822 -1733
" />
<path d="M110906 -1817
L110794 -1705
" />
</g>
<g style="fill:#000000; fill-opacity:0.0; 
stroke:#000000; stroke-width:59.0551; stroke-opacity:1; 
stroke-linecap:round; stroke-linejoin:round;">
<path d="M103045 -2659
L102726 -2659
L102689 -2641
L102670 -2622
L102651 -2584
L102651 -2509
L102670 -2472
L102689 -2453
L102726 -2434
L103045 -2434
" />
<path d="M102651 -2041
L102651 -2266
" />
<path d="M102651 -2153
L103045 -2153
L102989 -2191
L102951 -2228
L102933 -2266
" />
</g> 
</svg>
