<?xml version="1.0" standalone="no"?>
 <!DOCTYPE svg PUBLIC "-//W3C//DTD SVG 1.1//EN" 
 "http://www.w3.org/Graphics/SVG/1.1/DTD/svg11.dtd"> 
<svg xmlns="http://www.w3.org/2000/svg" version="1.1" 
    width="29.7002cm" height="21.0007cm" viewBox="0 0 116930 82680 ">
<title>SVG Picture created as PWMLED01B-MLABb.svg date 2016/12/31 13:21:34 </title>
  <desc>Picture generated by PCBNEW </desc>
<g style="fill:#000000; fill-opacity:1;stroke:#000000; stroke-opacity:1;
stroke-linecap:round; stroke-linejoin:round; "
 transform="translate(0 0) scale(1 1)">
</g>
<g style="fill:#000000; fill-opacity:0.0; 
stroke:#000000; stroke-width:-0.000393701; stroke-opacity:1; 
stroke-linecap:round; stroke-linejoin:round;">
</g>
<g style="fill:#000000; fill-opacity:0.0; 
stroke:#000000; stroke-width:39.3701; stroke-opacity:1; 
stroke-linecap:round; stroke-linejoin:round;">
<path d="M67829 42099
L67829 26300
" />
<path d="M56030 26300
L67829 26300
" />
<path d="M56030 42099
L56030 26300
" />
<path d="M67829 42099
L56030 42099
" />
</g>
<g style="fill:#000000; fill-opacity:0.0; 
stroke:#000000; stroke-width:59.0551; stroke-opacity:1; 
stroke-linecap:round; stroke-linejoin:round;">
<circle cx="62830" cy="34750" r="50" /> 
<path d="M62830 35200
L62830 34800
" />
<path d="M62830 34800
L63430 34800
" />
<path d="M63430 34800
L63430 35200
" />
<path d="M63430 35600
L63430 36000
" />
<path d="M63430 36000
L62830 36000
" />
<path d="M62830 36000
L62830 35600
" />
<path d="M63861 33293
L65199 33293
" />
<path d="M65199 30419
L65199 32781
" />
<path d="M63861 30419
L63861 32781
" />
<path d="M63328 33569
L63761 33569
" />
<path d="M63525 33805
L63525 33333
" />
<path d="M62061 34493
L63399 34493
" />
<path d="M63399 31619
L63399 33981
" />
<path d="M62061 31619
L62061 33981
" />
<path d="M61528 34769
L61961 34769
" />
<path d="M61725 35005
L61725 34533
" />
<path d="M62050 35244
L61636 35638
" />
<path d="M61636 35638
L62424 35638
" />
<path d="M62424 35638
L62030 35244
" />
<path d="M61617 35244
L62443 35244
" />
<path d="M56270 36559
L61389 36559
" />
<path d="M61389 36559
L61389 31440
" />
<path d="M61389 31440
L56270 31440
" />
<path d="M56270 31440
L56270 36559
" />
<path d="M58830 32200
L58830 32500
" />
<path d="M58680 32350
L58980 32350
" />
<circle cx="64530" cy="36450" r="50" /> 
<path d="M64530 36900
L64530 36500
" />
<path d="M64530 36500
L65130 36500
" />
<path d="M65130 36500
L65130 36900
" />
<path d="M65130 37300
L65130 37700
" />
<path d="M65130 37700
L64530 37700
" />
<path d="M64530 37700
L64530 37300
" />
<circle cx="66380" cy="34900" r="50" /> 
<path d="M66830 34900
L66430 34900
" />
<path d="M66430 34900
L66430 34300
" />
<path d="M66430 34300
L66830 34300
" />
<path d="M67230 34300
L67630 34300
" />
<path d="M67630 34300
L67630 34900
" />
<path d="M67630 34900
L67230 34900
" />
<path d="M65569 35939
L65569 35855
" />
<path d="M64290 35939
L64290 35855
" />
<path d="M64290 34660
L64290 34744
" />
<path d="M65569 34660
L65569 34744
" />
<path d="M65569 35939
L64290 35939
" />
<path d="M65569 34660
L64290 34660
" />
<path d="M65569 35855
L65933 35855
" />
</g>
<g style="fill:#000000; fill-opacity:0.0; 
stroke:#000000; stroke-width:43; stroke-opacity:1; 
stroke-linecap:round; stroke-linejoin:round;">
<path d="M63184 35367
L63175 35357
L63165 35329
L63165 35310
L63175 35282
L63194 35263
L63212 35254
L63250 35245
L63278 35245
L63315 35254
L63334 35263
L63353 35282
L63362 35310
L63362 35329
L63353 35357
L63344 35367
" />
<path d="M63165 35554
L63165 35442
" />
<path d="M63165 35498
L63362 35498
L63334 35479
L63315 35460
L63306 35442
" />
<path d="M62890 35332
L62890 35220
" />
<path d="M62890 35276
L63087 35276
L63059 35257
L63040 35238
L63031 35220
" />
<path d="M63022 35501
L62890 35501
" />
<path d="M63022 35417
L62919 35417
L62900 35426
L62890 35445
L62890 35473
L62900 35492
L62909 35501
" />
<path d="M62994 35661
L62994 35595
" />
<path d="M62890 35595
L63087 35595
L63087 35689
" />
</g>
<g style="fill:#000000; fill-opacity:0.0; 
stroke:#000000; stroke-width:120; stroke-opacity:1; 
stroke-linecap:round; stroke-linejoin:round;">
<path d="M64415 31400
L64387 31371
L64358 31285
L64358 31228
L64387 31142
L64444 31085
L64501 31057
L64615 31028
L64701 31028
L64815 31057
L64872 31085
L64930 31142
L64958 31228
L64958 31285
L64930 31371
L64901 31400
" />
<path d="M64901 31628
L64930 31657
L64958 31714
L64958 31857
L64930 31914
L64901 31942
L64844 31971
L64787 31971
L64701 31942
L64358 31600
L64358 31971
" />
<path d="M63483 33339
L63483 33796
" />
<path d="M63254 33568
L63711 33568
" />
<path d="M62515 32800
L62487 32771
L62458 32685
L62458 32628
L62487 32542
L62544 32485
L62601 32457
L62715 32428
L62801 32428
L62915 32457
L62972 32485
L63030 32542
L63058 32628
L63058 32685
L63030 32771
L63001 32800
" />
<path d="M63058 33000
L63058 33371
L62830 33171
L62830 33257
L62801 33314
L62772 33342
L62715 33371
L62572 33371
L62515 33342
L62487 33314
L62458 33257
L62458 33085
L62487 33028
L62515 33000
" />
<path d="M61683 34539
L61683 34996
" />
<path d="M61454 34768
L61911 34768
" />
<path d="M60758 35057
L61358 35057
L61358 35200
L61330 35285
L61272 35342
L61215 35371
L61101 35400
L61015 35400
L60901 35371
L60844 35342
L60787 35285
L60758 35200
L60758 35057
" />
<path d="M60758 35971
L60758 35628
" />
<path d="M60758 35800
L61358 35800
L61272 35742
L61215 35685
L61187 35628
" />
</g>
<g style="fill:#000000; fill-opacity:0.0; 
stroke:#000000; stroke-width:39; stroke-opacity:1; 
stroke-linecap:round; stroke-linejoin:round;">
<path d="M62607 36162
L62607 36255
" />
<path d="M62550 36143
L62747 36209
L62550 36274
" />
<path d="M62550 34739
L62747 34739
" />
<path d="M62550 34851
L62663 34767
" />
<path d="M62747 34851
L62635 34739
" />
</g>
<g style="fill:#000000; fill-opacity:0.0; 
stroke:#000000; stroke-width:120; stroke-opacity:1; 
stroke-linecap:round; stroke-linejoin:round;">
<path d="M58058 33800
L58058 33514
L58658 33514
" />
<path d="M58058 34314
L58058 33971
" />
<path d="M58058 34142
L58658 34142
L58572 34085
L58515 34028
L58487 33971
" />
</g>
<g style="fill:#000000; fill-opacity:0.0; 
stroke:#000000; stroke-width:43; stroke-opacity:1; 
stroke-linecap:round; stroke-linejoin:round;">
<path d="M64865 37067
L64959 37001
" />
<path d="M64865 36954
L65062 36954
L65062 37029
L65053 37048
L65044 37057
L65025 37067
L64997 37067
L64978 37057
L64969 37048
L64959 37029
L64959 36954
" />
<path d="M64865 37254
L64865 37142
" />
<path d="M64865 37198
L65062 37198
L65034 37179
L65015 37160
L65006 37142
" />
<path d="M64787 36812
L64787 36831
L64778 36849
L64769 36859
L64750 36868
L64712 36877
L64665 36877
L64628 36868
L64609 36859
L64600 36849
L64590 36831
L64590 36812
L64600 36793
L64609 36784
L64628 36774
L64665 36765
L64712 36765
L64750 36774
L64769 36784
L64778 36793
L64787 36812
" />
<path d="M64600 36971
L64590 36971
L64572 36962
L64562 36953
" />
<path d="M64787 37150
L64787 37056
L64694 37046
L64703 37056
L64712 37074
L64712 37121
L64703 37140
L64694 37150
L64675 37159
L64628 37159
L64609 37150
L64600 37140
L64590 37121
L64590 37074
L64600 37056
L64609 37046
" />
<path d="M64787 37328
L64787 37290
L64778 37271
L64769 37262
L64740 37243
L64703 37234
L64628 37234
L64609 37243
L64600 37253
L64590 37271
L64590 37309
L64600 37328
L64609 37337
L64628 37347
L64675 37347
L64694 37337
L64703 37328
L64712 37309
L64712 37271
L64703 37253
L64694 37243
L64675 37234
" />
<path d="M64787 37525
L64787 37431
L64694 37422
L64703 37431
L64712 37450
L64712 37497
L64703 37515
L64694 37525
L64675 37534
L64628 37534
L64609 37525
L64600 37515
L64590 37497
L64590 37450
L64600 37431
L64609 37422
" />
<path d="M66997 34564
L66931 34470
" />
<path d="M66884 34564
L66884 34367
L66959 34367
L66978 34376
L66987 34385
L66997 34404
L66997 34432
L66987 34451
L66978 34460
L66959 34470
L66884 34470
" />
<path d="M67072 34385
L67081 34376
L67100 34367
L67147 34367
L67166 34376
L67175 34385
L67184 34404
L67184 34423
L67175 34451
L67062 34564
L67184 34564
" />
<path d="M66943 34707
L66943 34839
" />
<path d="M66897 34632
L66850 34773
L66972 34773
" />
<path d="M67028 34642
L67159 34642
L67075 34839
" />
<path d="M67234 34839
L67234 34642
" />
<path d="M67253 34764
L67309 34839
" />
<path d="M67309 34707
L67234 34782
" />
</g>
<g style="fill:#000000; fill-opacity:0.0; 
stroke:#000000; stroke-width:59.0551; stroke-opacity:1; 
stroke-linecap:round; stroke-linejoin:round;">
<path d="M64630 35084
L64630 35403
L64648 35440
L64667 35459
L64705 35478
L64780 35478
L64817 35459
L64836 35440
L64855 35403
L64855 35084
" />
<path d="M65248 35478
L65023 35478
" />
<path d="M65136 35478
L65136 35084
L65098 35140
L65061 35178
L65023 35196
" />
</g> 
</svg>
